/* XPM */
static char *enemy_4[] = {
/* columns rows colors chars-per-pixel */
"50 50 179 2 ",
"   c #060301",
".  c #0A0602",
"X  c #0F0903",
"o  c #120704",
"O  c #140D04",
"+  c #1A0E06",
"@  c #1D0709",
"#  c #171105",
"$  c #1D1406",
"%  c #1E1108",
"&  c #22070C",
"*  c #230D0A",
"=  c #290A0C",
"-  c #201507",
";  c #221B07",
":  c #241309",
">  c #2B130C",
",  c #261A08",
"<  c #2C1C0A",
"1  c #351C0D",
"2  c #391A0F",
"3  c #350C12",
"4  c #371212",
"5  c #3B1413",
"6  c #3B1A10",
"7  c #262007",
"8  c #2D2309",
"9  c #2F290A",
"0  c #33230B",
"q  c #3B250D",
"w  c #342B0B",
"e  c #3D2A0D",
"r  c #37330B",
"t  c #3C320C",
"y  c #3F2111",
"u  c #4C0B1C",
"i  c #441515",
"p  c #451C14",
"a  c #4B1C16",
"s  c #491319",
"d  c #4E1C18",
"f  c #581F16",
"g  c #53141C",
"h  c #5A151E",
"j  c #541D1B",
"k  c #5A1C1C",
"l  c #62151F",
"z  c #651C1E",
"x  c #6B1E1D",
"c  c #40260E",
"v  c #412B0F",
"b  c #42320E",
"n  c #48370F",
"m  c #433A0D",
"M  c #493D0F",
"N  c #442511",
"B  c #4B2414",
"V  c #432910",
"C  c #4B2B12",
"Z  c #522415",
"A  c #5C2616",
"S  c #542A14",
"D  c #5B2815",
"F  c #522318",
"G  c #5B221B",
"H  c #57281A",
"J  c #5C291C",
"K  c #4C3312",
"L  c #4D3C10",
"P  c #503012",
"I  c #583212",
"U  c #543F11",
"Y  c #583718",
"T  c #5C3919",
"R  c #602217",
"E  c #7C231F",
"W  c #772E1B",
"Q  c #643216",
"!  c #603915",
"~  c #693F17",
"^  c #64321E",
"/  c #6F3B18",
"(  c #743B1A",
")  c #793A1B",
"_  c #5F1721",
"`  c #5D1920",
"'  c #6D0E2A",
"]  c #710F2A",
"[  c #631523",
"{  c #691425",
"}  c #641C21",
"|  c #691822",
" . c #6D1228",
".. c #741526",
"X. c #7B1625",
"o. c #731A23",
"O. c #791E20",
"+. c #731229",
"@. c #721C28",
"#. c #6E2422",
"$. c #762B25",
"%. c #792D26",
"&. c #703622",
"*. c #4D420F",
"=. c #50460F",
"-. c #4E4310",
";. c #524411",
":. c #5C4313",
">. c #544B11",
",. c #5A4C10",
"<. c #565211",
"1. c #595512",
"2. c #5D5B12",
"3. c #634515",
"4. c #664419",
"5. c #6B4A1B",
"6. c #774E18",
"7. c #7B4B1A",
"8. c #665514",
"9. c #6D5617",
"0. c #645A13",
"q. c #695B13",
"w. c #675119",
"e. c #725916",
"r. c #7E5119",
"t. c #6B6214",
"y. c #6D6B14",
"u. c #726515",
"i. c #7A6616",
"p. c #736914",
"a. c #7C6816",
"s. c #777515",
"d. c #863F1D",
"f. c #831727",
"g. c #821D24",
"h. c #8A1E25",
"j. c #861429",
"k. c #931D26",
"l. c #931F28",
"z. c #832021",
"x. c #872921",
"c. c #8D3420",
"v. c #813A25",
"b. c #8E3A20",
"n. c #963323",
"m. c #82431D",
"M. c #95461F",
"N. c #944C1F",
"B. c #815B1C",
"V. c #93531E",
"C. c #866A17",
"Z. c #83601C",
"A. c #94691D",
"S. c #986B1C",
"D. c #867117",
"F. c #857C16",
"G. c #8B7D17",
"H. c #877418",
"J. c #8C7A18",
"K. c #9F711D",
"L. c #9B7C1D",
"P. c #864923",
"I. c #8B4F23",
"U. c #974422",
"Y. c #954922",
"T. c #8F5C22",
"R. c #925F22",
"E. c #9A5820",
"W. c #AB6E21",
"Q. c #AC7320",
"!. c #AE7D20",
"~. c #928418",
"^. c #9F841C",
"/. c #958919",
"(. c #A58E1C",
"). c #AC8C1D",
"_. c #A5951B",
"`. c #AA911D",
"'. c None",
/* pixels */
"'.'.'.'.'.'.'.'.'.'.'.'.'.'.'.'.'.'.'.'.'.'.'.'.'.'.'.'.'.'.'.'.'.'.'.'.'.'.'.'.'.'.'.'.'.'.'.'.'.'.",
"'.'.'.'.'.'.'.'.'.'.'.'.'.'.'.'.'.'.'.'.'.'.'.'.'.'.'.'.'.'.'.'.'.'.'.'.'.'.'.'.'.'.'.'.'.'.'.'.'.'.",
"'.'.'.'.'.'.'.'.'.'.'.'.'.'.'.'.'.'.'.'.'.'.'.'.'.'.'.'.'.'.'.'.'.'.'.'.'.'.'.'.'.'.'.'.'.'.'.'.'.'.",
"'.'.'.'.'.'.'.'.'.'.'.'.'.'.'.'.'.'.'.'.'.'.'.'.'.'.'.'.'.'.'.'.'.'.'.'.'.'.O O '.'.'.'.'.'.'.'.'.'.",
"'.'.'.'.'.'.'.'.'.'.'.'.'.'.'.'.'.'.'.'.'.'.'.'.'.'.'.'.'.'.'.'.'.'.'.'.'.* > > '.'.'.'.'.'.'.'.'.'.",
"'.'.'.'.'.'.'.'.'.'.'.'.'.'.'.'.'.'.'.'.'.'.'.'.'.'.'.'.'.'.'.'.'.'.'.'.'.3 h x N - '.'.'.'.'.'.'.'.",
"'.'.'.'.'.'.'.'.'.'.'.'.'.'.'.'.'.'.'.'.'.'.'.'.'.'.'.'.'.'.'.'.'.'.'.'.- i ..h.R < '.'.'.'.'.'.'.'.",
"'.'.'.'.'.'.'.'.'.'.'.'.'.'.'.'.'.'.'.'.'.'.'.'.'.'.'.'.'.'.'.'.'.'.'.'.$ 6 | f.g.a '.'.'.'.'.'.'.'.",
"'.'.'.'.'.'.'.'.'.'.'.'.'.'.'.'.'.'.'.'.'.'.'.'.'.'.'.'.'.'.'.'.'.'.'.'.$ 6 k ..k.R > '.'.'.'.'.'.'.",
"'.'.'.'.'.'.'.'.'.'.'.'.'.'.'.'.'.'.'.'.'.'.'.'.'.'.'.'.'.'.'.'.'.'.'.'.$ < B } k.E 2 . '.'.'.'.'.'.",
"'.'.'.'.'.'.'.'.'.'.'.'.'.'.'.'.'.'.'.'.'.'.'.'.'.'.'.'.'.'.'.'.'.'.'.'.$ 8 V j g.b.I $ '.'.'.'.'.'.",
"'.'.'.'.'.'.'.'.'.'.'.'.'.'.'.'.'.'.'.'.'.'.'.'.'.'.'.'.'.'.'.'.'.'.'.'.: q B j @.Y.r.e # '.'.'.'.'.",
"'.'.'.'.'.'.'.'.'.'.'.'.'.'.'.'.'.'.'.'.'.'.'.'.'.'.'.'.'.'.'.'.'.'.  o > d _ { ..U.S.,.$ '.'.'.'.'.",
"'.'.'.'.'.'.'.'.'.'.'.'.'.'.'.'.'.'.'.'.'.'.'.'.'.'.'.'.'.'.'.'.'.'.& = a [ ' ' +.n.E.:.$ '.'.'.'.'.",
"'.'.'.'.'.'.'.'.'.'.'.'.'.'.'.'.'.'.'.'.'.'.'.'.'.'.'.'.'.'.'.'.'.5 5 a x ..' ' +.k.x.B % '.'.'.'.'.",
"'.'.'.'.'.'.'.'.'.'.'.'.'.'.'.'.'.'.'.'.'.'.'.'.'.'.'.'.'.'.'.'.'.a B Z }  .' ' ] j...s + '.'.'.'.'.",
"'.'.'.'.'.'.'.'.'.'.'.'.'.'.'.'.'.'.'.'.'.'.'.'.'.'.'.'.'.'.'.'.'.N e V j [ ' ' ' ..{ i + '.'.'.'.'.",
"'.'.'.'.'.'.'.'.'.'.'.'.'.'.'.'.'.'.'.'.'.'.'.'.'.'.'.'.'.'.'.'.'.'.0 q N F ` ' ' [ G 6 $ , $ '.'.'.",
"'.'.'.'.'.'.'.'.'.'.'.'.'.'.'.'.'.'.'.'.'.'.'.'.'.'.'.'.'.'.'.'.'.'., e V V j [ { ` B 0 1 e 8 '.'.'.",
"'.'.'.'.'.'.'.'.'.'.'.'.'.'.'.'.'.'.'.'.'.'.'.'.'.'.'.'.'.'.'.'.'.'.'.e V V B ` [ j V V P 3.L '.'.'.",
"'.'.'.'.'.'.'.'.'.'.'.'.'.'.'.'.'.'.'.'.'.'.'.'.'.'.'.'.'.'.'.'.'.'.'.e v v V j [ H -.:.( 7.3.'.'.'.",
"'.'.'.'.'.'.'.'.'.'.'.'.'.'.'.'.'.'.'.'.'.'.'.'.'.'.'.'.'.'.'.'.'.'.'.e e v V B _ Y 1.w.v.c.! '.'.'.",
"'.'.'.'.'.'.'.'.'.'.'.'.'.'.'.'.'.'.'.'.'.'.'.'.'.'.'.'.'.'.'.'.'.'.'.v q e v V F K >.q.6.( q '.'.'.",
"'.'.'.'.'.'.'.'.'.'.'.'.'.'.'.'.'.'.'.'.'.'.'.'.'.'.'.'.'.'.'.'.'.'.'.'.0 0 V V e e L >.>.*., '.'.'.",
"'.'.'.'.'.'.'.'.'.'.'.'.'.'.'.'.'.'.'.'.'.'.'.'.'.'.'.'.'.'.'.'.u '.'.'.q e v v v v b t w '.'.'.'.'.",
"'.'.'.'.'.'.'.'.'.'.'.'.'.'.'.'.'.'.'.'.'.'.'.'.'.'.'.'.'.'.'.4 s [ '.'.C C v v :.Q ! L 8 '.'.'.'.'.",
"'.'.'.'.'.'.'.'.'.'.'.'.'.'.'.'.'.'.'.'.'.'.'.'.'.'.'.'.'.& i d B B j B R A V L C.M.V.a.U '.'.'.'.'.",
"'.'.'.'.'.'.'.'.'.'.'.'.'.'.'.'.'.'.'.'.'.'.'.'.'.'.'.'.3 3 N B V V B C R R v ;.L.W.Q.K.) '.'.'.'.'.",
"'.'.'.'.'.'.'.'.'.'.'.'.'.'.'.'.'.'.'.'.'.'.'.'.'.'.'.'.` j N V v v C Z l k b U J._.`.W.n.B '.'.'.'.",
"'.'.'.'.'.'.'.'.'.'.'.'.'.'.'.'.'.'.'.'.'.'.'.'.'.'.'.'.4 g V e v C A x [ H =.>.8.J.`.!.N.S '.'.'.'.",
"'.'.'.'.'.'.'.'.'.'.'.'.'.'.'.'.'.'.'.'.'.'.'.'.'.'.'.; 5 h H D Z Z x ..z C >.2.=.e.~.).A.n '.'.'.'.",
"'.'.'.'.'.'.'.'.'.'.'.'.'.'.'.'.'.'.'.'.'.'.'.'.'.'.'., 2 x E z.o.{ { { j N =.q.8.:.i.(.D.n '.'.'.'.",
"'.'.'.'.'.'.'.'.'.'.'.'.'.'.'.'.'.'.'.'.'.'.'.'.'.'.'.'.2 s x E o.l l j 2 , b 9.7.Q :.0.,.e '.'.'.'.",
"'.'.'.'.'.'.'.'.'.'.'.'.'.'.'.'.'.'.'.'.'.'.'.'.'.'.'.'.+ : p Z d d B c : O 8 4.b.W y , ; '.'.'.'.'.",
"'.'.'.'.'.'.'.'.'.'.'.'.'.'.'.'.'.'.'.'.'.'.'.'.'.'.'.'.  o 1 j k d 6 - # '., V ( ~ 0 '.'.'.'.'.'.'.",
"'.'.'.'.'.'.'.'.'.'.'.'.'.'.'.'.'.'.'.'.'.'.'.'.'.'.'.'.@ = a h g i > X '.'.'.8 *.M t '.'.'.'.'.'.'.",
"'.'.'.'.'.'.'.'.'.'.'.'.'.'.'.'.'.: $ < % '.'.'.'.'.'.'.i h l k 6 > '.'.'.'.'.$ $ ; '.'.'.'.'.'.'.'.",
"'.'.'.'.'.'.'.'.'.'.'.'.'.'.'.'.0 8 0 w 7 $ '.'.'.'.'.G k ..{ B , '.'.'.'.'.'.'.X . '.'.'.'.'.'.'.'.",
"'.'.'.'.'.'.'.'.'.'.'.'.'.'.'.'.8 m >.M m 9 '.'.. * k O.X.l i 2 '.'.'.'.'.'.'.'.'.'.'.'.'.'.'.'.'.'.",
"'.'.'.'.'.'.'.'.'.'.'.'.'.'.'.'.$ L t.q.1.m ; + : 4 [ X...a : '.'.'.'.'.'.'.'.'.'.'.'.'.'.'.'.'.'.'.",
"'.'.'.'.'.'.'.'.'.'.'.'.'.'.'.'.. m H.G.t.<.t > p }  .X.R N # O '.'.'.'.'.'.'.'.'.'.'.'.'.'.'.'.'.'.",
"'.'.'.'.'.'.'.'.'.'.'.'.'.'.'.'.. t F.~.2.>.K s } %.v.I.T.>.w r '.'.'.'.'.'.'.'.'.'.'.'.'.'.'.'.'.'.",
"'.'.'.'.'.'.'.'.'.'.'.'.'.'.'.'.'.w p.F.1.L J [ @.P.A.L.~.t.;.-.r '.'.'.'.'.'.'.'.'.'.'.'.'.'.'.'.'.",
"'.'.'.'.'.'.'.'.'.'.'.'.'.'.'.'.'.8 ;.y.>.K `  .v.L.(./.s.2.2.L 8 '.'.'.'.'.'.'.'.'.'.'.'.'.'.'.'.'.",
"'.'.'.'.'.'.'.'.'.'.'.'.'.'.'.'.'., t 1.;.F } %.R.`._.s.2.1.1.t # '.'.'.'.'.'.'.'.'.'.'.'.'.'.'.'.'.",
"'.'.'.'.'.'.'.'.'.'.'.'.'.'.'.'.'., w >.T #.$.R.(.(.G.y.2.1.m ; O '.'.'.'.'.'.'.'.'.'.'.'.'.'.'.'.'.",
"'.'.'.'.'.'.'.'.'.'.'.'.'.'.'.'.'., 8 L ^ #.P.L._.~.t.1.1.-.< O '.'.'.'.'.'.'.'.'.'.'.'.'.'.'.'.'.'.",
"'.'.'.'.'.'.'.'.'.'.'.'.'.'.'.'.'.: < K ^ &.Z.~.~.u.>.;.=.0 # '.'.'.'.'.'.'.'.'.'.'.'.'.'.'.'.'.'.'.",
"'.'.'.'.'.'.'.'.'.'.'.'.'.'.'.'.'.'.0 V ^ 5.t.q.q.>.-.-.e $ '.'.'.'.'.'.'.'.'.'.'.'.'.'.'.'.'.'.'.'.",
"'.'.'.'.'.'.'.'.'.'.'.'.'.'.'.'.'.'.t C J w.2.>.K b -.-.8 O '.'.'.'.'.'.'.'.'.'.'.'.'.'.'.'.'.'.'.'."
};
