/* XPM */
static char *enemy_5[] = {
/* columns rows colors chars-per-pixel */
"50 50 139 2 ",
"   c #3F2A0F",
".  c #551D1C",
"X  c #5A1B1E",
"o  c #412B0F",
"O  c #45330F",
"+  c #462713",
"@  c #4C2416",
"#  c #432A10",
"$  c #4A2912",
"%  c #4F2218",
"&  c #552715",
"*  c #5B2616",
"=  c #552A14",
"-  c #5C2A15",
";  c #532119",
":  c #5C2518",
">  c #463210",
",  c #4A3411",
"<  c #4B3C10",
"1  c #563317",
"2  c #533D11",
"3  c #62211B",
"4  c #6D261A",
"5  c #74221D",
"6  c #7B221F",
"7  c #762D1B",
"8  c #643A1D",
"9  c #693F1F",
"0  c #5D1721",
"q  c #5D1820",
"w  c #6C0D2A",
"e  c #720F2A",
"r  c #641325",
"t  c #6B1327",
"y  c #621821",
"u  c #6C1129",
"i  c #711626",
"p  c #731B22",
"a  c #7B1B24",
"s  c #741129",
"d  c #7D1529",
"f  c #721B28",
"g  c #632220",
"h  c #6D2223",
"j  c #7E2025",
"k  c #702925",
"l  c #772628",
"z  c #7C3326",
"x  c #4F4311",
"c  c #504511",
"v  c #594412",
"b  c #544C12",
"n  c #594E12",
"m  c #565012",
"M  c #595412",
"N  c #5D5C13",
"B  c #624517",
"V  c #624E14",
"C  c #6D441B",
"Z  c #6B4D1C",
"A  c #635413",
"S  c #6C5516",
"D  c #615A13",
"F  c #6D5F14",
"G  c #715D15",
"H  c #795E17",
"J  c #7F5419",
"K  c #5F6213",
"L  c #646313",
"P  c #6F6714",
"I  c #666C14",
"U  c #6B6915",
"Y  c #716615",
"T  c #7C6B16",
"R  c #756318",
"E  c #6C7014",
"W  c #767716",
"Q  c #83241F",
"!  c #842C1E",
"~  c #89321F",
"^  c #861E23",
"/  c #8F1E25",
"(  c #84142A",
")  c #89152A",
"_  c #891828",
"`  c #931C26",
"'  c #951929",
"]  c #9B1C28",
"[  c #A21C29",
"{  c #852320",
"}  c #882021",
"|  c #8C2A20",
" . c #912123",
".. c #9D2625",
"X. c #9F2A27",
"o. c #973623",
"O. c #993623",
"+. c #903A21",
"@. c #A92F27",
"#. c #A22628",
"$. c #AA3826",
"%. c #85471D",
"&. c #924F1E",
"*. c #81531B",
"=. c #995E1E",
"-. c #836219",
";. c #9E6B1E",
":. c #827517",
">. c #847917",
",. c #8B721C",
"<. c #8F7E18",
"1. c #94731C",
"2. c #957D1A",
"3. c #9F7D1F",
"4. c #A46F1F",
"5. c #AA7F1F",
"6. c #864624",
"7. c #8B5123",
"8. c #915F22",
"9. c #AB4724",
"0. c #A45623",
"q. c #956A20",
"w. c #9A7320",
"e. c #A16620",
"r. c #A86321",
"t. c #A66C21",
"y. c #AA6821",
"u. c #8E8218",
"i. c #948619",
"p. c #938B19",
"a. c #9D8C1A",
"s. c #9C911A",
"d. c #A0871B",
"f. c #AC831F",
"g. c #A78D1E",
"h. c #AD8A1E",
"j. c #AA941D",
"k. c #AD9D1C",
"l. c None",
/* pixels */
"l.l.l.l.l.l.l.l.l.l.l.l.l.l.l.l.l.l.l.l.l.l.l.l.l.l.l.l.l.l.l.l.l.l.l.l.l.l.l.l.l.l.l.l.l.l.l.l.l.l.",
"l.l.l.l.l.l.l.l.l.l.l.l.l.l.l.l.l.l.l.l.l.l.l.l.l.l.l.l.l.l.l.l.l.l.l.l.l.l.l.l.l.l.l.l.l.l.l.l.l.l.",
"l.l.l.l.l.l.l.l.l.l.l.l.l.l.l.l.l.l.l.l.l.l.l.l.l.l.l.l.l.l.l.l.l.l.l.l.l.l.l.l.l.l.l.l.l.l.l.l.l.l.",
"l.l.l.l.l.l.l.l.l.l.l.l.l.l.l.l.l.l.l.l.l.l.l.l.l.l.l.l.l.l.l.l.l.l.l.l.l.l.l.l.l.l.l.l.l.l.l.l.l.l.",
"l.l.l.l.l.l.l.l.l.l.l.l.l.l.l.l.l.l.l.l.l.l.l.l.l.l.l.l.l.l.l.l.l.l.l.l.l.l.o   l.l.l.l.l.l.l.l.l.l.",
"l.l.l.l.l.l.l.l.l.l.l.l.l.l.l.l.l.l.l.l.l.l.l.l.l.l.l.l.l.l.l.l.l.l.l.l.l.@ 3 5 l.l.l.l.l.l.l.l.l.l.",
"l.l.l.l.l.l.l.l.l.l.l.l.l.l.l.l.l.l.l.l.l.l.l.l.l.l.l.l.l.l.l.l.l.l.l.l.l.; d ] 4 $ l.l.l.l.l.l.l.l.",
"l.l.l.l.l.l.l.l.l.l.l.l.l.l.l.l.l.l.l.l.l.l.l.l.l.l.l.l.l.l.l.l.l.l.l.l.l.@ t )  .$ l.l.l.l.l.l.l.l.",
"l.l.l.l.l.l.l.l.l.l.l.l.l.l.l.l.l.l.l.l.l.l.l.l.l.l.l.l.l.l.l.l.l.l.l.l.l.# ; t ` : l.l.l.l.l.l.l.l.",
"l.l.l.l.l.l.l.l.l.l.l.l.l.l.l.l.l.l.l.l.l.l.l.l.l.l.l.l.l.l.l.l.l.l.l.l.l.o o r ' { - l.l.l.l.l.l.l.",
"l.l.l.l.l.l.l.l.l.l.l.l.l.l.l.l.l.l.l.l.l.l.l.l.l.l.l.l.l.l.l.l.l.l.l.l.l.o o X d X.7 l.l.l.l.l.l.l.",
"l.l.l.l.l.l.l.l.l.l.l.l.l.l.l.l.l.l.l.l.l.l.l.l.l.l.l.l.l.l.l.l.l.l.l.l.l.# # @ h t.-.> l.l.l.l.l.l.",
"l.l.l.l.l.l.l.l.l.l.l.l.l.l.l.l.l.l.l.l.l.l.l.l.l.l.l.l.l.l.l.l.l.l.l.l.# % 0 0 i 0.d.V l.l.l.l.l.l.",
"l.l.l.l.l.l.l.l.l.l.l.l.l.l.l.l.l.l.l.l.l.l.l.l.l.l.l.l.l.l.l.l.l.l.w r & p w w s #.&.2 l.l.l.l.l.l.",
"l.l.l.l.l.l.l.l.l.l.l.l.l.l.l.l.l.l.l.l.l.l.l.l.l.l.l.l.l.l.l.l.l.l.X X p ( e w e [ ^ @ l.l.l.l.l.l.",
"l.l.l.l.l.l.l.l.l.l.l.l.l.l.l.l.l.l.l.l.l.l.l.l.l.l.l.l.l.l.l.l.l.. % $ p s w w s ] ( ; l.l.l.l.l.l.",
"l.l.l.l.l.l.l.l.l.l.l.l.l.l.l.l.l.l.l.l.l.l.l.l.l.l.l.l.l.l.l.l.l.o o # X r u w e ( t % l.l.l.l.l.l.",
"l.l.l.l.l.l.l.l.l.l.l.l.l.l.l.l.l.l.l.l.l.l.l.l.l.l.l.l.l.l.l.l.l.l.o o o % r w w u . o   x < l.l.l.",
"l.l.l.l.l.l.l.l.l.l.l.l.l.l.l.l.l.l.l.l.l.l.l.l.l.l.l.l.l.l.l.l.l.l.l.o o o ; r w X # o = S M l.l.l.",
"l.l.l.l.l.l.l.l.l.l.l.l.l.l.l.l.l.l.l.l.l.l.l.l.l.l.l.l.l.l.l.l.l.l.l.o o o # r r @ o > | O.A l.l.l.",
"l.l.l.l.l.l.l.l.l.l.l.l.l.l.l.l.l.l.l.l.l.l.l.l.l.l.l.l.l.l.l.l.l.l.l.o o o o X r @ O n +.o.A l.l.l.",
"l.l.l.l.l.l.l.l.l.l.l.l.l.l.l.l.l.l.l.l.l.l.l.l.l.l.l.l.l.l.l.l.l.l.l.o o o o % 0 , N E R S < l.l.l.",
"l.l.l.l.l.l.l.l.l.l.l.l.l.l.l.l.l.l.l.l.l.l.l.l.l.l.l.l.l.l.l.l.l.l.l.l.o o o o @ O M I I x l.l.l.l.",
"l.l.l.l.l.l.l.l.l.l.l.l.l.l.l.l.l.l.l.l.l.l.l.l.l.l.l.l.l.l.l.l.l.l.l.l.o o o o o o O x x l.l.l.l.l.",
"l.l.l.l.l.l.l.l.l.l.l.l.l.l.l.l.l.l.l.l.l.l.l.l.l.l.l.l.l.l.l.l.l.l.l.l.l.# o o o o o l.l.l.l.l.l.l.",
"l.l.l.l.l.l.l.l.l.l.l.l.l.l.l.l.l.l.l.l.l.l.l.l.l.l.l.l.l.l.l.l.l.l.l.l.l.o o o S A O l.l.l.l.l.l.l.",
"l.l.l.l.l.l.l.l.l.l.l.l.l.l.l.l.l.l.l.l.l.l.l.l.l.l.l.l.l.l.l.t y 0 l.o   o o > 2.=.- l.l.l.l.l.l.l.",
"l.l.l.l.l.l.l.l.l.l.l.l.l.l.l.l.l.l.l.l.l.l.l.l.l.l.l.l.l.l.r X # % % o - = o > 1.@.~ v l.l.l.l.l.l.",
"l.l.l.l.l.l.l.l.l.l.l.l.l.l.l.l.l.l.l.l.l.l.l.l.l.l.l.l.l.r % # o o o $ ^ 5 $ < 1.9.4.S l.l.l.l.l.l.",
"l.l.l.l.l.l.l.l.l.l.l.l.l.l.l.l.l.l.l.l.l.l.l.l.l.l.l.l.w . # o o o $ & i y b b i.h.5.H l.l.l.l.l.l.",
"l.l.l.l.l.l.l.l.l.l.l.l.l.l.l.l.l.l.l.l.l.l.l.l.l.l.l.l.u .   o o o 5 / s X n I i.5.$.4.V l.l.l.l.l.",
"l.l.l.l.l.l.l.l.l.l.l.l.l.l.l.l.l.l.l.l.l.l.l.l.l.l.l.l.X X $ $ $ o 6 ( r @ m P S 4.@.r.V l.l.l.l.l.",
"l.l.l.l.l.l.l.l.l.l.l.l.l.l.l.l.l.l.l.l.l.l.l.l.l.l.l.l.; p { { a r i t . o b %.! *.4.f.V l.l.l.l.l.",
"l.l.l.l.l.l.l.l.l.l.l.l.l.l.l.l.l.l.l.l.l.l.l.l.l.l.l.l.@ : 4 a d e w X l.l.< ! #.V :.:., l.l.l.l.l.",
"l.l.l.l.l.l.l.l.l.l.l.l.l.l.l.l.l.l.l.l.l.l.l.l.l.l.l.l.l.l.o % . . . + l.l.o C *.N v 2 l.l.l.l.l.l.",
"l.l.l.l.l.l.l.l.l.l.l.l.l.l.l.l.l.l.l.l.l.l.l.l.l.l.l.l.l.l.3 ; # o   l.l.l.l.b n x o o l.l.l.l.l.l.",
"l.l.l.l.l.l.l.l.l.l.l.l.l.l.l.l.l.l.l.l.l.l.l.l.l.l.l.l.l.' s . # l.l.l.l.l.l.o o o l.l.l.l.l.l.l.l.",
"l.l.l.l.l.l.l.l.l.l.l.l.l.l.l.l.l.l.> < l.l.l.l.l.l.l.{ { d r % l.l.l.l.l.l.l.l.l.l.l.l.l.l.l.l.l.l.",
"l.l.l.l.l.l.l.l.l.l.l.l.l.l.l.l., 2 x M x l.l.l.l.l.4  ._ t ; l.l.l.l.l.l.l.l.l.l.l.l.l.l.l.l.l.l.l.",
"l.l.l.l.l.l.l.l.l.l.l.l.l.l.l.l.M >.A L m , l.l.+ % j ' s . l.l.l.l.l.l.l.l.l.l.l.l.l.l.l.l.l.l.l.l.",
"l.l.l.l.l.l.l.l.l.l.l.l.l.l.l.l.l.p.<.A K m l.l.q r e e g l.l.l.l.l.l.l.l.l.l.l.l.l.l.l.l.l.l.l.l.l.",
"l.l.l.l.l.l.l.l.l.l.l.l.l.l.l.l.l.Y s.T x m 1 r r w u z 1.G , l.l.l.l.l.l.l.l.l.l.l.l.l.l.l.l.l.l.l.",
"l.l.l.l.l.l.l.l.l.l.l.l.l.l.l.l.l.b W u.x , g w w f 7.d.k.a.L < > l.l.l.l.l.l.l.l.l.l.l.l.l.l.l.l.l.",
"l.l.l.l.l.l.l.l.l.l.l.l.l.l.l.l.l.# n W m + 0 w z q.g.k.k.a.A < m b l.l.l.l.l.l.l.l.l.l.l.l.l.l.l.l.",
"l.l.l.l.l.l.l.l.l.l.l.l.l.l.l.l.l.  < I n % r l w.k.k.p.W A b m b x l.l.l.l.l.l.l.l.l.l.l.l.l.l.l.l.",
"l.l.l.l.l.l.l.l.l.l.l.l.l.l.l.l.l.l., N B r s 8.j.k.p.N b b m b > l.l.l.l.l.l.l.l.l.l.l.l.l.l.l.l.l.",
"l.l.l.l.l.l.l.l.l.l.l.l.l.l.l.l.l.l.  c 9 w 6.g.k.s.F , M K x l.l.l.l.l.l.l.l.l.l.l.l.l.l.l.l.l.l.l.",
"l.l.l.l.l.l.l.l.l.l.l.l.l.l.l.l.l.l.  c 9 k ,.s.p.P < x N x # l.l.l.l.l.l.l.l.l.l.l.l.l.l.l.l.l.l.l.",
"l.l.l.l.l.l.l.l.l.l.l.l.l.l.l.l.l.l.l.c 8 C E L b > x b O   l.l.l.l.l.l.l.l.l.l.l.l.l.l.l.l.l.l.l.l.",
"l.l.l.l.l.l.l.l.l.l.l.l.l.l.l.l.l.l.l.# * Z I < >   b < # l.l.l.l.l.l.l.l.l.l.l.l.l.l.l.l.l.l.l.l.l."
};
