/* XPM */
static char *enemy_6[] = {
/* columns rows colors chars-per-pixel */
"50 50 163 2 ",
"   c #3B240E",
".  c #3F2B0F",
"X  c #4F1F19",
"o  c #551E1B",
"O  c #5A1B1E",
"+  c #631C1F",
"@  c #40270F",
"#  c #412B0F",
"$  c #472713",
"%  c #4B2415",
"&  c #442911",
"*  c #492A12",
"=  c #4F2118",
"-  c #532417",
";  c #562B16",
":  c #5F2816",
">  c #522019",
",  c #5A221C",
"<  c #57291A",
"1  c #5B2D1A",
"2  c #463410",
"3  c #4A3511",
"4  c #4B3B10",
"5  c #533315",
"6  c #543813",
"7  c #612917",
"8  c #632718",
"9  c #6E261A",
"0  c #65291B",
"q  c #76201F",
"w  c #7D2F1F",
"e  c #633616",
"r  c #633D15",
"t  c #713E1F",
"y  c #5E1721",
"u  c #5E1820",
"i  c #660F27",
"p  c #690F27",
"a  c #6C0E29",
"s  c #720F2A",
"d  c #7B0F2B",
"f  c #641325",
"g  c #691127",
"h  c #621921",
"j  c #6B1C24",
"k  c #6B1028",
"l  c #7F1727",
"z  c #721B22",
"x  c #7B1A26",
"c  c #751429",
"v  c #7C1528",
"b  c #741829",
"n  c #7A1A28",
"m  c #6B2423",
"M  c #712625",
"N  c #7E2420",
"B  c #712B23",
"V  c #4F4311",
"C  c #504511",
"Z  c #594512",
"A  c #554D12",
"S  c #5D4B13",
"D  c #5D5312",
"F  c #5D5C13",
"G  c #634216",
"H  c #634B15",
"J  c #6F4917",
"K  c #6B4B1D",
"L  c #70451A",
"P  c #655213",
"I  c #615B13",
"U  c #6D5B15",
"Y  c #755816",
"T  c #75531B",
"R  c #7B5518",
"E  c #7F5C18",
"W  c #5F6013",
"Q  c #626413",
"!  c #646B13",
"~  c #706315",
"^  c #776D16",
"/  c #7F6C17",
"(  c #6A7314",
")  c #777516",
"_  c #821F23",
"`  c #891D23",
"'  c #83132A",
"]  c #891729",
"[  c #871C29",
"{  c #8D1D28",
"}  c #971D27",
"|  c #901729",
" . c #951B28",
".. c #A41C29",
"X. c #AA1E28",
"o. c #8A2226",
"O. c #8B2D25",
"+. c #842328",
"@. c #8E2328",
"#. c #982326",
"$. c #9F2A26",
"%. c #823425",
"&. c #8C3C24",
"*. c #9B3225",
"=. c #9B3A26",
"-. c #A82727",
";. c #A32F26",
":. c #A92C27",
">. c #A92128",
",. c #AB3226",
"<. c #A33B25",
"1. c #83421C",
"2. c #844A1D",
"3. c #8B481F",
"4. c #855A1A",
"5. c #945B1E",
"6. c #806E16",
"7. c #84651B",
"8. c #89611A",
"9. c #92681B",
"0. c #837417",
"q. c #867418",
"w. c #8E771C",
"e. c #8C7B18",
"r. c #917619",
"t. c #A56D1F",
"y. c #A67F1F",
"u. c #AC7C1F",
"i. c #9C4725",
"p. c #8F5723",
"a. c #9B5623",
"s. c #915B23",
"d. c #A24324",
"f. c #AB4624",
"g. c #A64D24",
"h. c #AB4C24",
"j. c #AB5423",
"k. c #AC5B22",
"l. c #9F6F21",
"z. c #9F7621",
"x. c #AB6422",
"c. c #AD6D21",
"v. c #B06F21",
"b. c #AC7520",
"n. c #AD7920",
"m. c #898217",
"M. c #8E8118",
"N. c #948319",
"B. c #988719",
"V. c #968E19",
"C. c #9F8A1B",
"Z. c #9D941A",
"A. c #A0861C",
"S. c #AE871E",
"D. c #AF8D1E",
"F. c #B0851F",
"G. c #B0891E",
"H. c #A4941B",
"J. c #AD931D",
"K. c #AD9C1C",
"L. c #B09F1C",
"P. c #B1A11C",
"I. c None",
/* pixels */
"I.I.I.I.I.I.I.I.I.I.I.I.I.I.I.I.I.I.I.I.I.I.I.I.I.I.I.I.I.I.I.I.I.I.I.I.I.I.I.I.I.I.I.I.I.I.I.I.I.I.",
"I.I.I.I.I.I.I.I.I.I.I.I.I.I.I.I.I.I.I.I.I.I.I.I.I.I.I.I.I.I.I.I.I.I.I.I.I.I.I.I.I.I.I.I.I.I.I.I.I.I.",
"I.I.I.I.I.I.I.I.I.I.I.I.I.I.I.I.I.I.I.I.I.I.I.I.I.I.I.I.I.I.I.I.I.I.I.I.I.I.I.I.I.I.I.I.I.I.I.I.I.I.",
"I.I.I.I.I.I.I.I.I.I.I.I.I.I.I.I.I.I.I.I.I.I.I.I.I.I.I.I.I.I.I.I.I.I.I.I.I.I.I.I.I.I.I.I.I.I.I.I.I.I.",
"I.I.I.I.I.I.I.I.I.I.I.I.I.I.I.I.I.I.I.I.I.I.I.I.I.I.I.I.I.I.I.I.I.I.I.I.I.I.I.I.I.I.I.I.I.I.I.I.I.I.",
"I.I.I.I.I.I.I.I.I.I.I.I.I.I.I.I.I.I.I.I.I.I.I.I.I.I.I.I.I.I.I.I.I.I.I.I.I.I.I.I.I.I.I.I.I.I.I.I.I.I.",
"I.I.I.I.I.I.I.I.I.I.I.I.I.I.I.I.I.I.I.I.I.I.I.I.I.I.I.I.I.4 V 2 I.I.I.I.I.I.I.I.I.I.I.I.I.I.I.I.I.I.",
"I.I.I.I.I.I.I.I.I.I.I.I.I.I.I.I.I.I.I.I.I.I.I.I.I.I.I.I.0 H Q C I.I.. I.I.I.I.I.I.I.I.I.I.I.I.I.I.I.",
"I.I.I.I.I.I.I.I.I.I.I.I.I.I.I.I.I.I.I.I.I.I.I.I.I.I.I.e #.2.! V   4 3 # I.I.I.I.I.I.I.I.I.I.I.I.I.I.",
"I.I.I.I.I.I.I.I.I.I.I.I.I.I.I.I.I.I.I.I.I.I.I.$ $ % 3 L $.3.Y 4 3 Y J * I.I.I.I.I.I.I.I.I.I.I.I.I.I.",
"I.I.I.I.I.I.I.I.I.I.I.I.I.I.I.I.I.I.I.I.I.I.I.o j m j M T 2.O.Z e.t.*.8 I.I.I.I.I.I.I.I.I.I.I.I.I.I.",
"I.I.I.I.I.I.I.I.I.I.I.I.I.I.I.I.I.I.I.I.I.I.> j i.z.*.{ M t e G C.D.d.7 I.I.I.I.I.I.I.I.I.I.I.I.I.I.",
"I.I.I.I.I.I.I.I.I.I.I.I.I.I.I.I.I.I.I.I.I.I.h { j.D.f.X.] j 5 E g.b.4.I.I.I.I.I.I.I.I.I.I.I.I.I.I.I.",
"I.I.I.I.I.I.I.I.I.I.I.I.I.I.I.I.I.I.I.# I.I.z >.,.h.:.X.| a 1 9.,.j.U I.I.I.I.I.I.I.I.I.I.I.I.I.I.I.",
"I.I.I.I.I.I.I.I.I.I.I.I.I.I.I.I.I.. $ O > o o.k.h.>.h.j. .a 1 r.v.5.Z . I.I.I.I.I.I.I.I.I.I.I.I.I.I.",
"I.I.I.I.I.I.I.I.I.I.I.I.I.I.I.I.% , z v O h *.D.x.-.n.A.+.a < ^ 0.I A 2 & I.I.I.I.I.I.I.I.I.I.I.I.I.",
"I.I.I.I.I.I.I.I.I.I.I.I.I.I.I.I.u w g.3.> f O.x.h.-.k.a.b f % C 4 D W 4 I.I.I.I.I.I.I.I.I.I.I.I.I.I.",
"I.I.I.I.I.I.I.I.I.I.I.I.I.I.I.o n c.H.p.u a c [  . .} ] k > & 2 A Q V I.I.I.I.I.I.I.I.I.I.I.I.I.I.I.",
"I.I.I.I.I.I.I.I.I.I.I.I.I.I.. o @.b.n.1.u i a a s c a k , & . 2 Q A I.I.I.I.I.I.I.I.I.I.I.I.I.I.I.I.",
"I.I.I.I.I.I.I.I.I.I.I.I.I.I.& O O.c.k.4., a a a a i i u $ . & 2 A I.I.I.I.I.I.I.I.I.I.I.I.I.I.I.I.I.",
"I.I.I.I.I.I.I.I.I.I.I.I.I.I.% j p.S.j.8., a i i O $ $ @ & . & & 3 I.I.I.I.I.I.I.I.I.I.I.I.I.I.I.I.I.",
"I.I.I.I.I.I.I.I.I.I.I.I.I.. o g s.F.<.w u a i = $ # # # * * u u I.I.I.I.I.I.I.I.I.I.I.I.I.I.I.I.I.I.",
"I.I.I.I.I.I.I.I.I.I.I.I.# $ h a O.<.[ h u i o & # # . ; +.z i h I.I.I.I.I.I.I.I.I.I.I.I.I.I.I.I.I.I.",
"I.I.I.I.I.I.I.I.I.I.I.I.& % i a c ' s i u % & . # # 9 +.' c g u I.I.I.I.I.I.I.I.I.I.I.I.I.I.I.I.I.I.",
"I.I.I.I.I.I.I.I.I.I.I.I.# % i a a a g O $ . . & # * q ' k a O $ I.I.I.I.I.I.I.I.I.I.I.I.I.I.I.I.I.I.",
"I.I.I.I.I.I.I.I.I.I.I.# # % p a i a y & & % X & # # o p a h % # I.I.I.I.I.I.I.I.I.I.I.I.I.I.I.I.I.I.",
"I.I.I.I.I.I.I.I.I.I.I.# # $ O a a y o & & O g X # $ O f u o # I.I.I.I.I.I.I.I.I.I.I.I.I.I.I.I.I.I.I.",
"I.I.I.I.I.I.I.I.I.I.I.$ ; * > p g o . . & u a f % X O O $ I.I.I.I.I.I.I.I.I.I.I.I.I.I.I.I.I.I.I.I.I.",
"I.I.I.I.I.I.I.I.I.I.$ + ` ; & g g $ & . $ y a a O & $ $ I.I.I.I.I.I.I.I.I.I.I.I.I.I.I.I.I.I.I.I.I.I.",
"I.I.I.I.I.I.I.I.I.I.o @.$.8 @ o o . . & o a a a O I.I.I.I.I.I.I.I.I.I.I.I.I.I.I.I.I.I.I.I.I.I.I.I.I.",
"I.I.I.I.I.I.I.I.I.% z g.f.` * # & # . & O a a h $ I.I.I.I.I.I.I.I.I.I.I.I.I.I.I.I.I.I.I.I.I.I.I.I.I.",
"I.I.I.I.I.I.I.I.I.% ' j.h.} 5 # . # # = i a f o I.I.o > I.I.I.I.I.I.I.I.I.I.I.I.I.I.I.I.I.I.I.I.I.I.",
"I.I.I.I.I.I.I.I.I.% v ,.:.;.R 2 . . * f k i > I.I.I.= > % I.I.I.I.I.I.I.I.I.I.I.I.I.I.I.I.I.I.I.I.I.",
"I.I.I.I.I.I.I.I.I.% v >.X.-.=.0 & . & = > = & I.I.I.& > > I.I.I.I.I.I.I.I.I.I.I.I.I.I.I.I.I.I.I.I.I.",
"I.I.I.I.I.I.I.I.I.> c =.k.:...z = > > . . & . I.I.I.I.= O I.I.I.I.I.I.I.I.I.I.I.I.I.I.I.I.I.I.I.I.I.",
"I.I.I.I.I.I.I.I.I.% h &.x.;.' a o > f = & . I.I.I.I.I.$ h = I.I.I.I.I.I.I.I.I.I.I.I.I.I.I.I.I.I.I.I.",
"I.I.I.I.I.I.I.I.I.I.o v  .] s g = * i i $ . I.I.I.I.I.o g u I.I.I.I.I.I.I.I.I.I.I.I.I.I.I.I.I.I.I.I.",
"I.I.I.I.I.I.I.I.I.I.> a a a a O . $ f k > & I.I.I.I.o i a o I.I.I.I.I.I.I.I.I.I.I.I.I.I.I.I.I.I.I.I.",
"I.I.I.I.I.I.I.I.I.I.% a a a a > . = i i > & I.I.$ = h a g o I.I.I.I.I.I.I.I.I.I.I.I.I.I.I.I.I.I.I.I.",
"I.I.I.I.I.I.I.I.I.I.$ O a a h $ * u a u * I.I.* O f k g u I.I.I.I.I.I.I.I.I.I.I.I.I.I.I.I.I.I.I.I.I.",
"I.I.I.I.I.I.I.I.I.I.I.o a a h & > f a y & I.I.= f i j 1 6 I.I.I.I.I.I.I.I.I.I.I.I.I.I.I.I.I.I.I.I.I.",
"I.I.I.I.I.I.I.I.I.I.I.$ y a f & & = i f I.I.= y y 1 7.N.B.I.I.I.I.I.I.I.I.I.I.I.I.I.I.I.I.I.I.I.I.I.",
"I.I.I.I.I.I.I.I.I.I.I.I.= g h . & u h > I.I.u f $ Y H.L.N.S A U I.I.I.I.I.I.I.I.I.I.I.I.I.I.I.I.I.I.",
"I.I.I.I.I.I.I.I.I.I.I.I.I.X = & > f > I.I.I.u > S C.K.H.) ~ e.e.I.I.I.I.I.I.I.I.I.I.I.I.I.I.I.I.I.I.",
"I.I.I.I.I.I.I.I.I.I.I.I.I.I.I.I.= > & I.I.> = 6 e.K.H.q.m.Z.P.B.I.I.I.I.I.I.I.I.I.I.I.I.I.I.I.I.I.I.",
"I.I.I.I.I.I.I.I.I.I.I.I.I.I.I.I.I.& I.I.I., J q.K.K.6.S M.P.K./ I.I.I.I.I.I.I.I.I.I.I.I.I.I.I.I.I.I.",
"I.I.I.I.I.I.I.I.I.I.I.I.I.I.I.I.I.I.I.I.I.m z.P.K.J.P C ) V.0.Z I.I.I.I.I.I.I.I.I.I.I.I.I.I.I.I.I.I.",
"I.I.I.I.I.I.I.I.I.I.I.I.I.I.I.I.I.I.I.I.I.B e.Z.N.q.I Q ( ( V & I.I.I.I.I.I.I.I.I.I.I.I.I.I.I.I.I.I.",
"I.I.I.I.I.I.I.I.I.I.I.I.I.I.I.I.I.I.I.I.I.K ( Q A C I ( ! F V I.I.I.I.I.I.I.I.I.I.I.I.I.I.I.I.I.I.I.",
"I.I.I.I.I.I.I.I.I.I.I.I.I.I.I.I.I.I.I.I.I.K ! 4 & A ! ( F 3 & I.I.I.I.I.I.I.I.I.I.I.I.I.I.I.I.I.I.I."
};
