/* XPM */
static char *enemy_7[] = {
/* columns rows colors chars-per-pixel */
"50 50 133 2 ",
"   c #3E2A0E",
".  c #551D1B",
"X  c #5B1C1E",
"o  c #611C1F",
"O  c #412C0F",
"+  c #44320F",
"@  c #46380F",
"#  c #462712",
"$  c #4B2515",
"%  c #442A10",
"&  c #492A13",
"*  c #4F2118",
"=  c #542814",
"-  c #522019",
";  c #5C251B",
":  c #5F291E",
">  c #473410",
",  c #4C3512",
"<  c #4B3C10",
"1  c #563017",
"2  c #583716",
"3  c #523B11",
"4  c #583119",
"5  c #5D3C19",
"6  c #6D231C",
"7  c #622A1E",
"8  c #75231C",
"9  c #66371E",
"0  c #653F18",
"q  c #5E1622",
"w  c #5D1820",
"e  c #670F28",
"r  c #6B0E29",
"t  c #720E2A",
"y  c #7B0E2A",
"u  c #641425",
"i  c #691326",
"p  c #641A22",
"a  c #6F1E25",
"s  c #6A1028",
"d  c #731526",
"f  c #7B1626",
"g  c #751A23",
"h  c #761129",
"j  c #7B1129",
"k  c #612020",
"l  c #4A410F",
"z  c #4E4310",
"x  c #514511",
"c  c #5B4413",
"v  c #534A11",
"b  c #5C4C14",
"n  c #565211",
"m  c #5A5512",
"M  c #5C5B12",
"N  c #634D14",
"B  c #7A4B1A",
"V  c #625213",
"C  c #6A5515",
"Z  c #645813",
"A  c #6E5816",
"S  c #635019",
"D  c #7F501B",
"F  c #7C5C1A",
"G  c #5F6013",
"H  c #636413",
"J  c #6A6515",
"K  c #656B13",
"L  c #6B6C15",
"P  c #746416",
"I  c #7A6716",
"U  c #7B6A16",
"Y  c #7D6318",
"T  c #677014",
"R  c #697314",
"E  c #871B25",
"W  c #8D1D24",
"Q  c #821429",
"!  c #811C28",
"~  c #8A1E28",
"^  c #921729",
"/  c #971A29",
"(  c #9B1B29",
")  c #A81E28",
"_  c #972124",
"`  c #9C2E27",
"'  c #9E2228",
"]  c #873E25",
"[  c #963422",
"{  c #983523",
"}  c #923C21",
"|  c #A72A27",
" . c #A62128",
".. c #A92228",
"X. c #A92828",
"o. c #A03A25",
"O. c #AB3B26",
"+. c #8C471F",
"@. c #844C1D",
"#. c #90551F",
"$. c #826F17",
"%. c #8F681B",
"&. c #9A671D",
"*. c #996D1C",
"=. c #847117",
"-. c #887617",
";. c #847817",
":. c #8A7419",
">. c #8C7A18",
",. c #9E711D",
"<. c #957A1A",
"1. c #8E4420",
"2. c #A34225",
"3. c #AA4325",
"4. c #AA4924",
"5. c #AA5023",
"6. c #A56122",
"7. c #AD6522",
"8. c #AD6821",
"9. c #8A8317",
"0. c #958319",
"q. c #908818",
"w. c #9B891A",
"e. c #98901A",
"r. c #A1801C",
"t. c #AE841F",
"y. c #A08F1A",
"u. c #AD8C1E",
"i. c #A4941B",
"p. c #AC9C1C",
"a. c #B09F1C",
"s. c #B0A01C",
"d. c None",
/* pixels */
"d.d.d.d.d.d.d.d.d.d.d.d.d.d.d.d.d.d.d.d.d.d.d.d.d.d.d.d.d.d.d.d.d.d.d.d.d.d.d.d.d.d.d.d.d.d.d.d.d.d.",
"d.d.d.d.d.d.d.d.d.d.d.d.d.d.d.d.d.d.d.d.d.d.d.d.d.d.d.d.d.d.d.d.d.d.d.d.d.d.d.d.d.d.d.d.d.d.d.d.d.d.",
"d.d.d.d.d.d.d.d.d.d.d.d.d.d.d.d.d.d.d.d.d.d.d.d.d.d.d.d.d.d.d.d.d.d.d.d.d.d.d.d.d.d.d.d.d.d.d.d.d.d.",
"d.d.d.d.d.d.d.d.d.d.d.d.d.d.d.d.d.d.d.d.d.d.d.d.d.d.d.d.d.d.d.d.d.d.d.d.d.d.d.d.d.d.d.d.d.d.d.d.d.d.",
"d.d.d.d.d.d.d.d.d.d.d.d.d.d.d.d.d.d.d.d.d.d.d.d.d.d.d.d.d.d.d.d.d.d.d.d.d.d.d.d.d.d.d.d.d.d.d.d.d.d.",
"d.d.d.d.d.d.d.d.d.d.d.d.d.d.d.d.d.d.d.d.d.d.d.d.d.d.d.d.d.d.d.d.d.d.d.d.d.d.d.d.d.d.d.d.d.d.d.d.d.d.",
"d.d.d.d.d.d.d.d.d.d.d.d.d.d.d.d.d.d.d.d.d.d.d.d.d.d.d.d.d.d.d.d.d.d.d.d.d.d.d.d.d.d.d.d.d.d.d.d.d.d.",
"d.d.d.d.d.d.d.d.d.d.d.d.d.d.d.d.d.d.d.d.d.d.d.d.d.d.d.d.d.d.d.d.d.d.d.d.d.d.d.d.d.d.d.d.d.d.d.d.d.d.",
"d.d.d.d.d.d.d.d.d.d.d.d.d.d.d.d.d.d.d.d.d.d.d.d.d.d.d.d.d.d.d.d.d.d.d.d.d.d.d.d.d.d.d.d.d.d.d.d.d.d.",
"d.d.d.d.d.d.d.d.d.d.d.d.d.d.d.d.d.d.d.d.d.d.d.d.d.d.d.d.d.d.d.d.d.d.d.d.d.d.d.d.d.d.d.d.d.d.d.d.d.d.",
"d.d.d.d.d.d.d.d.d.d.d.d.d.d.d.d.d.d.d.d.d.d.d.d.d.d.d.d.d.d.d.d.d.d.d.d.d.d.d.d.d.d.d.d.d.d.d.d.d.d.",
"d.d.d.d.d.d.d.d.d.d.d.d.d.d.d.d.d.d.d.d.d.d.d.d.d.d.d.d.d.d.d.d.d.d.d.d.d.d.d.d.d.d.d.d.d.d.d.d.d.d.",
"d.d.d.d.d.d.d.d.d.d.d.d.d.d.d.d.d.d.d.d.d.d.d.d.d.d.d.d.d.d.d.d.d.d.d.d.d.d.d.d.d.d.d.d.d.d.d.d.d.d.",
"d.d.d.d.d.d.d.d.d.d.d.d.d.d.d.d.d.d.d.d.d.d.d.d.d.d.d.d.d.d.d.d.d.d.d.d.d.d.d.d.d.d.d.d.d.d.d.d.d.d.",
"d.d.d.d.d.d.d.d.d.d.d.d.d.d.d.d.d.d.d.d.d.d.d.d.d.d.d.d.d.d.d.d.d.d.d.d.d.d.d.d.d.d.d.d.d.d.d.d.d.d.",
"d.d.d.d.d.d.d.d.d.d.d.d.d.d.d.d.d.d.d.d.d.d.d.d.d.d.d.d.d.d.d.d.d.d.d.d.d.d.d.d.d.d.d.d.d.d.d.d.d.d.",
"d.d.d.d.d.d.d.d.d.d.d.d.d.d.d.d.d.d.d.d.d.d.d.d.d.d.d.d.d.d.d.d.d.d.d.d.d.d.d.d.d.d.d.d.d.d.d.d.d.d.",
"d.d.d.d.d.d.d.d.d.d.d.d.d.d.d.d.d.d.d.d.d.d.d.d.d.d.d.d.d.d.d.d.d.d.d.d.d.d.d.d.d.d.d.d.d.d.d.d.d.d.",
"d.d.d.d.d.d.d.d.d.d.d.d.d.d.d.d.d.d.d.d.d.d.d.d.d.d.d.d.d.d.d.d.d.d.d.d.d.d.d.d.d.d.d.d.d.d.d.d.d.d.",
"d.d.d.d.d.d.d.d.d.d.d.d.d.d.d.d.d.d.d.d.d.d.d.d.d.d.d.d.d.d.d.d.d.d.d.d.d.d.d.d.d.d.d.d.d.d.d.d.d.d.",
"d.d.d.d.d.d.d.d.d.d.d.d.d.d.d.d.d.d.d.d.d.d.d.d.d.d.d.d.d.d.d.d.d.d.d.d.d.d.d.d.d.d.d.d.d.d.d.d.d.d.",
"d.d.d.d.d.d.d.d.d.d.d.d.d.d.d.d.d.d.d.d.d.d.d.d.d.d.d.d.d.d.d.d.d.d.d.d.d.d.d.d.d.d.d.d.d.d.d.d.d.d.",
"d.d.d.d.d.d.d.d.d.d.d.d.d.d.d.d.> d.d.d.d.d.d.d.d.d.d.d.d.d.d.d.d.d.d.d.d.d.d.d.d.d.d.d.d.d.d.d.d.d.",
"d.d.d.d.d.d.d.d.d.d.d.d.d.d.< m n < d.d.d.O O O d.d.d.d.d.d.d.d.d.d.d.d.d.d.d.d.d.d.d.d.d.d.d.d.d.d.",
"d.d.d.d.d.d.d.d.d.d.d.d.d.v M T M < d.d.C U I C O d.d.d.d.d.d.d.d.d.d.d.d.d.d.d.d.d.d.d.d.d.d.d.d.d.",
"d.d.d.d.d.d.d.d.d.d.d.d.N B F L x d.d.c >.p.i.P d.d.d.d.d.d.d.d.d.d.d.d.d.d.d.d.d.d.d.d.d.d.d.d.d.d.",
"d.d.d.d.d.d.d.d.d.d.d.d.A { { L x d.d.=.p.p.0.3 d.d.d.d.d.d.d.d.d.d.d.d.d.d.d.d.d.d.d.d.d.d.d.d.d.d.",
"d.d.d.d.d.d.d.d.d.d.@ @ N { +.L x > I i.p.p.=.3 d.d.d.d.d.d.d.d.d.d.d.d.d.d.d.d.d.d.d.d.d.d.d.d.d.d.",
"d.d.d.d.d.d.d.d.d.% v m b @.P L x 3 <.t.u.i.N d.d.d.d.d.d.d.d.d.d.d.d.d.d.d.d.d.d.d.d.d.d.d.d.d.d.d.",
"d.d.d.d.d.d.d.d.d.< K K x C K T v x *.O.8.y.c d.d.d.d.d.d.d.d.d.d.d.d.d.d.d.d.d.d.d.d.d.d.d.d.d.d.d.",
"d.d.d.d.d.d.d.d.d.< H b o p c K M v %.O.8.w.c O > d.d.d.d.d.d.d.d.d.d.d.d.d.d.d.d.d.d.d.d.d.d.d.d.d.",
"d.d.d.d.d.d.d.d.d.% 4 a Q h X , < , N *.r.P 3 m H d.d.d.d.d.d.d.d.d.d.d.d.d.d.d.d.d.d.d.d.d.d.d.d.d.",
"d.d.d.d.d.d.d.d.d.& d / ( h s q * O , N V m C @.L n d.d.d.d.d.d.d.d.d.d.d.d.d.d.d.d.d.d.d.d.d.d.d.d.",
"d.d.d.d.d.d.d.d.% o ( .. .^ t r u #     l J +.} J 0 - d.d.d.d.d.d.d.d.d.d.d.d.d.d.d.d.d.d.d.d.d.d.d.",
"d.d.d.d.d.d.d.d.3 #.4.) 4.[ t u - 8 6 % n P [ B M : q d.d.d.d.d.d.d.d.d.d.d.d.d.d.d.d.d.d.d.d.d.d.d.",
"d.d.d.d.d.d.d.d.2 &.t.3.8.5.! X ; ~ f % n L F J x X i d.d.d.d.d.d.d.d.d.d.d.d.d.d.d.d.d.d.d.d.d.d.d.",
"d.d.d.d.d.d.d.d.= [ 8.4.5.6.~ X 8 ^ e * z K R M & p u d.d.d.d.d.d.d.d.d.d.d.d.d.d.d.d.d.d.d.d.d.d.d.",
"d.d.d.d.d.d.d.d.= ( ..)  .' d . k j r u $ v T n - r u d.d.d.d.d.d.d.d.d.d.d.d.d.d.d.d.d.d.d.d.d.d.d.",
"d.d.d.d.d.d.d.d.= W X.O.| ^ p # - i s r . < v @ . r i d.d.d.d.d.d.d.d.d.d.d.d.d.d.d.d.d.d.d.d.d.d.d.",
"d.d.d.d.d.d.d.d.# g 4.u.o.y u = & * e r ; n x $ w s w d.d.d.d.d.d.d.d.d.d.d.d.d.d.d.d.d.d.d.d.d.d.d.",
"d.d.d.d.d.d.d.d.# d 4.u.] r h W a * p r 9 K S p i i - d.d.d.d.d.d.d.d.d.d.d.d.d.d.d.d.d.d.d.d.d.d.d.",
"d.d.d.d.d.d.d.d.$ i ~ o.f r h h w % - i ; n c i r X d.d.d.d.d.d.d.d.d.d.d.d.d.d.d.d.d.d.d.d.d.d.d.d.",
"d.d.d.d.d.d.d.d.d.q o h t r r w # % * e - > w r r . d.d.d.d.d.d.d.d.d.d.d.d.d.d.d.d.d.d.d.d.d.d.d.d.",
"d.d.d.d.d.d.d.d.d.d.& q r s e $   # w w $ . s s u # O O d.d.d.d.d.d.d.d.d.d.d.d.d.d.d.d.d.d.d.d.d.d.",
"d.d.d.d.d.d.d.d.d.d.% . s s q %   . u 4 < w r p N I I C + d.d.d.d.d.d.d.d.d.d.d.d.d.d.d.d.d.d.d.d.d.",
"d.d.d.d.d.d.d.d.d.d.d.* w s u % $ u u , 2 u r k %.p.a.i.Z   d.d.d.d.d.d.d.d.d.d.d.d.d.d.d.d.d.d.d.d.",
"d.d.d.d.d.d.d.d.d.d.d.d.# X . % w u ; < w e k Y p.p.p.i.U C A N d.d.d.d.d.d.d.d.d.d.d.d.d.d.d.d.d.d.",
"d.d.d.d.d.d.d.d.d.d.d.d.d.d.d.d.d.$ > z w p c 9.i.a.p.=.P q.w.;.d.d.d.d.d.d.d.d.d.d.d.d.d.d.d.d.d.d.",
"d.d.d.d.d.d.d.d.d.d.d.d.d.d.d.d.d.d.% > * 4 M K U q.-.Z H H J M d.d.d.d.d.d.d.d.d.d.d.d.d.d.d.d.d.d.",
"d.d.d.d.d.d.d.d.d.d.d.d.d.d.d.d.d.d.d.% % m H < > , < H M > > + d.d.d.d.d.d.d.d.d.d.d.d.d.d.d.d.d.d."
};
