/* XPM */
static char *enemy_2[] = {
/* columns rows colors chars-per-pixel */
"50 50 182 2 ",
"   c #030200",
".  c #0A0602",
"X  c #0C0802",
"o  c #100C03",
"O  c #171204",
"+  c #1C1705",
"@  c #260E0B",
"#  c #201606",
"$  c #221B06",
"%  c #241309",
"&  c #2A150B",
"*  c #261A08",
"=  c #361C0E",
"-  c #361211",
";  c #3D1513",
":  c #3D1D11",
">  c #262107",
",  c #2C2209",
"<  c #2E2C09",
"1  c #32220B",
"2  c #3F240F",
"3  c #342B0B",
"4  c #3B2D0C",
"5  c #34300A",
"6  c #3B320B",
"7  c #3E3A0B",
"8  c #431216",
"9  c #4C1D17",
"0  c #4B1519",
"q  c #4D1B18",
"w  c #54131E",
"e  c #59171F",
"r  c #551C1B",
"t  c #5B1B1E",
"y  c #631D1F",
"u  c #691C1F",
"i  c #412D0E",
"p  c #44340E",
"a  c #49350F",
"s  c #443B0D",
"d  c #4C3C0F",
"f  c #452412",
"g  c #4B2315",
"h  c #442A10",
"j  c #4B2913",
"k  c #502117",
"l  c #512D15",
"z  c #542419",
"x  c #5A241B",
"c  c #562819",
"v  c #5F2B1B",
"b  c #4D3412",
"n  c #4E3D10",
"m  c #523614",
"M  c #5C3617",
"N  c #513C12",
"B  c #593C14",
"V  c #563018",
"C  c #5C321A",
"Z  c #65201E",
"A  c #672B1D",
"S  c #663B15",
"D  c #693B17",
"F  c #65311C",
"G  c #6F371E",
"H  c #613B19",
"J  c #70301F",
"K  c #743F1C",
"L  c #5D1621",
"P  c #5D1820",
"I  c #6B0E2A",
"U  c #641325",
"Y  c #6A1426",
"T  c #641922",
"R  c #6E1F22",
"E  c #691028",
"W  c #731526",
"Q  c #781527",
"!  c #721D22",
"~  c #7A1E23",
"^  c #731029",
"/  c #7C1429",
"(  c #6C2021",
")  c #702621",
"_  c #47450E",
"`  c #4B420F",
"'  c #4D4A0F",
"]  c #51490F",
"[  c #4E4610",
"{  c #534311",
"}  c #5B4514",
"|  c #534A10",
" . c #5C4B12",
".. c #555410",
"X. c #5B5411",
"o. c #565910",
"O. c #5D5912",
"+. c #644115",
"@. c #6A4A15",
"#. c #664218",
"$. c #684814",
"%. c #724C17",
"&. c #7A451A",
"*. c #764C1B",
"=. c #7E4C1A",
"-. c #74441A",
";. c #635413",
":. c #685414",
">. c #665A12",
",. c #6B5C14",
"<. c #735417",
"1. c #735E17",
"2. c #765318",
"3. c #7C5319",
"4. c #775818",
"5. c #7C5B18",
"6. c #626213",
"7. c #6B6314",
"8. c #676B14",
"9. c #6F6B15",
"0. c #736315",
"q. c #796416",
"w. c #766915",
"e. c #7B6A16",
"r. c #863B1D",
"t. c #8C3C1F",
"y. c #831E25",
"u. c #861A28",
"i. c #951B27",
"p. c #A01F27",
"a. c #A01B28",
"s. c #A91F28",
"d. c #862026",
"f. c #8A2126",
"g. c #8E2826",
"h. c #932626",
"j. c #942825",
"k. c #9B3D23",
"l. c #A82D27",
"z. c #A23326",
"x. c #A93526",
"c. c #AA3D25",
"v. c #A33E25",
"b. c #8E421F",
"n. c #804C1C",
"m. c #8E491E",
"M. c #81521A",
"N. c #88531B",
"B. c #885B1A",
"V. c #95501E",
"C. c #836C17",
"Z. c #8D661A",
"A. c #816A18",
"S. c #83651B",
"D. c #837217",
"F. c #897A17",
"G. c #867218",
"H. c #8E7119",
"J. c #8D7918",
"K. c #947D19",
"L. c #A36A1F",
"P. c #A96D1F",
"I. c #A7731F",
"U. c #854020",
"Y. c #9E5E22",
"T. c #A64724",
"R. c #A54B23",
"E. c #A95323",
"W. c #AA5E21",
"Q. c #9C6220",
"!. c #A76321",
"~. c #AA6421",
"^. c #A86B20",
"/. c #948419",
"(. c #9C8A1A",
"). c #A0821B",
"_. c #AA861E",
"`. c #A08E1B",
"'. c #A1901B",
"]. c #AA951C",
"[. c #AC9B1C",
"{. c None",
/* pixels */
"{.{.{.{.{.{.{.{.{.{.{.{.{.{.{.{.{.{.{.{.{.{.{.{.{.{.{.{.{.{.{.{.{.{.{.{.{.{.{.{.{.{.{.{.{.{.{.{.{.{.",
"{.{.{.{.{.{.{.{.{.{.{.{.{.{.{.{.{.{.{.{.{.{.{.{.{.{.{.{.{.{.{.{.{.{.{.{.{.{.{.{.{.{.{.{.{.{.{.{.{.{.",
"{.{.{.{.{.{.{.{.{.{.{.{.{.{.{.{.{.{.{.{.{.{.{.{.{.{.{.{.{.{.{.{.{.{.{.{.{.{.{.{.{.{.{.{.{.{.{.{.{.{.",
"{.{.{.{.{.{.{.{.{.{.{.{.{.{.{.{.{.{.{.{.{.{.{.{.{.{.{.{.{.{.{.{.{.{.{.{.{.{.{.{.{.{.{.{.{.{.{.{.{.{.",
"{.{.{.{.{.{.{.{.{.{.{.{.{.{.{.{.{.{.{.{.{.{.{.{.{.{.{.{.{.{.{.{.{.{.{.{.{.{.{.{.{.{.{.{.{.{.{.{.{.{.",
"{.{.{.{.{.{.{.{.{.{.{.{.{.{.{.{.{.{.{.{.{.{.{.{.{.{.{.{.{.{.{.{.{.{.{.{.{.{.{.{.{.{.{.{.{.{.{.{.{.{.",
"{.{.{.{.{.{.{.{.{.{.{.{.{.{.{.{.{.{.{.{.{.{.{.{.{.{.{.{.{.{.{.{.{.{.{.{.{.{.{.{.{.{.{.{.{.{.{.{.{.{.",
"{.{.{.{.{.{.{.{.{.{.{.{.{.{.{.{.{.{.{.{.{.{.{.{.{.{.{.{.{.{.{.{.{.{.{.{.{.{.{.{.{.{.{.{.{.{.{.{.{.{.",
"{.{.{.{.{.{.{.{.{.{.{.{.{.{.{.{.{.{.{.{.{.{.{.{.{.{.{.{.{.{.{.{.{.{.{.{.{.{.{.{.{.{.{.{.{.{.{.{.{.{.",
"{.{.{.{.{.{.{.{.{.{.{.{.{.{.{.{.{.{.{.{.{.{.{.{.{.{.{.{.{.{.{.{.{.{.{.{.{.{.{.{.{.{.{.{.{.{.{.{.{.{.",
"{.{.{.{.{.{.{.{.{.{.{.{.{.{.{.{.{.{.{.{.{.{.{.{.{.{.{.{.{.{.{.{.{.{.{.{.{.{.{.{.{.{.{.{.{.{.{.{.{.{.",
"{.{.{.{.{.{.{.{.{.{.{.{.{.{.{.{.{.{.{.{.{.{.{.{.{.{.{.{.{.{.{.{.{.{.{.{.{.{.{.{.{.{.{.{.{.{.{.{.{.{.",
"{.{.{.{.{.{.{.{.{.{.{.{.{.{.{.{.{.{.{.{.{.{.{.{.{.{.{.{.{.{.{.{.{.{.{.{.{.{.{.{.{.{.{.{.{.{.{.{.{.{.",
"{.{.{.{.{.{.{.{.{.{.{.{.{.{.{.{.{.{.{.{.{.{.{.{.{.{.{.{.{.{.{.{.{.{.{.{.{.{.{.{.{.{.{.{.{.{.{.{.{.{.",
"{.{.{.{.{.{.{.{.{.{.{.{.{.{.{.{.{.{.{.{.{.{.{.{.{.{.{.{.{.{.{.{.{.{.{.{.{.{.{.{.{.{.{.{.{.{.{.{.{.{.",
"{.{.{.{.{.{.{.{.{.{.{.{.{.{.{.{.{.{.{.{.{.{.{.{.{.{.{.{.{.{.{.{.{.{.{.{.{.{.{.{.{.{.{.{.{.{.{.{.{.{.",
"{.{.{.{.{.{.{.{.{.{.{.{.{.{.{.{.{.{.{.{.{.{.{.{.{.{.{.{.{.{.{.{.{.{.{.{.{.{.{.{.{.{.{.{.{.{.{.{.{.{.",
"{.{.{.{.{.{.{.{.{.{.{.{.{.{.{.{.{.{.{.{.{.{.{.{.{.{.{.{.{.{.{.{.{.{.{.{.{.{.{.{.{.{.{.{.{.{.{.{.{.{.",
"{.{.{.{.{.{.{.{.{.{.{.{.{.{.{.{.{.{.{.{.{.{.{.{.{.{.{.{.{.{.{.{.{.{.{.{.{.{.{.{.{.{.{.{.{.{.{.{.{.{.",
"{.{.{.{.{.{.{.{.{.{.{.{.{.{.{.. O 3 ` d d $.} {.{.{.{.{.{.{.{.{.{.{.{.{.{.{.{.{.{.{.{.{.{.{.{.{.{.{.",
"{.{.{.{.{.{.{.{.{.{.{.{.{.{.{.> 3 _ [ d X.1.{ {.{.{.{.{.{.{.{.{.{.{.{.{.{.{.{.{.{.{.{.{.{.{.{.{.{.{.",
"{.{.{.{.{.{.{.{.{.{.{.{.{.{.O s X.6.X.{ q.J. .3 {.{.{.{.{.{.{.{.{.{.{.{.{.{.{.{.{.{.{.{.{.{.{.{.{.{.",
"{.{.{.{.{.{.{.{.{.{.{.{.* , ,  .n.3. .{ C.Z.$.n :.{.p {.{.{.{.{.{.{.{.{.{.{.{.{.{.{.{.{.{.{.{.{.{.{.",
"{.{.{.{.{.{.{.{.{.{.{., 5 s b %.b.r.D +.A.B.3.e.q.,.p {.{.{.{.{.{.{.{.{.{.{.{.{.{.{.{.{.{.{.{.{.{.{.",
"{.{.{.{.{.{.{.{.{.{.$ 7 o.| m &.M.=.r.r.5.H.).(.K.:.N {.{.{.{.{.{.{.{.{.{.{.{.{.{.{.{.{.{.{.{.{.{.{.",
"{.{.{.{.{.{.{.{.{.{.> ' 6. .l -.0.0.r.r.M.K.[.[./. .{.{.{.{.{.{.{.{.{.{.{.{.{.{.{.{.{.{.{.{.{.{.{.{.",
"{.{.{.{.{.{.{.{.{.{.5 [ } v x } ,.6.$.S N.L._.].F.p {.{.{.{.{.{.{.{.{.{.{.{.{.{.{.{.{.{.{.{.{.{.{.{.",
"{.{.{.{.{.{.{.{.{.{.6 l ) d.) ( } X.] B V.E.I./.;.$ . {.{.{.{.{.{.{.{.{.{.{.{.{.{.{.{.{.{.{.{.{.{.{.",
"{.{.{.{.{.{.{.{.{.{.h ( f.p.i.W x m N B m.T.L.e.s # o {.{.{.{.{.{.{.{.{.{.{.{.{.{.{.{.{.{.{.{.{.{.{.",
"{.{.{.{.{.{.{.{.{.= M U.k.s.a./ U x c b @.=.B.7.| 7 < {.{.{.{.{.{.{.{.{.{.{.{.{.{.{.{.{.{.{.{.{.{.{.",
"{.{.{.{.{.{.{.{.{.h K !.R.x.z.u.^ U r h B } X.;.@.;.' {.{.{.{.{.{.{.{.{.{.{.{.{.{.{.{.{.{.{.{.{.{.{.",
"{.{.{.{.{.{.{.{., j U.^.~.W.!.g.W P g k Z V X.<.t.2...{.{.{.{.{.{.{.{.{.{.{.{.{.{.{.{.{.{.{.{.{.{.{.",
"{.{.{.{.{.{.{.{.1 j k.E.E.W.!.g.Y r r P U k o.5.U.4.| {.{.{.{.{.{.{.{.{.{.{.{.{.{.{.{.{.{.{.{.{.{.{.",
"{.{.{.{.{.{.{.{.3 j h.l.x.c.v.d.T P U E Y c ..9.B.7.` 3 {.{.{.{.{.{.{.{.{.{.{.{.{.{.{.{.{.{.{.{.{.{.",
"{.{.{.{.{.{.{.{.3 g d.T.E.c.j.~ R Y I ^ E c ..8.7.X.6 + {.{.{.{.{.{.{.{.{.{.{.{.{.{.{.{.{.{.{.{.{.{.",
"{.{.{.{.{.{.{.{.4 g ) W.P.v.u.u ! / I I E c | 6.O.m f # {.{.{.{.{.{.{.{.{.{.{.{.{.{.{.{.{.{.{.{.{.{.",
"{.{.{.{.{.{.{.{.{.f ! k.T.g.W r x U E I U c [ ' N x L ; {.{.{.{.{.{.{.{.{.{.{.{.{.{.{.{.{.{.{.{.{.{.",
"{.{.{.{.{.{.{.{.{.f T d.i.Q Y r x T I I E V [ ` j P L P {.{.{.{.{.{.{.{.{.{.{.{.{.{.{.{.{.{.{.{.{.{.",
"{.{.{.{.{.{.{.{.{.{.g Y ^ I U r ( / ^ I P M ..} x L I L {.{.{.{.{.{.{.{.{.{.{.{.{.{.{.{.{.{.{.{.{.{.",
"{.{.{.{.{.{.{.{.{.{.: U I I U z ( W I U t N } C L I E 0 {.{.{.{.{.{.{.{.{.{.{.{.{.{.{.{.{.{.{.{.{.{.",
"{.{.{.{.{.{.{.{.{.{.& w I I U j f P E P g h c T E U L - {.{.{.{.{.{.{.{.{.{.{.{.{.{.{.{.{.{.{.{.{.{.",
"{.{.{.{.{.{.{.{.{.{.{.- w I U g f L L q 4 h r U L r q @ . {.{.{.{.{.{.{.{.{.{.{.{.{.{.{.{.{.{.{.{.{.",
"{.{.{.{.{.{.{.{.{.{.{.% - L L 9 r L k h p g P P x B N 1 o {.{.{.{.{.{.{.{.{.{.{.{.{.{.{.{.{.{.{.{.{.",
"{.{.{.{.{.{.{.{.{.{.{.{.% - : = 0 8 = a n P E T #.G.J.:., .   . {.{.{.{.{.{.{.{.{.{.{.{.{.{.{.{.{.{.",
"{.{.{.{.{.{.{.{.{.{.{.{.{.* 1 & 0 - 3  .{ T Y G A.].[.G.a $ > > > {.{.{.{.{.{.{.{.{.{.{.{.{.{.{.{.{.",
"{.{.{.{.{.{.{.{.{.{.{.{.{.{.{.{.{.% a e.H T J A.`.[.[.D.{ X.,.>.6 {.{.{.{.{.{.{.{.{.{.{.{.{.{.{.{.{.",
"{.{.{.{.{.{.{.{.{.{.{.{.{.{.{.{.{.* n q.F x *./.].[.'.e.,.F./.F.s {.{.{.{.{.{.{.{.{.{.{.{.{.{.{.{.{.",
"{.{.{.{.{.{.{.{.{.{.{.{.{.{.{.{.{.# 5 X.v B w.(.(.(.F.9.9././.e.5 {.{.{.{.{.{.{.{.{.{.{.{.{.{.{.{.{.",
"{.{.{.{.{.{.{.{.{.{.{.{.{.{.{.{.{.o > n j  .7.0.0.0.7.X.X.,.>.| > {.{.{.{.{.{.{.{.{.{.{.{.{.{.{.{.{.",
"{.{.{.{.{.{.{.{.{.{.{.{.{.{.{.{.{.. + a m X.6.| [ } X.] ` n d p + {.{.{.{.{.{.{.{.{.{.{.{.{.{.{.{.{."
};
