/* XPM */
static char *enemy[] = {
/* columns rows colors chars-per-pixel */
"50 50 209 2 ",
"   c #170F06",
".  c #1B1605",
"X  c #18190C",
"o  c #310E0E",
"O  c #261D08",
"+  c #27170A",
"@  c #361C0D",
"#  c #2D1D12",
"$  c #261D13",
"%  c #3E1012",
"&  c #1C200C",
"*  c #1E2612",
"=  c #1C2918",
"-  c #25230B",
";  c #2C240A",
":  c #352D0A",
">  c #39260C",
",  c #34320D",
"<  c #3A340D",
"1  c #3C3A0D",
"2  c #272D12",
"3  c #2F2C1C",
"4  c #342D19",
"5  c #382914",
"6  c #25331B",
"7  c #2C321A",
"8  c #2D3B1F",
"9  c #313212",
"0  c #34331B",
"q  c #383A1A",
"w  c #3B3616",
"e  c #1F3924",
"r  c #223A24",
"t  c #2B3D23",
"y  c #283621",
"u  c #323121",
"i  c #431614",
"p  c #4C161A",
"a  c #4A1915",
"s  c #54131D",
"d  c #5C171C",
"f  c #531C19",
"g  c #5D1B1B",
"h  c #551D17",
"j  c #62171E",
"k  c #621A1D",
"l  c #721E1D",
"z  c #781C1F",
"x  c #432E0F",
"c  c #44310D",
"v  c #423A0E",
"b  c #4A3C0E",
"n  c #48360E",
"m  c #452411",
"M  c #4C2413",
"N  c #4D2B13",
"B  c #4C2E1F",
"V  c #532416",
"C  c #532E14",
"Z  c #54231B",
"A  c #5A231A",
"S  c #5C2B18",
"D  c #5A2617",
"F  c #4D3411",
"G  c #443B12",
"H  c #423619",
"J  c #553213",
"K  c #5C3417",
"L  c #543C12",
"P  c #5B3D13",
"I  c #6A231D",
"U  c #652B1B",
"Y  c #65201D",
"T  c #72261F",
"R  c #673618",
"E  c #693719",
"W  c #7B351D",
"Q  c #77381A",
"!  c #5E1221",
"~  c #660F25",
"^  c #6C0E28",
"/  c #690E27",
"(  c #631222",
")  c #6C1323",
"_  c #651820",
"`  c #6A1A22",
"'  c #741325",
"]  c #7D1526",
"[  c #7B1A21",
"{  c #761821",
"}  c #542322",
"|  c #4A3C29",
" . c #732820",
".. c #2E4527",
"X. c #2A462B",
"o. c #29462B",
"O. c #334424",
"+. c #36482B",
"@. c #3F522E",
"#. c #2D4D30",
"$. c #3B4F31",
"%. c #2E5335",
"&. c #335535",
"*. c #395935",
"=. c #355C3A",
"-. c #39633E",
";. c #4C420E",
":. c #4E4D0D",
">. c #54470E",
",. c #534C0F",
"<. c #54520F",
"1. c #424015",
"2. c #4D4414",
"3. c #4C4816",
"4. c #40481F",
"5. c #564311",
"6. c #5A4412",
"7. c #544A11",
"8. c #594B13",
"9. c #5C5511",
"0. c #5E5C10",
"q. c #55511A",
"w. c #644C13",
"e. c #684416",
"r. c #7C4319",
"t. c #754919",
"y. c #645312",
"u. c #6D5414",
"i. c #635C12",
"p. c #6C5C13",
"a. c #735415",
"s. c #7A5319",
"d. c #7B5617",
"f. c #646412",
"g. c #6C6213",
"h. c #676B12",
"j. c #736513",
"k. c #746B13",
"l. c #7C6B14",
"z. c #7F6516",
"x. c #687013",
"c. c #7B7214",
"v. c #484C20",
"b. c #495326",
"n. c #46593A",
"m. c #4A6230",
"M. c #3D6741",
"N. c #376843",
"B. c #3C6C44",
"V. c #336340",
"C. c #3E744B",
"Z. c #406D44",
"A. c #486D40",
"S. c #437046",
"D. c #4A7546",
"F. c #43774C",
"G. c #43794D",
"H. c #437D51",
"J. c #80301B",
"K. c #851A25",
"L. c #8C1B26",
"P. c #861725",
"I. c #921B27",
"U. c #9A1F26",
"Y. c #872922",
"T. c #9C2924",
"R. c #8B3722",
"E. c #943922",
"W. c #A63523",
"Q. c #A83223",
"!. c #A23D22",
"~. c #A83C22",
"^. c #A42724",
"/. c #85451B",
"(. c #824D1C",
"). c #84551B",
"_. c #A8591F",
"`. c #8D6819",
"'. c #96671A",
"]. c #8C7C17",
"[. c #837815",
"{. c #907F17",
"}. c #967B19",
"|. c #A5641E",
" X c #A9641F",
".X c #A2711C",
"XX c #A9751D",
"oX c #8B4720",
"OX c #9D4322",
"+X c #975520",
"@X c #A64621",
"#X c #A45221",
"$X c #A85220",
"%X c #458254",
"&X c #468658",
"*X c #498D5C",
"=X c #498757",
"-X c #4B915F",
";X c #4D9562",
":X c #4F9A65",
">X c #509B66",
",X c #8C8316",
"<X c #968318",
"1X c #998219",
"2X c #9E8D19",
"3X c #A7891C",
"4X c #A5941A",
"5X c #AB9B1B",
"6X c #A8961B",
/* pixels */
">X>X>X>X>X>X>X>X>X>X>X>X>X>X>X>X>X>X>X>X>X>X>X>X>X>X>X>X>X>X>X>X>X>X>X>X>X>X>X>X>X>X>X>X>X>X>X>X>X>X",
">X>X>X>X>X>X>X>X>X>X>X>X>X>X>X>X>X>X>X>X>X>X>X>X>X>X>X>X>X>X>X>X>X>X>X>X>X>X>X>X>X>X>X>X>X>X>X>X>X>X",
">X>X>X>X>X>X>X>X>X>X>X>X>X>X>X>X>X>X>X>X>X>X>X>X>X>X>X>X>X>X>X>X>X>X>X>X>X>X>X>X>X>X>X>X>X>X>X>X>X>X",
">X>X>X>X>X>X>X>X>X>X>X>X>X>X>X>X>X>X>X>X>X>X>X>X>X>X>X>X>X>X>X>X>X>X>X>X>X>X>X>X>X>X>X>X>X>X>X>X>X>X",
">X>X>X>X>X>X>X>X>X>X>X>X>X>X>X>X>X>X>X>X>X>X>X>X>X>X>X>X>X>X>X>X>X>X>X>X>X>X>X>X>X>X>X>X>X>X>X>X>X>X",
">X>X>X>X>X>X>X>X>X>X>X>X>X>X>X>X>X>X>X>X>X>X>X>X>X>X>X>X>X>X>X>X>X>X>X>X>X>X>X>X>X>X>X>X>X>X>X>X>X>X",
">X>X>X>X>X>X>X>X>X>X>X>X>X>X>X>X>X>X>X>X>X>X>X>X>X>X>X>X>X>X>X>X>X>X>X>X>X>X>X>X>X>X>X>X>X>X>X>X>X>X",
">X>X>X>X>X>X>X>X>X>X>X>X>X>X>X>X>X>X>X>X>X>X>X>X>X>X>X>X>X>X>X>X>X>X>X>X>X>X>X>X>X>X>X>X>X>X>X>X>X>X",
">X>X>X>X>X>X>X>X>X>X>X>X>X>X>X>X>X>X>X>X>X>X>X>X>X>X:X:X>X>X>X>X>X>X>X>X>X>X>X>X>X>X>X>X>X>X>X>X>X>X",
">X>X>X>X>X>X>X>X>X>X>X>X>X>X>X>X>X>X>X>X>X>X>X>X>X>X:X:X>X>X>X>X>X>X>X>X>X>X>X>X>X>X>X>X>X>X>X>X>X>X",
">X>X>X>X>X>X>X>X>X>X>X>X>X>X>X>X>X>X>X>X>X:X-X:X;X:X;X;X;X;X;X>X>X>X>X>X>X>X>X>X>X>X>X>X>X>X>X>X>X>X",
">X>X>X>X>X>X>X>X>X>X>X>X>X>X>X>X>X>X>X>X-X%XC.F.F.*XH.H.F.F.;X>X>X>X>X>X>X>X>X>X>X>X>X>X>X>X>X>X>X>X",
">X>X>X>X>X>X>X>X>X>X>X>X>X>X>X>X>X>X>X>X-X&.8 ..o.C.%.t O.o.%X;X:X:X>X>X>X>X>X>X>X>X>X>X>X>X>X>X>X>X",
">X>X>X>X>X>X>X>X>X>X>X>X>X>X>X>X>X>X>X>X*X..- < 2 #.= - , 2 =.&X:X>X>X>X>X>X>X>X>X>X>X>X>X>X>X>X>X>X",
">X>X>X>X>X>X>X>X>X>X>X>X>X>X>X>X>X:X-X-X%XO.1 :.1 * X ; :.1 6 C.>X:X>X>X>X>X>X>X>X>X>X>X>X>X>X>X>X>X",
">X>X>X>X>X>X>X>X>X>X>X>X>X>X>X>X>X:X%X%.#.q :.<.;..   < 0.:.9 B.:X>X>X>X>X>X>X>X>X>X>X>X>X>X>X>X>X>X",
">X>X>X>X>X>X>X>X>X>X>X>X>X>X>X>X:X>XC.= $ 5 P 8.b O O b i.0.G D.>X>X>X>X>X>X>X>X>X>X>X>X>X>X>X>X>X>X",
">X>X>X>X>X>X>X>X>X>X>X>X>X>X>X>X:X>XS.; % f A D M @ c E s.i.3.D.>X>X>X>X>X>X>X>X>X>X>X>X>X>X>X>X>X>X",
">X>X>X>X>X>X>X>X>X>X>X>X>X>X>X;X%XG.n.} T T T ` d a 6./.oXf.3.D.*X%X-X>X>X>X>X>X>X>X>X>X>X>X>X>X>X>X",
">X>X>X>X>X>X>X>X>X>X>X>X>X>X>X;X%.6 B  ./.+XE.P.' V P r.r.p.q.m.-.*.*X>X>X>X>X>X>X>X>X>X>X>X>X>X>X>X",
">X>X>X>X>X>X>X>X>X>X>X>X>X>X>X-Xe + d Y.OX#X!.U.] _ R e.s.t.L b.b.v.M.*X>X>X>X>X>X>X>X>X>X>X>X>X>X>X",
">X>X>X>X>X>X>X>X>X>X>X>X>X>X>X*Xr o l T.Q.~.Q.T.P.) K 9.s.W R 3.i.9.+.&X>X>X>X>X>X>X>X>X>X>X>X>X>X>X",
">X>X>X>X>X>X>X>X>X>X>X>X>X>X>X-X+.p Y.#X~.Q.@XOXK.' C 9.a.W R u.`.a.q H.:X>X>X>X>X>X>X>X>X>X>X>X>X>X",
">X>X>X>X>X>X>X>X>X>X>X>X>X>X;XG.| j R.|.@XQ._.#XK.( D 5.w.Q s.`.|.r.0 H.:X>X>X>X>X>X>X>X>X>X>X>X>X>X",
">X>X>X>X>X>X>X>X>X>X>X>X>X>X*X$.} ~ Y.!.^.^.Q.E.' ! A J P t.`..X XW w %X>X>X>X>X>X>X>X>X>X>X>X>X>X>X",
">X>X>X>X>X>X>X>X>X>X>X>X>X>X&Xu s / ' I.I.I.I.P.` Y k V L ).'.XX XQ w H.>X>X>X>X>X>X>X>X>X>X>X>X>X>X",
">X>X>X>X>X>X>X>X>X>X>X>X>X>X%X0 s / ^ ' ' ' ] ) _ [ { g K '._.XX3Xd.q %X>X>X>X>X>X>X>X>X>X>X>X>X>X>X",
">X>X>X>X>X>X>X>X>X>X>X>X>X>X%X4 s / ^ ~ ( ~ j s g [ [ d e..X_.3X5Xl.q %X>X>X>X>X>X>X>X>X>X>X>X>X>X>X",
">X>X>X>X>X>X>X>X>X>X>X>X>X>X%X4 s / / ! j j s h j z l h e.}.}.1X<Xi.0 %X:X>X>X>X>X>X>X>X>X>X>X>X>X>X",
">X>X>X>X>X>X>X>X>X>X>X>X>X>X%Xy p / ! d l g a D l z / h L j.`.[.g.v 7 %X:X>X>X>X>X>X>X>X>X>X>X>X>X>X",
">X>X>X>X>X>X>X>X>X>X>X>X>X>X*X+.Z d d k z k h k P.l j V L i.9.>.G 8 ..&X:X>X>X>X>X>X>X>X>X>X>X>X>X>X",
">X>X>X>X>X>X>X>X>X>X>X>X>X>X;XF.H i A K.P.) ! ) P.~ V L 9.0.>.; ..C.H.-X:X>X>X>X>X>X>X>X>X>X>X>X>X>X",
">X>X>X>X>X>X>X>X>X>X>X>X>X>X>X*XO.@ g ] ] ^ / ' ' k N 7.g.u.7.; &.;X>X>X>X>X>X>X>X>X>X>X>X>X>X>X>X>X",
">X>X>X>X>X>X>X>X>X>X>X>X>X>X>X-X#.# s ~ ( ~ ~ _ k C F <.u.(.y.< &.;X:X>X>X>X>X>X>X>X>X>X>X>X>X>X>X>X",
">X>X>X>X>X>X>X>X>X>X>X>X>X>X>X;XN.0 i p p p p f K 6.;.<.a./.u.1 *.;X>X>X>X>X>X>X>X>X>X>X>X>X>X>X>X>X",
">X>X>X>X>X>X>X>X>X>X>X>X>X>X>X>X*X=.3 0 4 0 5 x 8.0.;.3.u.r.u.G *.;X>X>X>X>X>X>X>X>X>X>X>X>X>X>X>X>X",
">X>X>X>X>X>X>X>X>X>X>X>X>X>X>X>X:X%XB.M.B.M.t ; ;.,.b n 5.w.i.v *.;X>X>X>X>X>X>X>X>X>X>X>X>X>X>X>X>X",
">X>X>X>X>X>X>X>X>X>X>X>X>X>X>X>X:X:X;X;X-XC.r . < F C V C L 9.< &.;X>X>X>X>X>X>X>X>X>X>X>X>X>X>X>X>X",
">X>X>X>X>X>X>X>X>X>X>X>X>X>X>X>X>X:X:X>X-X&.X   @ V k k A N ;.9 =.;X>X>X>X>X>X>X>X>X>X>X>X>X>X>X>X>X",
">X>X>X>X>X>X>X>X>X>X>X>X>X>X>X>X>X>X>X:X-X..+ + a j k d f m : O.B.;X>X>X>X>X>X>X>X>X>X>X>X>X>X>X>X>X",
">X>X>X>X>X>X>X>X>X>X>X>X>X>X>X>X>X>X:X-X=Xb.x M _ ` S N m > . *.%X*X;X:X>X>X>X>X>X>X>X>X>X>X>X>X>X>X",
">X>X>X>X>X>X>X>X>X>X>X>X>X>X>X>X>X>XH.%.m.q.J U W (.s.6.x > O 4.*.V.;X:X>X>X>X>X>X>X>X>X>X>X>X>X>X>X",
">X>X>X>X>X>X>X>X>X>X>X>X>X>X>X>X>X>XB.= 2.8.S R `.}.{.p.b n v ,.9 o.-X>X>X>X>X>X>X>X>X>X>X>X>X>X>X>X",
">X>X>X>X>X>X>X>X>X>X>X>X>X>X>X>X>X>XN.& G L D t.}.3X<Xk.i.g.j.g.: e *X>X>X>X>X>X>X>X>X>X>X>X>X>X>X>X",
">X>X>X>X>X>X>X>X>X>X>X>X>X>X>X>X>X>XB.- G J R z.4X6X].j.k.,X2Xl.: r *X:X>X>X>X>X>X>X>X>X>X>X>X>X>X>X",
">X>X>X>X>X>X>X>X>X>X>X>X>X>X>X>X>X>XS.9 n S t.1X5X4Xl.i.c.2X2Xg.O t *X:X>X>X>X>X>X>X>X>X>X>X>X>X>X>X",
">X>X>X>X>X>X>X>X>X>X>X>X>X>X>X>X>X>XD.H J U ).2X6X2Xj.i.c.].k.;.7 =.-X:X>X>X>X>X>X>X>X>X>X>X>X>X>X>X",
">X>X>X>X>X>X>X>X>X>X>X>X>X>X>X>X>X>XD.w S E ).].{.[.g.0.x.g.>.q =.&X:X:X>X>X>X>X>X>X>X>X>X>X>X>X>X>X",
">X>X>X>X>X>X>X>X>X>X>X>X>X>X>X>X>X>XZ.5 Z e.j.g.p.g.f.f.f.<.G @.G.:X:X:X>X>X>X>X>X>X>X>X>X>X>X>X>X>X",
">X>X>X>X>X>X>X>X>X>X>X>X>X>X>X>X>X>XZ.# A w.i.q.2.q.f.x.0.;.G D.:X:X:X:X>X>X>X>X>X>X>X>X>X>X>X>X>X>X"
};
