/* XPM */
static char *enemy_8[] = {
/* columns rows colors chars-per-pixel */
"50 50 140 2 ",
"   c #3D260E",
".  c #3F2A0F",
"X  c #541D1B",
"o  c #5A1B1E",
"O  c #601A1F",
"+  c #412B0F",
"@  c #44310F",
"#  c #462413",
"$  c #4B2316",
"%  c #442A10",
"&  c #4B2B13",
"*  c #542516",
"=  c #512D16",
"-  c #5E2816",
";  c #53221A",
":  c #5B221D",
">  c #562A19",
",  c #463310",
"<  c #4A3511",
"1  c #473810",
"2  c #4B3B10",
"3  c #563317",
"4  c #543B12",
"5  c #5C3815",
"6  c #64221D",
"7  c #6A251A",
"8  c #642918",
"9  c #7A241C",
"0  c #722A1E",
"q  c #62341C",
"w  c #73361A",
"e  c #713A1A",
"r  c #5E1721",
"t  c #5C1920",
"y  c #6B0E2A",
"u  c #730E2B",
"i  c #780E2A",
"p  c #641325",
"a  c #6C1426",
"s  c #631A23",
"d  c #6D1B21",
"f  c #671028",
"g  c #6B1128",
"h  c #731526",
"j  c #7D1627",
"k  c #721E22",
"l  c #7A1925",
"z  c #77102A",
"x  c #7A1329",
"c  c #7F1828",
"v  c #642221",
"b  c #7F2120",
"n  c #4D4310",
"m  c #544512",
"M  c #534B11",
"N  c #5B4A13",
"B  c #565111",
"V  c #595412",
"C  c #5C5C12",
"Z  c #624C14",
"A  c #664C1A",
"S  c #714C19",
"D  c #655113",
"F  c #6A5514",
"G  c #635C13",
"H  c #6D5B15",
"J  c #735E15",
"K  c #725218",
"L  c #5F6113",
"P  c #646413",
"I  c #656B13",
"U  c #6D6C15",
"Y  c #756316",
"T  c #7A6616",
"R  c #706C16",
"E  c #7E6B16",
"W  c #786218",
"Q  c #6B7314",
"!  c #767615",
"~  c #797016",
"^  c #7F7816",
"/  c #80241E",
"(  c #831A26",
")  c #8C1D25",
"_  c #8B1529",
"`  c #8C1B29",
"'  c #951C27",
"]  c #9C1A29",
"[  c #A21F26",
"{  c #A41F28",
"}  c #A91D28",
"|  c #872120",
" . c #8A2227",
".. c #802C28",
"X. c #9E2D26",
"o. c #9F2028",
"O. c #873522",
"+. c #953327",
"@. c #963B22",
"#. c #A92727",
"$. c #A22B26",
"%. c #A42128",
"&. c #AA2028",
"*. c #A83326",
"=. c #A23824",
"-. c #AA3D25",
";. c #8D421F",
":. c #87491D",
">. c #8E481F",
",. c #82521C",
"<. c #806818",
"1. c #96641F",
"2. c #867317",
"3. c #867C17",
"4. c #867218",
"5. c #887618",
"6. c #8D7A18",
"7. c #927F19",
"8. c #A56F1F",
"9. c #A37F1E",
"0. c #AD7E1F",
"q. c #9A5523",
"w. c #AA4424",
"e. c #A45323",
"r. c #AA5323",
"t. c #AA5E22",
"y. c #A77520",
"u. c #978519",
"i. c #968D19",
"p. c #9A881A",
"a. c #9B921A",
"s. c #AC811F",
"d. c #A18F1B",
"f. c #AB8B1E",
"g. c #A3931B",
"h. c #A9971B",
"j. c #AD9C1C",
"k. c #B09F1D",
"l. c #B1A01D",
"z. c None",
/* pixels */
"z.z.z.z.z.z.z.z.z.z.z.z.z.z.z.z.z.z.z.z.z.z.z.z.z.z.z.z.z.z.z.z.z.z.z.z.z.z.z.z.z.z.z.z.z.z.z.z.z.z.",
"z.z.z.z.z.z.z.z.z.z.z.z.z.z.z.z.z.z.z.z.z.z.z.z.z.z.z.z.z.z.z.z.z.z.z.z.z.z.z.z.z.z.z.z.z.z.z.z.z.z.",
"z.z.z.z.z.z.z.z.z.z.z.z.z.z.z.z.z.z.z.z.z.z.z.z.z.z.z.z.z.z.z.z.z.z.z.z.z.z.z.z.z.z.z.z.z.z.z.z.z.z.",
"z.z.z.z.z.z.z.z.z.z.z.z.z.z.z.z.z.z.z.z.z.z.z.z.z.z.z.z.z.z.z.z.z.z.z.z.z.z.z.z.z.z.z.z.z.z.z.z.z.z.",
"z.z.z.z.z.z.z.z.z.z.z.z.z.z.z.z.z.z.z.z.z.z.z.z.z.z.z.z.z.z.z.z.z.z.z.z.z.z.z.z.z.z.z.z.z.z.z.z.z.z.",
"z.z.z.z.z.z.z.z.z.z.z.z.z.z.z.z.z.z.z.z.z.z.z.z.z.z.z.z.z.z.z.z.z.z.z.z.z.z.z.z.z.z.z.z.z.z.z.z.z.z.",
"z.z.z.z.z.z.z.z.z.z.z.z.z.z.z.z.z.z.z.z.z.z.z.z.z.z.z.z.z.z.z.z.z.z.z.z.z.z.z.z.z.z.z.z.z.z.z.z.z.z.",
"z.z.z.z.z.z.z.z.z.z.z.z.z.z.z.z.z.z.z.z.z.z.z.z.z.z.z.z.z.z.z.z.z.z.z.z.z.z.z.z.z.z.z.z.z.z.z.z.z.z.",
"z.z.z.z.z.z.z.z.z.z.z.z.z.z.z.z.z.z.z.z.z.z.z.z.z.z.z.z.z.z.z.z.z.z.z.z.z.z.z.z.z.z.z.z.z.z.z.z.z.z.",
"z.z.z.z.z.z.z.z.z.z.z.z.z.z.z.z.z.z.z.z.z.z.z.z.z.z.z.z.z.z.z.z.z.z.z.z.z.z.z.z.z.z.z.z.z.z.z.z.z.z.",
"z.z.z.z.z.z.z.z.z.z.z.z.z.z.z.z.z.z.z.z.z.z.z.z.z.z.z.z.z.z.z.z.z.z.z.z.z.z.z.z.z.z.z.z.z.z.z.z.z.z.",
"z.z.z.z.z.z.z.z.z.z.z.z.z.z.z.z.z.z.z.z.z.z.z.z.z.z.z.z.z.z.z.z.z.z.z.z.z.z.z.z.z.z.z.z.z.z.z.z.z.z.",
"z.z.z.z.z.z.z.z.z.z.z.z.z.z.z.z.z.z.z.z.z.z.z.z.z.z.z.z.z.z.z.z.z.z.z.z.z.z.z.z.z.z.z.z.z.z.z.z.z.z.",
"z.z.z.z.z.z.z.z.z.z.z.z.z.z.z.z.z.z.z.z.z.z.z.z.z.z.z.z.z.z.z.z.z.z.z.z.z.z.z.z.z.z.z.z.z.z.z.z.z.z.",
"z.z.z.z.z.z.z.z.z.z.z.z.z.z.z.z.z.z.z.z.z.z.z.z.z.z.z.z.z.z.z.z.z.z.z.z.z.z.z.z.z.z.z.z.z.z.z.z.z.z.",
"z.z.z.z.z.z.z.z.z.z.z.z.z.z.z.z.z.z.z.z.z.z.z.z.z.z.z.z.z.z.z.z.z.z.z.z.z.z.z.z.z.z.z.z.z.z.z.z.z.z.",
"z.z.z.z.z.z.z.z.z.z.z.z.z.z.z.z.z.z.z.z.z.z.z.z.z.z.z.z.z.z.z.z.z.z.z.z.z.z.z.z.z.z.z.z.z.z.z.z.z.z.",
"z.z.z.z.z.z.z.z.z.z.z.z.z.z.z.z.z.z.z.z.z.z.z.z.z.z.z.z.z.z.z.z.z.z.z.z.z.z.z.z.z.z.z.z.z.z.z.z.z.z.",
"z.z.z.z.z.z.z.z.z.z.z.z.z.z.z.z.z.z.z.z.z.z.z.z.z.z.z.z.z.z.z.z.z.z.z.z.z.z.z.z.z.z.z.z.z.z.z.z.z.z.",
"z.z.z.z.z.z.z.z.z.z.z.z.z.z.z.z.z.z.z.< + z.z.z.z.z.z.z.z.z.z.z.z.z.z.z.z.z.z.z.z.z.z.z.z.z.z.z.z.z.",
"z.z.z.z.z.z.z.z.z.z.z.z.z.z.z.z.z.z.H H + z.z.z.z.z.z.z.z.z.z.z.z.z.z.z.z.z.z.z.z.z.z.z.z.z.z.z.z.z.",
"z.z.z.z.z.z.z.z.z.z.z.z.z.@ z.z.z.N 6.5.< z.z.z.z.z.z.z.z.z.z.z.z.z.z.z.z.z.z.z.z.z.z.z.z.z.z.z.z.z.",
"z.z.z.z.z.z.z.z.z.z.z.z.2 m < z.z.T h.d.H z.z.z.z.z.z.z.z.z.z.z.z.z.z.z.z.z.z.z.z.z.z.z.z.z.z.z.z.z.",
"z.z.z.z.z.z.z.z.z.z.z.z.B C < z.T d.k.k.Y   z.z.z.z.z.z.z.z.z.z.z.z.z.z.z.z.z.z.z.z.z.z.z.z.z.z.z.z.",
"z.z.z.z.z.z.z.z.z.z.z.z.e :.m + E j.j.j.7.D z.z.z.z.z.z.z.z.z.z.z.z.z.z.z.z.z.z.z.z.z.z.z.z.z.z.z.z.",
"z.z.z.z.z.z.z.z.z.z.z.z.9 $.P 2 Z g.k.j.h.F z.z.z.z.z.z.z.z.z.z.z.z.z.z.z.z.z.z.z.z.z.z.z.z.z.z.z.z.",
"z.z.z.z.z.z.z.z.z.z.z.& w >.U L M E h.k.h.F z.z.z.z.z.z.z.z.z.z.z.z.z.z.z.z.z.z.z.z.z.z.z.z.z.z.z.z.",
"z.z.z.z.z.z.z.z.z.n n 1 N U Q Q I N 2.j.p.Z z.z.z.z.z.z.z.z.z.z.z.z.z.z.z.z.z.z.z.z.z.z.z.z.z.z.z.z.",
"z.z.z.z.z.z.z.z.1 V P M @ V L I I M N 6.H + z.z.z.z.z.z.z.z.z.z.z.z.z.z.z.z.z.z.z.z.z.z.z.z.z.z.z.z.",
"z.z.z.z.z.z.z.z.z., n M # 3 & m I C @ < @ % z.z.z.z.z.z.z.z.z.z.z.z.z.z.z.z.z.z.z.z.z.z.z.z.z.z.z.z.",
"z.z.z.z.z.z.z.z.z.z.% - h ( a : N m + . % . , < z.z.z.z.z.z.z.z.z.z.z.z.z.z.z.z.z.z.z.z.z.z.z.z.z.z.",
"z.z.z.z.z.z.z.z.z.% ; l ] ] x f s = + & % , B S 0 z.z.z.z.z.z.z.z.z.z.z.z.z.z.z.z.z.z.z.z.z.z.z.z.z.",
"z.z.z.z.z.z.z.z.z.& b o.%.%.` y f : 9 / 8 M Y @.O.m z.z.z.z.z.z.z.z.z.z.z.z.z.z.z.z.z.z.z.z.z.z.z.z.",
"z.z.z.z.z.z.z.z.z.5 1.w.#.t.q.g o - ) _ 6 C W X.;.m + z.z.z.z.z.z.z.z.z.z.z.z.z.z.z.z.z.z.z.z.z.z.z.",
"z.z.z.z.z.z.z.z.z.5 8.0.w.s.y.c X 7 j u X V U ,.S < $ z.z.z.z.z.z.z.z.z.z.z.z.z.z.z.z.z.z.z.z.z.z.z.",
"z.z.z.z.z.z.z.z.z.- =.t.-.r.r.` o b x y p N I Q V $ t z.z.z.z.z.z.z.z.z.z.z.z.z.z.z.z.z.z.z.z.z.z.z.",
"z.z.z.z.z.z.z.z.z.8 { %.} &.%.l ; k z y y > B P m t p z.z.z.z.z.z.z.z.z.z.z.z.z.z.z.z.z.z.z.z.z.z.z.",
"z.z.z.z.z.z.z.z.z.* ' *.w.#._ t # X f y y ; n M & r p z.z.z.z.z.z.z.z.z.z.z.z.z.z.z.z.z.z.z.z.z.z.z.",
"z.z.z.z.z.z.z.z.z.$ ( t.f.+.u d * $ s y f > B 1 $ y p z.z.z.z.z.z.z.z.z.z.z.z.z.z.z.z.z.z.z.z.z.z.z.",
"z.z.z.z.z.z.z.z.z.$ c e.y...u ' x r X f y > B < o y p z.z.z.z.z.z.z.z.z.z.z.z.z.z.z.z.z.z.z.z.z.z.z.",
"z.z.z.z.z.z.z.z.z.; g  .X.x y z g ; $ g f = N s y f X z.z.z.z.z.z.z.z.z.z.z.z.z.z.z.z.z.z.z.z.z.z.z.",
"z.z.z.z.z.z.z.z.z.z.z.O x u y g X $ r y t % > p f X # z.z.z.z.z.z.z.z.z.z.z.z.z.z.z.z.z.z.z.z.z.z.z.",
"z.z.z.z.z.z.z.z.z.z.z.# s y y r % $ p p $ % X s ; & , 2 z.z.z.z.z.z.z.z.z.z.z.z.z.z.z.z.z.z.z.z.z.z.",
"z.z.z.z.z.z.z.z.z.z.z.% t y y t % X g t % X y t N 4.2.J z.z.z.z.z.z.z.z.z.z.z.z.z.z.z.z.z.z.z.z.z.z.",
"z.z.z.z.z.z.z.z.z.z.z.z.$ t g t $ f f > 2 o p q 6.k.k.7.2 +   + z.z.z.z.z.z.z.z.z.z.z.z.z.z.z.z.z.z.",
"z.z.z.z.z.z.z.z.z.z.z.z.z.$ X $ X s X < 3 p v <.h.k.k.7.m N J F z.z.z.z.z.z.z.z.z.z.z.z.z.z.z.z.z.z.",
"z.z.z.z.z.z.z.z.z.z.z.z.z.z.% % z.X & 2 X s K g.l.j.h.<.G i.j.u.z.z.z.z.z.z.z.z.z.z.z.z.z.z.z.z.z.z.",
"z.z.z.z.z.z.z.z.z.z.z.z.z.z.z.z.z.  n B : q ^ a.g.j.6.G ! a.a.3.z.z.z.z.z.z.z.z.z.z.z.z.z.z.z.z.z.z.",
"z.z.z.z.z.z.z.z.z.z.z.z.z.z.z.z.z.z.n M > A Q P ~ 6.F V P P I V z.z.z.z.z.z.z.z.z.z.z.z.z.z.z.z.z.z.",
"z.z.z.z.z.z.z.z.z.z.z.z.z.z.z.z.z.z.z.% % C I 2 , 4 B n , , , % z.z.z.z.z.z.z.z.z.z.z.z.z.z.z.z.z.z."
};
