/* XPM */
static char *enemy_3[] = {
/* columns rows colors chars-per-pixel */
"50 50 178 2 ",
"   c #020101",
".  c #0B0602",
"X  c #0E0803",
"o  c #140D04",
"O  c #190F05",
"+  c #170708",
"@  c #1E0C09",
"#  c #1F040C",
"$  c #161105",
"%  c #1C1306",
"&  c #1E1906",
"*  c #20050D",
"=  c #240B0C",
"-  c #221607",
";  c #231A07",
":  c #241209",
">  c #2A160A",
",  c #251908",
"<  c #2C1C0A",
"1  c #32160C",
"2  c #331C0C",
"3  c #3A1C0E",
"4  c #330912",
"5  c #331010",
"6  c #3C1513",
"7  c #3C1A11",
"8  c #2D2209",
"9  c #33230B",
"0  c #3B230E",
"q  c #342A0B",
"w  c #3D2C0E",
"e  c #3D330C",
"r  c #3F2111",
"t  c #520D1C",
"y  c #441415",
"u  c #431C13",
"i  c #4B1D15",
"p  c #461118",
"a  c #4E141A",
"s  c #511F17",
"d  c #591D16",
"f  c #531D1A",
"g  c #5B1B1E",
"h  c #651D1B",
"j  c #761D1E",
"k  c #7A1F1F",
"l  c #412C0F",
"z  c #43330E",
"x  c #453B0E",
"c  c #4B3B0F",
"v  c #442512",
"b  c #4B2414",
"n  c #432910",
"m  c #4B2A12",
"M  c #552316",
"N  c #5A2516",
"B  c #522814",
"V  c #5C2916",
"C  c #532218",
"Z  c #5B221A",
"A  c #5C2B1B",
"S  c #493111",
"D  c #4E3C10",
"F  c #543115",
"G  c #5F3417",
"H  c #533C12",
"J  c #593B16",
"K  c #5A3119",
"L  c #622617",
"P  c #66211A",
"I  c #6E201D",
"U  c #622C1D",
"Y  c #7B221E",
"T  c #633D14",
"R  c #6A3B17",
"E  c #6A3E1B",
"W  c #5F1422",
"Q  c #5D1920",
"!  c #6D0E2A",
"~  c #631523",
"^  c #6C1524",
"/  c #641920",
"(  c #6B1921",
")  c #6B1028",
"_  c #721527",
"`  c #791626",
"'  c #741922",
"]  c #7A1E20",
"[  c #72102A",
"{  c #6D2D22",
"}  c #733C20",
"|  c #4B440F",
" . c #4E4C0F",
".. c #524A0F",
"X. c #4E4510",
"o. c #4F4910",
"O. c #534311",
"+. c #5C4613",
"@. c #554F11",
"#. c #5C4B13",
"$. c #555211",
"%. c #5A5412",
"&. c #5C5B12",
"*. c #634914",
"=. c #684F16",
"-. c #664719",
";. c #694719",
":. c #6C481B",
">. c #77431A",
",. c #7C4B1C",
"<. c #645414",
"1. c #695314",
"2. c #665A13",
"3. c #6A5C14",
"4. c #755017",
"5. c #725518",
"6. c #795119",
"7. c #7D5C19",
"8. c #5E6013",
"9. c #626313",
"0. c #6C6114",
"q. c #686E14",
"w. c #706014",
"e. c #796616",
"r. c #726915",
"t. c #7F7816",
"y. c #7F4B20",
"u. c #80211F",
"i. c #822F1E",
"p. c #863B1E",
"a. c #8A3C1E",
"s. c #841A24",
"d. c #8B1B25",
"f. c #861529",
"g. c #821D28",
"h. c #8A1C28",
"j. c #971A28",
"k. c #892720",
"l. c #992525",
"z. c #913521",
"x. c #953E23",
"c. c #A33F25",
"v. c #81461A",
"b. c #91481F",
"n. c #82531E",
"m. c #8F511D",
"M. c #8B5A1B",
"N. c #94521E",
"B. c #97581F",
"V. c #846717",
"C. c #82631A",
"Z. c #8F641B",
"A. c #876F19",
"S. c #8F6E19",
"D. c #807516",
"F. c #807D16",
"G. c #8B7F17",
"H. c #8A7718",
"J. c #897A18",
"K. c #95701E",
"L. c #91781A",
"P. c #A1711D",
"I. c #A9741F",
"U. c #8C4320",
"Y. c #8C5C20",
"T. c #A54524",
"R. c #A05722",
"E. c #AC5E22",
"W. c #A66620",
"Q. c #AA6C20",
"!. c #AB6522",
"~. c #8B8018",
"^. c #958519",
"/. c #9F8B1B",
"(. c #9E901A",
"). c #A38D1B",
"_. c #A4921B",
"`. c None",
/* pixels */
"`.`.`.`.`.`.`.`.`.`.`.`.`.`.`.`.`.`.`.`.`.`.`.`.`.`.`.`.`.`.`.`.`.`.`.`.`.`.`.`.`.`.`.`.`.`.`.`.`.`.",
"`.`.`.`.`.`.`.`.`.`.`.`.`.`.`.`.`.`.`.`.`.`.`.`.`.`.`.`.`.`.`.`.`.`.`.`.`.`.`.`.`.`.`.`.`.`.`.`.`.`.",
"`.`.`.`.`.`.`.`.`.`.`.`.`.`.`.`.`.`.`.`.`.`.`.`.`.`.`.`.`.`.`.`.`.`.`.`.`.`.`.`.`.`.`.`.`.`.`.`.`.`.",
"`.`.`.`.`.`.`.`.`.`.`.`.`.`.`.`.`.`.`.`.`.`.`.`.`.`.`.`.`.`.`.`.`.`.`.`.`.`.`.`.`.`.`.`.`.`.`.`.`.`.",
"`.`.`.`.`.`.`.`.`.`.`.`.`.`.`.`.`.`.`.`.`.`.`.`.`.`.`.`.`.`.`.`.`.`.`.`.`.`.`.`.`.`.`.`.`.`.`.`.`.`.",
"`.`.`.`.`.`.`.`.`.`.`.`.`.`.`.`.`.`.`.`.`.`.`.`.`.`.`.`.`.`.`.`.`.`.`.`.`.`.`.`.`.`.`.`.`.`.`.`.`.`.",
"`.`.`.`.`.`.`.`.`.`.`.`.`.`.`.`.`.`.`.`.`.`.`.`.`.`.`.`.`.`.`.`.`.`.`.`.`.`.`.`.`.`.`.`.`.`.`.`.`.`.",
"`.`.`.`.`.`.`.`.`.`.`.`.`.`.`.`.`.`.`.`.`.`.`.`.`.`.`.`.`.`.`.`.y N < o `.`.`.`.`.`.`.`.`.`.`.`.`.`.",
"`.`.`.`.`.`.`.`.`.`.`.`.`.`.`.`.`.`.`.`.`.`.`.`.`.`.`.`.`.`.`.: y h d > O `.`.`.`.`.`.`.`.`.`.`.`.`.",
"`.`.`.`.`.`.`.`.`.`.`.`.`.`.`.`.`.`.`.`.`.`.`.`.`.`.`.`.`.`.`.$ y ` s.C 2 `.`.`.`.`.`.`.`.`.`.`.`.`.",
"`.`.`.`.`.`.`.`.`.`.`.`.`.`.`.`.`.`.`.`.`.`.`.`.`.`.`.`.`.`.`.O 6 ( d.s.C 2 `.`.`.`.`.`.`.`.`.`.`.`.",
"`.`.`.`.`.`.`.`.`.`.`.`.`.`.`.`.`.`.`.`.`.`.`.`.`.`.`.`.`.`.`.O 1 f ' d.Y M 3 `.`.`.`.`.`.`.`.`.`.`.",
"`.`.`.`.`.`.`.`.`.`.`.`.`.`.`.`.`.`.`.`.`.`.`.`.`.`.`.`.`.`.`.O 2 b g ` l.u.P 2 `.`.`.`.`.`.`.`.`.`.",
"`.`.`.`.`.`.`.`.`.`.`.`.`.`.`.`.`.`.`.`.`.`.`.`.`.`.`.`.`.`.`.$ < v C ^ g.c.v.e `.`.`.`.`.`.`.`.`.`.",
"`.`.`.`.`.`.`.`.`.`.`.`.`.`.`.`.`.`.`.`.`.`.`.`.`.`.`.`.`.`.`.% < v s ^ g.R.S.*.`.`.`.`.`.`.`.`.`.`.",
"`.`.`.`.`.`.`.`.`.`.`.`.`.`.`.`.`.`.`.`.`.`.`.`.`.`.`.`.`.`.`.6 v C / ) ` x.N.R 1 `.`.`.`.`.`.`.`.`.",
"`.`.`.`.`.`.`.`.`.`.`.`.`.`.`.`.`.`.`.`.`.`.`.`.`.`.`.`.`.* p f C h ` ) ) h.l.h > `.`.`.`.`.`.`.`.`.",
"`.`.`.`.`.`.`.`.`.`.`.`.`.`.`.`.`.`.`.`.`.`.`.`.`.`.`.`.+ * u b Z _ [ ! [ f.j.( 7 `.`.`.`.`.`.`.`.`.",
"`.`.`.`.`.`.`.`.`.`.`.`.`.`.`.`.`.`.`.`.`.`.`.`.`.`.`.`.* = v n C / ~ ) ! f.f.Q n 9 `.`.`.`.`.`.`.`.",
"`.`.`.`.`.`.`.`.`.`.`.`.`.`.`.`.`.`.`.`.`.`.`.`.`.`.`.`.`.* 0 n v b f W ! [ ^ Q r < o $ o `.`.`.`.`.",
"`.`.`.`.`.`.`.`.`.`.`.`.`.`.`.`.`.`.`.`.`.`.`.`.`.`.`.`.`.@ > 9 n n b C ~ ! ~ b n q 0 u 0 `.`.`.`.`.",
"`.`.`.`.`.`.`.`.`.`.`.`.`.`.`.`.`.`.`.`.`.`.`.`.`.`.`.`.`.`.o < n w n v Q ) g v z $.>.i.T l `.`.`.`.",
"`.`.`.`.`.`.`.`.`.`.`.`.`.`.`.`.`.`.`.`.`.`.`.`.`.`.`.`.`.`.. - 0 w w n s Q i z X.9.n.U.6.x , `.`.`.",
"`.`.`.`.`.`.`.`.`.`.`.`.`.`.`.`.`.`.`.`.`.`.`.`.`.`.`.`.`.`.`.& 8 r w n v n n z O.9.5.>.1.| - . `.`.",
"`.`.`.`.`.`.`.`.`.`.`.`.`.`.`.`.`.`.`.`.`.`.`.`.`.`.`.`.`.`.`.`.0 w n n w l w n c %.+.H H `.`.`.`.`.",
"`.`.`.`.`.`.`.`.`.`.`.`.`.`.`.`.`.`.`.`.`.`.`.`.`.`.`.`.`.`.`.`.0 n m m n w m T V =.%.z 9 `.`.`.`.`.",
"`.`.`.`.`.`.`.`.`.`.`.`.`.`.`.`.`.`.`.`.`.`.`.`.`.`.`.`.4 p f p 7 n N L M n T b.z.M.e.X.% `.`.`.`.`.",
"`.`.`.`.`.`.`.`.`.`.`.`.`.`.`.`.`.`.`.`.`.`.`.`.`.`.`.5 6 u i 7 7 m Z ( M +.e.I.!.W.B.R w `.`.`.`.`.",
"`.`.`.`.`.`.`.`.`.`.`.`.`.`.`.`.`.`.`.`.`.`.`.`.`.`.4 6 v n w w v N g ~ B 3.^._.).Q.T.a.*.`.`.`.`.`.",
"`.`.`.`.`.`.`.`.`.`.`.`.`.`.`.`.`.`.`.`.`.`.`.`.`.`.t i m w w n V ] ^ / J 2.D.J.H.P.!.b.*.`.`.`.`.`.",
"`.`.`.`.`.`.`.`.`.`.`.`.`.`.`.`.`.`.`.`.`.`.`.`.`.`.^ h M M C m I h.^ C O.&.0.0.1.C.Z.6.H `.`.`.`.`.",
"`.`.`.`.`.`.`.`.`.`.`.`.`.`.`.`.`.`.`.`.`.`.`.`.`.`.f P j k.g.( ^ _ g v O.<.3.3.H D H D `.`.`.`.`.`.",
"`.`.`.`.`.`.`.`.`.`.`.`.`.`.`.`.`.`.`.`.`.`.`.`.`.`.2 i h k k ^ ~ g u 2 e %.7.6.O.9 < `.`.`.`.`.`.`.",
"`.`.`.`.`.`.`.`.`.`.`.`.`.`.`.`.`.`.`.`.`.`.`.`.`.`.$ O 1 b d f s i < $ < O.,.p.+.9 % `.`.`.`.`.`.`.",
"`.`.`.`.`.`.`.`.`.`.`.`.`.`.`.`.`.`.`.`.`.`.`.`.`.`.`.`.- 2 f g i 0 `.`.`.z B V z ; `.`.`.`.`.`.`.`.",
"`.`.`.`.`.`.`.`.`.`.`.`.`.`.`.`.`.`.`.`.`.`.`.o `.`.`.`.1 y W ~ y < `.`.`.`.9 0 8 % `.`.`.`.`.`.`.`.",
"`.`.`.`.`.`.`.`.`.`.`.`.`.`.`.`.`.`.`.. X `.- & `.`.`.`.i h ! a = `.`.`.`.`.`.`.`.`.`.`.`.`.`.`.`.`.",
"`.`.`.`.`.`.`.`.`.`.`.`.`.`.`.`.`.`.`.X & `.9 e `.`.w 2 i ' ~ 6 o `.`.`.`.`.`.`.`.`.`.`.`.`.`.`.`.`.",
"`.`.`.`.`.`.`.`.`.`.`.`.`.`.`.`.`.`.  o e 9 e X.+.H.+.b A C 7 1 `.`.`.`.`.`.`.`.`.`.`.`.`.`.`.`.`.`.",
"`.`.`.`.`.`.`.`.`.`.`.`.`.`.`.`.`.`.  % #.X.o.#.:.L.=.F J 3 - `.`.`.`.`.`.`.`.`.`.`.`.`.`.`.`.`.`.`.",
"`.`.`.`.`.`.`.`.`.`.`.`.`.`.`.`.`.`.  & 0.0.%.-.U.L.1.O.o.< X `.`.`.`.`.`.`.`.`.`.`.`.`.`.`.`.`.`.`.",
"`.`.`.`.`.`.`.`.`.`.`.`.`.`.`.`.`.`.  & w.0.J } L.G.&.$. .8 X `.`.`.`.`.`.`.`.`.`.`.`.`.`.`.`.`.`.`.",
"`.`.`.`.`.`.`.`.`.`.`.`.`.`.`.`.`.`.  % 2.<.A Y.(.F.%.&.$.8 `.`.`.`.`.`.`.`.`.`.`.`.`.`.`.`.`.`.`.`.",
"`.`.`.`.`.`.`.`.`.`.`.`.`.`.`.`.`.`.  $ @.H E K.(.t.$.&.$.8 `.`.`.`.`.`.`.`.`.`.`.`.`.`.`.`.`.`.`.`.",
"`.`.`.`.`.`.`.`.`.`.`.`.`.`.`.`.`.`.o & x A y./.(.r.%.&.$.8 `.`.`.`.`.`.`.`.`.`.`.`.`.`.`.`.`.`.`.`.",
"`.`.`.`.`.`.`.`.`.`.`.`.`.`.`.`.`.`.< 8 S A Y.).^.&.%.9.$.8 `.`.`.`.`.`.`.`.`.`.`.`.`.`.`.`.`.`.`.`.",
"`.`.`.`.`.`.`.`.`.`.`.`.`.`.`.`.`.`.w w F { Y.(.~.$.&.q. .8 `.`.`.`.`.`.`.`.`.`.`.`.`.`.`.`.`.`.`.`.",
"`.`.`.`.`.`.`.`.`.`.`.`.`.`.`.`.`.`.e n A } C.^.t.%.&.9.| 8 `.`.`.`.`.`.`.`.`.`.`.`.`.`.`.`.`.`.`.`.",
"`.`.`.`.`.`.`.`.`.`.`.`.`.`.`.`.`.`.< 2 Z :.0.0.<.&.&. .q `.`.`.`.`.`.`.`.`.`.`.`.`.`.`.`.`.`.`.`.`.",
"`.`.`.`.`.`.`.`.`.`.`.`.`.`.`.`.`.`.$ : C 1.9.o.X.&.8.x `.`.`.`.`.`.`.`.`.`.`.`.`.`.`.`.`.`.`.`.`.`."
};
