/* XPM */
static char * exit_xpm[] = {
"50 50 140 2",
"  	c #509B66",
". 	c #8EF884",
"+ 	c #78E06E",
"@ 	c #8DF583",
"# 	c #5DC853",
"$ 	c #228F16",
"% 	c #1C8A11",
"& 	c #3BA731",
"* 	c #90F987",
"= 	c #52BC46",
"- 	c #19850E",
"; 	c #177C0D",
"> 	c #16760D",
", 	c #1D7114",
"' 	c #35852B",
") 	c #387A2D",
"! 	c #71C266",
"~ 	c #6B8562",
"{ 	c #96918D",
"] 	c #98938F",
"^ 	c #86817B",
"/ 	c #615B55",
"( 	c #7DE773",
"_ 	c #319D26",
": 	c #34A029",
"< 	c #42AC37",
"[ 	c #70DA66",
"} 	c #7E7873",
"| 	c #89837D",
"1 	c #376A2B",
"2 	c #757D6B",
"3 	c #8C8681",
"4 	c #736C65",
"5 	c #5C5651",
"6 	c #6B945E",
"7 	c #2C9821",
"8 	c #249119",
"9 	c #17820D",
"0 	c #8FE986",
"a 	c #6F6962",
"b 	c #7A746D",
"c 	c #645E59",
"d 	c #505246",
"e 	c #4E6C43",
"f 	c #777069",
"g 	c #56514C",
"h 	c #38732D",
"i 	c #156B0D",
"j 	c #1B8310",
"k 	c #75DD6B",
"l 	c #59534E",
"m 	c #3E6B33",
"n 	c #246A1B",
"o 	c #278A1C",
"p 	c #6A645D",
"q 	c #65825B",
"r 	c #837E79",
"s 	c #534D49",
"t 	c #3C6231",
"u 	c #25771A",
"v 	c #36602C",
"w 	c #406F36",
"x 	c #546149",
"y 	c #737A65",
"z 	c #85CD79",
"A 	c #6ED764",
"B 	c #639758",
"C 	c #606D56",
"D 	c #746E69",
"E 	c #7C7770",
"F 	c #67605A",
"G 	c #2E6125",
"H 	c #838D77",
"I 	c #6D7F61",
"J 	c #5DBC53",
"K 	c #197B0F",
"L 	c #349429",
"M 	c #415D36",
"N 	c #719E66",
"O 	c #2D9622",
"P 	c #3B8031",
"Q 	c #504B46",
"R 	c #4C5E42",
"S 	c #4F5145",
"T 	c #47553D",
"U 	c #5A604F",
"V 	c #433C37",
"W 	c #49433F",
"X 	c #999490",
"Y 	c #6D6761",
"Z 	c #938E8A",
"` 	c #4A4542",
" .	c #36312D",
"..	c #3B3632",
"+.	c #39322D",
"@.	c #332E2A",
"#.	c #46403C",
"$.	c #5F5953",
"%.	c #3E3936",
"&.	c #817B75",
"*.	c #8E8984",
"=.	c #717163",
"-.	c #2F2A25",
";.	c #26221F",
">.	c #918B87",
",.	c #2F2B28",
"'.	c #778C6A",
").	c #86D47B",
"!.	c #2B2623",
"~.	c #1C1817",
"{.	c #272320",
"].	c #4E4945",
"^.	c #65A95B",
"/.	c #79B76F",
"(.	c #3F3B38",
"_.	c #211D1B",
":.	c #1A1615",
"<.	c #1E1A18",
"[.	c #628455",
"}.	c #379C2C",
"|.	c #549548",
"1.	c #6FC965",
"2.	c #433E3A",
"3.	c #6B6B5E",
"4.	c #339027",
"5.	c #418A37",
"6.	c #73846A",
"7.	c #4E8343",
"8.	c #267B1B",
"9.	c #427838",
"0.	c #385F2F",
"a.	c #4DB742",
"b.	c #2B7C21",
"c.	c #5EC454",
"d.	c #607854",
"e.	c #838F7A",
"f.	c #718B67",
"g.	c #979490",
"h.	c #9D9894",
"i.	c #A29D9A",
"                                                                                                    ",
"                                                                                                    ",
"                                                                                                    ",
"                                                                                                    ",
"                                                                                                    ",
"                                                                                                    ",
"                                                                                                    ",
"                                                                                                    ",
"                                                                                                    ",
"                                            . + @                                                   ",
"                                          # $ % %   &               *                               ",
"                                        = - ; > , ' )             * .                               ",
"                                      ! - - , ~ { ] ^ /     @ ( _ : < [                             ",
"                                  } | / 1 ; 2 ] ] 3 4 4 5 6 7 8 9 9 - 7 0                           ",
"                                a { b c d e ] ] { f 4 4 g h - 9 > i j $ k                           ",
"                                / c c g l c { ] ^ 4 4 4 g m - i i n o - 8                           ",
"                                p 5 q l p l 4 r ^ 4 4 c s t u v w x , 9 -                           ",
"                              ] y z A B C b D 5 E 4 4 s s s F b b a G ; j                           ",
"                            ] H I J K ; L H 4 l p 4 l s s l f b 4 a s M / s                         ",
"                          c p N k O i i P f F Q 5 / s s s p b f c / l c 4 l s                       ",
"                      { b 5 l Q R S d T U 5 Q V V W Q Q l f a l l s F 4 4 g s                       ",
"                    X { 4 / Y l 4 { Z c ` V  ...+.V +.@.#.l s s s / c / p s $.p l                   ",
"                    X | 4 g 5 r Z ^ 4 s +.%.V ..V @.+.@...V Q l 4 4 4 s s s p 4 p s                 ",
"                  r ] &.c l *.| =.p s ` +.%...-.Q ;.V ;.V  .+.F 4 p p s c y l 4 c g                 ",
"                    $.5 s } >.4 F s Q +.%. . .,.;.;.,.;.V -...Q $.g s d '.).q F l Q                 ",
"                  | p l s b &.Y s V +.%.%.-.` !.;.;.~.;.{.,. .V ].g a a k < ^.5 l 5 5               ",
"                /.4 / g l / c s ]...(. .].!.,.{._._.~.:.<.{...W s 4 4 [.O - }.|.J =./ Q             ",
"              @ 1.l s b 3 D / ` ..%...@.#.{.{._._.~.:.~.:._.{.V 2.3.2 4.; > ; ; 9 [.s s             ",
"              5.- - 6.>.} 4 c ..V (...@. .,.<.<.<.:.:.:.~.:._...(.].7.8.9.m n i - 7.s l             ",
"              - > > - y 4 4 s V %.%. .W  .!._.~.<.:.:.:.:.~._.{.(.#.2 *.&.4 $.0.; 5.s p c           ",
"          a.o , i i ' b 4 4 s V %.2.Q ` !._.<.:.:.:.:.:.:.:.~.{.%.5 { ^ f 4 5 s x a 5 5 c c         ",
"          7 - i i i b.4 p / Q ..(.` ` !.{._.:.:.:.:.:.:.:.:.:.{...f ] ^ 4 4 s s $.4 Y 5 p /         ",
"        c.j > w 3.x d.4 g s W @.4 p ..{.{._.:.:.:.:.:.:._.:.~.@.Q p 3 r 4 p Q s c D c 5 5 g         ",
"        ] e.f.} 4 / s s s s V l ] f p -.{.<.@.!.:.:.:.:.E 5 a g.r 5 Y E Y 5 s s c c s Q 5           ",
"        { *.f F 4 F l l / s c l b 4 p / ` ].^ p } ` @.a g } X E 4 5 / / s s s c b p s 5 5           ",
"        >.Y 4 l / s c >.b l / l l 5 c 3 4 *./ 5 E g   D E Y &.Y c s s Q s s Y 3 E 4 5 Q             ",
"          s s s s s *.h.| a $.4 f 4 D r $.p g         3 c $.c Q s 5 4 Y a a r 3 4 c s s             ",
"          s s s s l { i.| ^ $.| b F / c               r 5 g 5 5 5 4 4 p c / 4 Y 5 s s               ",
"            s s Q s &.i.Z 4 l l l g                   Y a r } 4 5 c 4 c /   Y s s                   ",
"                  s l D c s s                           g.g.| Y s 5 4 g Q                           ",
"                      s s l                               } 4 l s 5 F s                             ",
"                                                                                                    ",
"                                                                                                    ",
"                                                                                                    ",
"                                                                                                    ",
"                                                                                                    ",
"                                                                                                    ",
"                                                                                                    ",
"                                                                                                    ",
"                                                                                                    "};
