/* XPM */
static char *fox[] = {
/* columns rows colors chars-per-pixel */
"50 50 158 2 ",
"   c #020201",
".  c #090502",
"X  c #120902",
"o  c #1F0F03",
"O  c #0D140D",
"+  c #1E1106",
"@  c #161108",
"#  c #1E1409",
"$  c #101D13",
"%  c #181F17",
"&  c #231407",
"*  c #26180C",
"=  c #2A1A0C",
"-  c #341D0A",
";  c #1D2012",
":  c #14271A",
">  c #172B1D",
",  c #192D1D",
"<  c #2F200F",
"1  c #3F2107",
"2  c #3C220C",
"3  c #232211",
"4  c #2F2617",
"5  c #202F1D",
"6  c #312711",
"7  c #2B341D",
"8  c #3E3C1F",
"9  c #193020",
"0  c #252F26",
"q  c #262728",
"w  c #312A24",
"e  c #243524",
"r  c #2D3B24",
"t  c #23372B",
"y  c #3E3125",
"u  c #323B23",
"i  c #383D22",
"p  c #3A322B",
"a  c #42260C",
"s  c #502C0B",
"d  c #5A320F",
"f  c #432A12",
"g  c #4A2B10",
"h  c #423217",
"j  c #403619",
"k  c #443A1C",
"l  c #5B3411",
"z  c #5C3815",
"x  c #5E3A19",
"c  c #513C1B",
"v  c #603711",
"b  c #653A13",
"n  c #693D14",
"m  c #633D19",
"M  c #4B3A2B",
"N  c #583D26",
"B  c #403932",
"V  c #364025",
"C  c #354229",
"Z  c #30482D",
"A  c #2C4333",
"S  c #394035",
"D  c #36543F",
"F  c #3B623E",
"G  c #6D4017",
"H  c #66401B",
"J  c #6C411C",
"K  c #7F4512",
"L  c #77481D",
"P  c #7B4A1C",
"I  c #464223",
"U  c #57402B",
"Y  c #5C442E",
"T  c #7C4F22",
"R  c #3D5144",
"E  c #336242",
"W  c #386240",
"Q  c #396E49",
"!  c #3D754D",
"~  c #3E784F",
"^  c #3F7B51",
"/  c #474441",
"(  c #505645",
")  c #595A5C",
"_  c #40774E",
"`  c #42794F",
"'  c #427D53",
"]  c #5F6261",
"[  c #5B6D63",
"{  c #834A17",
"}  c #824C1B",
"|  c #894E1A",
" . c #904F14",
".. c #86501E",
"X. c #96571F",
"o. c #9A5519",
"O. c #9E5A1E",
"+. c #A25B1C",
"@. c #AD621E",
"#. c #8D5826",
"$. c #885322",
"%. c #905722",
"&. c #945822",
"*. c #985D27",
"=. c #A35E21",
"-. c #AC6423",
";. c #AD692B",
":. c #A4642A",
">. c #BE6C23",
",. c #B36C2C",
"<. c #B86E2B",
"1. c #B36621",
"2. c #BB702E",
"3. c #B76F30",
"4. c #C06A1E",
"5. c #C26F25",
"6. c #C67023",
"7. c #CF7627",
"8. c #C2742D",
"9. c #CD772A",
"0. c #D77A27",
"q. c #DE7D27",
"w. c #D87B29",
"e. c #C17632",
"r. c #C27A38",
"t. c #E37F27",
"y. c #9E7146",
"u. c #AA7340",
"i. c #A8784C",
"p. c #A47143",
"a. c #B67841",
"s. c #BE7F45",
"d. c #438356",
"f. c #448658",
"g. c #46895A",
"h. c #4D9663",
"j. c #4F9965",
"k. c #509B66",
"l. c #529E68",
"z. c #95867A",
"x. c #CA884D",
"c. c #C38349",
"v. c #D18642",
"b. c #979897",
"n. c #A59E98",
"m. c #BBAFA0",
"M. c #B6B7B9",
"N. c #BABABC",
"B. c #A6A6A7",
"V. c #CBB7A5",
"C. c #C9B9AA",
"Z. c #C8C0B7",
"A. c #C2C0BE",
"S. c #D2C5B9",
"D. c #E6CDB7",
"F. c #FDF2E6",
"G. c #FFFFFF",
"H. c #CECFD0",
/* pixels */
"k.k.k.k.k.k.k.k.k.k.k.k.k.j.k.k.k.k.k.k.k.k.k.k.k.k.k.k.j.k.k.k.k.k.k.k.k.k.k.k.k.k.k.k.k.k.k.k.k.k.",
"k.k.k.k.k.k.k.k.k.k.k.k.k.j.k.k.k.k.k.k.k.k.k.k.k.k.k.k.k.k.k.k.k.k.k.k.k.k.k.k.k.k.k.k.k.k.k.k.k.k.",
"k.k.k.k.k.k.k.k.k.k.k.k.k.k.k.k.k.k.k.k.k.k.k.k.k.k.k.k.j.k.k.k.k.k.k.k.k.k.k.k.k.k.k.k.k.k.k.k.k.k.",
"k.k.k.k.k.k.k.k.k.k.k.k.k.k.k.k.k.k.k.k.k.k.k.k.k.k.k.k.k.k.k.k.k.k.k.k.k.k.k.k.k.k.k.k.k.k.k.k.k.k.",
"k.k.k.k.k.k.j.k.k.k.k.k.k.k.k.k.k.k.k.k.k.k.k.k.k.k.k.k.k.k.k.k.k.k.k.k.k.k.k.k.k.k.k.k.k.k.k.k.k.k.",
"k.k.k.k.k.k.k.k.k.k.k.k.k.k.k.k.k.k.k.k.k.k.k.k.k.k.k.k.k.k.k.k.k.k.k.k.k.k.k.k.k.k.k.k.k.k.k.k.k.k.",
"k.k.k.k.k.k.k.k.k.k.k.k.k.k.k.k.k.k.k.k.k.k.k.j.k.k.k.k.k.k.k.k.k.k.k.k.k.k.k.k.k.k.k.k.k.k.k.k.k.k.",
"k.k.k.k.k.k.k.k.k.k.k.k.k.k.k.k.k.k.k.k.k.k.k.k.k.k.k.k.k.k.k.k.k.k.k.j.k.k.k.k.k.k.k.k.k.k.k.k.k.k.",
"k.k.k.k.k.k.k.k.k.k.k.k.k.k.k.k.k.k.k.k.k.k.k.k.k.k.k.k.k.k.k.k.k.k.k.k.k.k.k.k.k.k.k.k.k.k.k.k.k.k.",
"k.k.k.k.k.k.k.k.k.k.k.k.k.k.k.k.k.k.k.k.k.k.k.k.k.k.k.k.k.k.k.k.k.k.k.k.k.k.k.k.k.k.k.k.k.k.k.k.k.k.",
"k.k.k.k.k.k.k.k.k.k.k.k.k.k.k.k.k.k.k.k.k.k.k.k.j.k.k.k.k.k.k.k.k.k.k.k.k.k.k.k.k.k.k.k.k.k.k.k.k.k.",
"k.k.k.j.k.k.k.k.k.k.k.k.k.k.k.k.k.k.k.k.k.k.k.k.k.k.k.k.k.k.k.k.k.k.k.k.k.k.k.k.k.k.k.k.k.k.k.k.k.k.",
"k.k.k.k.k.k.k.k.k.k.k.k.k.k.k.k.k.k.k.k.k.k.k.k.k.k.k.k.k.k.k.k.k.k.k.k.k.k.k.k.k.j.k.k.k.k.k.k.k.k.",
"k.k.k.k.k.k.l.k.k.k.k.k.k.k.k.k.k.k.k.k.k.k.h.g.j.k.k.k.k.k.k.k.k.k.k.k.k.k.k.k.k.k.k.k.k.k.k.k.k.j.",
"k.k.k.k.k.k.k.k.k.k.k.k.k.k.k.k.k.k.k.k.k.k._ C ` k.k.k.k.k.k.k.k.k.k.k.k.k.k.k.k.k.k.k.k.k.k.k.k.k.",
"k.k.k.k.k.k.k.k.k.k.k.k.k.k.k.k.k.k.k.k.k.! I P 7 g.k.k.k.k.k.j.k.k.k.k.k.k.k.k.k.k.k.k.k.k.k.k.k.k.",
"k.k.k.k.k.j.k.j.k.k.k.k.l.k.k.k.k.k.k.k.! I $.G 3 ! j.j.l.j.j.l.k.k.k.k.k.k.k.k.j.k.k.k.k.k.k.k.k.k.",
"k.k.k.k.k.k.j.l.l.k.k.k.k.k.k.k.k.k.k.g.r #.;.P z i ! j.l.j.l.j.k.k.k.k.k.k.k.k.k.k.k.k.k.k.k.k.k.k.",
"k.k.k.k.k.k.k.k.k.k.k.l.k.k.k.k.k.k.k._ h ;.8.2.5.X.I ! j.j.j.j.k.k.k.k.k.k.k.k.k.k.k.k.k.j.k.k.k.k.",
"k.k.k.k.k.k.j.k.k.k.k.k.k.k.k.k.k.j._ k -.9.,.9.t.q.@.I ~ l.j.l.k.k.k.k.k.k.k.k.k.k.k.k.k.k.k.k.k.k.",
"k.k.k.k.j.k.k.j.k.j.k.k.j.k.k.k.l.g.Z T 2.&.H ,.0.>.>.%.8 ! j.l.k.k.k.k.k.k.k.k.k.k.k.k.k.k.k.k.k.k.",
"k.k.k.k.l.k.k.l.k.l.l.k.l.k.j.k.k.h.F c *.x P 8.3.U f :.y.( ' j.k.k.k.k.k.k.j.k.k.k.k.k.k.k.k.k.j.k.",
"k.k.k.k.k.k.j.l.l.j.j.k.k.l.k.k.l.f.r } ;.L m ;.c.n.y p.D.b.A f.l.k.k.k.k.k.k.k.k.k.k.k.k.k.k.k.k.k.",
"k.k.k.k.k.j.k.k.j.k.j.l.k.k.j.k.l.f.e b -.m P ,.x.V.Y i.S.) : d.l.k.k.k.k.k.k.k.k.k.k.k.k.k.k.k.k.k.",
"k.k.k.k.k.k.k.k.k.k.l.j.k.k.j.k.k.g.! 7 G | G -.r.s.;.a.z.] t f.l.k.k.k.k.k.k.k.k.k.k.k.k.k.k.k.k.k.",
"k.k.k.k.k.k.k.k.j.k.k.k.k.k.j.h.' D _ ~ ; v O.O.2.8.<.&.4 t ' j.k.k.k.k.k.k.k.k.k.k.k.k.k.k.k.k.k.k.",
"k.k.k.k.k.k.k.k.k.l.k.l.k.k.l.d.R b.[ E O a -.@.1.0.| g 6 F h.k.k.k.k.k.k.k.k.k.k.k.k.k.k.k.k.k.k.k.",
"k.k.k.k.k.k.k.k.j.k.k.k.k.k.k.d.p C.m.e @ ..:.v d @.>.-.| r g.k.k.k.k.k.k.k.k.k.k.k.k.k.k.k.k.k.k.k.",
"k.k.k.k.k.k.k.k.k.k.k.k.k.k.k.f.C u.s.* < P d o.+.d 6.0.} ; f.l.l.j.j.k.k.k.l.j.k.k.k.j.k.k.k.j.k.k.",
"k.k.k.k.k.k.k.k.k.k.k.k.k.k.k.k.! k } 2 { a < r.v.U :.9.o.3 d.l.j.j.l.j.k.k.j.k.k.k.j.l.k.k.k.k.k.k.",
"k.k.k.k.k.k.k.k.j.k.k.k.k.k.k.k.d.u J - b K M Z.F.Z.Y o.G 9 g.l.j.l.k.k.k.k.k.k.k.k.k.k.k.k.k.k.k.k.",
"k.k.k.k.k.k.k.k.k.k.k.k.k.k.k.k.j._ i 8 = 1 p H.G.M.w 1 3 D j.l.l.j.k.k.k.k.k.k.k.k.k.k.k.k.k.k.k.k.",
"k.k.k.k.k.k.k.k.k.k.k.k.k.k.k.k.l.j.d.F @   q B.N./ = X   > ~ j.k.k.k.k.k.k.k.k.k.k.k.k.k.k.k.k.k.k.",
"k.k.k.k.k.k.k.k.k.k.k.k.k.k.k.k.k.k.f.,   . = M p = b &     > f.k.k.k.k.k.k.k.k.k.k.k.k.k.k.k.k.k.k.",
"k.k.k.k.k.k.k.k.k.k.k.k.k.k.k.k.k.l.d.:   # }  .s a & .     : g.l.k.k.k.k.k.k.k.k.k.k.k.k.k.k.k.k.k.",
"k.k.k.k.k.k.k.k.k.k.k.k.k.k.k.k.k.k.j.` : O # o X .     O : ^ j.k.k.k.k.k.k.k.k.k.k.k.k.k.k.k.k.k.k.",
"k.k.k.k.k.k.k.k.k.k.k.k.k.k.k.k.k.k.k.j.f.Q , $ $ $ $ , ! f.j.j.k.k.k.k.k.k.k.k.k.k.k.k.k.k.k.k.k.k.",
"k.k.k.k.k.k.k.k.k.k.k.k.k.k.k.k.k.k.k.k.l.j.f.' ' ' d.f.j.l.l.k.k.k.k.k.k.k.k.k.k.k.k.k.k.k.k.k.k.k.",
"k.k.k.k.k.k.k.k.k.k.k.k.k.k.k.k.k.k.k.k.k.k.k.l.l.l.l.l.j.j.l.k.k.k.k.k.k.k.k.k.k.k.k.k.k.k.k.k.k.k.",
"k.k.k.k.k.k.k.k.k.k.k.k.k.k.k.k.k.k.k.k.k.k.k.k.j.j.l.j.j.j.j.k.k.k.k.k.k.k.k.k.j.k.k.k.k.k.k.k.k.k.",
"k.k.k.k.k.k.k.k.k.j.k.k.k.k.k.k.k.k.k.k.j.k.k.k.k.k.k.k.k.k.k.k.k.k.k.k.k.k.k.k.k.k.k.k.k.k.k.k.k.k.",
"k.k.k.k.k.k.k.k.k.k.k.k.k.k.k.k.k.k.k.k.k.k.k.k.k.k.k.k.k.k.k.k.k.k.k.k.k.k.k.k.k.k.k.k.k.k.k.k.k.k.",
"k.k.k.k.k.k.k.j.k.k.k.k.k.k.k.k.k.k.k.k.k.k.k.k.k.k.k.k.k.k.k.k.k.k.k.j.k.k.k.k.k.k.k.k.k.k.k.k.k.k.",
"k.k.k.k.k.k.k.k.k.k.k.k.k.k.k.k.k.k.k.k.k.k.k.k.k.k.k.k.k.k.k.k.k.k.k.k.k.k.k.k.k.k.k.k.k.k.k.k.k.k.",
"k.k.k.k.k.k.k.k.k.k.k.k.k.k.k.k.k.k.k.k.k.k.k.k.j.k.k.k.k.k.k.k.k.k.k.k.k.k.k.k.k.k.k.k.k.k.k.j.k.k.",
"k.k.k.k.k.k.k.k.k.k.k.k.k.k.k.k.k.k.k.k.k.k.k.k.k.k.k.k.k.k.k.k.k.k.k.k.k.k.k.k.k.k.k.k.k.k.k.k.k.k.",
"k.k.k.k.k.k.k.k.k.k.k.k.k.j.k.k.k.k.k.k.k.k.k.k.k.k.k.k.k.k.k.k.k.k.k.k.k.k.k.k.k.k.k.k.k.k.k.k.j.k.",
"k.k.k.j.k.k.k.k.k.k.k.k.k.k.k.k.k.k.k.k.k.k.k.k.k.k.k.k.k.k.k.k.k.k.k.k.k.k.k.k.k.k.k.j.k.k.k.k.k.k.",
"k.k.k.k.k.k.k.k.k.k.k.k.k.k.k.k.l.j.k.k.k.k.k.k.k.k.k.k.k.k.k.k.k.k.k.k.k.k.k.k.k.k.k.k.k.k.k.k.k.k.",
"k.k.k.k.k.k.k.k.k.k.k.k.k.k.k.k.k.j.k.k.k.k.k.k.k.k.k.k.k.k.k.k.k.k.k.k.k.j.k.k.k.k.k.k.k.k.k.k.k.k."
};
