/* XPM */
static char *fox_11[] = {
/* columns rows colors chars-per-pixel */
"50 50 120 2 ",
"   c #010100",
".  c #0C0702",
"X  c #0D0803",
"o  c #140C04",
"O  c #0A140D",
"+  c #1E1207",
"@  c #11190F",
"#  c #0F1C12",
"$  c #171E12",
"%  c #231406",
"&  c #21160C",
"*  c #2A1809",
"=  c #341F0C",
"-  c #381F09",
";  c #201D19",
":  c #142619",
">  c #15291B",
",  c #3C220C",
"<  c #292513",
"1  c #2B2915",
"2  c #292C18",
"3  c #352210",
"4  c #2D341D",
"5  c #3F3117",
"6  c #32361E",
"7  c #3A3119",
"8  c #193020",
"9  c #2C3621",
"0  c #2A3C25",
"q  c #363B20",
"w  c #393C21",
"e  c #43270E",
"r  c #47290E",
"t  c #4D2C0E",
"y  c #502D0E",
"u  c #422710",
"i  c #432A11",
"p  c #4B2F15",
"a  c #403116",
"s  c #40351B",
"d  c #563313",
"f  c #5A3412",
"g  c #543D1D",
"h  c #603612",
"j  c #653C17",
"k  c #673D18",
"l  c #693F18",
"z  c #4D3D2F",
"x  c #4D3F32",
"c  c #3B4124",
"v  c #32472C",
"b  c #6D431C",
"n  c #7C4616",
"m  c #72471E",
"M  c #434224",
"N  c #4A4523",
"B  c #584126",
"V  c #744A24",
"C  c #7C4F22",
"Z  c #376340",
"A  c #3B6541",
"S  c #396F49",
"D  c #3D734C",
"F  c #3F7D53",
"G  c #57534F",
"H  c #41754C",
"J  c #40784F",
"K  c #427D51",
"L  c #894D17",
"P  c #834D1C",
"I  c #8E511A",
"U  c #92531A",
"Y  c #96581F",
"T  c #9A591E",
"R  c #A55C1D",
"E  c #A95D1C",
"W  c #AC611F",
"Q  c #B1621E",
"!  c #B9671E",
"~  c #BC691F",
"^  c #834F20",
"/  c #965A24",
"(  c #9A5D25",
")  c #A25F22",
"_  c #A66022",
"`  c #AB6324",
"'  c #A36228",
"]  c #A9672B",
"[  c #AC682C",
"{  c #B16522",
"}  c #B76A26",
"|  c #B46B2A",
" . c #B86F2C",
".. c #C26C20",
"X. c #CE7526",
"o. c #C4742C",
"O. c #CB7529",
"+. c #D27625",
"@. c #D47826",
"#. c #DA7B26",
"$. c #D47929",
"%. c #DC7D29",
"&. c #C97830",
"*. c #E27E26",
"=. c #E07F29",
"-. c #B97941",
";. c #3F8156",
":. c #428356",
">. c #448658",
",. c #458859",
"<. c #488A5A",
"1. c #4B9461",
"2. c #4F9965",
"3. c #509B66",
"4. c #529E68",
"5. c #E58128",
"6. c #CC8546",
"7. c #8F9296",
"8. c #C1B0A1",
"9. c #C6B8AC",
/* pixels */
"3.3.3.3.3.3.3.3.3.3.3.3.3.3.3.3.3.3.3.3.3.3.3.3.3.3.3.3.3.3.3.3.3.3.3.3.3.3.3.3.3.3.3.3.3.3.3.3.3.3.",
"3.3.3.3.3.3.3.3.3.3.3.3.3.2.3.3.3.3.3.3.3.3.3.3.3.3.3.3.3.3.3.3.3.3.3.3.3.3.3.3.3.3.3.3.3.3.3.3.3.3.",
"3.3.3.3.3.3.3.3.3.3.3.3.3.3.3.3.3.3.3.3.3.3.3.3.3.3.3.3.3.3.3.3.3.3.3.3.3.3.3.3.3.3.3.3.3.3.3.3.3.2.",
"3.3.3.3.3.3.3.3.3.3.3.3.3.3.3.3.3.3.3.3.3.3.3.3.3.3.3.3.3.3.3.3.3.3.3.3.3.3.3.3.3.3.3.3.3.3.3.3.3.3.",
"3.3.3.3.3.3.3.3.3.3.3.3.3.3.3.3.3.3.3.3.3.3.3.3.3.3.3.3.3.3.3.3.3.3.3.3.3.3.3.3.3.3.3.3.3.3.3.3.3.3.",
"3.3.3.3.3.3.3.3.3.3.3.3.3.2.3.3.3.3.3.3.3.3.3.3.3.3.3.3.3.3.3.3.3.3.3.3.3.3.3.3.3.3.3.3.3.3.3.3.3.3.",
"3.3.3.3.3.3.3.3.3.3.3.3.3.3.3.3.3.3.3.3.3.3.3.3.3.3.3.3.3.3.3.3.3.3.3.3.3.3.3.3.3.3.3.3.3.3.3.3.3.3.",
"3.3.3.3.3.3.3.3.3.3.3.3.3.3.3.3.3.3.3.3.3.3.3.3.3.3.3.3.3.3.3.2.3.3.3.3.3.3.3.3.3.3.3.3.3.3.3.3.3.3.",
"3.3.3.3.3.3.3.3.3.3.3.3.3.3.3.3.3.3.3.3.3.3.3.3.3.3.3.3.3.3.3.3.3.3.3.3.3.3.3.3.3.3.3.3.3.3.3.3.3.2.",
"3.3.3.3.3.3.3.3.3.3.3.3.3.3.3.3.3.3.3.3.3.3.3.3.3.3.3.3.3.3.3.3.3.3.3.3.3.3.3.3.3.3.3.3.3.3.3.3.3.3.",
"3.3.3.3.3.3.3.3.3.3.3.3.3.3.3.3.3.3.3.3.3.3.3.3.3.3.3.3.3.3.3.3.3.3.3.3.3.3.3.3.3.3.3.3.3.3.3.3.3.3.",
"3.3.3.3.3.3.3.3.3.3.3.3.3.3.3.3.3.3.3.3.3.3.3.3.3.3.3.3.3.3.3.3.3.3.3.3.3.3.3.3.3.3.3.3.3.3.3.3.3.3.",
"3.3.3.3.3.3.3.3.3.3.3.3.3.3.3.3.3.3.3.3.4.4.3.3.3.3.3.3.3.4.3.3.3.3.3.3.3.3.3.3.3.3.3.3.3.3.3.3.3.3.",
"3.3.3.3.3.3.3.3.3.3.3.3.3.3.3.3.3.3.3.2.:.:.2.2.3.3.3.2.,.:.2.3.3.3.3.3.3.3.3.3.3.3.3.3.3.3.3.3.3.3.",
"3.3.3.3.3.3.3.3.3.3.3.3.3.3.3.3.3.4.2.K 4 9 F 3.4.3.2.D 9 4 K 2.3.3.3.3.3.3.3.3.3.3.3.3.3.3.2.3.3.3.",
"3.2.3.3.3.3.3.3.3.3.3.3.3.3.3.3.3.3.,.6 R / M S :.:.D M / R 6 >.3.3.3.3.3.3.3.3.3.3.3.3.3.3.3.3.3.3.",
"3.3.3.3.3.3.3.3.3.3.3.3.3.3.3.3.3.4.:.1 ..%.( s 2 2 s ( %...1 :.4.2.3.3.3.3.3.3.3.3.3.3.3.3.3.3.3.3.",
"3.3.3.3.3.3.3.3.3.3.3.3.3.3.3.3.3.3.:.1 ~ @.X.` ' ( ` X.@.~ < :.4.3.3.3.3.3.3.3.3.3.3.3.3.3.3.3.3.3.",
"3.3.3.3.3.3.3.3.3.3.3.3.3.3.3.3.3.3.:.1 Q ) o.%.=.5.%. .R ` 1 :.4.3.3.3.3.3.3.3.3.3.3.3.3.3.3.3.3.3.",
"3.3.3.3.3.3.3.2.4.3.3.3.3.3.3.3.3.3.D 7 ` X.#.*.*.*.*.%.@.{ 7 D 2.3.3.3.3.3.3.3.3.3.3.3.3.3.3.3.2.3.",
"3.3.3.3.3.3.3.3.2.3.3.3.3.4.2.2.4.,.v C O.5.*.*.*.*.*.=.5.X.C v ,.4.3.3.3.3.3.3.3.3.3.3.3.3.3.3.3.3.",
"3.3.3.3.3.3.3.3.3.3.3.3.3.2.4.3.3.1.Z g | #.*.5.*.*.*.%.#. .g A 1.4.3.3.3.3.3.3.3.3.3.3.3.3.3.3.3.3.",
"3.3.3.3.3.3.3.3.3.3.3.3.3.3.2.4.3.J M m ] &.%.%.%.%.%.%.&.[ b 0 ,.4.3.3.3.3.3.3.3.3.3.3.3.3.3.3.3.3.",
"3.3.3.3.3.3.3.3.3.3.3.3.3.3.2.4.:.c I h j / [  .o.o. .| ( j r 1 D 2.3.3.3.3.3.3.3.3.3.3.3.3.3.3.3.3.",
"3.3.3.3.3.3.3.3.4.2.4.4.2.4.3.4.:.q R E * e l b / ( l f , * ) R w F 4.3.3.2.3.3.3.3.3.3.3.3.3.3.3.3.",
"3.3.3.3.3.3.3.3.2.2.2.2.2.2.2.4.2.D N U y ) ) i = & $ 3 n , ..E q :.4.3.3.3.3.3.3.3.3.3.3.3.3.3.3.3.",
"3.3.3.3.3.3.3.3.2.4.4.2.4.3.3.3.3.2.H a Q *.$.' V G 7.x P h I N J 2.3.3.3.3.3.3.3.3.3.3.3.3.3.3.3.3.",
"3.3.3.3.3.3.3.3.4.2.2.4.2.3.3.3.2.4.:.1 E *.5.| B 8.9.x / ) a S 2.3.4.3.3.3.3.3.3.3.3.3.3.3.3.3.3.3.",
"3.3.3.3.3.3.3.3.3.3.3.2.3.3.3.3.3.4.:.$ - R ..{ u 6.-.p W } 1 :.4.3.3.3.3.3.3.3.3.3.3.3.3.3.3.3.3.3.",
"3.3.3.3.3.3.3.3.3.3.4.2.2.3.3.3.3.4.;.O o % y L , ! / d ` ) 9 >.3.3.3.3.3.3.3.3.3.3.3.3.3.3.3.3.3.3.",
"3.3.3.3.3.3.3.3.3.3.3.3.4.2.3.3.2.4.:.$ , u i % % P t I ] N J 3.3.3.3.3.3.3.3.3.3.3.3.3.3.3.3.3.3.3.",
"3.3.3.3.3.3.3.3.3.3.3.3.3.3.2.4.2.4.K # . + - o . u o % 1 v 3.4.2.3.3.3.3.3.3.3.3.3.3.3.3.3.3.3.3.3.",
"3.3.3.3.3.3.3.3.3.3.3.3.3.3.3.3.3.4.:.O     X     X       > F 2.3.3.3.3.3.3.3.3.3.3.3.3.3.3.3.3.3.3.",
"3.2.3.3.3.3.3.3.3.3.3.3.3.3.3.3.3.4.:.O                     > ,.4.3.3.3.3.3.3.3.3.3.3.3.3.3.3.3.3.3.",
"3.3.3.3.3.3.3.3.3.3.3.3.3.3.3.3.3.3.:.:                     : :.4.3.3.3.3.3.3.3.3.3.3.3.3.3.3.3.3.3.",
"3.3.3.3.3.3.3.3.3.3.3.3.3.3.3.3.3.3.3.F : O             O > F 2.3.3.3.3.3.3.3.3.3.3.3.3.3.3.3.3.3.3.",
"3.3.3.3.3.3.3.3.3.3.3.3.3.3.3.3.3.3.3.2.,.D 8 # # $ # 8 S <.3.3.3.3.3.3.3.3.3.3.3.3.3.3.3.3.3.3.3.3.",
"3.3.3.3.3.3.3.3.3.3.3.2.3.3.3.3.3.3.3.3.4.2.,.K K K :.:.3.4.3.3.3.3.3.3.3.3.3.3.3.3.3.3.3.3.3.3.3.3.",
"3.3.3.3.3.3.3.3.3.3.3.3.3.3.3.3.3.3.3.3.2.3.4.4.4.4.4.3.3.3.3.3.3.3.3.3.3.3.3.3.3.3.3.3.3.3.2.3.3.3.",
"3.3.3.3.3.3.3.3.3.3.3.3.3.3.3.3.3.3.3.3.3.3.3.3.3.3.3.3.3.3.3.3.3.3.3.3.3.3.3.3.3.3.3.3.3.3.3.3.3.3.",
"3.3.2.3.3.3.3.3.3.3.3.3.3.3.3.3.3.3.3.3.3.3.3.3.3.3.3.3.3.3.3.3.3.3.3.3.3.2.3.3.3.3.3.3.3.3.3.3.3.3.",
"3.3.3.3.3.3.3.3.3.3.3.3.3.3.3.3.3.3.3.3.3.3.3.3.3.3.3.3.3.3.3.3.3.3.3.3.3.3.3.3.3.3.3.3.3.3.3.3.3.3.",
"3.3.3.3.3.3.3.3.3.3.3.3.3.3.3.3.3.3.3.3.3.3.3.3.3.3.3.3.3.3.3.3.3.3.3.3.3.3.3.3.3.3.3.3.3.3.3.3.3.3.",
"3.3.3.3.3.3.3.3.3.3.3.3.3.3.3.3.3.3.3.3.3.3.3.3.3.3.3.3.3.3.3.3.3.3.3.3.3.3.3.3.3.3.3.3.3.3.3.3.3.3.",
"3.3.3.3.3.3.3.3.3.3.3.3.3.3.3.3.3.3.3.3.3.3.3.3.3.3.3.3.3.3.3.3.3.3.3.3.3.3.3.3.3.3.3.3.3.3.3.3.3.3.",
"2.3.3.3.3.3.3.3.3.3.3.3.3.3.3.3.3.3.3.3.3.3.3.3.3.3.3.3.3.3.3.3.3.3.3.3.3.3.3.3.3.3.3.3.3.3.3.3.3.3.",
"3.3.3.3.3.3.3.3.3.3.3.3.3.3.3.3.3.3.3.3.2.3.3.3.3.3.3.3.3.3.3.3.3.3.3.3.3.3.3.3.3.3.3.3.3.3.3.3.3.3.",
"3.3.3.3.3.3.3.3.3.3.3.3.3.3.3.3.3.3.3.3.3.3.3.3.3.3.3.3.3.3.3.3.3.3.3.3.3.3.3.3.3.3.3.3.3.3.3.3.3.3.",
"3.3.3.3.3.3.3.3.3.3.3.3.3.3.3.3.3.3.3.3.3.3.3.3.3.3.3.3.3.3.3.3.3.3.3.3.3.3.3.3.3.3.3.3.3.3.3.3.3.3.",
"3.3.3.3.3.3.3.3.3.3.3.3.3.3.3.3.3.3.3.3.3.3.3.3.3.3.3.3.3.3.3.3.3.3.3.3.3.3.3.3.3.3.3.3.3.3.3.3.3.3."
};
