/* XPM */
static char *fox_12[] = {
/* columns rows colors chars-per-pixel */
"50 50 117 2 ",
"   c #010100",
".  c #090602",
"X  c #0D0802",
"o  c #140A03",
"O  c #190E04",
"+  c #0B130C",
"@  c #0F180F",
"#  c #1F1206",
"$  c #0E1C12",
"%  c #141D11",
"&  c #241406",
"*  c #2D1B0A",
"=  c #331D09",
"-  c #2B1D10",
";  c #142619",
":  c #172B1C",
">  c #1C2F1E",
",  c #19301F",
"<  c #37200C",
"1  c #3B220C",
"2  c #252211",
"3  c #282715",
"4  c #2A2915",
"5  c #2A2D19",
"6  c #3D2B14",
"7  c #33371E",
"8  c #3E351C",
"9  c #34381F",
"0  c #193120",
"q  c #2C3921",
"w  c #313B22",
"e  c #3A322A",
"r  c #40250C",
"t  c #43280F",
"y  c #4B2B0E",
"u  c #56300F",
"i  c #59320F",
"p  c #442D13",
"a  c #433115",
"s  c #42351A",
"d  c #5C3512",
"f  c #543C1D",
"g  c #643C17",
"h  c #41362B",
"j  c #4C3C2D",
"k  c #523E2C",
"l  c #374023",
"z  c #384023",
"x  c #354B2E",
"c  c #36613F",
"v  c #3A613E",
"b  c #724319",
"n  c #73481F",
"m  c #7D4A1E",
"M  c #434526",
"N  c #4C4623",
"B  c #4F4824",
"V  c #764B21",
"C  c #784C21",
"Z  c #386542",
"A  c #3A6844",
"S  c #396F49",
"D  c #3D744C",
"F  c #3E794F",
"G  c #40734A",
"H  c #42794E",
"J  c #417F53",
"K  c #834C1B",
"L  c #894E18",
"P  c #8F5119",
"I  c #93531A",
"U  c #98561D",
"Y  c #9E591C",
"T  c #A35D1E",
"R  c #A95F1D",
"E  c #AA601E",
"W  c #B1631E",
"Q  c #875020",
"!  c #8C5829",
"~  c #905620",
"^  c #945A24",
"/  c #9A5E26",
"(  c #A15E21",
")  c #9C632F",
"_  c #A46126",
"`  c #AA6424",
"'  c #A36228",
"]  c #AC672A",
"[  c #AD682B",
"{  c #B06624",
"}  c #B26827",
"|  c #BB6921",
" . c #B66C2B",
".. c #B96D28",
"X. c #BD722F",
"o. c #C46D21",
"O. c #C77225",
"+. c #CF7424",
"@. c #C4742C",
"#. c #CB7528",
"$. c #CC782D",
"%. c #D97A26",
"&. c #D17C2F",
"*. c #DB7D29",
"=. c #E17E26",
"-. c #E07F29",
";. c #438356",
":. c #438658",
">. c #46895A",
",. c #4C9361",
"<. c #4F9965",
"1. c #509B66",
"2. c #529E68",
"3. c #53A069",
"4. c #E3812A",
"5. c #909192",
"6. c #AEA49B",
/* pixels */
"1.1.1.1.1.<.1.1.1.<.3.<.3.<.1.1.1.1.1.1.1.1.1.1.1.1.1.<.1.1.1.1.1.1.1.1.1.1.1.1.1.1.1.1.1.1.1.1.1.<.",
"1.1.1.1.1.1.1.1.<.<.<.<.<.<.<.<.1.1.1.1.<.1.1.1.1.1.1.1.1.1.1.1.1.1.1.1.1.1.1.1.1.1.1.1.1.1.1.1.1.1.",
"1.1.1.1.1.<.1.1.3.<.3.<.1.1.1.<.1.<.1.1.1.1.1.1.1.1.1.1.1.1.1.1.1.1.1.1.1.1.1.1.1.1.1.1.1.<.1.1.1.1.",
"1.1.1.<.1.1.1.1.<.<.<.<.1.1.<.3.1.1.1.1.1.1.1.1.1.1.1.1.1.1.1.1.1.1.1.1.<.1.1.1.1.1.1.1.1.1.1.1.1.1.",
"1.<.1.1.1.1.1.1.3.<.<.<.1.1.<.1.1.1.1.1.1.1.1.1.1.1.1.1.1.1.1.1.1.1.1.<.1.1.<.1.1.1.1.1.1.1.1.1.<.1.",
"1.1.1.1.1.1.1.<.<.1.<.3.1.1.1.1.1.1.1.1.<.1.1.1.1.<.1.1.1.1.1.<.1.1.1.1.1.1.1.1.1.1.1.1.1.1.1.1.1.1.",
"1.1.1.1.1.1.1.1.1.1.1.1.1.1.1.1.1.1.1.1.1.1.1.1.1.1.1.1.1.1.1.1.1.1.1.1.1.1.1.1.1.1.1.1.1.1.1.1.1.1.",
"1.1.1.<.1.1.1.1.1.1.1.<.1.1.1.1.1.1.1.1.1.1.1.1.1.1.1.1.1.1.1.1.1.1.1.1.<.1.1.1.1.1.1.1.1.1.1.1.1.1.",
"1.<.1.1.1.1.1.1.1.<.1.1.1.1.1.1.1.1.1.1.1.1.1.1.1.<.1.1.1.1.<.1.1.1.1.1.1.1.1.1.1.1.1.1.1.1.1.1.1.1.",
"1.1.1.1.<.1.1.1.1.1.1.1.1.1.<.1.1.1.1.1.1.1.1.1.1.1.1.1.1.1.1.1.<.1.1.1.<.1.1.<.1.1.1.1.1.1.1.1.1.1.",
"1.1.1.1.1.1.1.1.1.1.1.1.1.1.1.1.1.1.1.1.1.1.1.1.1.1.1.<.<.1.1.1.1.1.1.1.1.1.1.1.1.1.1.1.1.1.1.1.1.1.",
"1.<.1.1.1.1.1.1.1.<.1.1.1.1.<.1.1.1.1.1.1.1.1.1.1.1.1.1.1.1.1.1.1.1.1.<.1.1.1.1.1.1.1.1.1.1.1.1.1.<.",
"1.1.1.1.1.1.1.1.1.1.1.1.1.1.1.1.1.1.1.1.1.1.1.1.1.1.1.1.1.1.1.1.1.1.1.1.1.1.1.1.1.1.1.1.1.1.1.1.1.1.",
"<.3.<.1.1.<.3.1.<.1.1.1.1.1.1.1.1.<.1.1.1.1.1.1.1.1.1.1.1.1.<.1.1.1.1.1.1.1.1.1.<.1.1.1.1.1.1.1.1.1.",
"<.1.3.1.1.1.1.1.1.<.1.1.1.1.1.1.1.1.1.1.1.1.1.1.1.1.1.1.1.1.1.1.<.1.1.1.1.<.1.<.1.1.1.1.1.1.1.1.1.1.",
"1.1.<.<.1.1.1.1.3.<.1.1.1.1.1.1.1.1.<.<.:.:.<.1.1.1.1.<.:.:.<.1.1.1.1.1.1.1.1.1.1.1.1.<.1.1.1.1.<.1.",
"1.1.<.1.1.<.1.1.<.2.<.1.1.<.1.1.<.1.<.F q q D 1.3.3.1.D q 7 H <.1.1.<.1.1.1.<.2.<.<.1.<.1.1.1.1.1.1.",
"1.1.1.1.1.1.1.1.2.<.<.<.1.1.1.1.1.1.:.w Y P M S ;.J S z I T w :.2.1.1.1.1.1.<.2.<.2.<.2.1.<.1.1.1.1.",
"1.1.1.1.1.1.2.1.<.2.1.2.1.1.1.1.1.2.;.4 o.4./ 9 5 5 8 ) 4.O.4 ;.2.1.1.1.1.<.<.<.<.1.1.1.1.1.1.1.1.1.",
"1.1.1.<.1.1.1.1.<.<.<.2.<.1.1.1.<.2.;.4 | +.4.E ) E ` #.%.W 4 ;.2.<.1.1.<.2.2.<.1.<.2.<.1.1.1.1.<.1.",
"1.<.1.1.1.2.<.1.2.<.2.<.1.1.1.2.<.2.>.4 E E o.4.%.4.4.O.Y E 4 :.2.<.<.1.1.1.1.1.1.1.1.<.1.1.1.1.1.1.",
"1.1.1.<.1.1.1.1.<.1.<.2.1.1.<.<.1.<.D s W +.+.4.4.%.4.+.+.} s S <.1.1.1.1.1.<.1.1.1.<.2.<.1.1.1.1.1.",
"1.1.1.1.1.<.1.<.<.2.1.<.1.1.1.1.1.>.x V O.4.4.+.=.=.%.4.4.#.C x >.1.1.<.1.1.1.1.1.1.1.1.1.1.1.1.1.1.",
"1.1.1.1.1.1.<.<.2.<.2.<.1.1.2.1.1.,.c f ..4.4.4.=.=.4.4.4...f v ,.1.1.1.1.1.1.1.1.1.1.1.1.1.1.1.1.1.",
"1.1.<.1.1.1.2.1.1.1.1.1.1.1.1.1.2.>.x C [ @.*.*.%.4.*.*.@.[ V q :.1.1.1.1.1.1.1.1.1.1.1.1.1.1.1.1.<.",
"1.1.1.2.<.1.1.1.1.1.1.1.1.1.1.1.1.<.A a C / [  . .E ' ' ^ g 1 3 D <.1.1.1.1.1.1.1.1.1.1.1.1.1.1.1.1.",
"1.1.1.1.<.2.<.1.1.1.2.1.1.1.1.2.<.G B ( Y d b Q ! j - < 1 * ( R l :.1.1.1.1.1.1.1.1.1.1.1.1.1.1.1.1.",
"1.1.1.1.<.1.1.1.1.1.1.1.1.1.1.1.:.q L o.d Y ..~ B 5.e K U 1 o.R l :.1.1.1.1.1.1.1.1.1.1.<.1.1.<.1.1.",
"<.<.<.<.1.1.<.1.<.1.<.1.1.1.1.1.:., r I u o.4.' h 6.j _ O.i I N F <.<.1.1.1.1.1.1.1.1.<.1.1.1.1.<.1.",
"2.1.<.2.1.1.<.2.2.1.<.1.1.<.2.<.1.D ; = W %.*.' p ) p _ %.R 6 D 1.2.<.1.1.1.1.<.1.1.1.1.1.1.1.1.1.1.",
"<.2.<.2.<.<.<.2.2.1.1.1.1.1.3.<.<.<.D - R $.$.{ 1 U y E 4.} 3 ;.2.1.1.1.1.1.1.1.1.1.1.1.1.<.1.1.2.<.",
"<.<.<.2.<.2.<.<.<.1.1.1.1.1.1.1.<.2.;.$ = ( $.' < m t ` &./ w >.1.<.1.1.1.1.1.1.1.1.1.1.1.1.1.1.<.1.",
"2.1.1.2.<.1.<.<.2.<.<.<.1.2.<.<.<.2.J @ o y ( ( - 1 - U T 6 Z ,.1.1.1.1.1.1.1.1.1.1.1.1.<.1.1.1.<.1.",
"<.1.1.<.1.<.2.1.<.<.2.<.2.<.1.1.<.2.J ; < < y Q & . . & & . : :.2.1.1.1.1.1.<.1.1.1.1.1.1.1.1.1.1.1.",
"1.2.<.<.1.2.2.1.1.<.<.2.1.1.1.1.<.2.J ; X O = &             ; :.2.1.1.1.1.1.1.1.1.1.1.1.1.1.1.1.1.1.",
"1.1.1.2.<.<.<.<.2.2.<.<.<.<.1.1.2.2.2.H ; + X           + ; F 1.1.1.1.1.1.<.1.1.1.<.1.1.1.1.1.<.1.1.",
"1.<.1.1.2.2.1.1.1.<.1.1.2.1.1.1.<.1.1.<.J G 5 - % $ $ , S >.<.1.1.1.1.1.1.<.1.1.1.1.1.<.1.<.1.1.1.1.",
"1.1.1.1.<.1.1.1.1.<.1.<.1.1.1.1.<.2.1.1.3.<.J H J J J :.1.2.1.1.1.1.1.1.1.1.1.1.1.1.1.1.1.1.1.1.1.<.",
"1.2.<.<.1.1.<.2.1.2.2.<.1.1.<.1.<.<.2.<.2.2.2.2.3.3.2.2.1.1.1.1.1.<.1.1.1.1.1.1.1.1.1.1.1.<.1.1.1.1.",
"2.<.1.1.1.1.1.<.1.1.1.2.<.1.1.1.2.<.<.<.2.<.<.2.1.1.2.1.1.1.1.1.1.1.1.1.1.1.1.<.<.1.1.1.1.1.1.1.1.1.",
"<.1.1.1.1.1.1.1.1.1.1.1.1.1.<.<.1.<.1.<.<.1.<.1.3.<.<.<.<.<.<.2.1.1.1.1.1.1.1.1.1.1.1.1.1.3.<.<.1.1.",
"1.1.1.1.1.1.1.1.1.1.1.1.1.1.1.1.2.2.<.2.2.<.1.2.<.3.<.2.2.2.<.<.1.1.1.1.1.1.1.1.1.1.1.1.1.<.3.<.1.1.",
"1.1.1.<.1.2.1.1.<.1.1.1.1.1.1.1.<.<.<.1.1.<.<.<.<.<.<.<.<.<.2.<.1.1.1.1.1.1.1.1.1.1.1.1.<.<.<.<.1.<.",
"1.1.1.1.1.1.1.1.1.1.1.1.1.1.<.1.2.2.1.2.2.<.2.<.<.3.<.2.<.2.<.<.1.1.1.1.1.<.1.1.1.1.<.1.3.<.3.<.1.1.",
"1.1.1.1.1.1.1.1.1.1.1.1.1.1.<.1.1.1.<.<.<.<.1.1.2.<.<.2.<.<.2.2.1.1.<.1.1.1.1.1.1.1.1.1.<.3.<.<.1.1.",
"1.1.1.1.2.1.1.1.1.<.1.1.1.2.1.1.<.1.2.<.1.2.1.<.<.<.3.<.2.<.<.<.1.1.1.1.1.<.1.1.1.1.1.<.<.<.1.<.1.1.",
"1.1.<.1.1.1.1.1.1.1.1.1.1.1.1.1.<.1.1.1.2.<.2.<.<.<.<.<.2.<.2.<.1.1.1.1.1.1.1.1.1.1.<.<.<.3.1.1.1.1.",
"1.1.1.1.1.1.1.1.1.1.1.1.1.1.<.1.<.1.2.<.1.1.1.1.2.<.<.2.<.<.<.<.1.1.1.1.1.1.1.1.1.1.3.<.<.<.1.1.1.1.",
"1.2.2.<.<.<.1.2.<.2.2.<.<.2.<.<.2.<.2.<.<.<.<.2.<.<.2.<.<.<.2.<.1.1.1.1.1.1.1.1.1.1.1.1.1.1.1.1.<.1.",
"<.1.1.1.<.2.2.<.<.<.<.<.2.<.<.2.<.<.<.2.2.<.2.<.<.<.<.2.2.<.<.<.1.1.1.1.1.<.1.1.1.1.1.1.1.1.1.1.1.1."
};
