/* XPM */
static char *fox_3[] = {
/* columns rows colors chars-per-pixel */
"50 50 158 2 ",
"   c #010100",
".  c #080501",
"X  c #190F05",
"o  c #07100B",
"O  c #09110B",
"+  c #1F1307",
"@  c #1E140C",
"#  c #0F1C12",
"$  c #241406",
"%  c #2B1706",
"&  c #2C1907",
"*  c #241E0E",
"=  c #2C1C0E",
"-  c #391F07",
";  c #341F0B",
":  c #112216",
">  c #1E2414",
",  c #1E261F",
"<  c #162B1C",
"1  c #1D2C1F",
"2  c #19301F",
"3  c #2B210F",
"4  c #3D230B",
"5  c #212111",
"6  c #292915",
"7  c #242F1B",
"8  c #3C2A19",
"9  c #3A2D15",
"0  c #23321F",
"q  c #2C311B",
"w  c #37341B",
"e  c #252626",
"r  c #2B2724",
"t  c #302D29",
"y  c #263025",
"u  c #2A3C24",
"i  c #28322A",
"p  c #283E2E",
"a  c #3E3F22",
"s  c #353628",
"d  c #44270C",
"f  c #46280C",
"g  c #542F0E",
"h  c #442C15",
"j  c #48361A",
"k  c #43381A",
"l  c #4C3C1C",
"z  c #5B3513",
"x  c #553212",
"c  c #633B15",
"v  c #623C19",
"b  c #6B3D14",
"n  c #713F14",
"m  c #4C3624",
"M  c #4F3824",
"N  c #44382D",
"B  c #583F2B",
"V  c #593D24",
"C  c #4B3F32",
"Z  c #324025",
"A  c #384226",
"S  c #39452C",
"D  c #3C4639",
"F  c #394A3E",
"G  c #35543E",
"H  c #6C421A",
"J  c #714117",
"K  c #7B4617",
"L  c #78481D",
"P  c #434123",
"I  c #494825",
"U  c #4B4B29",
"Y  c #434B3A",
"T  c #5D4632",
"R  c #6C4521",
"E  c #7B4B20",
"W  c #634A34",
"Q  c #6B523A",
"!  c #3F5345",
"~  c #396C47",
"^  c #3C6F48",
"/  c #3D744C",
"(  c #3F784E",
")  c #3F7B51",
"_  c #595A5A",
"`  c #6D5A48",
"'  c #41754B",
"]  c #41784D",
"[  c #54675B",
"{  c #417C52",
"}  c #834D1C",
"|  c #8B4E18",
" . c #904F16",
".. c #8E5018",
"X. c #975417",
"o. c #93531A",
"O. c #9B581C",
"+. c #A35D1D",
"@. c #A85D1C",
"#. c #AC611E",
"$. c #814F21",
"%. c #835223",
"&. c #8E5924",
"*. c #8A5424",
"=. c #955B25",
"-. c #9C5E24",
";. c #A46125",
":. c #A96324",
">. c #A2632A",
",. c #AB672B",
"<. c #AD682A",
"1. c #B16623",
"2. c #B76822",
"3. c #BD6C24",
"4. c #B36B29",
"5. c #B86E2D",
"6. c #A56C38",
"7. c #B1753E",
"8. c #C36E23",
"9. c #C3732C",
"0. c #CC7629",
"q. c #CF792C",
"w. c #D87A26",
"e. c #D27929",
"r. c #C17736",
"t. c #E17E27",
"y. c #A06F40",
"u. c #A07043",
"i. c #A67548",
"p. c #BE7F47",
"a. c #B57945",
"s. c #438356",
"d. c #448659",
"f. c #468A5B",
"g. c #4A905F",
"h. c #4D9663",
"j. c #4F9965",
"k. c #509B66",
"l. c #519D68",
"z. c #92877D",
"x. c #C8864B",
"c. c #C4844A",
"v. c #989696",
"b. c #919493",
"n. c #A4988E",
"m. c #B7A99A",
"M. c #A9A8A7",
"N. c #AEABA9",
"B. c #B6B6B6",
"V. c #B9B7B6",
"C. c #BAB8B6",
"Z. c #C1A993",
"A. c #C1B1A4",
"S. c #CFC4BA",
"D. c #D4C9BF",
"F. c #E6D1BE",
"G. c #C4C3C4",
"H. c #DCDCDD",
/* pixels */
"k.k.k.k.k.k.k.k.k.k.k.k.k.k.k.k.k.k.k.k.k.k.k.k.k.k.k.k.k.k.k.k.k.k.k.k.k.k.k.k.k.k.k.k.k.k.k.k.k.k.",
"k.k.k.k.k.k.k.k.k.k.k.k.k.k.k.k.k.k.k.k.k.k.k.k.k.k.k.k.k.k.k.k.k.k.k.k.k.k.k.k.k.k.k.k.k.k.k.k.k.k.",
"k.k.k.k.k.k.k.k.k.k.k.k.k.k.k.k.k.k.k.k.k.j.k.k.k.k.k.k.k.k.k.k.k.k.k.k.k.k.k.k.k.k.k.k.k.k.k.j.k.k.",
"k.k.k.k.k.k.k.k.k.k.k.k.k.k.k.k.k.k.k.k.k.k.k.k.k.k.k.k.k.k.k.k.k.k.k.k.k.k.k.k.k.k.k.k.k.k.k.k.k.k.",
"k.k.k.k.k.k.k.k.k.k.k.k.k.k.j.k.k.k.k.k.k.k.k.k.k.k.k.k.k.k.k.k.k.k.k.k.k.k.k.k.k.k.k.k.k.k.k.k.k.k.",
"k.k.k.k.k.k.k.k.k.k.k.k.k.k.k.k.k.k.k.k.k.k.k.k.k.k.k.k.k.k.k.k.k.k.k.k.k.k.k.k.k.k.k.k.k.k.k.k.k.k.",
"k.k.k.k.k.k.k.k.k.k.k.k.k.k.k.k.k.k.k.k.k.k.k.k.k.k.k.k.k.k.k.k.k.k.k.k.k.k.k.k.k.k.k.k.k.k.k.k.k.k.",
"k.k.k.k.k.k.k.k.k.k.k.k.k.k.k.k.k.k.k.k.k.k.k.k.k.k.k.k.k.k.k.k.k.k.k.k.k.k.k.j.k.k.k.k.k.k.k.k.k.k.",
"k.k.k.k.k.k.k.k.k.k.k.k.k.k.k.k.k.k.k.k.k.k.k.k.k.k.k.k.k.k.k.k.k.k.k.k.k.k.k.k.k.k.k.k.k.k.k.k.k.k.",
"k.k.k.k.k.k.k.k.k.k.k.k.k.k.k.k.k.k.k.k.k.k.k.k.k.k.k.k.k.k.k.k.k.k.k.k.k.k.k.k.k.k.k.k.k.k.k.k.k.k.",
"k.k.k.k.k.k.k.k.k.k.k.k.k.k.k.k.k.k.k.k.k.k.k.k.k.k.k.k.k.k.k.k.k.k.k.k.k.k.k.k.k.k.k.k.k.k.k.k.k.k.",
"k.k.k.k.k.k.k.k.k.k.k.k.k.k.k.k.k.k.k.k.k.k.k.j.k.k.k.k.k.k.k.k.k.k.k.k.k.k.k.k.k.k.k.k.k.k.k.j.k.k.",
"k.k.k.k.k.k.k.k.k.k.k.k.k.k.k.k.k.k.k.k.l.j.l.h.s.h.k.k.k.k.k.k.k.k.k.k.k.k.k.k.k.k.k.k.k.k.k.k.k.k.",
"k.k.k.k.k.k.k.k.k.k.k.k.k.k.k.k.k.k.k.k.j.l.h.( A ] h.k.k.k.k.k.k.k.k.k.k.k.k.k.k.k.k.k.k.k.k.k.k.k.",
"k.k.k.k.k.k.k.k.k.k.k.k.k.k.k.k.k.k.k.k.j.j.( a } q s.k.k.k.k.k.k.k.k.k.k.k.k.k.k.k.k.k.k.k.k.k.k.k.",
"k.j.k.k.k.k.k.k.k.k.k.k.k.k.k.k.k.k.k.k.j.( P } b * / j.k.k.k.k.k.k.k.k.k.k.k.k.k.k.k.k.k.k.k.k.k.k.",
"k.k.k.k.k.k.k.k.k.k.k.k.k.k.k.k.k.k.k.k.f.Z %.<.L H A / g.l.k.k.k.k.k.k.k.k.k.k.k.k.k.k.k.k.k.k.k.k.",
"k.k.k.k.k.k.k.k.k.k.k.k.k.k.k.j.k.k.k.j.^ l >.5.4.3.&.U ' j.k.k.k.k.k.k.k.k.k.k.k.k.k.k.k.k.k.k.k.k.",
"k.k.k.k.k.k.k.k.k.k.k.k.k.k.k.k.k.k.h.( N +.8.4.0.t.w.#.U ( j.j.k.k.k.k.k.k.k.k.k.k.k.k.k.k.k.k.k.k.",
"k.k.k.k.k.k.k.k.k.k.k.k.k.k.k.k.k.k.d.u %.5.=.v 1.w.8.8.=.w ) g.k.k.k.k.k.k.k.k.k.k.k.k.k.k.k.k.k.k.",
"k.k.k.k.k.k.k.k.k.k.k.k.k.k.k.k.k.k.h.~ j *.v %.0.5.j h >.y.Y { h.k.k.k.k.k.k.k.k.k.k.k.k.k.k.k.k.k.",
"k.k.k.k.k.k.k.k.k.k.k.k.k.k.k.k.k.k.s.0 } <.E v <.x.n.C u.F.v.F s.k.k.k.k.k.k.k.k.k.k.k.k.k.k.k.k.k.",
"k.k.k.k.k.k.k.k.k.k.k.k.k.k.k.k.k.l.d.0 c O.b E 5.x.m.Q u.S._ < ) k.k.k.k.k.k.k.k.k.k.k.k.k.k.k.k.k.",
"k.k.k.k.k.k.k.k.k.k.k.k.k.k.k.k.h.f.g.] q c K J 1.r.c.,.7.b._ Z s.k.k.k.k.k.k.k.k.k.k.k.k.k.k.k.k.k.",
"k.k.k.k.k.k.k.k.k.k.k.k.k.k.k.j.] G { j.( 6 n o.K 5.9.0.;.8 , ] j.k.k.k.k.k.k.k.k.k.k.k.k.k.k.k.k.k.",
"k.k.k.k.k.k.k.k.k.k.k.k.k.k.k.s.! b.[ ) ( k | x $ +.8.2.c b 7 d.k.k.k.k.k.k.k.k.k.k.k.k.k.k.k.k.k.k.",
"j.k.k.k.k.k.k.k.k.k.k.k.k.k.k.s.D A.m.y > *.8.| ; d d  .O.9 / h.k.k.k.k.k.k.k.k.k.k.k.k.k.k.k.k.k.k.",
"k.k.k.k.k.k.k.k.k.k.k.k.k.k.l.f.S y.a.@ X ;.:.z } R N W $.5 d.k.k.k.k.k.k.k.k.k.k.k.k.k.k.k.k.k.k.k.",
"k.k.k.k.k.k.k.k.k.k.k.k.k.k.k.j.^ l } + ; 1.:.x $.` C.N.N & / h.k.k.k.k.k.k.k.k.k.k.k.k.k.k.k.k.k.k.",
"k.k.k.k.k.k.k.k.k.k.k.k.k.k.k.l.d.s H d =.9.0.#.V M.H.V.W  .q s.k.k.k.k.k.k.k.k.k.k.k.k.k.k.k.k.k.k.",
"k.k.k.k.k.k.k.k.k.k.k.k.k.k.k.k.h.' w o.3.r.q.e.:.m r m O.@.q s.k.k.k.k.k.k.k.k.k.k.k.k.k.k.k.k.k.k.",
"k.k.k.k.k.k.k.k.k.k.k.k.k.k.k.k.h.~ > % - o.2.0.q.+.4 z 4 = ] h.k.k.k.k.k.k.k.k.k.k.k.k.k.j.k.k.k.k.",
"k.k.k.k.k.k.k.k.k.k.k.k.k.k.k.k.s.u h T s = f o.2.O.% X . o / h.j.k.k.k.k.k.k.k.k.k.k.k.k.k.k.k.k.k.",
"k.k.k.k.k.k.k.k.k.k.k.k.k.k.k.l.{ > T S.B.e   $ & $ .       < s.k.j.k.k.k.k.k.k.k.k.k.k.k.k.k.k.k.k.",
"k.k.k.k.k.k.k.k.k.k.k.k.k.k.k.l.s.< t G.G.e                 : s.k.k.k.k.k.k.k.k.k.k.k.k.k.k.k.k.k.k.",
"k.k.k.k.j.k.k.k.k.k.k.k.k.k.k.k.j./ 2 i i #             o : ( j.k.k.k.k.k.k.k.k.k.k.k.k.k.k.k.k.k.k.",
"k.k.k.k.k.k.k.k.k.k.k.k.k.k.k.k.l.j.s.s.{ ~ 1 # # # # 2 ~ s.j.k.k.k.k.k.k.k.k.k.k.k.k.k.k.k.k.k.k.k.",
"k.k.k.k.k.k.k.k.k.k.k.k.k.k.k.k.j.l.j.k.j.h.s.{ { ) ) s.h.l.k.k.k.k.k.k.k.k.k.k.k.k.k.k.k.k.k.k.k.k.",
"k.k.k.k.k.k.k.k.k.k.k.k.k.k.k.k.l.j.l.j.j.l.k.k.l.l.l.l.j.k.k.k.k.k.k.k.k.k.k.k.k.k.k.k.k.k.k.k.k.k.",
"k.k.k.k.k.k.k.k.k.k.k.k.k.k.k.k.j.l.j.j.l.j.k.k.j.k.k.k.k.k.k.k.k.k.k.k.k.k.k.k.k.k.k.k.k.k.k.k.k.k.",
"k.j.k.k.k.k.k.k.k.k.k.k.k.k.k.k.k.k.k.k.k.k.k.k.k.k.k.k.k.j.k.k.k.k.k.k.k.k.k.k.k.k.k.k.k.k.k.k.k.k.",
"k.k.k.k.k.k.k.k.k.k.k.k.k.k.k.k.k.k.k.k.k.k.k.k.k.k.k.k.k.k.k.k.k.k.k.k.k.k.k.k.k.k.k.k.k.k.k.k.k.k.",
"k.k.k.k.k.k.k.k.k.k.k.k.k.k.k.k.k.k.k.k.k.k.k.k.k.k.k.k.k.k.k.k.k.k.k.k.k.k.k.k.k.k.j.k.k.k.k.k.k.k.",
"k.k.k.k.k.k.k.k.k.k.k.k.k.k.k.k.k.k.k.k.k.k.k.k.k.k.k.k.k.k.k.k.k.k.k.k.k.k.k.k.k.k.k.k.k.k.k.k.k.k.",
"k.k.k.k.k.k.k.k.k.k.k.k.k.k.k.k.k.k.k.k.k.k.k.k.k.k.k.k.k.k.k.k.k.k.k.k.k.k.k.k.k.k.k.k.k.k.k.k.k.k.",
"k.k.k.k.k.k.k.k.k.k.k.k.k.k.k.k.k.k.k.k.k.k.k.k.k.k.k.k.k.k.k.k.k.k.k.k.k.k.k.k.k.k.k.k.k.k.k.k.k.k.",
"k.k.k.k.k.k.k.k.k.k.k.k.k.k.k.k.k.k.k.k.k.k.k.k.k.k.k.k.k.k.k.k.k.k.j.k.k.k.k.k.k.k.k.k.k.k.k.k.k.k.",
"k.k.k.k.k.k.k.k.k.k.k.k.k.k.k.k.k.k.k.k.k.k.k.k.k.k.k.k.k.k.k.k.k.k.k.k.k.k.k.k.k.k.k.k.k.k.k.k.k.k.",
"k.k.k.k.k.k.k.k.k.k.k.k.k.k.k.k.k.k.k.k.k.k.k.k.k.k.k.k.k.k.k.k.k.k.k.k.k.k.k.k.k.k.k.k.k.k.k.k.k.k.",
"k.k.k.k.k.k.k.k.k.k.k.k.k.k.k.k.k.k.k.k.k.k.k.k.k.k.k.k.k.k.k.k.k.k.k.k.k.k.k.k.k.k.k.k.k.k.k.k.k.k."
};
