/* XPM */
static char *fox_4[] = {
/* columns rows colors chars-per-pixel */
"50 50 157 2 ",
"   c #010100",
".  c #0B0602",
"X  c #050A07",
"o  c #0B0803",
"O  c #060D09",
"+  c #130A03",
"@  c #09120B",
"#  c #1C140C",
"$  c #0F1C12",
"%  c #231405",
"&  c #291605",
"*  c #26180C",
"=  c #2D1A09",
"-  c #301B07",
";  c #361E09",
":  c #221F1B",
">  c #112216",
",  c #162A1B",
"<  c #1A2E1E",
"1  c #1D2214",
"2  c #1B301F",
"3  c #3C220A",
"4  c #2B2516",
"5  c #2A2915",
"6  c #29241F",
"7  c #232B19",
"8  c #3C2511",
"9  c #23311D",
"0  c #34361D",
"q  c #383218",
"w  c #3A391E",
"e  c #1A2620",
"r  c #1F2B23",
"t  c #1F3220",
"y  c #332B22",
"u  c #25372A",
"i  c #2C3E26",
"p  c #323920",
"a  c #3D3E24",
"s  c #2A3E30",
"d  c #42250B",
"f  c #472A0F",
"g  c #4B2A0D",
"h  c #542F0D",
"j  c #4E3E1D",
"k  c #563414",
"l  c #5B3614",
"z  c #5D3A18",
"x  c #643C14",
"c  c #6A3D15",
"v  c #4C3D2F",
"b  c #513C21",
"n  c #4A3D31",
"m  c #354126",
"M  c #384427",
"N  c #2C4233",
"B  c #2B5438",
"V  c #2E593B",
"C  c #38513F",
"Z  c #34543D",
"A  c #6C411B",
"S  c #75471D",
"D  c #7B471A",
"F  c #7A4A1D",
"G  c #784314",
"H  c #424224",
"J  c #4A4726",
"K  c #4D4925",
"L  c #4B4234",
"P  c #42483D",
"I  c #48523D",
"U  c #7F5123",
"Y  c #654C35",
"T  c #684B31",
"R  c #366743",
"E  c #386643",
"W  c #366946",
"Q  c #3B6C46",
"!  c #396E49",
"~  c #3D754C",
"^  c #3F784E",
"/  c #3F7B51",
"(  c #415648",
")  c #4E5D52",
"_  c #565857",
"`  c #5B5B5B",
"'  c #42764C",
"]  c #41794F",
"[  c #417C52",
"{  c #844A17",
"}  c #874F1C",
"|  c #8A4C19",
" . c #955216",
".. c #97571D",
"X. c #99561A",
"o. c #9F5A1D",
"O. c #A45C1C",
"+. c #B2641F",
"@. c #BD691F",
"#. c #824F20",
"$. c #865223",
"%. c #8F5822",
"&. c #8B5523",
"*. c #945922",
"=. c #9C5D23",
"-. c #97663C",
";. c #A46123",
":. c #AC6220",
">. c #A7672D",
",. c #AB6629",
"<. c #AE692C",
"1. c #B36622",
"2. c #BC6B22",
"3. c #B36B2A",
"4. c #B86E2C",
"5. c #BB712E",
"6. c #A86A31",
"7. c #A7703E",
"8. c #B57439",
"9. c #C46E21",
"0. c #C47127",
"q. c #C5752D",
"w. c #CB762A",
"e. c #CE7A2D",
"r. c #D27727",
"t. c #D47927",
"y. c #D87925",
"u. c #D67A28",
"i. c #DE7D28",
"p. c #C07430",
"a. c #C07837",
"s. c #9E6D40",
"d. c #AC7442",
"f. c #BD7F46",
"g. c #438256",
"h. c #458658",
"j. c #468A5B",
"k. c #488B5C",
"l. c #4A905F",
"z. c #4D9662",
"x. c #4E9864",
"c. c #509B66",
"v. c #519D68",
"b. c #91867D",
"n. c #C78850",
"m. c #C98B52",
"M. c #93928F",
"N. c #969998",
"B. c #9D9E98",
"V. c #A4978B",
"C. c #BFA58E",
"Z. c #A5A6A7",
"A. c #AEACAA",
"S. c #BBAFA4",
"D. c #BBBBBA",
"F. c #E5D1BE",
"G. c #D3C9C0",
/* pixels */
"c.c.c.c.c.c.c.c.c.c.c.c.c.c.c.c.c.c.c.c.c.c.c.c.c.c.c.c.c.c.c.c.c.c.c.c.c.c.c.c.c.c.c.c.c.c.c.c.c.c.",
"c.c.c.c.c.c.c.c.c.c.c.c.c.c.c.c.c.c.c.c.c.c.c.c.c.c.c.c.c.c.c.c.c.c.c.c.c.c.c.c.c.c.c.c.c.c.c.c.c.c.",
"c.c.c.c.c.c.c.c.c.c.c.c.c.c.c.c.c.c.c.c.c.c.c.c.c.c.c.c.c.c.c.c.c.c.c.c.c.c.c.c.c.c.c.c.c.c.x.c.c.c.",
"c.c.c.c.c.c.c.c.c.c.x.c.c.c.c.c.c.c.c.c.c.c.c.c.c.c.c.c.c.c.c.c.c.c.c.c.c.c.c.c.c.c.c.c.c.c.c.c.c.c.",
"c.c.c.c.c.c.c.c.c.c.c.c.c.c.c.c.c.c.c.c.c.c.c.c.c.c.c.c.c.c.c.c.c.c.c.c.c.c.c.c.c.c.c.c.c.c.c.c.c.c.",
"c.c.c.c.c.c.c.c.c.c.c.c.c.c.c.c.c.c.c.c.c.c.c.c.c.c.c.c.c.c.c.c.c.c.c.c.c.c.c.c.c.c.c.c.c.c.c.c.c.c.",
"c.c.c.c.c.c.c.c.c.c.c.c.c.c.c.c.c.c.c.c.c.c.c.c.c.c.c.c.c.c.c.c.c.c.c.c.c.c.c.c.c.c.c.c.c.c.c.c.c.c.",
"c.c.c.c.c.c.c.c.c.c.c.c.c.c.c.c.c.c.c.c.c.c.c.c.c.c.c.x.c.c.c.c.c.c.c.c.c.c.c.c.c.c.c.c.c.c.c.c.c.c.",
"c.c.c.c.c.c.c.c.c.c.c.c.c.c.c.c.c.c.c.c.c.c.c.c.c.c.c.c.c.c.c.c.c.c.c.x.c.c.c.c.c.c.c.c.c.c.c.c.c.c.",
"c.c.c.c.c.c.c.c.c.c.c.c.c.c.c.c.c.c.c.c.c.c.c.c.c.c.c.c.c.c.c.c.c.c.c.c.c.c.c.c.c.c.c.c.c.c.c.c.c.c.",
"c.c.c.c.c.c.c.c.c.c.c.c.c.c.c.c.c.c.c.c.c.c.c.c.c.c.c.c.c.c.c.c.c.c.c.c.c.c.c.c.c.c.c.c.c.c.c.c.c.c.",
"c.c.c.c.c.c.c.c.c.c.c.c.c.c.c.c.c.c.c.c.c.c.c.c.c.c.c.c.c.c.c.c.c.c.c.c.c.c.c.c.c.c.c.c.c.c.c.c.c.c.",
"c.c.c.c.c.c.c.c.c.c.c.c.c.c.c.c.c.c.c.c.c.c.c.c.z.g.z.c.c.c.c.c.c.c.c.c.c.c.c.c.c.c.c.c.c.c.c.c.c.c.",
"c.c.c.c.c.c.c.c.c.c.c.c.c.c.c.c.c.c.c.c.c.c.c.z.] M ' z.c.c.c.c.c.c.c.c.c.c.c.c.c.c.c.c.c.c.c.c.c.c.",
"c.c.c.c.c.c.c.c.c.c.c.c.c.c.c.c.c.c.c.c.c.c.z.] w { p g.v.c.c.c.c.c.c.c.c.c.c.c.c.c.c.c.c.c.c.c.c.c.",
"c.x.c.c.c.c.c.c.c.c.c.c.c.c.c.c.c.c.c.c.c.x.[ H &.c 5 ! c.c.c.c.c.c.c.c.c.c.c.c.c.c.c.c.c.c.c.c.c.c.",
"c.c.c.c.c.c.c.c.c.c.c.c.c.c.c.c.c.c.c.c.v.h.m $.3.F l M ' c.c.c.c.c.c.c.c.c.c.c.c.c.c.c.c.c.c.c.c.c.",
"c.c.c.c.c.c.c.c.c.c.c.c.c.c.c.c.c.c.c.c.x.Q j ;.5.3.2...K ' z.c.c.c.c.c.c.c.c.c.c.c.c.c.c.c.c.c.c.c.",
"c.c.c.c.c.c.c.c.c.c.c.c.c.c.c.c.c.c.c.z.~ J =.0.<.e.i.y.;.H ' z.c.c.c.c.c.c.c.c.c.c.c.c.c.c.c.c.c.c.",
"c.c.c.c.c.c.c.c.c.c.c.c.c.c.c.c.c.c.c.k.i U 4.*.k 3.r.9.@.*.w ~ c.c.c.c.c.c.c.c.c.c.c.c.c.c.c.c.c.c.",
"c.c.c.c.c.c.c.c.c.c.c.c.c.c.c.c.c.c.c.z.Q j $.z } w.<.j f >.s.I [ c.c.c.c.c.c.c.c.c.c.c.c.c.c.c.c.c.",
"c.c.c.c.c.c.c.c.c.c.c.c.c.c.c.c.c.c.c.h.9 $.,.F k 3.n.V.n 7.F.M.C g.c.c.c.c.c.c.c.c.c.c.c.c.c.c.c.c.",
"c.c.c.c.c.c.c.c.c.c.c.c.c.c.c.c.c.c.c.j.9 x ..A S 4.n.C.Y d.G.` r [ c.c.c.c.c.c.c.c.c.c.c.c.c.c.c.c.",
"c.c.c.c.c.c.c.c.c.c.c.c.c.c.c.c.c.z.k.z.~ 0 x } x 1.8.n.6.8.b._ s g.c.c.c.c.c.c.c.c.c.c.c.c.c.c.c.c.",
"c.c.c.c.c.c.c.c.c.c.c.c.c.c.c.c.x.[ Z [ x.E q c X.} ;.5.q.2.4 u [ x.c.c.c.c.c.c.c.c.c.c.c.c.c.c.c.c.",
"c.c.c.c.c.c.c.c.c.c.c.c.c.c.c.c.[ ( N.) W 0 *.O.g $.l O.2.| 7 ' x.c.c.c.c.c.c.c.c.c.c.c.c.c.c.c.c.c.",
"c.c.c.c.c.c.c.c.c.c.c.c.c.c.c.v.^ P S.B.e = +.2.3 O.x } Y L E l.c.c.c.c.c.c.c.c.c.c.c.c.c.c.c.c.x.c.",
"c.c.c.c.c.c.c.c.c.c.c.c.c.c.c.v./ a -.L # = +.@.3 2.O.T A.D.N ! z.c.c.c.c.c.c.c.c.c.c.c.c.c.c.c.c.c.",
"c.c.c.c.c.c.c.c.c.c.c.c.c.c.c.v./ 0 D - S l +.9.h O. .n Z.D.6 r g.c.c.c.c.c.c.c.c.c.c.c.c.c.c.c.c.c.",
"c.c.c.c.c.c.c.c.c.c.c.c.c.c.c.c.g.0 A f ;.4.q.y.+.g ; * : y 8 1 / v.c.c.c.c.c.c.c.c.c.c.c.c.c.c.c.c.",
"c.c.c.c.c.c.c.c.c.c.c.c.c.c.c.c.g.< = G d O.u.w.q.3.O.{ & - + , [ v.c.c.c.c.c.c.c.c.c.c.c.c.c.c.c.c.",
"c.c.c.c.c.c.c.c.c.c.c.c.c.c.c.x.z.Q u 5 o ; X.1.1.o.3 % . . , ~ z.c.c.c.c.c.c.c.c.c.c.c.c.c.c.c.c.c.",
"c.c.c.c.c.c.c.c.c.c.c.c.c.c.c.c.c.z./ B O . % = = &       X V k.c.c.c.c.c.c.c.c.c.c.c.c.c.c.c.c.c.c.",
"c.c.c.c.c.c.c.c.c.c.c.c.c.c.c.c.c.c.h.,                     , j.v.c.c.c.c.c.c.x.c.c.c.c.c.c.c.c.c.c.",
"c.c.c.c.c.c.c.c.c.c.c.c.c.c.c.c.c.c.h.>                     > g.c.c.c.c.c.c.c.c.c.c.c.c.c.c.c.c.c.c.",
"c.c.c.c.c.c.c.c.c.c.c.c.c.c.c.c.x.x.x.^ > @             @ > ^ x.c.c.c.c.c.c.c.c.c.c.c.c.c.c.c.c.c.c.",
"c.c.c.c.c.c.c.c.c.c.c.c.c.c.c.c.c.c.c.x.g.! 2 $ $ $ $ 2 ! g.x.x.c.c.c.c.c.c.c.c.c.c.c.c.c.c.c.c.c.c.",
"c.c.c.c.c.c.c.c.c.c.c.c.c.c.c.c.c.c.c.c.x.z.g.[ / [ / h.x.x.c.c.c.c.c.c.c.c.c.c.c.c.c.c.c.c.c.c.c.c.",
"c.c.c.c.c.c.c.c.c.c.c.c.c.c.c.c.c.c.c.c.c.c.c.c.v.v.v.c.x.c.c.c.c.c.c.c.c.c.c.c.c.c.c.c.c.c.c.c.c.c.",
"c.c.c.c.c.c.c.c.c.c.c.c.c.c.c.c.c.c.c.c.c.c.c.c.c.c.c.c.x.v.c.c.c.c.c.c.c.c.c.c.c.c.c.c.c.c.c.c.c.c.",
"c.c.c.c.c.c.c.c.c.c.c.c.x.c.c.c.x.c.c.c.c.c.c.c.c.c.c.c.c.c.c.c.c.c.c.c.c.c.c.c.c.c.c.c.c.c.c.c.c.c.",
"c.c.c.c.c.c.c.c.c.c.c.c.c.c.c.c.c.c.c.c.c.c.c.c.c.c.c.c.c.c.c.c.c.c.c.c.c.c.c.c.c.c.c.c.c.c.c.c.c.c.",
"c.c.c.c.c.c.c.c.c.c.c.c.c.c.c.c.c.c.c.c.c.c.c.c.c.c.c.c.c.c.c.c.c.c.c.c.c.c.c.c.c.c.c.c.c.c.c.c.c.c.",
"c.c.c.c.c.c.c.c.c.c.c.c.c.c.c.c.c.c.c.c.c.c.c.c.c.c.c.c.c.c.c.c.c.c.c.c.c.c.c.c.c.c.c.c.c.c.c.c.c.c.",
"c.c.c.c.c.c.c.c.c.c.c.c.c.c.c.c.c.c.c.c.c.c.c.c.c.c.c.c.c.c.c.c.c.c.c.c.c.x.c.c.c.c.c.c.c.c.c.c.c.c.",
"c.c.c.c.c.c.c.c.c.c.c.c.c.c.c.c.c.c.c.c.c.c.c.c.c.c.c.c.c.c.c.c.c.c.c.c.c.c.c.c.c.c.c.c.c.c.c.c.c.c.",
"c.c.c.c.c.c.c.c.c.c.c.c.c.c.c.c.c.c.c.c.c.c.c.c.c.c.c.c.c.c.c.c.c.c.c.c.c.c.c.c.c.c.c.c.c.c.c.c.c.c.",
"c.c.c.c.c.c.c.c.c.c.c.c.c.c.c.c.c.c.c.c.c.c.c.c.c.c.c.c.c.c.c.c.c.c.c.c.c.c.c.c.c.c.c.c.c.c.c.c.c.c.",
"c.c.c.c.c.c.c.c.c.c.c.c.c.c.c.c.c.c.c.c.c.c.c.c.c.c.c.c.c.c.c.c.c.c.c.c.c.c.c.c.c.c.c.c.c.c.c.c.c.c.",
"c.c.c.c.c.c.c.c.c.c.c.c.c.c.x.c.c.c.c.c.c.c.c.c.c.c.c.c.c.c.c.c.c.c.c.c.c.c.c.c.c.c.c.c.c.c.c.c.c.c."
};
