/* XPM */
static char *fox_13[] = {
/* columns rows colors chars-per-pixel */
"50 50 125 2 ",
"   c #030200",
".  c #080401",
"X  c #0E0A04",
"o  c #110E09",
"O  c #1B1106",
"+  c #14100A",
"@  c #161A0F",
"#  c #1B1C0E",
"$  c #121E13",
"%  c #231407",
"&  c #211509",
"*  c #28180A",
"=  c #3D1F06",
"-  c #15271A",
";  c #172E1E",
":  c #192A1B",
">  c #36210C",
",  c #38210B",
"<  c #262514",
"1  c #282816",
"2  c #2E2E18",
"3  c #322914",
"4  c #3E2916",
"5  c #342618",
"6  c #35321A",
"7  c #39361E",
"8  c #193020",
"9  c #382C21",
"0  c #2E3B23",
"q  c #313720",
"w  c #353B21",
"e  c #3C3D20",
"r  c #4B2A0D",
"t  c #57310F",
"y  c #5C330F",
"u  c #41351A",
"i  c #5B3410",
"p  c #6B3A0F",
"a  c #673C15",
"s  c #6C3D13",
"d  c #553B24",
"f  c #5C3F25",
"g  c #413B34",
"h  c #384024",
"j  c #374B2D",
"k  c #314437",
"l  c #3B4539",
"z  c #3C623E",
"x  c #62421A",
"c  c #744115",
"v  c #74451A",
"b  c #79471B",
"n  c #7B481B",
"m  c #4C4623",
"M  c #58402B",
"N  c #3F5545",
"B  c #356C46",
"V  c #376E48",
"C  c #3B724B",
"Z  c #3C794F",
"A  c #3D7D53",
"S  c #414142",
"D  c #574D46",
"F  c #584F47",
"G  c #40754C",
"H  c #41794F",
"J  c #437D54",
"K  c #6F6D6B",
"L  c #706E6B",
"P  c #844D1A",
"I  c #86501B",
"U  c #8B511C",
"Y  c #9E5717",
"T  c #92541C",
"R  c #9C571B",
"E  c #9E581A",
"W  c #A25B1D",
"Q  c #B1631D",
"!  c #B9651C",
"~  c #BB681F",
"^  c #875220",
"/  c #8A5321",
"(  c #925825",
")  c #9D5D24",
"_  c #9B5E28",
"`  c #A45F24",
"'  c #A46023",
"]  c #A96426",
"[  c #A3642A",
"{  c #AB6629",
"}  c #B26622",
"|  c #BC6A22",
" . c #B56D2C",
".. c #A46733",
"X. c #A56F3F",
"o. c #C36D21",
"O. c #CD7425",
"+. c #C5742C",
"@. c #CB782F",
"#. c #D77926",
"$. c #D47B2B",
"%. c #DA7C29",
"&. c #C37631",
"*. c #E37F26",
"=. c #E17F28",
"-. c #A9794F",
";. c #B67941",
":. c #A97950",
">. c #428255",
",. c #438558",
"<. c #45885A",
"1. c #4A9361",
"2. c #4F9965",
"3. c #509B66",
"4. c #529E68",
"5. c #52A069",
"6. c #C68246",
"7. c #919292",
"8. c #AD9F92",
"9. c #AEAAA7",
"0. c #CDB39C",
"q. c #C6BBB4",
"w. c #CBBFB4",
"e. c #D7CEC7",
"r. c #CFD0D1",
/* pixels */
"3.3.3.3.3.3.3.3.3.3.3.3.3.3.3.3.3.3.3.3.3.3.3.3.3.3.3.3.3.3.3.3.3.3.3.3.3.3.3.3.3.3.3.3.3.3.3.3.3.3.",
"3.3.3.3.3.3.3.3.3.3.3.3.3.3.3.3.2.3.3.3.3.3.3.3.3.3.3.3.3.3.3.3.3.3.3.3.3.3.3.3.3.3.3.3.3.3.3.3.3.3.",
"3.3.3.3.3.3.3.3.3.3.3.3.3.3.3.3.3.3.3.3.3.3.3.3.3.3.3.3.3.3.3.3.3.3.3.3.3.3.3.3.3.3.3.3.3.3.3.3.3.3.",
"3.3.3.3.3.3.3.3.3.3.3.3.3.3.3.3.3.3.3.3.3.3.3.3.3.3.3.3.3.3.3.3.3.3.3.3.3.3.3.3.3.3.3.3.3.3.3.3.3.3.",
"3.3.3.3.3.3.3.3.3.3.3.3.3.3.3.3.3.3.3.3.3.3.3.3.3.3.3.3.3.3.3.3.3.3.3.3.3.3.3.3.3.3.3.3.3.3.3.3.3.3.",
"3.3.3.3.3.3.3.3.3.3.3.3.3.3.3.3.3.3.3.3.3.3.3.3.3.3.3.3.3.3.3.3.3.3.3.3.3.3.3.3.3.3.3.3.3.3.3.3.3.3.",
"3.3.3.3.3.3.3.3.3.3.3.3.3.3.3.3.3.3.3.3.3.3.3.3.3.3.3.3.3.3.3.3.3.3.3.3.3.3.3.3.3.3.3.3.3.3.3.3.3.3.",
"3.3.3.3.3.3.3.3.3.3.3.3.3.3.3.3.3.3.3.3.3.3.3.3.3.3.3.3.3.3.3.3.3.3.3.3.3.3.3.3.3.3.3.3.3.3.3.3.3.3.",
"3.3.3.3.3.3.3.3.3.3.3.3.3.3.3.3.3.3.3.3.3.3.3.3.3.3.3.3.3.3.3.3.3.3.3.3.3.3.3.3.3.3.3.3.3.3.3.3.3.3.",
"3.3.3.3.3.3.3.3.3.3.3.3.3.3.3.3.3.3.3.3.3.3.3.3.3.3.3.3.3.3.3.3.3.3.3.3.3.3.3.3.3.3.3.3.3.3.3.3.3.3.",
"3.3.3.3.3.3.3.3.3.3.3.3.3.3.3.3.3.3.3.3.3.3.3.3.3.3.3.3.3.3.3.3.3.3.3.3.3.3.3.3.3.3.3.3.3.3.3.3.3.3.",
"3.3.3.3.3.3.3.3.3.3.3.3.3.3.3.3.3.3.3.3.3.3.3.3.3.3.3.3.3.3.3.3.3.3.3.3.3.3.3.3.3.3.3.3.3.3.3.3.3.3.",
"3.3.3.3.3.3.3.3.3.3.3.3.3.3.3.3.3.3.3.3.3.3.3.3.3.3.3.3.3.3.3.3.3.3.3.3.3.3.3.3.3.3.3.3.3.3.3.3.3.3.",
"3.3.3.3.3.3.3.3.3.3.3.3.3.3.3.3.3.3.3.3.3.3.3.3.3.3.3.3.3.3.3.3.3.3.3.3.3.3.3.3.3.3.3.3.3.3.3.3.3.3.",
"3.3.3.3.3.3.3.3.3.3.3.3.3.3.3.3.3.3.3.3.3.3.3.3.3.3.3.3.3.3.3.3.3.3.3.3.3.3.3.3.3.3.3.3.3.3.3.3.3.3.",
"3.3.3.3.3.3.3.3.3.3.3.3.3.3.3.3.3.3.3.3.,.,.3.3.3.3.3.2.,.,.2.3.3.3.3.3.3.3.3.3.3.3.3.3.3.3.3.3.3.3.",
"3.3.3.3.3.3.3.3.3.3.3.3.3.3.3.3.3.3.2.H 6 w A 3.4.5.4.C w q J 1.3.3.3.3.3.3.3.3.3.3.3.3.3.3.3.3.3.3.",
"3.3.3.3.3.3.3.3.3.3.3.3.3.3.3.3.3.3.,.0 U T m V A A V m T / 0 ,.3.3.3.3.3.3.3.3.3.3.3.3.3.3.3.3.3.3.",
"3.3.3.3.3.3.3.3.3.3.3.3.3.3.3.3.3.4.>.1 _ T P u 2 2 u P T _ 1 >.5.3.3.3.3.3.3.3.3.3.3.3.3.3.3.3.3.3.",
"3.3.3.3.3.3.3.3.3.3.3.3.3.3.3.3.3.2.C < ( v P ' | | ' P v ( < C 3.3.3.3.3.3.3.3.3.3.3.3.3.3.3.3.3.3.",
"3.3.3.3.3.3.3.3.3.3.3.3.3.3.3.3.4.,.: > _ ^ { %.*.*.%.[ I _ , : ,.3.2.3.3.3.3.3.3.3.3.3.3.3.3.3.3.3.",
"3.3.3.3.3.3.3.3.3.3.3.3.3.3.3.3.4.,.0 I  .[  .%.*.=.%. .[  .I w ,.5.3.3.3.3.3.3.3.3.3.3.3.3.3.3.3.3.",
"3.3.3.3.3.3.3.3.3.3.3.3.3.3.3.3.3.1.z x { b a _ $.$._ a P | x B 1.5.3.3.3.3.3.3.3.3.3.3.3.3.3.3.3.3.",
"3.3.3.3.3.3.3.3.3.3.3.3.3.3.3.2.3.<.j I } b 9 4 ] ] r 9 v ! U j <.3.3.3.3.3.3.3.3.3.3.3.3.3.3.3.3.3.",
"3.3.3.3.3.3.3.3.3.3.3.3.3.3.3.3.3.2.G > p 6.8.g ;.X.g 8.6.p 3 C 2.3.3.3.3.3.3.3.3.3.3.3.3.3.3.3.3.3.",
"3.3.3.3.3.3.3.3.3.3.3.3.3.3.3.3.3.2.C @ = ;.0.L e.e.L 0.;.= $ C 2.3.3.3.3.3.3.3.3.3.3.3.3.3.3.3.3.3.",
"3.3.3.3.3.3.3.3.3.3.3.3.3.3.3.3.2.H 7 s W s -.w.r.r.q.:.s W s e G 2.3.3.3.3.3.3.3.3.3.3.3.3.3.3.3.3.",
"3.3.3.3.3.3.3.3.3.3.3.3.3.3.3.4.,.h W O.o.W f L S S K d W o.O.W h ,.5.3.3.3.3.3.3.3.3.3.3.3.3.3.3.3.",
"3.3.3.3.3.3.3.3.3.3.3.3.3.3.2.5.A 6 ! Q y Q v 5 & & 5 v Q p W ! 6 A 3.3.3.3.3.3.3.3.3.3.3.3.3.3.3.3.",
"3.3.3.3.3.3.3.3.3.3.3.3.3.3.3.5.A 7 ..f * | O.] [ [ ] O.! % f ..7 A 5.3.3.3.3.3.3.3.3.3.3.3.3.3.3.3.",
"3.3.3.3.3.3.3.3.3.3.3.3.3.3.3.5.A l q.9.d | =.%.&.&.%.%.| d 9.q.l Z 3.3.3.3.3.2.3.3.3.3.3.3.3.3.3.3.",
"3.3.3.3.3.3.3.3.3.3.3.3.3.3.2.3.A N 7.D ^ +.$.%.@.@.%.$.+.U D 7.N >.4.3.3.3.3.3.3.3.3.3.3.3.3.3.3.3.",
"3.3.3.3.3.3.3.3.3.3.3.3.3.3.3.3.2.J k + t W | #.O.O.#.| W t o k J 2.3.3.3.3.3.3.3.3.3.3.3.3.3.3.3.3.",
"3.3.3.3.3.3.3.3.3.3.3.3.3.3.3.3.3.3.V # s r y Y c c R i r c # V 2.3.3.3.3.3.3.3.3.3.3.3.3.3.3.3.3.3.",
"3.3.3.3.3.3.3.3.3.3.3.3.3.3.3.3.3.3.<.: % r c , X X > c r % : <.4.3.3.3.3.3.3.3.3.3.3.3.3.3.3.3.3.3.",
"3.3.3.3.3.3.3.3.3.3.3.3.3.3.3.3.3.3.3.H - # O .     . O # - Z 2.3.3.3.3.3.3.3.3.3.3.3.3.3.3.3.3.3.3.",
"3.3.3.3.3.3.3.3.3.3.3.3.3.3.3.3.3.3.3.3.,.V ; $ $ $ $ 8 V <.2.3.3.3.3.3.3.3.3.3.3.3.3.3.3.3.3.3.3.3.",
"3.3.3.3.3.3.3.3.3.3.3.3.3.3.3.3.3.3.3.3.3.3.,.>.J >.J ,.2.5.3.3.3.3.3.3.3.3.3.3.3.3.3.3.3.3.3.3.3.3.",
"3.3.3.3.3.3.3.3.3.3.3.3.3.3.3.3.3.3.3.3.3.3.3.5.4.5.5.5.3.3.3.3.3.3.3.3.3.3.3.3.3.3.3.3.3.3.3.3.3.3.",
"3.3.3.3.3.3.3.3.3.3.3.3.3.3.3.3.3.3.3.3.3.3.3.3.2.2.2.3.3.3.3.3.3.3.3.3.3.3.3.3.3.3.3.3.3.3.3.3.3.3.",
"3.3.3.3.3.3.3.3.3.3.3.3.3.3.3.3.3.3.3.3.3.3.3.3.3.3.3.3.3.3.3.3.3.3.3.3.3.3.3.3.3.3.3.3.3.3.3.3.3.3.",
"3.3.3.3.3.3.3.3.3.3.3.3.3.3.3.3.3.3.3.3.3.3.3.3.3.3.3.3.3.3.3.3.3.3.3.3.3.3.3.3.3.3.3.3.3.3.3.3.3.3.",
"3.3.3.3.3.3.3.3.3.3.3.3.3.3.3.3.3.3.3.3.3.3.3.3.3.3.3.3.3.3.3.3.3.3.3.3.3.3.3.3.3.3.3.3.3.3.3.3.3.3.",
"3.3.3.3.3.3.3.3.3.3.3.3.3.3.3.3.3.3.3.3.3.3.3.3.3.3.3.3.3.3.3.3.3.3.3.3.3.3.3.3.3.3.3.3.3.3.3.3.3.3.",
"3.3.3.3.3.3.3.3.3.3.3.3.3.3.3.3.3.3.3.3.3.3.3.3.3.3.3.3.3.3.3.3.3.3.3.3.3.3.3.3.3.3.3.3.3.3.3.3.3.3.",
"3.3.3.3.3.3.3.3.3.3.3.3.3.3.3.3.3.3.3.3.3.3.3.3.3.3.3.3.3.3.3.3.3.3.3.3.3.3.3.3.3.3.3.3.3.3.3.3.3.3.",
"3.3.3.3.3.2.3.3.3.3.3.3.3.3.3.3.3.3.3.3.3.3.3.3.3.3.3.3.3.3.3.3.3.3.3.3.3.3.3.3.3.3.3.3.3.3.3.3.3.3.",
"3.3.3.3.3.3.3.3.3.3.3.3.3.3.3.3.3.3.3.3.3.3.3.3.3.3.3.3.3.3.3.3.3.3.3.3.3.3.3.3.3.3.3.3.3.3.3.3.3.3.",
"3.3.3.3.3.3.3.3.3.3.3.3.3.3.3.3.3.3.3.3.3.3.3.3.3.3.3.3.3.3.3.3.3.3.3.3.3.3.3.3.3.3.3.3.3.3.3.3.3.3.",
"3.3.3.3.3.3.3.3.3.3.3.3.3.3.3.3.3.3.3.3.3.3.3.3.3.3.3.3.3.3.3.3.3.3.3.3.3.3.3.3.3.3.3.3.3.3.3.3.3.3."
};
