/* XPM */
static char *fox_16[] = {
/* columns rows colors chars-per-pixel */
"50 50 140 2 ",
"   c #010100",
".  c #0C0702",
"X  c #09120B",
"o  c #0E180F",
"O  c #0F1C12",
"+  c #131B12",
"@  c #231406",
"#  c #2B1807",
"$  c #23170C",
"%  c #2C190A",
"&  c #331D09",
"*  c #132617",
"=  c #14271A",
"-  c #19291F",
";  c #3B2007",
":  c #3C2209",
">  c #262513",
",  c #2C2510",
"<  c #282917",
"1  c #362912",
"2  c #3C2B15",
"3  c #2C321D",
"4  c #31341C",
"5  c #3B3118",
"6  c #30381F",
"7  c #193020",
"8  c #232221",
"9  c #3E2F21",
"0  c #2C3721",
"q  c #2C3821",
"w  c #2A3D2A",
"e  c #3D3025",
"r  c #383F22",
"t  c #3A3E34",
"y  c #33383B",
"u  c #383A3C",
"i  c #472709",
"p  c #46280D",
"a  c #4C290A",
"s  c #422B17",
"d  c #4E2F15",
"f  c #532E10",
"g  c #44371A",
"h  c #4C301C",
"j  c #403B1F",
"k  c #533113",
"l  c #5D3413",
"z  c #6D3B0F",
"x  c #70390B",
"c  c #663B15",
"v  c #6A3B13",
"b  c #433120",
"n  c #413D20",
"m  c #593E27",
"M  c #573D28",
"N  c #433B33",
"B  c #3B4123",
"V  c #34472B",
"C  c #36482B",
"Z  c #33463A",
"A  c #364B3C",
"S  c #34623F",
"D  c #7D4615",
"F  c #75451A",
"G  c #7A4619",
"H  c #79491E",
"J  c #424122",
"K  c #4D4622",
"L  c #56412D",
"P  c #5B412A",
"I  c #584433",
"U  c #624327",
"Y  c #694626",
"T  c #65472E",
"R  c #6B492A",
"E  c #396F49",
"W  c #3D744C",
"Q  c #3E7D53",
"!  c #41754C",
"~  c #43794E",
"^  c #427C53",
"/  c #6E6B69",
"(  c #706C69",
")  c #737170",
"_  c #844915",
"`  c #8A4C16",
"'  c #854D1A",
"]  c #8C521D",
"[  c #93541D",
"{  c #9E5518",
"}  c #9F5A1D",
"|  c #A45B1B",
" . c #B4631E",
".. c #BA651D",
"X. c #BC681F",
"o. c #865222",
"O. c #8B5422",
"+. c #925825",
"@. c #9B5D25",
"#. c #A35D22",
"$. c #AB6526",
"%. c #A76528",
"&. c #A96629",
"*. c #AC682A",
"=. c #B26521",
"-. c #B36926",
";. c #BC6A22",
":. c #B56D2B",
">. c #C47127",
",. c #C9772E",
"<. c #DB7B26",
"1. c #D57A28",
"2. c #DB7D29",
"3. c #C57630",
"4. c #E27F26",
"5. c #A57244",
"6. c #AC794C",
"7. c #BB7B43",
"8. c #C27F43",
"9. c #428256",
"0. c #448658",
"q. c #45885A",
"w. c #4E9764",
"e. c #4F9965",
"r. c #509B66",
"t. c #529E68",
"y. c #E68127",
"u. c #E28029",
"i. c #8E857B",
"p. c #A6998C",
"a. c #A8998C",
"s. c #ACA8A4",
"d. c #B6B6B6",
"f. c #B5B8B9",
"g. c #CEB49D",
"h. c #D1C5B9",
"j. c #C0C1C2",
"k. c #D6CDC5",
"l. c #D7DADB",
"z. c #D8DADB",
/* pixels */
"r.r.r.r.r.r.r.r.r.r.r.r.r.r.r.r.r.r.r.r.r.r.r.r.r.r.r.r.r.r.r.r.r.r.r.r.r.r.r.r.r.r.r.r.r.r.r.r.r.r.",
"r.r.r.r.r.r.r.r.r.r.r.r.r.e.r.r.r.r.r.r.r.r.r.r.r.r.r.r.r.r.r.r.r.r.r.r.r.r.r.r.r.r.r.r.r.r.r.r.r.r.",
"r.r.r.r.r.r.r.r.r.r.r.r.r.r.r.r.r.r.r.r.r.r.r.r.r.r.r.r.r.r.r.r.r.r.r.r.r.r.r.r.r.r.r.e.r.r.r.r.r.r.",
"r.r.r.r.r.r.r.r.r.r.r.r.r.r.r.r.r.r.r.r.r.r.r.r.r.r.r.r.r.r.r.r.r.r.r.r.r.r.r.r.r.r.r.r.r.r.r.r.r.r.",
"r.r.r.r.r.r.r.r.r.r.r.r.r.r.r.r.r.r.r.r.r.r.r.r.r.r.r.r.r.r.r.r.r.r.r.r.r.r.r.r.r.r.r.r.r.r.r.r.r.r.",
"r.r.r.r.r.r.r.r.r.r.r.r.r.r.r.r.r.r.r.r.r.r.r.r.r.r.r.r.r.r.r.r.r.r.r.r.r.r.r.r.r.r.r.r.r.r.r.r.r.r.",
"r.r.r.r.r.r.r.r.r.r.r.r.r.r.r.r.r.r.r.r.r.r.r.r.r.r.r.r.r.e.r.r.r.r.r.r.r.r.r.r.r.r.r.r.r.r.r.r.r.r.",
"r.r.r.r.r.r.r.r.r.r.r.r.r.r.r.r.r.r.r.r.r.r.r.r.r.r.r.r.r.r.r.r.r.r.r.r.r.r.r.r.r.r.r.r.r.r.r.r.r.r.",
"r.r.r.r.r.r.r.r.r.r.r.r.r.r.r.r.r.r.r.r.r.r.r.r.r.r.r.r.r.r.r.r.r.r.r.r.r.r.r.r.r.r.r.r.r.r.r.r.r.r.",
"r.r.r.r.r.r.r.r.e.r.r.r.r.r.r.r.r.r.r.r.r.r.r.r.r.r.r.r.r.r.r.r.r.r.r.r.r.r.r.r.r.r.r.r.r.r.r.r.r.r.",
"r.r.r.r.r.r.r.r.r.r.r.r.r.r.r.r.r.r.r.r.r.r.r.r.r.r.r.r.r.r.r.r.r.r.r.r.r.r.r.r.r.r.r.r.r.r.r.r.r.r.",
"r.r.r.r.r.r.r.r.r.r.r.r.r.r.r.r.r.r.r.r.r.r.r.r.r.r.r.r.r.r.r.r.r.r.r.r.r.r.r.r.r.r.r.r.r.r.r.r.r.r.",
"r.r.r.r.r.r.r.r.r.r.r.r.r.r.r.r.r.r.r.r.r.r.r.r.r.r.r.r.r.r.r.r.r.r.r.r.r.r.r.r.r.r.r.r.r.r.r.r.r.r.",
"r.r.r.r.r.r.r.r.r.r.r.r.r.r.r.r.r.r.r.r.r.t.r.r.r.r.r.r.r.r.r.r.r.r.r.r.r.r.r.r.r.r.r.r.r.r.r.r.r.r.",
"r.r.r.r.r.r.r.r.r.r.r.r.r.r.r.r.r.r.t.r.q.q.e.r.r.r.r.e.q.q.r.r.r.r.r.r.r.r.r.r.r.r.r.r.r.r.r.r.r.r.",
"r.r.r.r.r.r.r.r.r.r.r.r.r.r.r.r.r.r.w.~ 3 q W e.t.t.r.W 6 3 ~ e.r.r.r.r.r.r.r.r.r.r.r.r.e.r.r.r.r.r.",
"r.r.r.r.r.r.r.r.r.r.r.r.r.r.r.r.r.r.q.0 O.[ K E Q Q E K [ O.q q.t.r.r.r.r.r.r.r.r.r.r.r.r.r.r.r.r.r.",
"r.r.r.r.r.r.r.r.r.r.r.r.r.r.r.r.r.r.9.< @.[ ' g 4 3 g ' [ @.< 9.t.r.r.r.r.r.r.r.r.r.r.r.r.r.r.r.r.r.",
"r.r.r.r.r.r.r.r.r.r.r.r.r.r.r.r.r.r.9.< +.F ' @. ...#.' F +.< 9.t.r.r.r.r.r.r.r.r.r.r.r.r.r.r.r.r.r.",
"r.r.r.r.r.r.r.r.r.r.r.r.r.r.r.r.r.r.! 5 @.o.$.2.u.y.2.%.o.@.5 W r.r.r.r.r.r.r.r.r.r.r.r.r.r.r.r.r.r.",
"r.r.r.r.r.r.r.r.r.r.r.r.r.r.r.r.r.! j ] :.*.:.2.4.4.1.:.&.:.] n W e.r.r.r.r.r.r.r.r.r.r.r.r.r.r.r.r.",
"r.r.r.r.r.r.r.r.r.r.r.r.r.r.r.t.q.C l v &.F c #.1.1.@.c G -.v c V 0.r.r.r.r.r.r.r.r.r.r.r.r.r.r.r.r.",
"r.r.r.r.r.r.r.r.r.r.r.r.r.r.r.r.w.! n ' =.H e 2 $.$.s e G  .` J W e.r.r.r.r.r.r.r.r.r.r.r.r.r.r.r.r.",
"r.r.r.r.r.r.r.r.r.r.r.e.r.r.r.r.r.r.! 2 v 8.p.N 5.5.N a.8.x 1 E e.t.r.r.r.r.r.r.r.r.r.r.r.r.r.r.r.r.",
"r.r.r.r.r.r.r.r.r.r.r.r.t.r.r.r.r.e.W o & 7.g./ k.k.( g.7.i @ 3 ~ e.e.e.t.e.r.r.r.r.r.r.r.r.r.r.r.r.",
"r.r.r.r.r.r.r.r.r.r.r.r.r.r.r.r.e.~ 3 & _ v 6.h.z.z.h.6.c [ X._ 6 0.t.e.r.r.r.r.r.r.r.r.r.r.r.r.r.r.",
"r.r.r.r.r.r.r.r.r.r.r.r.e.r.r.t.0.r {  .a x Y / u y / R ` f @.M - ^ t.r.r.r.r.r.r.r.r.r.r.r.r.r.r.r.",
"r.r.r.r.r.r.r.r.r.r.r.r.r.r.r.t.Q 5 ..;.N P G h % $ b @.;.i b ( A 9.r.r.r.r.r.r.r.r.r.r.r.r.r.r.r.r.",
"r.r.r.r.r.r.r.r.r.r.r.r.r.r.e.t.9.B _ m f.s.T | ;.#.$.1.<.| $ Z ^ r.r.r.r.r.r.r.r.r.r.r.r.r.r.r.r.r.",
"r.r.r.r.r.r.r.r.r.r.r.r.r.r.r.t.e.Q 3 8 j.f.I | 2.3.>.<.4.-.< E e.t.r.r.r.r.r.r.r.r.r.r.r.r.r.r.r.r.",
"r.r.r.r.r.r.r.r.r.e.r.r.r.r.r.r.t.e.E O 8 M o.c *.&.k $.2.| > W e.r.r.r.r.r.r.r.r.r.r.r.r.r.r.r.r.r.",
"r.r.r.r.r.r.r.r.r.r.r.r.r.r.r.e.e.e.9.O @ ` $.:.,.;.c ;.;.k L w 9.t.r.r.r.r.r.r.r.r.r.r.r.e.r.r.r.r.",
"r.r.r.r.r.r.r.r.r.r.r.r.r.r.r.r.r.t.9.+ & & p } ;.=.| =._ U i.Z ^ t.r.r.r.r.r.r.r.r.r.r.r.r.r.r.r.r.",
"r.r.r.r.r.r.r.r.r.r.r.r.r.r.r.r.r.t.9.o .   . @ # # & l f d t ^ e.r.r.r.r.r.r.r.r.r.r.r.r.r.r.r.r.r.",
"r.r.r.e.r.r.r.r.r.r.r.r.r.r.r.r.r.r.q.*               . . . * q.t.r.r.r.r.r.r.r.r.r.r.r.r.r.r.r.r.r.",
"r.r.r.r.r.r.r.r.r.r.r.r.r.r.r.r.r.r.r.Q * X             X * Q e.r.r.r.r.r.r.r.r.r.r.r.r.r.r.r.r.r.r.",
"r.r.r.r.r.r.r.r.r.r.r.r.r.r.r.r.r.r.r.e.q.W 7 O O O O 7 W 0.e.r.r.r.r.r.r.r.r.r.r.r.r.r.r.r.r.r.r.r.",
"r.r.r.r.r.r.r.r.r.r.r.r.r.r.r.r.r.r.r.r.r.w.q.^ ^ 9.9.q.e.e.r.r.r.r.r.r.r.r.r.r.r.r.r.r.r.r.r.r.r.r.",
"r.r.r.r.r.r.r.r.r.r.r.r.r.r.r.r.r.r.r.r.e.r.t.t.t.t.t.t.r.r.r.r.r.r.r.r.r.r.r.r.r.r.r.r.r.r.r.r.r.r.",
"r.r.r.r.r.r.r.r.r.r.r.r.r.r.r.r.r.r.r.r.r.r.r.r.e.r.t.e.r.r.r.r.r.r.r.r.r.r.r.r.r.r.r.r.r.r.r.r.r.r.",
"r.r.r.r.r.r.r.r.r.r.r.r.r.r.r.r.r.r.r.r.r.r.r.r.r.r.r.r.r.r.r.r.r.r.r.r.r.r.r.r.r.r.r.r.r.r.r.r.r.r.",
"r.r.r.r.r.r.r.r.r.r.r.r.r.r.r.r.r.r.r.r.r.r.r.r.r.r.r.r.r.r.r.r.r.r.r.r.r.r.r.r.r.r.r.r.r.r.r.r.r.r.",
"r.r.r.r.r.r.r.r.r.r.r.r.r.r.r.r.r.r.r.r.r.r.r.r.r.r.r.r.r.r.r.r.r.r.r.r.r.r.r.r.r.r.r.r.r.r.r.r.r.r.",
"r.r.r.r.r.r.r.r.r.r.r.r.r.r.r.r.r.r.r.r.r.r.r.r.r.r.r.r.r.r.r.r.r.r.r.r.r.r.r.r.r.r.r.r.r.r.r.r.r.r.",
"r.r.r.r.r.r.r.r.r.r.r.r.r.r.r.r.r.r.r.e.r.r.r.r.r.r.r.r.r.r.r.r.r.r.r.r.r.r.r.r.r.r.r.r.r.r.r.r.r.r.",
"r.r.r.r.r.r.r.r.r.r.r.r.r.r.r.r.r.r.r.r.r.r.r.r.r.r.r.r.r.r.r.r.r.r.r.r.r.r.r.r.r.r.r.r.r.r.r.r.r.r.",
"r.r.e.r.r.r.r.r.r.r.r.r.r.r.r.r.r.r.r.r.r.r.r.r.r.r.r.r.r.r.r.r.r.r.r.r.r.r.r.e.r.r.r.r.r.r.r.r.r.r.",
"r.r.r.r.r.r.r.r.r.r.r.e.r.r.r.r.r.r.r.r.r.r.r.r.r.r.r.r.r.r.r.r.r.r.r.r.r.r.r.r.r.r.r.r.r.r.r.r.r.r.",
"r.r.r.r.r.r.r.r.r.r.r.r.r.r.r.r.r.r.r.r.r.r.r.r.r.r.r.r.r.r.r.r.r.r.r.r.r.r.r.r.r.r.r.r.r.r.r.r.r.r.",
"r.r.r.r.r.r.r.r.r.r.r.r.r.r.r.r.r.r.r.r.r.r.r.r.r.r.r.r.r.r.r.r.r.r.r.r.r.r.r.r.r.r.r.r.r.r.r.r.r.r."
};
