/* XPM */
static char *fox_10[] = {
/* columns rows colors chars-per-pixel */
"50 50 118 2 ",
"   c #010100",
".  c #0B0702",
"X  c #0D0802",
"o  c #100902",
"O  c #180F06",
"+  c #0A120B",
"@  c #1B140C",
"#  c #0F1C12",
"$  c #151B10",
"%  c #181E11",
"&  c #261607",
"*  c #271808",
"=  c #2C1A09",
"-  c #381F09",
";  c #142719",
":  c #16281A",
">  c #182C1C",
",  c #1E311F",
"<  c #36200B",
"1  c #3C230D",
"2  c #252313",
"3  c #2A2714",
"4  c #2B2915",
"5  c #2C2F1B",
"6  c #2F341D",
"7  c #2F381F",
"8  c #3E3218",
"9  c #30381F",
"0  c #1B3120",
"q  c #2C3620",
"w  c #2C3A22",
"e  c #373C20",
"r  c #412107",
"t  c #41250C",
"y  c #512F0F",
"u  c #4B2D11",
"i  c #502E10",
"p  c #413217",
"a  c #41361C",
"s  c #4B3518",
"d  c #563111",
"f  c #5B3412",
"g  c #543F1E",
"h  c #663D17",
"j  c #683E17",
"k  c #663D18",
"l  c #433324",
"z  c #4B3C2F",
"x  c #394123",
"c  c #344B2F",
"v  c #344D30",
"b  c #39623F",
"n  c #6D421B",
"m  c #7E491B",
"M  c #444425",
"N  c #4D4522",
"B  c #5B4430",
"V  c #6B4421",
"C  c #6F4A21",
"Z  c #60452D",
"A  c #66492B",
"S  c #784B20",
"D  c #305F40",
"F  c #3A6541",
"G  c #396E48",
"H  c #3C734C",
"J  c #3E7950",
"K  c #5A5651",
"L  c #40754C",
"P  c #427A4F",
"I  c #417E54",
"U  c #884A14",
"Y  c #834C1B",
"T  c #8C4F18",
"R  c #8F521B",
"E  c #905018",
"W  c #97581F",
"Q  c #9C591D",
"!  c #A35C1D",
"~  c #A95F1E",
"^  c #AC601E",
"/  c #945A25",
"(  c #9C5D24",
")  c #A15F24",
"_  c #AB6425",
"`  c #A46328",
"'  c #AB682C",
"]  c #B26724",
"[  c #B46926",
"{  c #BC6A22",
"}  c #B46C2C",
"|  c #BC6F2A",
" . c #BF742F",
".. c #BE7A3D",
"X. c #C26D21",
"o. c #C86F20",
"O. c #CC7427",
"+. c #C3752F",
"@. c #CA762C",
"#. c #CA782E",
"$. c #D27624",
"%. c #D47825",
"&. c #DD7C27",
"*. c #D47A2A",
"=. c #DC7D29",
"-. c #E17E26",
";. c #E07F29",
":. c #3F8055",
">. c #428256",
",. c #458658",
"<. c #46895A",
"1. c #4C9562",
"2. c #4F9965",
"3. c #509B66",
"4. c #529E68",
"5. c #959392",
"6. c #BFB0A2",
"7. c #B6B1AE",
/* pixels */
"3.3.3.3.3.3.3.3.3.3.3.3.3.3.3.3.3.3.3.3.3.3.3.3.3.3.3.3.3.3.3.3.3.3.3.3.3.3.3.3.3.3.3.3.3.3.3.3.3.3.",
"3.3.3.3.3.3.3.3.3.3.3.3.3.2.3.3.3.3.3.3.3.3.3.3.3.3.3.3.3.3.3.3.3.3.3.3.3.3.3.3.3.3.3.3.3.3.3.3.3.3.",
"3.3.3.3.3.3.3.3.3.3.3.3.3.3.3.3.3.3.3.3.3.3.3.3.3.3.3.3.3.3.3.3.3.3.3.3.3.3.3.3.3.3.3.3.3.3.3.3.3.3.",
"3.3.3.3.3.3.3.3.3.3.3.3.3.3.3.3.3.3.3.3.3.3.3.3.3.3.3.3.3.3.3.3.3.3.3.3.3.3.3.3.3.3.3.3.3.3.3.3.3.3.",
"3.3.3.3.3.3.3.3.3.3.3.3.3.3.3.3.3.3.3.3.3.3.3.3.3.3.3.3.3.3.3.3.3.3.3.3.3.3.3.3.3.3.3.3.3.3.3.3.3.3.",
"3.3.3.3.3.3.3.3.3.3.3.3.3.3.3.3.3.3.3.3.3.3.3.3.3.3.3.3.3.3.3.3.3.3.3.3.3.3.3.3.3.3.3.3.3.3.3.3.3.3.",
"3.3.3.3.3.3.3.3.3.3.3.3.3.3.3.3.3.3.3.3.3.3.3.3.3.3.3.3.3.3.3.3.3.3.3.3.3.3.3.3.3.3.3.3.3.3.3.3.3.2.",
"3.3.3.3.3.3.3.3.3.3.3.3.3.3.3.3.3.3.3.3.3.3.3.3.3.3.3.3.3.3.3.3.3.3.3.3.3.3.3.3.3.3.3.3.3.3.3.3.3.3.",
"3.3.3.3.3.3.3.3.3.3.3.3.3.3.3.3.3.3.3.3.3.3.3.3.3.3.3.3.3.3.3.3.3.3.3.3.3.3.3.3.3.3.3.3.3.3.3.3.3.3.",
"3.3.3.3.3.3.3.3.3.3.3.3.3.3.3.3.3.3.3.3.3.3.3.3.3.3.3.3.3.3.3.3.3.3.3.3.3.3.3.3.3.3.3.3.3.3.3.3.3.3.",
"3.3.3.3.3.3.3.3.3.3.3.3.3.3.3.3.3.3.3.3.3.3.3.3.3.3.3.3.3.3.3.3.3.3.3.3.3.3.3.3.3.3.3.3.3.3.3.3.3.3.",
"3.3.3.3.3.3.3.3.3.3.3.3.3.3.3.3.3.3.3.3.3.3.3.3.3.3.3.3.3.3.3.3.3.3.3.3.3.3.3.3.3.3.3.3.3.3.3.3.3.3.",
"3.3.3.3.3.3.3.3.3.3.3.3.3.3.3.3.2.3.3.3.2.3.3.3.3.3.3.3.3.3.3.3.3.3.3.3.3.3.3.3.3.3.3.3.3.3.3.3.3.3.",
"3.3.3.3.3.3.3.3.3.3.3.3.3.3.3.3.4.2.3.3.3.4.3.3.3.3.3.3.3.3.3.3.3.3.3.3.3.3.3.3.3.3.3.3.3.3.3.3.3.3.",
"3.3.3.3.3.3.3.3.3.3.3.3.3.3.3.3.3.3.3.2.,.<.2.3.3.3.3.2.,.,.2.3.3.3.3.3.3.3.3.3.3.3.3.3.3.3.3.3.3.3.",
"3.3.3.3.2.3.3.3.3.3.3.3.3.3.3.3.3.3.2.I 6 w H 2.4.4.3.H q 6 P 2.3.3.3.3.3.3.3.3.3.3.3.3.3.3.3.3.3.3.",
"3.3.3.3.3.3.3.3.3.3.3.3.3.3.3.3.3.3.,.9 ! / M G >.:.G M / ! 7 ,.4.3.3.3.3.3.3.3.3.3.3.3.3.3.3.3.3.3.",
"3.3.3.3.3.3.3.3.3.3.3.3.3.3.3.3.3.3.>.4 X.=.( p 5 5 a ( &.X.4 >.4.3.3.3.3.3.3.3.3.3.3.3.3.3.3.3.3.3.",
"3.3.3.3.3.3.3.3.3.3.3.3.3.3.3.3.3.4.>.4 { %.#._ ) ` _ O.%.{ 4 >.4.3.3.3.3.3.3.3.3.3.3.3.3.3.3.3.3.3.",
"3.3.3.3.3.3.3.3.3.3.3.3.3.3.3.3.3.4.>.4 ~ Q +.=.=.-.=.| Q ^ 4 >.4.3.3.3.3.3.3.3.3.3.3.3.3.3.3.3.3.3.",
"3.3.3.3.3.3.3.3.3.3.3.3.3.3.2.2.3.1.L 8 [ $.&.&.-.-.-.&.*.] 8 H 2.3.3.3.3.3.3.3.3.3.3.3.3.3.3.3.3.3.",
"3.3.3.3.3.3.3.3.3.3.3.3.2.4.4.3.4.<.v S O.-.-.-.-.-.&.-.&.@.S c <.3.3.3.3.3.3.3.3.3.3.3.3.3.3.3.3.3.",
"3.3.3.3.3.3.3.3.3.3.3.3.3.3.2.4.3.1.b g | =.&.-.-.-.-.-.=.} g F 1.3.3.3.3.3.3.3.3.3.3.3.3.3.3.3.3.3.",
"3.3.3.3.3.3.3.3.3.3.3.3.3.3.3.2.4.<.c n ' +.=.=.=.&.=.=.#.' n w ,.3.3.3.3.3.3.3.3.3.3.3.3.3.3.3.3.3.",
"3.3.3.3.3.3.3.3.2.4.2.3.3.3.3.3.3.2.b s m ( } }  . .} } ( k 1 4 L 3.3.3.3.3.3.3.3.3.3.3.3.3.3.3.3.3.",
"3.3.3.3.3.3.3.3.4.2.3.3.3.3.3.2.2.L N ~ Q f h n / / k d 1 = ^ ! 9 :.4.3.3.3.3.3.3.3.3.3.3.3.3.3.3.3.",
"3.3.3.3.3.3.3.3.3.3.3.3.3.3.3.4.>.7 T X.d ! ` u 1 1 @ l n 1 { ! x >.4.3.3.3.3.3.3.3.3.3.3.3.3.3.2.3.",
"3.3.3.3.3.3.3.3.3.3.3.3.3.3.3.4.,., t E f X.%.` / V K 5.z r E N P 2.3.2.3.3.3.3.3.3.3.3.3.3.3.3.4.2.",
"3.3.3.3.3.3.3.3.3.3.3.3.3.3.3.4.2.J : < ^ =.=.#.( A 6.7.B U p H 2.4.2.4.3.3.3.3.3.3.3.3.3.3.3.3.3.3.",
"3.3.3.3.3.3.3.3.3.3.3.3.3.3.3.2.2.2.H 2 ] =.=.{ y _ ..Z ) ] 3 >.4.3.4.2.3.3.3.3.3.3.3.3.3.3.3.3.3.3.",
"3.3.3.3.3.3.3.3.3.3.3.3.3.3.4.2.2.4.>.2 ! #.*.[ t [ / f _ ! 2 >.4.2.3.3.3.3.3.3.3.3.3.3.3.3.3.3.3.3.",
"3.3.3.3.3.3.3.3.3.3.3.3.3.3.2.4.2.2.>.$ t ( X.` 1 Y u U Q 1 , ,.4.3.3.3.3.3.3.3.3.3.3.3.3.3.3.3.3.3.",
"3.3.3.3.3.3.3.3.3.3.3.3.3.3.3.3.3.4.>.% 1 1 y Y = 1 O * & + b 1.2.2.4.2.3.3.3.3.3.3.3.3.3.2.4.2.3.3.",
"3.3.3.3.3.3.3.3.3.3.3.3.2.3.3.3.2.4.>.% r 1 < * . .         > ,.4.2.4.2.3.3.3.3.3.3.3.3.2.4.3.3.3.3.",
"3.3.3.3.3.3.3.3.3.3.3.3.3.3.3.3.3.4.<.: X o X               ; <.4.2.2.2.3.3.3.3.3.3.3.3.3.3.3.3.3.3.",
"3.3.3.3.3.3.3.3.3.3.3.3.3.3.3.3.3.2.2.J : +             + : J 2.2.4.2.4.3.3.3.3.3.3.3.3.3.3.3.3.3.3.",
"3.3.3.3.3.3.3.3.3.3.3.3.3.3.3.3.3.3.3.2.<.H , # # # # , H ,.2.3.2.4.3.3.3.3.3.3.3.3.3.3.3.3.3.3.3.3.",
"3.3.3.3.3.3.3.3.3.3.3.3.3.3.3.3.3.3.3.4.2.2.>.>.>.>.I ,.2.2.3.3.2.2.3.3.3.3.3.3.3.3.3.3.3.3.3.3.3.3.",
"3.3.3.3.3.3.3.3.3.3.3.3.3.3.3.3.3.3.4.2.2.4.4.4.3.4.4.4.3.2.3.3.4.3.3.3.3.3.3.3.3.3.3.3.3.3.3.3.3.3.",
"3.3.3.3.3.3.3.3.3.3.3.3.3.3.3.3.2.4.2.2.4.2.3.3.3.3.3.3.2.4.3.3.2.3.3.3.3.3.3.3.3.3.3.3.3.3.3.3.3.3.",
"3.3.3.3.3.3.3.3.3.3.3.3.3.3.3.3.3.3.3.3.3.3.3.2.3.3.3.3.3.3.3.3.3.3.3.3.3.3.3.3.3.3.3.3.3.3.3.3.2.3.",
"3.3.3.3.3.3.3.3.3.3.3.3.3.3.3.3.3.3.3.3.3.3.3.3.3.3.3.3.3.3.3.3.3.3.3.3.3.3.3.3.3.3.3.3.3.3.3.3.4.2.",
"3.3.3.3.3.3.3.3.3.3.3.3.3.3.3.3.3.3.3.3.3.3.3.3.3.3.3.3.3.3.3.3.3.3.3.3.3.3.3.3.3.3.3.3.3.3.3.3.3.3.",
"3.3.3.3.3.3.3.3.3.3.3.3.3.3.3.3.3.3.3.3.3.3.3.3.3.3.3.3.3.3.3.3.3.3.3.3.3.3.3.3.3.3.3.3.3.3.3.3.3.3.",
"3.3.3.3.3.3.3.3.3.3.3.3.3.3.3.3.3.3.3.3.3.3.3.3.3.3.3.3.3.3.3.3.3.3.3.3.3.3.3.3.3.3.3.3.3.3.3.3.3.3.",
"3.3.3.3.3.3.3.3.3.3.3.2.3.3.3.3.3.3.3.3.3.3.3.3.3.3.3.3.3.3.3.3.3.3.3.3.3.3.3.3.3.3.3.3.3.3.3.3.3.3.",
"3.3.3.3.3.3.3.3.3.3.3.3.3.3.3.3.3.3.3.3.3.3.3.3.3.3.3.3.3.3.3.3.3.3.3.3.3.3.3.3.3.3.4.2.2.4.3.3.3.3.",
"3.3.3.3.3.3.3.3.3.3.3.3.3.3.3.3.3.3.3.3.3.3.3.3.3.3.3.3.3.3.3.3.3.3.3.3.3.3.3.3.3.3.2.4.2.2.3.3.3.3.",
"3.3.3.3.3.3.3.3.3.3.3.3.3.3.3.3.3.3.3.3.3.3.3.3.3.3.3.3.3.3.3.3.3.3.3.3.3.3.3.3.3.3.3.3.3.3.3.3.3.3.",
"3.3.3.3.3.3.3.3.3.3.3.3.3.3.3.3.3.3.3.3.3.3.3.3.3.3.3.3.3.3.3.3.3.3.3.3.3.3.3.3.3.3.3.3.3.3.3.3.3.3."
};
