/* XPM */
static char *fox_9[] = {
/* columns rows colors chars-per-pixel */
"50 50 130 2 ",
"   c #010100",
".  c #080501",
"X  c #0C0904",
"o  c #140C05",
"O  c #180D04",
"+  c #1F1207",
"@  c #1C120A",
"#  c #0E1C12",
"$  c #111D13",
"%  c #2F1B09",
"&  c #3A1F07",
"*  c #331E0A",
"=  c #122418",
"-  c #172E1E",
";  c #192D1D",
":  c #37210D",
">  c #3A220C",
",  c #252110",
"<  c #2B2915",
"1  c #262B19",
"2  c #2C2E1B",
"3  c #3D2511",
"4  c #372C16",
"5  c #392C16",
"6  c #353018",
"7  c #3C331B",
"8  c #34381F",
"9  c #183020",
"0  c #3D2F24",
"q  c #2F3922",
"w  c #353521",
"e  c #333C22",
"r  c #41260E",
"t  c #47280E",
"y  c #4A2A0D",
"u  c #58320F",
"i  c #472C13",
"p  c #4B2C11",
"a  c #502E10",
"s  c #413016",
"d  c #433419",
"f  c #573414",
"g  c #5C3716",
"h  c #573618",
"j  c #533C1D",
"k  c #643A15",
"l  c #653C18",
"z  c #6A3F19",
"x  c #423123",
"c  c #4A3C2F",
"v  c #374024",
"b  c #344A2E",
"n  c #334E31",
"m  c #314839",
"M  c #325D3C",
"N  c #3A613E",
"B  c #6D4017",
"V  c #6C411C",
"C  c #744113",
"Z  c #70451D",
"A  c #454425",
"S  c #4D4723",
"D  c #59432F",
"F  c #64452A",
"G  c #754B21",
"H  c #3E5141",
"J  c #396542",
"K  c #3B6844",
"L  c #396E48",
"P  c #3E734B",
"I  c #3E794F",
"U  c #3D7D52",
"Y  c #564F4A",
"T  c #41774D",
"R  c #42784E",
"E  c #417E53",
"W  c #8D4D14",
"Q  c #8D5019",
"!  c #9C571A",
"~  c #9E5A1E",
"^  c #A55C1C",
"/  c #AC611E",
"(  c #B2621D",
")  c #BF6A1F",
"_  c #814D20",
"`  c #855021",
"'  c #8D5625",
"]  c #925721",
"[  c #935A25",
"{  c #9B5D23",
"}  c #8C5C33",
"|  c #A36127",
" . c #A96221",
".. c #A56328",
"X. c #AC6629",
"o. c #AC682B",
"O. c #B66925",
"+. c #BD6A21",
"@. c #B26B2A",
"#. c #BB702C",
"$. c #BC793D",
"%. c #C36D21",
"&. c #CD7424",
"*. c #C6772F",
"=. c #CB7528",
"-. c #CF782B",
";. c #D47724",
":. c #D67926",
">. c #DB7A25",
",. c #D67C2A",
"<. c #DC7D29",
"1. c #C37631",
"2. c #E27E26",
"3. c #E27F28",
"4. c #3F8053",
"5. c #428255",
"6. c #438659",
"7. c #46895A",
"8. c #498E5D",
"9. c #4C9562",
"0. c #4F9965",
"q. c #509B66",
"w. c #529E68",
"e. c #52A069",
"r. c #DF812C",
"t. c #E58026",
"y. c #87817C",
"u. c #928F8D",
"i. c #BBB7B5",
"p. c #C0B5AC",
/* pixels */
"q.q.q.q.q.q.q.q.q.q.q.q.q.q.q.q.q.q.q.q.q.q.q.q.q.q.q.q.q.q.q.q.q.q.q.q.q.q.q.q.q.q.q.q.q.q.q.q.q.q.",
"q.q.q.q.q.q.q.q.q.q.q.q.q.0.q.q.q.q.q.q.q.q.q.q.q.q.q.q.q.q.q.q.q.q.q.q.q.q.q.q.q.q.q.q.q.q.q.q.q.q.",
"q.q.q.q.q.q.q.q.q.q.q.q.q.q.q.q.q.q.q.q.q.q.q.q.q.q.q.q.q.q.q.q.q.q.q.q.q.q.q.q.q.q.q.q.q.q.q.q.q.q.",
"q.q.q.q.q.q.q.q.q.q.q.q.q.q.q.q.q.q.q.q.q.q.q.q.q.q.q.q.q.q.q.q.q.q.q.q.q.q.q.q.q.q.q.q.q.q.q.q.q.q.",
"q.q.q.q.q.q.q.q.q.q.q.q.q.q.q.q.q.q.q.q.q.q.q.q.q.q.q.q.q.q.q.q.q.q.q.q.q.q.q.q.q.q.q.q.q.q.q.q.q.q.",
"q.q.q.q.q.q.q.q.q.q.q.q.q.q.q.q.q.q.q.q.q.q.q.q.q.q.q.q.q.q.q.q.q.q.q.q.q.q.q.q.q.q.q.q.q.q.q.q.q.q.",
"q.q.q.q.q.q.q.q.q.q.q.q.q.q.q.q.q.q.q.q.q.q.q.q.q.q.q.q.q.q.q.q.q.q.q.q.q.q.q.q.q.q.0.q.q.q.q.q.q.q.",
"q.q.q.q.q.q.q.q.q.q.q.q.q.q.q.q.q.q.q.q.q.q.q.q.q.q.q.q.q.q.q.q.q.q.q.q.q.q.q.q.q.q.q.q.q.q.q.q.q.q.",
"q.q.q.q.q.q.q.q.q.q.q.q.q.q.q.q.q.q.q.q.q.q.q.q.q.q.q.q.q.q.q.q.q.q.q.q.q.q.q.q.q.q.q.q.q.q.q.q.q.q.",
"q.q.q.q.q.q.q.q.q.q.q.q.q.q.q.q.q.q.q.q.q.q.q.q.q.q.q.q.q.q.q.q.q.q.q.q.q.q.q.q.q.q.q.q.q.q.q.q.q.q.",
"q.q.q.q.q.q.q.q.q.q.q.q.q.q.q.q.q.q.q.q.q.q.q.q.q.q.q.q.q.q.q.q.q.q.q.q.q.q.q.q.q.q.q.q.q.q.q.q.q.q.",
"q.q.q.q.q.q.q.q.q.q.q.q.q.q.q.q.q.q.q.q.q.q.q.q.q.q.q.q.q.q.q.q.q.q.q.q.q.q.q.q.q.q.q.q.q.q.q.q.q.q.",
"q.q.q.q.q.q.q.q.q.q.q.q.q.q.q.q.q.q.q.q.q.q.q.q.q.q.q.q.q.q.q.q.q.q.q.q.q.q.q.q.q.q.q.q.q.q.q.q.q.q.",
"q.q.q.q.q.q.q.q.q.q.q.q.q.q.q.q.q.q.q.q.q.q.q.q.q.q.q.q.q.q.q.q.q.q.q.q.q.q.q.q.q.q.q.q.q.q.q.q.q.q.",
"q.q.q.q.q.q.q.q.q.q.q.q.q.q.q.q.q.q.q.q.q.e.q.q.q.q.q.q.q.q.q.q.q.q.q.q.q.q.q.q.q.q.q.q.q.q.q.q.q.q.",
"q.q.q.q.q.0.q.q.q.q.q.q.q.q.q.q.q.q.0.0.6.6.0.q.q.q.q.0.6.6.0.q.q.q.q.q.q.q.q.q.q.q.q.q.q.q.q.q.q.q.",
"q.q.q.q.q.q.q.q.q.q.q.q.q.q.q.q.q.q.0.E 8 q P 0.q.e.q.P e 8 T 9.w.q.q.q.q.q.q.q.q.q.q.0.q.q.q.q.q.q.",
"q.q.q.q.q.q.q.q.q.q.q.q.q.q.q.q.q.q.6.e ^ ] A L E 5.L A ] ~ e 6.w.q.q.q.q.q.q.q.q.q.q.q.q.q.q.q.q.q.",
"q.q.q.q.q.q.q.q.q.q.q.q.q.q.q.q.q.w.5.< %.<.{ 7 1 2 7 [ <.%.< 5.w.0.q.q.q.q.q.q.q.q.q.q.q.q.q.q.q.q.",
"q.q.q.q.q.q.q.q.q.q.q.q.q.q.q.q.q.w.5.< ) :.-.X.| | X.-.;.+.< 5.w.q.q.q.q.q.q.q.q.q.q.q.q.q.q.q.q.q.",
"q.q.q.q.q.q.q.q.q.q.q.q.q.q.q.q.q.w.5.< ^ ^ #.<.<.2.<.#.{  .< 5.w.q.q.q.q.q.q.q.q.q.q.q.q.q.q.q.q.q.",
"q.q.q.q.q.q.q.q.q.q.q.q.q.q.q.q.q.q.T d @.;.>.2.2.3.3.>.;.O.d P 0.w.q.q.q.q.q.q.q.q.q.q.q.q.q.q.q.q.",
"q.q.q.q.q.q.q.q.q.q.q.q.q.q.q.q.q.7.n Z =.2.2.2.2.2.2.2.3.=.G b 7.w.q.q.q.q.q.q.q.q.q.q.q.q.q.q.q.q.",
"q.q.q.q.q.q.q.q.q.q.q.q.q.q.q.q.q.9.J j @.<.2.2.2.2.2.2.<.@.j N 8.q.q.q.q.q.q.q.q.q.q.q.q.q.q.q.q.q.",
"q.q.q.q.q.q.q.q.q.q.q.q.q.q.q.q.e.7.b G o.*.,.<.<.<.<.<.1.o.G b 7.w.q.q.q.q.q.q.q.q.q.q.q.q.q.q.q.q.",
"q.q.q.q.q.q.q.q.q.q.q.q.q.q.q.q.q.9.K s l { o.#.*.*.#.@.[ l s K 9.w.q.q.q.q.q.q.q.q.q.q.q.q.q.q.q.q.",
"q.q.q.q.q.q.q.q.q.q.q.q.q.q.q.q.0.P S Q % t C V ' ' l f r * Q S I 0.q.q.q.q.q.q.q.q.q.q.q.q.q.q.q.q.",
"q.q.q.q.q.q.q.q.q.q.q.q.q.q.q.e.6.v ^ +.> ! { i 3 > @ x z & %.^ v 4.q.q.q.q.q.q.q.q.q.q.q.q.q.q.q.q.",
"q.q.q.q.q.q.q.q.q.q.q.q.q.q.q.q.U 6 ( / u %.,...[ B Y u.c &  .( w U w.q.q.q.q.q.q.q.q.q.q.q.q.q.q.q.",
"q.q.q.q.q.q.q.q.q.q.q.q.q.q.q.e.U w } h / <.<.*.{ F i.i.D W g } q 4.w.q.q.q.q.q.q.q.q.q.q.q.q.q.q.q.",
"q.q.q.q.q.q.q.q.q.q.q.q.q.q.q.q.4.Y y.0 X.<.2.+.a @.$.F  .%.x y.A 7.q.q.q.q.q.q.q.q.q.q.q.q.q.q.q.q.",
"q.q.q.q.q.q.q.q.q.q.q.q.q.q.q.0.9.E m 2 [ *.r.) r O.{ g O.{ 2 m 5.9.q.q.q.q.q.q.q.q.q.q.q.q.q.q.q.q.",
"q.q.q.q.q.q.q.q.q.q.q.q.q.q.q.q.w.0.4.M 4 ` ..[ : Z f Z ` 5 M U 9.q.q.q.q.q.q.q.q.q.q.q.q.q.q.q.q.q.",
"q.q.q.q.q.q.q.q.q.q.q.q.q.q.q.q.0.e.7.9 X : t y + t O % : X 9 8.e.q.q.q.q.q.q.q.q.q.q.q.q.q.q.q.q.q.",
"q.q.q.q.q.q.q.q.q.q.q.q.q.q.q.q.0.e.6.= o C y o   . X y B O = 6.q.q.q.q.q.q.q.q.q.q.q.q.q.q.q.q.q.q.",
"q.q.q.q.q.q.q.q.q.q.q.q.q.q.q.q.0.0.0.U ; , X         o % ; E 0.q.q.q.q.q.q.q.q.q.q.q.q.q.q.q.q.q.q.",
"q.q.q.q.q.q.q.q.q.q.q.q.q.q.q.q.q.q.q.0.7.L 9 # = # $ - P 6.0.q.q.q.q.q.q.q.q.q.q.q.q.q.q.q.q.q.q.q.",
"q.q.q.q.q.q.q.q.q.q.q.q.q.q.q.q.q.q.q.w.e.w.4.4.5.E E 6.q.q.q.q.q.q.q.q.q.q.q.q.q.q.q.q.q.q.q.q.q.q.",
"q.q.q.q.q.q.q.q.q.q.q.q.q.q.q.q.q.q.q.q.0.q.q.e.q.e.w.q.q.q.q.q.q.q.q.q.q.q.q.q.q.q.q.q.q.q.q.q.q.q.",
"q.q.q.q.q.0.q.q.q.q.q.q.q.q.q.q.q.q.q.q.q.q.0.q.q.q.q.q.q.q.q.q.q.q.q.q.q.q.q.q.q.q.q.q.q.q.q.q.q.q.",
"q.q.q.q.q.q.q.q.q.q.q.q.q.q.q.q.q.q.q.q.q.q.q.q.q.q.q.q.q.q.q.q.q.q.q.q.q.q.q.q.q.q.q.q.q.q.q.q.q.q.",
"q.q.q.q.q.q.q.q.q.q.q.q.q.q.q.q.q.q.q.q.q.q.q.q.q.q.q.q.q.q.q.q.q.q.q.q.q.q.q.q.q.q.q.q.q.q.q.q.q.q.",
"q.q.q.q.q.q.q.q.q.q.q.q.q.q.q.q.q.q.q.q.q.q.q.q.q.q.q.q.q.q.q.q.q.q.q.q.q.q.q.q.q.q.q.q.q.q.q.q.q.q.",
"q.q.q.q.q.q.q.q.q.q.q.q.q.q.q.q.q.q.q.q.q.q.q.q.q.q.q.q.q.q.q.q.q.q.q.q.q.q.q.q.q.q.q.q.q.q.q.q.q.q.",
"q.q.q.q.q.q.q.q.q.q.q.q.q.q.q.q.q.q.q.q.q.q.q.q.q.q.q.q.q.q.q.q.q.q.q.q.q.q.q.q.q.q.q.q.q.q.q.q.q.q.",
"q.q.q.q.q.q.q.q.q.q.q.q.q.q.q.q.q.q.q.q.q.q.q.q.q.q.q.q.q.q.q.q.q.q.q.q.q.q.q.q.q.q.q.q.q.q.q.q.q.q.",
"q.q.q.q.q.q.q.q.q.q.q.q.q.q.q.q.q.q.q.q.q.q.q.q.q.q.q.q.q.q.q.q.q.q.q.q.q.q.q.q.q.q.q.q.q.q.q.q.q.q.",
"q.q.q.q.q.q.q.q.q.q.q.q.q.q.q.q.q.q.q.q.q.q.q.q.q.q.q.q.q.q.q.q.q.q.q.q.q.q.q.q.q.q.q.q.q.q.q.q.q.q.",
"q.q.q.q.q.q.q.q.q.q.q.q.q.q.q.q.q.q.q.q.q.q.q.q.q.q.q.q.q.q.q.q.q.q.q.q.q.q.q.q.q.q.q.q.q.q.q.q.q.q.",
"q.q.q.q.q.q.q.q.q.q.q.q.q.q.q.q.q.q.q.q.q.q.q.q.q.q.q.q.q.q.q.q.q.q.q.q.q.q.q.q.q.q.q.q.q.q.q.q.q.q."
};
