/* XPM */
static char *fox_7[] = {
/* columns rows colors chars-per-pixel */
"50 50 156 2 ",
"   c #010100",
".  c #0A0602",
"X  c #09120C",
"o  c #1C1005",
"O  c #0F1D12",
"+  c #111C13",
"@  c #191F12",
"#  c #241406",
"$  c #2C1807",
"%  c #231609",
"&  c #261809",
"*  c #291A0A",
"=  c #2A1402",
"-  c #1E2112",
";  c #142619",
":  c #19271E",
">  c #162A1B",
",  c #28220F",
"<  c #37210C",
"1  c #3B210A",
"2  c #222011",
"3  c #292613",
"4  c #2C341D",
"5  c #33331B",
"6  c #1A3121",
"7  c #242425",
"8  c #2E2A27",
"9  c #263420",
"0  c #2A342C",
"q  c #263C2C",
"w  c #343522",
"e  c #323B22",
"r  c #3A3C22",
"t  c #3B342D",
"y  c #45270B",
"u  c #59330F",
"i  c #4A2E13",
"p  c #412A14",
"a  c #44371A",
"s  c #4C3A1B",
"d  c #5D3714",
"f  c #5D3919",
"g  c #533214",
"h  c #633610",
"j  c #6B3E16",
"k  c #603A19",
"l  c #673C14",
"z  c #43382D",
"x  c #44362A",
"c  c #523B26",
"v  c #513C2A",
"b  c #2F432A",
"n  c #374127",
"m  c #36472A",
"M  c #384035",
"N  c #304639",
"B  c #35553F",
"V  c #5C411B",
"C  c #6F451F",
"Z  c #774213",
"A  c #7F4817",
"S  c #7B4718",
"D  c #7B481A",
"F  c #444223",
"G  c #4A4523",
"H  c #5F4126",
"J  c #5B422D",
"K  c #5D4632",
"L  c #4A523F",
"P  c #6F4620",
"I  c #754920",
"U  c #7D4D21",
"Y  c #634A34",
"T  c #3F5145",
"R  c #386541",
"E  c #3B6F48",
"W  c #3B6944",
"Q  c #3C734C",
"!  c #3F794F",
"~  c #3F7B51",
"^  c #585758",
"/  c #715E4D",
"(  c #41774D",
")  c #43794F",
"_  c #56675E",
"`  c #417D53",
"'  c #874B17",
"]  c #8C4E17",
"[  c #894E1B",
"{  c #8E521C",
"}  c #9F5717",
"|  c #925219",
" . c #9A561A",
".. c #9B591D",
"X. c #A25C1D",
"o. c #A85F1D",
"O. c #AD611D",
"+. c #845123",
"@. c #8B5524",
"#. c #945720",
"$. c #935A25",
"%. c #A36123",
"&. c #AF6625",
"*. c #A0632D",
"=. c #AB6629",
"-. c #AE692A",
";. c #B76822",
":. c #BB6B24",
">. c #B46C2C",
",. c #B96E2B",
"<. c #B16622",
"1. c #BB702E",
"2. c #AD6C32",
"3. c #B56F31",
"4. c #A8733F",
"5. c #B5763E",
"6. c #C36E23",
"7. c #C97224",
"8. c #C4752E",
"9. c #C87429",
"0. c #CE792D",
"q. c #D3792A",
"w. c #D87B29",
"e. c #DD7C26",
"r. c #C47630",
"t. c #C37937",
"y. c #A06E40",
"u. c #A17044",
"i. c #A87445",
"p. c #BD7E45",
"a. c #428356",
"s. c #448658",
"d. c #46895A",
"f. c #4D9562",
"g. c #4F9965",
"h. c #509B66",
"j. c #529E68",
"k. c #53A069",
"l. c #E48028",
"z. c #BF824A",
"x. c #93867B",
"c. c #C6864D",
"v. c #CC894D",
"b. c #999A9A",
"n. c #A69E96",
"m. c #A7A6A4",
"M. c #B6B5B4",
"N. c #BCBBBB",
"B. c #C4AE9A",
"V. c #C0B2A3",
"C. c #CAB9AB",
"Z. c #C0BFBF",
"A. c #CFC4B9",
"S. c #D4C8BE",
"D. c #E7D2BF",
"F. c #D9DADA",
/* pixels */
"h.h.h.h.h.h.h.h.h.h.h.h.h.h.h.h.h.h.h.h.h.h.h.h.h.h.h.h.h.h.h.h.h.h.h.h.h.h.h.h.h.h.h.h.h.h.h.h.h.h.",
"h.h.h.h.h.h.h.h.h.h.h.h.h.g.h.h.h.h.h.h.h.h.h.h.h.h.h.h.h.h.h.h.h.h.h.h.h.h.h.h.h.h.h.h.h.h.h.h.h.h.",
"h.h.h.h.h.h.h.h.h.h.h.h.h.h.h.h.h.h.h.h.h.h.h.h.h.h.h.h.h.h.h.h.h.h.h.h.h.h.h.h.h.h.h.h.h.h.h.h.h.h.",
"h.h.h.h.h.h.h.h.h.h.h.h.h.h.h.h.h.h.h.h.h.h.h.h.h.h.h.h.h.h.h.h.h.h.h.h.h.h.h.h.h.h.h.h.h.h.h.h.h.h.",
"h.h.h.h.h.h.h.h.h.h.h.h.h.h.h.h.h.h.h.h.h.h.h.h.h.h.g.h.h.h.h.h.h.h.h.h.h.h.h.h.h.h.h.h.h.h.h.h.h.h.",
"h.h.h.h.h.h.h.h.h.h.h.h.h.h.h.h.h.h.h.h.h.h.h.h.h.h.h.h.h.h.h.h.h.h.h.h.h.h.h.h.h.h.h.h.h.h.h.h.h.h.",
"h.h.h.h.h.h.h.h.h.h.h.h.h.h.h.h.h.h.h.h.h.h.h.h.h.h.h.h.h.h.h.h.h.h.h.h.h.h.h.h.h.h.h.h.h.h.h.h.h.h.",
"h.h.h.h.h.h.h.h.h.h.h.h.h.h.h.h.h.h.h.h.h.h.h.h.h.h.h.h.h.h.h.h.h.h.h.h.h.h.h.h.h.h.h.h.h.h.h.h.h.h.",
"h.h.h.h.h.h.h.h.h.h.h.h.h.h.h.h.h.h.h.h.h.h.h.h.h.h.h.h.h.h.h.h.h.h.h.h.g.k.h.h.g.k.h.h.h.h.h.h.h.h.",
"h.h.h.h.h.h.h.h.g.h.h.h.h.h.h.h.h.h.h.h.h.h.h.h.h.h.h.h.h.h.h.h.h.h.h.h.h.g.h.h.g.g.h.h.h.h.h.h.h.h.",
"h.h.h.h.h.h.h.h.h.h.h.h.h.h.h.h.h.h.h.h.h.h.h.h.h.h.h.h.h.h.h.h.h.h.h.h.h.h.h.h.h.h.h.h.h.h.h.h.h.h.",
"h.h.h.h.h.h.h.h.h.h.h.h.h.h.h.h.h.h.h.h.h.h.h.h.h.h.h.h.h.h.h.h.h.h.h.h.h.h.h.h.h.h.h.h.h.h.h.h.h.h.",
"h.h.h.h.h.h.h.h.h.h.h.h.h.h.h.h.h.h.h.h.h.h.h.h.g.d.g.h.h.h.h.h.h.h.h.h.h.h.h.h.h.h.h.h.h.h.h.h.h.h.",
"h.h.h.h.h.h.h.h.h.h.h.h.h.h.h.h.h.h.h.h.h.h.h.h.` m ( g.h.h.h.h.h.h.h.h.h.h.h.h.h.h.h.h.h.h.h.h.h.h.",
"h.h.h.h.h.h.h.h.h.h.h.h.h.h.h.h.h.h.h.h.h.h.h.s.4 A F ! h.h.h.h.h.h.h.h.h.h.h.h.h.h.h.h.h.h.h.h.h.h.",
"h.h.h.h.h.h.h.h.h.h.h.h.h.h.h.h.h.h.h.h.h.h.h.Q 2 j +.F ( h.h.h.h.h.h.h.h.h.h.h.h.h.h.h.h.h.h.h.h.h.",
"h.h.h.h.h.h.h.h.h.h.h.h.h.h.h.h.h.h.h.h.h.g.! r f D >.@.w d.g.g.g.j.g.g.g.g.h.h.h.h.h.h.h.h.h.h.h.h.",
"h.h.h.h.h.h.h.h.h.h.h.h.h.h.h.h.h.h.h.h.g.Q G | 6.1.r.&.a Q h.h.g.k.g.k.g.k.h.h.h.h.h.h.h.h.h.h.h.h.",
"h.h.h.h.h.h.h.h.h.h.h.h.h.h.h.h.h.h.h.g.! G O.e.l.q.-.9.%.F ~ g.g.g.g.g.g.g.h.h.h.h.h.h.h.h.h.h.h.h.",
"h.h.h.h.h.h.h.h.h.h.h.h.h.h.h.h.h.h.g.` r $.:.7.w.>.f $.1.U b d.k.g.j.j.k.g.h.h.h.h.h.h.h.h.h.h.h.h.",
"h.h.h.h.h.h.h.h.h.h.h.h.h.h.h.h.h.f.` L u.*.1 v 3.9.U f $.s E f.g.j.g.g.g.j.g.g.h.h.h.h.h.h.h.h.h.h.",
"h.h.h.h.h.h.h.h.h.h.h.h.h.h.h.g.h.a.N b.D.y.z n.c.-.k U 3.+.4 s.k.g.g.j.g.g.j.j.h.h.h.h.h.h.h.h.h.h.",
"h.h.h.h.h.h.h.h.h.h.h.h.h.h.h.h.h.` : ^ S.i.Y B.v.,.I j ..l 4 s.k.j.g.j.j.g.j.g.h.h.h.h.h.h.h.h.h.h.",
"h.h.h.h.h.h.h.h.h.h.h.h.h.h.h.h.k.s.q ^ x.5.2.c.t.<.j ' l 4 ~ f.d.f.j.g.g.j.g.g.h.h.h.h.h.h.h.h.h.h.",
"h.h.h.h.h.h.h.h.h.h.h.h.h.h.h.h.h.g.` q 5 %.8.9.,.S { Z 3 Q g.! T ~ f.g.j.g.g.j.h.h.h.h.h.h.h.h.h.h.",
"h.h.h.h.h.h.h.h.h.h.h.h.h.h.h.h.h.h.g.d.W V :.6...& u  .a Q ! _ b.T a.h.j.g.j.g.h.h.h.h.h.h.h.h.h.h.",
"h.h.h.h.h.h.h.h.h.h.h.h.h.h.h.h.h.h.g.d.e o.X.y 1 1 { 9.$.- 0 M.C.M ~ h.g.g.j.g.h.h.h.h.h.h.h.h.h.h.",
"h.h.h.h.h.h.h.h.h.h.h.h.h.h.h.h.h.h.g.s.3 { Y t P +.d =.-.o % t.i.n d.h.j.g.g.j.h.h.h.h.h.h.h.h.h.h.",
"h.h.h.h.h.h.h.h.h.h.h.h.h.h.h.h.h.h.h.) , x m.N./ +.g =.,.< # [ s E h.h.h.h.h.h.h.h.h.h.h.h.h.h.h.h.",
"h.h.g.h.h.h.h.h.h.h.h.h.h.h.h.h.h.h.s.w ' J M.F.m.H O.0.8.$.i C e s.j.h.h.h.h.h.h.h.h.h.h.h.h.h.h.h.",
"h.h.h.h.h.h.h.h.h.h.h.h.h.h.h.h.g.k.s.4 X...c 8 c &.w.0.r.:.] 5 Q h.h.h.h.h.h.h.h.h.h.h.h.h.h.h.h.h.",
"h.h.h.h.h.h.h.h.h.h.h.h.h.h.h.h.g.g.g.) 3 1 h 1 ..0.0.:...1 = & E g.h.h.h.h.h.h.h.h.h.h.h.h.h.h.h.h.",
"h.h.h.h.h.h.h.h.h.h.h.h.h.h.h.h.h.h.g.! X . o & ..;...y * t K i 9 d.j.h.h.h.h.h.h.h.h.h.h.h.h.h.h.h.",
"h.h.h.h.h.h.h.h.h.h.h.h.h.h.h.h.h.k.d.>       . # $ # . 7 M.A.v - ` j.h.h.h.h.h.h.h.h.h.h.h.h.h.h.h.",
"h.h.h.h.h.h.h.h.h.h.h.h.h.h.h.h.h.h.s.;                 7 Z.Z.8 ; s.h.h.h.h.h.h.h.h.h.h.h.h.h.h.h.h.",
"h.h.h.h.h.h.h.h.h.h.h.h.h.h.h.h.h.h.g.! ; X             + 0 0 6 Q h.h.h.h.h.h.h.h.h.h.h.h.h.h.h.h.h.",
"h.h.h.h.h.h.h.h.h.h.h.h.h.h.h.h.h.h.h.g.s.Q 6 O O O + 6 Q ~ a.s.h.h.h.h.h.h.h.h.h.h.h.h.h.h.h.h.h.h.",
"h.h.h.h.h.h.h.h.h.h.h.h.h.h.h.h.h.h.h.h.h.g.s.a.` ` a.s.g.k.k.h.h.h.h.h.h.h.h.h.h.h.h.h.h.h.h.h.h.h.",
"h.h.h.h.h.h.h.h.h.h.h.h.h.h.h.h.h.h.h.h.g.h.k.k.h.k.k.h.h.h.h.h.h.h.h.h.h.h.h.h.h.h.h.h.h.h.h.h.h.h.",
"h.h.h.h.h.h.h.h.h.h.h.h.h.h.h.h.h.h.h.h.h.h.h.g.h.h.g.h.h.h.h.h.h.h.h.h.h.h.h.h.h.h.h.h.h.h.h.h.h.h.",
"h.h.h.h.h.h.h.h.h.h.h.h.h.h.h.h.h.h.h.h.h.h.h.h.h.h.h.h.h.h.h.h.h.h.h.h.h.h.h.h.h.h.h.h.h.h.h.h.h.h.",
"h.h.h.h.h.h.h.h.h.h.h.h.h.h.h.h.h.h.h.h.h.h.h.h.h.h.h.h.h.h.h.h.h.h.h.h.h.h.h.h.h.h.h.h.h.h.h.h.h.h.",
"h.h.h.h.h.h.h.h.h.h.h.h.h.h.h.h.h.h.h.h.h.h.h.h.h.h.h.h.h.h.h.h.h.h.h.h.h.h.h.h.h.h.h.h.h.h.h.h.h.h.",
"h.h.h.h.h.h.h.h.h.h.h.h.h.h.h.h.h.h.h.h.h.h.h.h.h.h.h.h.h.h.h.h.h.h.h.h.h.h.h.h.h.h.h.h.h.h.h.h.h.h.",
"h.h.h.h.h.h.h.h.h.h.h.h.h.g.h.h.h.h.h.h.h.h.h.h.h.h.h.h.g.h.h.h.h.h.h.h.h.h.h.h.h.h.h.h.h.h.h.h.h.h.",
"h.h.h.h.h.h.h.h.h.h.h.h.h.h.h.h.h.h.h.h.h.h.h.h.h.h.h.h.h.h.h.h.h.h.h.h.h.h.h.h.h.h.h.h.h.h.h.h.h.h.",
"h.h.h.h.h.h.h.h.h.h.h.h.h.h.h.h.h.h.h.h.h.h.h.h.h.h.h.h.h.h.h.h.h.h.h.h.h.h.h.h.h.h.h.h.h.h.h.h.h.h.",
"h.h.h.h.h.h.h.h.h.h.h.h.h.h.h.h.h.h.h.h.h.h.h.h.h.h.h.h.h.h.h.h.h.h.h.h.h.h.h.h.h.h.h.h.h.h.h.h.h.h.",
"h.h.h.h.h.h.h.h.h.h.h.h.h.h.h.h.h.h.h.h.h.h.h.h.h.h.h.h.h.h.h.h.h.h.h.h.h.h.h.h.h.h.h.h.h.h.h.h.h.h.",
"h.h.h.h.h.h.h.h.h.h.h.h.h.h.h.h.h.h.h.h.h.h.h.h.h.h.h.h.h.h.h.h.h.h.h.h.h.h.h.h.h.h.h.h.h.h.h.h.h.h."
};
