/* XPM */
static char *fox_8[] = {
/* columns rows colors chars-per-pixel */
"50 50 152 2 ",
"   c #000100",
".  c #080501",
"X  c #0D0A05",
"o  c #060E0A",
"O  c #140B03",
"+  c #09120B",
"@  c #1F1307",
"#  c #1C130C",
"$  c #0F1C13",
"%  c #241406",
"&  c #2D1907",
"*  c #2B1A09",
"=  c #351F0D",
"-  c #391F09",
";  c #182013",
":  c #142619",
">  c #172D1D",
",  c #182D1E",
"<  c #1C311F",
"1  c #3A200A",
"2  c #262614",
"3  c #2C2E1A",
"4  c #392F16",
"5  c #342518",
"6  c #3A2513",
"7  c #25321F",
"8  c #2C331C",
"9  c #35321A",
"0  c #1C2621",
"q  c #183020",
"w  c #2B2621",
"e  c #352C23",
"r  c #2F3620",
"t  c #28382C",
"y  c #263C2C",
"u  c #3A3720",
"i  c #343B21",
"p  c #3C3D21",
"a  c #41250C",
"s  c #4A2A0D",
"d  c #522E0E",
"f  c #56310F",
"g  c #4A391B",
"h  c #543213",
"j  c #5D3612",
"k  c #5D3917",
"l  c #5D3B1A",
"z  c #653A12",
"x  c #6A3D15",
"c  c #41362D",
"v  c #44382E",
"b  c #523924",
"n  c #2E4129",
"m  c #35462A",
"M  c #334739",
"N  c #3C4539",
"B  c #324839",
"V  c #2B583B",
"C  c #36533E",
"Z  c #59401F",
"A  c #6D411B",
"S  c #774013",
"D  c #7D4616",
"F  c #7D4718",
"G  c #79491D",
"H  c #74451C",
"J  c #454224",
"K  c #464034",
"L  c #524335",
"P  c #4C543F",
"I  c #61462E",
"U  c #7D4D21",
"Y  c #634933",
"T  c #356543",
"R  c #3B6642",
"E  c #3B6B47",
"W  c #3C754D",
"Q  c #3E784F",
"!  c #3E7D53",
"~  c #405347",
"^  c #5A595A",
"/  c #41794F",
"(  c #56675C",
")  c #427D53",
"_  c #8A4D17",
"`  c #804819",
"'  c #8A4B1A",
"]  c #8A501E",
"[  c #995518",
"{  c #97591E",
"}  c #9F591B",
"|  c #95541A",
" . c #A35C1E",
".. c #AA5E1B",
"X. c #A8601E",
"o. c #B3641F",
"O. c #BE691F",
"+. c #824E20",
"@. c #8A5424",
"#. c #865322",
"$. c #955922",
"%. c #9C5E26",
"&. c #A35E20",
"*. c #9D673B",
"=. c #AC6220",
"-. c #A2632A",
";. c #AC6528",
":. c #AE692A",
">. c #B36622",
",. c #BC6A22",
"<. c #B36C2C",
"1. c #BA6E2A",
"2. c #BC712D",
"3. c #A56F3F",
"4. c #AA6B32",
"5. c #B5743A",
"6. c #C36D22",
"7. c #CC762A",
"8. c #CC7A2F",
"9. c #C5752D",
"0. c #D37A2B",
"q. c #DA7D29",
"w. c #C47833",
"e. c #CA7930",
"r. c #C37A38",
"t. c #E17D26",
"y. c #9E6D40",
"u. c #AB7544",
"i. c #428255",
"p. c #458658",
"a. c #47895A",
"s. c #488C5D",
"d. c #4D9662",
"f. c #4F9964",
"g. c #509B66",
"h. c #529E68",
"j. c #E0802A",
"k. c #BC8049",
"l. c #93877D",
"z. c #CB8D55",
"x. c #989896",
"c. c #9B9D9D",
"v. c #A59B92",
"b. c #A5A4A0",
"n. c #AAA9A9",
"m. c #ACAEB0",
"M. c #B2B6B6",
"N. c #BEBCBB",
"B. c #C2AB96",
"V. c #C3B6AB",
"C. c #D3C9BF",
"Z. c #E7D3C1",
/* pixels */
"g.g.g.g.g.g.g.g.g.g.g.g.g.f.g.g.g.g.g.g.g.g.g.g.g.g.g.g.g.g.g.g.g.g.g.g.g.g.g.g.g.g.g.g.g.g.g.g.g.g.",
"g.g.g.g.g.g.g.g.g.g.g.g.g.g.g.g.g.g.g.g.g.g.g.g.g.g.g.g.g.g.g.g.g.g.g.g.g.g.g.g.g.g.g.g.g.g.g.g.g.g.",
"g.g.g.g.g.g.g.g.g.g.g.g.g.g.g.g.g.g.g.g.g.g.g.g.g.g.g.g.g.g.g.g.g.g.g.g.g.g.g.g.g.g.g.g.g.g.g.g.g.g.",
"g.g.g.g.g.g.g.g.g.g.g.g.g.g.g.g.g.g.g.g.g.g.g.g.g.g.g.g.g.g.g.g.g.g.g.g.g.g.g.g.g.g.g.g.g.g.g.g.g.g.",
"g.g.g.g.g.g.g.g.g.g.g.g.g.g.g.g.g.g.g.g.g.g.g.g.g.g.g.g.g.g.g.g.g.g.g.g.g.g.g.g.g.g.g.g.g.g.g.g.g.g.",
"g.g.g.g.g.g.g.g.g.g.g.g.g.g.g.g.g.g.g.g.g.g.g.g.g.g.g.g.g.g.g.g.g.g.g.g.g.g.g.g.g.g.g.g.g.g.g.g.g.g.",
"g.g.g.g.g.g.g.g.g.g.g.g.g.g.g.g.g.g.g.g.g.g.g.g.g.g.g.g.g.g.g.g.g.g.g.g.g.g.g.g.g.g.g.g.g.g.g.g.g.g.",
"g.g.g.g.g.g.g.g.g.g.g.g.g.g.g.g.g.g.g.g.g.g.g.g.g.g.g.g.g.g.g.g.g.g.g.g.g.g.g.g.g.g.g.g.g.g.g.g.g.g.",
"g.g.g.g.g.g.g.g.g.g.g.g.g.g.g.g.g.g.g.g.g.g.g.g.g.g.g.g.g.g.g.g.g.g.g.g.g.g.g.g.g.g.g.g.g.g.g.g.g.g.",
"g.g.g.g.g.g.g.g.f.g.g.g.g.g.g.g.g.g.g.g.g.g.g.g.g.g.g.g.g.g.g.g.g.g.g.g.g.g.g.g.g.g.g.g.g.g.g.g.g.g.",
"g.g.g.g.g.g.g.g.g.g.g.g.g.g.g.g.g.g.g.g.g.g.g.g.g.g.g.g.g.g.g.g.g.g.g.g.g.g.g.g.g.g.g.g.g.g.g.g.g.g.",
"g.g.g.g.g.g.g.g.g.g.g.g.g.g.g.g.g.g.g.g.g.g.g.g.g.g.g.g.g.g.g.g.g.g.g.g.g.g.f.g.g.g.g.g.g.g.g.g.g.g.",
"g.g.g.g.g.g.g.g.g.g.g.g.g.g.g.g.g.g.g.g.g.g.g.f.p.d.g.g.g.g.g.g.g.g.g.g.g.g.g.g.g.g.g.g.g.g.g.g.g.g.",
"g.g.g.g.g.g.g.g.g.g.g.g.g.g.g.g.g.g.g.g.g.f.f.) m ) d.g.g.g.g.g.g.g.g.g.g.g.g.f.g.g.g.g.g.g.g.g.g.g.",
"g.g.g.g.g.g.g.g.g.g.g.g.g.g.g.g.g.g.g.g.g.h.p.9 F p ! d.g.g.g.g.g.g.g.g.g.g.g.g.g.g.g.g.g.g.g.g.g.g.",
"g.g.g.g.g.g.g.g.g.g.g.g.g.g.g.g.g.g.g.g.g.g.W 2 x @.J ) f.g.g.g.g.g.g.g.g.g.g.g.g.g.g.g.g.g.g.g.g.g.",
"g.g.g.g.g.g.g.g.g.g.g.g.g.g.g.g.g.g.g.g.f.Q i j G <.@.i p.h.g.g.g.g.g.g.g.g.g.g.g.g.g.g.g.g.g.g.g.g.",
"g.g.g.g.g.g.g.g.g.g.g.g.g.g.g.g.g.g.g.g.Q J { 6.1.w.;.g E g.g.g.g.g.g.g.g.g.g.g.g.g.g.g.g.g.g.g.g.g.",
"g.g.g.g.g.g.g.g.g.g.g.g.g.g.g.g.g.g.f./ J =.t.j.0.:.7.&.J ! g.g.g.g.g.g.g.g.g.g.g.g.g.g.g.g.g.g.g.g.",
"g.g.g.g.g.g.g.g.g.g.g.g.g.g.g.g.g.f.Q p $.6.6.0.<.j %.2.U n s.g.g.g.g.g.g.g.g.g.g.g.g.g.g.g.g.g.g.g.",
"g.g.g.g.g.g.g.g.g.g.g.g.g.g.g.g.f.) ~ 3.;.6 b <.7.U l @.Z T d.f.g.g.g.g.g.g.g.g.g.g.g.g.g.g.g.g.g.g.",
"g.g.g.g.g.g.g.g.g.g.g.g.g.g.g.h.i.B x.Z.3.c v.z.:.l U <.#.r a.g.g.g.g.g.g.g.g.g.g.g.g.g.g.g.g.g.g.g.",
"g.g.g.g.g.g.g.g.g.g.g.g.g.g.g.h.! : ^ C.u.Y B.z.<.U x &.x q a.g.g.g.g.g.g.g.g.g.g.g.g.g.g.g.g.g.g.g.",
"g.g.g.g.g.g.g.g.g.g.g.g.g.g.g.h.i.y ^ l.5.4.k.r.>.x _ z 8 Q d.s.d.g.g.g.g.g.g.g.g.g.g.g.g.g.g.g.g.g.",
"g.g.g.g.g.g.g.g.g.g.g.g.g.g.g.g.d./ t 5 ,.8.2.-.] | D 4 R f.) C ) d.g.g.g.g.g.g.g.g.g.g.g.g.g.g.g.g.",
"g.g.g.g.g.g.g.g.g.g.g.g.g.g.g.g.g.g.Q 7 ' O.o.h +.h X.$.8 T ( c.~ ! g.g.g.g.g.g.g.g.g.g.g.g.g.g.g.g.",
"g.g.g.g.g.g.g.g.g.g.g.g.g.g.g.g.g.g.d.E v Y @.z  .a 6.O.* 0 b.V.N ! g.g.g.g.g.g.g.g.g.g.g.g.g.g.g.g.",
"g.g.g.g.g.g.g.g.g.g.g.g.g.g.g.g.g.g.Q B M.n.I ..,.a 6.O.& # L *.u ! h.g.g.g.g.g.g.g.g.g.g.g.g.g.g.g.",
"g.g.g.g.g.g.g.g.g.g.g.g.g.g.g.g.g.a.q w N.m.c [ ..h 6.,.h H - ` 9 ! g.g.g.g.g.g.g.g.g.g.g.g.g.g.g.g.",
"g.g.g.g.g.g.g.g.g.g.g.g.g.g.g.g.h.) ; = e w * 1 d =.0.9.<.&.h x 3 ! g.g.g.g.g.g.g.g.g.g.g.g.g.g.g.g.",
"g.g.g.g.g.g.g.g.g.g.g.g.g.g.g.g.g.p., O * % F  .<.7.0.q...s x = > p.g.g.g.g.g.g.g.g.g.g.g.g.g.g.g.g.",
"g.g.g.g.g.g.g.g.g.g.g.g.g.g.g.g.g.d.Q , X . % a  .>.,.} - X 2 7 Q g.g.g.g.g.g.g.g.g.g.g.g.g.g.g.g.g.",
"g.g.g.g.g.g.g.g.g.g.g.g.g.g.g.g.g.g.d.T o     . % & & % . o V i.d.g.g.g.g.g.g.g.g.g.g.g.g.g.g.g.g.g.",
"g.g.g.g.g.g.g.g.g.g.g.g.g.g.g.g.g.g.a.q                     q a.g.g.g.g.g.g.g.g.g.g.g.g.g.g.g.g.g.g.",
"g.g.g.g.g.g.g.g.g.g.g.g.g.g.g.g.g.h.p.:                     : p.h.g.g.g.g.g.g.g.g.g.g.g.g.g.g.g.g.g.",
"g.g.g.g.g.g.g.g.g.g.g.g.g.g.g.g.g.g.f.Q : +             + : Q g.g.g.g.g.g.g.g.g.g.g.g.g.g.g.g.g.g.g.",
"g.g.g.g.g.g.g.g.g.g.g.g.g.g.g.g.g.g.g.f.a.E q $ $ $ $ q W p.g.g.g.g.g.g.g.g.g.g.g.g.g.g.g.g.g.g.g.g.",
"g.g.g.g.g.g.g.g.g.g.g.g.g.g.g.g.g.g.g.g.h.g.p.) ) ) i.a.f.g.g.g.g.g.g.g.g.g.g.g.g.g.g.g.g.g.g.g.g.g.",
"g.g.g.g.g.g.g.g.g.g.g.g.g.g.g.g.g.g.g.g.g.g.g.h.h.h.h.h.g.g.g.g.g.g.g.g.g.g.g.g.g.g.g.g.g.g.g.g.g.g.",
"g.g.g.g.g.g.g.g.g.g.g.g.g.g.g.g.g.g.g.g.g.g.g.g.g.g.g.g.g.g.g.g.g.g.g.g.g.g.g.g.g.g.g.g.g.g.g.g.g.g.",
"g.g.g.g.g.g.g.g.g.g.g.g.g.g.g.g.g.g.g.g.g.g.g.g.g.g.g.g.g.g.g.g.g.g.g.g.g.g.g.g.g.g.g.g.g.g.g.g.g.g.",
"g.g.g.g.g.g.g.g.g.g.g.g.g.g.g.g.g.g.g.g.g.g.g.g.f.g.g.g.g.g.g.g.g.g.g.g.g.g.g.g.g.g.g.g.g.g.g.g.g.g.",
"g.g.g.g.g.g.g.g.g.g.g.g.g.g.g.g.g.g.g.g.g.g.g.g.g.g.g.g.g.g.g.g.g.g.g.g.g.g.g.g.g.g.g.g.g.g.g.g.g.g.",
"g.g.g.g.g.g.g.g.g.g.g.g.g.g.g.g.g.g.g.g.g.g.g.g.g.g.g.g.g.g.g.g.g.g.g.g.g.g.g.g.g.g.g.g.g.g.g.g.g.g.",
"g.g.g.g.g.g.g.g.g.g.g.g.g.g.g.g.g.g.g.g.g.g.g.g.g.g.g.g.g.g.g.g.g.g.g.g.g.g.g.g.g.g.g.g.g.g.g.g.g.g.",
"g.g.g.g.g.g.g.g.g.g.g.g.g.g.g.g.g.g.g.g.g.g.g.g.g.g.g.g.g.g.g.g.g.g.g.g.g.g.g.g.g.g.g.g.g.g.g.g.g.g.",
"g.g.g.g.g.g.g.g.g.g.g.g.g.g.g.g.g.g.g.g.g.g.g.g.g.g.g.g.g.g.g.g.g.g.g.g.g.g.g.g.g.g.g.g.g.g.g.g.g.g.",
"g.g.g.g.g.g.g.g.g.g.g.g.g.g.g.g.g.g.g.g.g.g.g.g.g.g.g.g.g.g.g.g.g.g.g.g.g.g.g.g.g.g.g.g.g.g.g.g.g.g.",
"g.g.g.g.g.g.g.g.g.g.g.g.g.g.g.g.g.g.g.g.g.g.g.g.g.g.g.g.g.g.g.g.g.g.g.g.g.g.g.g.g.g.g.g.g.g.g.g.g.g.",
"g.g.g.g.g.g.g.g.g.g.g.g.g.g.g.g.g.g.g.g.g.g.g.g.g.g.g.g.g.g.g.g.g.g.g.g.g.g.g.g.g.g.g.g.g.g.g.g.g.g."
};
