/* XPM */
static char *fox_14[] = {
/* columns rows colors chars-per-pixel */
"50 50 145 2 ",
"   c #020101",
".  c #0B0703",
"X  c #1B0F05",
"o  c #170C04",
"O  c #0A120C",
"+  c #1E1208",
"@  c #10180F",
"#  c #0F1C13",
"$  c #131D13",
"%  c #191E15",
"&  c #221306",
"*  c #21150A",
"=  c #331D0A",
"-  c #142719",
";  c #1D261A",
":  c #17291B",
">  c #242514",
",  c #2B2411",
"<  c #282816",
"1  c #2E2E18",
"2  c #302A14",
"3  c #3E2814",
"4  c #362A1F",
"5  c #3A2614",
"6  c #25301C",
"7  c #343117",
"8  c #33371E",
"9  c #3E3218",
"0  c #183020",
"q  c #282626",
"w  c #242321",
"e  c #3A2D21",
"r  c #2D3A22",
"t  c #333A20",
"y  c #3B3E21",
"u  c #3F3933",
"i  c #422509",
"p  c #47290E",
"a  c #4B290E",
"s  c #522D0E",
"d  c #57300D",
"f  c #5A320E",
"g  c #412E1D",
"h  c #482F19",
"j  c #522E10",
"k  c #42351A",
"l  c #5C3413",
"z  c #6C3A0D",
"x  c #663C16",
"c  c #6A3B13",
"v  c #6A3F19",
"b  c #713E13",
"n  c #423F21",
"m  c #413428",
"M  c #573E29",
"N  c #423B34",
"B  c #36492E",
"V  c #2D4135",
"C  c #304335",
"Z  c #364D3E",
"A  c #754519",
"S  c #78471C",
"D  c #7B481B",
"F  c #424122",
"G  c #4D4625",
"H  c #4F4823",
"J  c #5D442D",
"K  c #574330",
"L  c #6A4626",
"P  c #6D4928",
"I  c #765030",
"U  c #7A5231",
"Y  c #3F4041",
"T  c #3C6F48",
"R  c #356542",
"E  c #3D744C",
"W  c #3D7D54",
"Q  c #404041",
"!  c #40764D",
"~  c #42794F",
"^  c #427D53",
"/  c #716E6B",
"(  c #75706D",
")  c #757573",
"_  c #814713",
"`  c #864915",
"'  c #8D4D15",
"]  c #844D1B",
"[  c #894E1A",
"{  c #8D511A",
"}  c #92541D",
"|  c #9C5619",
" . c #A35C1D",
".. c #B9661E",
"X. c #BB691F",
"o. c #875120",
"O. c #8A5323",
"+. c #925825",
"@. c #9B5D26",
"#. c #9D5F28",
"$. c #A25E22",
"%. c #AC6525",
"&. c #A4642A",
"*. c #AA6629",
"=. c #AD6829",
"-. c #B06725",
";. c #B96720",
":. c #B76822",
">. c #BC6A21",
",. c #B56D2C",
"<. c #B86F2D",
"1. c #A46F3F",
"2. c #A5703F",
"3. c #CB7121",
"4. c #C5752D",
"5. c #D47B2B",
"6. c #DB7E2B",
"7. c #D77926",
"8. c #C27631",
"9. c #E27F27",
"0. c #A8794F",
"q. c #B67943",
"w. c #B87B44",
"e. c #3F8055",
"r. c #428256",
"t. c #448658",
"y. c #45895A",
"u. c #4D9763",
"i. c #4F9965",
"p. c #509B66",
"a. c #529E68",
"s. c #52A069",
"d. c #DB802F",
"f. c #E78229",
"g. c #C68246",
"h. c #978E85",
"j. c #AE9F92",
"k. c #B3B4B5",
"l. c #BDBEBE",
"z. c #CDB39C",
"x. c #CABFB4",
"c. c #C1BFBE",
"v. c #D7CEC7",
"b. c #D8CEC7",
"n. c #CFD0D1",
/* pixels */
"p.p.p.p.p.p.p.p.p.p.p.p.p.p.p.p.p.p.p.p.p.p.p.p.p.p.p.p.p.p.p.p.p.p.p.p.p.p.p.p.p.p.p.p.p.p.p.p.p.p.",
"p.p.p.p.p.p.p.p.p.p.p.p.p.i.p.p.p.p.p.p.p.p.p.p.p.p.p.p.p.p.p.p.p.p.p.p.p.p.p.p.p.p.p.p.p.p.p.p.p.p.",
"p.p.p.p.p.p.p.p.p.p.p.p.p.p.p.p.p.p.p.p.p.p.p.p.p.p.p.p.p.p.p.p.p.p.p.p.p.p.p.p.p.p.p.p.p.p.p.p.p.p.",
"p.p.p.p.p.p.p.p.p.p.p.p.p.p.p.p.p.p.p.p.p.p.p.p.p.p.p.p.p.p.p.p.p.p.p.p.p.p.p.p.p.p.p.p.p.p.p.p.p.p.",
"p.p.p.p.p.p.p.p.p.p.p.p.p.p.p.p.p.p.p.p.p.p.p.p.p.p.p.p.p.p.p.p.p.p.p.p.p.p.p.p.p.p.p.p.p.p.p.p.p.p.",
"p.p.p.p.p.p.p.p.p.p.p.p.p.p.p.p.p.p.p.p.p.p.p.p.p.p.p.p.p.p.p.p.p.p.p.p.p.p.p.p.p.p.p.p.p.p.p.p.p.p.",
"p.p.p.p.p.p.p.p.p.p.p.p.p.p.p.p.p.p.p.p.p.p.p.p.p.p.p.p.p.p.p.p.p.p.p.p.p.p.p.p.p.p.p.p.p.p.p.p.p.p.",
"p.p.p.p.p.p.p.p.p.p.p.p.p.p.p.p.p.p.p.p.p.p.p.p.p.p.p.p.p.p.p.p.p.p.p.p.p.p.p.p.p.p.p.p.p.p.p.p.p.p.",
"p.p.p.p.p.p.p.p.p.p.p.p.p.p.p.p.p.p.p.p.p.p.p.p.p.p.p.p.p.p.p.p.p.p.p.p.p.p.p.p.p.p.p.p.p.p.p.p.p.p.",
"p.p.p.p.p.p.p.p.i.p.p.p.p.p.p.p.p.p.p.p.p.p.p.p.p.p.p.p.p.p.p.p.p.p.p.p.p.p.p.p.p.p.p.p.p.p.p.p.p.p.",
"p.p.p.p.p.p.p.p.p.p.p.p.p.p.p.p.p.p.p.p.p.p.p.p.p.p.p.p.p.p.p.p.p.p.p.p.p.p.p.p.p.p.p.p.p.p.p.p.p.p.",
"p.p.p.p.p.p.p.p.p.p.p.p.p.p.p.p.p.p.p.p.p.p.p.p.p.p.p.p.p.p.p.p.p.p.p.p.p.p.p.p.p.p.p.p.p.p.p.p.p.p.",
"p.p.p.p.p.p.p.p.p.p.p.p.p.p.p.p.p.p.p.p.p.i.p.p.p.p.p.p.p.p.p.p.p.p.p.p.p.p.p.p.p.p.p.p.p.p.p.p.p.p.",
"p.p.p.p.p.p.p.p.p.p.p.p.p.p.p.p.p.p.p.p.p.p.p.p.p.p.p.p.p.p.p.p.p.p.p.p.p.p.p.p.p.p.p.p.p.p.p.p.p.p.",
"p.p.p.p.p.p.p.p.p.p.p.p.p.p.p.p.p.p.p.p.p.s.p.p.p.p.p.p.p.p.p.p.p.p.p.p.p.p.p.p.p.p.p.p.p.p.p.p.p.p.",
"p.p.p.p.p.p.p.p.p.p.p.p.p.p.p.p.p.p.p.i.r.y.p.p.p.p.p.i.y.r.p.p.p.p.p.p.p.p.p.p.p.p.p.p.p.p.p.p.p.p.",
"p.p.p.p.p.p.p.p.p.p.p.p.p.p.p.p.p.p.i.~ t t E p.a.a.i.E t t ^ u.p.p.p.p.p.p.p.p.p.p.p.p.p.p.p.p.p.p.",
"p.p.p.p.p.p.p.p.p.p.p.p.p.p.p.p.p.p.y.r o.{ G T W r.E G { O.r t.a.p.p.p.p.p.p.p.p.p.p.p.p.p.p.p.p.p.",
"p.p.p.p.p.p.p.p.p.p.p.p.p.p.p.p.p.s.r.< @.} [ k 2 1 k ] } @.< r.a.i.p.p.p.p.p.p.p.p.p.p.p.p.p.p.p.p.",
"p.p.p.p.p.p.p.p.p.p.p.p.p.p.p.p.p.s.r.> +.A ] $.>.:.$.] A +.< r.a.p.p.p.p.p.p.p.p.p.p.p.p.p.p.p.p.p.",
"p.p.p.p.p.p.p.p.p.p.p.p.p.p.p.p.p.i.E k @.[ %.d.9.9.6.=.o.@.9 E i.p.p.p.p.i.p.p.p.p.p.p.p.p.p.p.p.p.",
"p.p.p.p.p.p.p.p.p.p.p.p.p.p.p.p.i.E y { ,.&.<.d.f.9.6.,.&.,.[ n E i.p.p.p.a.i.p.p.p.p.p.p.p.p.p.p.p.",
"p.p.p.p.p.p.p.p.p.p.p.p.p.p.p.a.y.B l b *.S x @.6.7.@.x D X.b l B y.a.p.p.p.p.p.p.p.p.p.p.p.p.p.p.p.",
"p.p.p.p.p.p.p.p.p.p.p.p.p.p.p.p.i.E F { :.S 4 5 &.%.p 4 S >.[ n E i.p.p.p.p.p.p.p.p.p.p.p.p.p.p.p.p.",
"p.p.p.p.p.p.p.p.p.p.p.p.p.p.p.p.p.u.R , z g.j.N 1.0.N j.g.z 2 ~ i.a.p.p.p.p.p.p.p.p.p.p.p.p.p.p.p.p.",
"p.p.p.p.p.p.p.p.p.p.p.p.p.p.p.p.i.~ 8 & i q.z./ v.v./ z.q.i , E i.p.p.p.p.p.p.p.p.p.p.p.p.p.p.p.p.p.",
"i.p.p.p.p.p.p.p.p.p.p.p.p.p.p.a.r.t ` ..' x 0.x.n.n.x.0.c '  .G ~ i.p.p.p.p.p.p.p.p.p.p.p.p.p.p.p.p.",
"p.p.p.p.p.p.p.p.p.p.p.p.p.p.p.a.^ ; M @.f ` P / u Y / L z f 3. .t t.p.p.p.p.p.p.p.p.p.p.p.p.p.p.p.p.",
"p.p.p.p.p.p.p.p.p.p.p.p.p.p.p.a.^ Y ) t i 3.@.g + + h S J m -.X.7 W a.p.p.p.p.p.p.p.p.p.p.p.p.p.p.p.",
"p.p.p.p.p.p.p.p.p.p.p.p.p.p.p.p.i.^ V *  .7.5.=.&.*.| J k.c.M ` y r.p.p.p.p.p.p.p.p.p.p.p.p.p.p.p.p.",
"p.p.p.p.p.p.p.p.p.p.p.p.p.p.p.p.p.p.E >  .5.9.6.8.8.| K k.l.< 6 ^ i.p.p.p.p.p.p.p.p.p.p.p.p.p.p.p.p.",
"p.p.p.p.p.p.p.p.p.p.p.p.p.p.p.p.p.p.r.$ a $.<.8.8.&.v O.J q # E p.a.p.p.p.p.p.p.p.p.p.i.p.p.p.p.p.p.",
"p.p.p.p.p.p.p.p.p.p.p.p.p.p.p.p.p.a.^ > x s l  .4.4.*.%._ & @ r.p.p.p.p.p.p.p.p.p.p.p.p.p.p.p.p.p.p.",
"p.p.p.p.p.p.p.p.p.p.p.p.p.p.p.p.i.a.r.; U O.A s  .>. .p = = % r.p.p.p.p.p.p.p.p.p.p.p.p.p.p.p.p.p.p.",
"p.p.p.p.p.p.p.p.p.p.p.p.p.p.p.p.a.a.t.C h.U s o X * X     . : t.a.p.p.p.p.p.p.p.p.p.p.p.p.p.p.p.p.p.",
"p.p.p.p.p.p.p.p.p.p.p.p.p.p.p.p.i.a.i.^ C % .           O : E i.p.p.p.p.p.p.p.p.p.p.p.p.p.p.p.p.p.p.",
"p.p.p.p.p.p.p.p.p.p.p.p.p.p.p.p.p.p.p.i.t.T 0 # # $ $ 0 E t.i.i.p.p.p.p.p.p.p.p.p.p.p.p.p.p.p.p.p.p.",
"p.p.p.p.p.p.p.p.p.p.p.p.p.p.p.p.p.p.p.p.a.i.t.^ e.r.^ t.i.a.a.p.p.p.p.p.p.p.p.p.p.p.p.p.p.p.p.p.p.p.",
"p.p.p.p.p.p.i.p.p.p.p.p.p.p.p.p.p.p.p.p.p.p.a.a.s.s.s.a.i.i.p.p.p.p.p.p.p.p.p.p.p.p.p.p.p.p.p.p.p.p.",
"p.p.p.p.p.p.p.p.p.p.p.p.p.p.p.p.p.p.p.p.p.p.p.p.i.p.i.p.i.a.p.p.p.p.p.p.p.p.p.p.p.p.p.p.p.p.p.p.p.p.",
"p.p.p.p.p.p.p.p.p.p.p.p.p.p.p.p.p.p.p.p.p.p.p.p.p.p.p.p.p.p.p.p.p.p.p.p.p.p.p.p.p.p.p.p.p.p.p.p.p.p.",
"p.p.p.p.p.p.p.p.p.p.p.p.p.p.p.p.p.p.p.p.p.p.p.p.p.p.p.p.p.p.p.p.p.p.p.p.p.p.p.p.p.p.p.p.p.p.p.p.p.p.",
"p.p.p.p.p.p.p.p.p.p.p.p.p.p.p.p.p.p.p.p.p.p.p.p.p.p.p.p.p.p.p.p.p.p.p.p.p.p.p.p.p.p.p.p.p.p.p.p.p.p.",
"p.p.p.p.p.i.p.p.p.p.p.p.p.p.p.p.p.p.p.p.p.p.p.p.p.p.p.p.p.p.p.p.p.p.p.p.i.p.p.p.p.p.p.p.p.p.p.p.p.p.",
"p.p.p.p.p.p.p.p.p.p.p.p.p.p.p.p.p.p.p.p.p.p.p.p.p.p.p.p.p.p.p.p.p.p.p.p.p.p.p.p.p.p.p.p.p.p.p.p.p.p.",
"p.p.p.p.p.p.p.p.p.p.p.p.p.p.p.p.p.p.p.p.p.p.p.p.p.p.p.p.p.p.p.p.p.p.p.p.p.p.p.p.p.p.p.p.p.p.p.p.p.p.",
"p.p.p.p.p.p.p.p.p.p.p.p.p.p.p.p.p.p.p.p.p.p.p.p.p.p.p.p.p.p.p.p.p.p.p.p.p.p.p.p.p.p.p.p.p.p.p.p.p.p.",
"p.p.p.p.p.p.p.p.p.p.p.p.p.p.p.p.p.p.p.p.p.p.p.p.p.p.p.p.p.p.p.p.p.p.p.p.p.p.p.p.p.p.p.p.p.p.p.p.p.p.",
"p.p.p.p.p.p.p.p.p.p.p.p.p.p.p.p.p.p.p.p.p.p.p.p.p.p.p.p.p.p.p.p.p.p.p.p.p.p.p.p.p.p.p.p.p.p.p.p.p.p.",
"p.p.p.p.p.p.p.p.p.p.p.p.p.p.p.i.p.p.p.p.p.p.p.p.p.p.p.p.p.p.p.p.p.p.p.p.p.p.p.p.p.p.p.p.p.p.p.p.p.p."
};
