/* XPM */
static char *fox_6[] = {
/* columns rows colors chars-per-pixel */
"50 50 160 2 ",
"   c #010100",
".  c #0B0603",
"X  c #0B0904",
"o  c #0F0D08",
"O  c #160E07",
"+  c #0A130C",
"@  c #1F1206",
"#  c #1D140C",
"$  c #0F1C12",
"%  c #1F1E1E",
"&  c #111B13",
"*  c #2D1C0C",
"=  c #21150B",
"-  c #371F09",
";  c #122317",
":  c #142419",
">  c #14291B",
",  c #1A2A1E",
"<  c #18301F",
"1  c #29220F",
"2  c #39250F",
"3  c #232212",
"4  c #292714",
"5  c #222D1B",
"6  c #342310",
"7  c #26321F",
"8  c #2B321C",
"9  c #37371D",
"0  c #3E3A1E",
"q  c #1B2F21",
"w  c #2C2824",
"e  c #312D29",
"r  c #2D3C24",
"t  c #2A392F",
"y  c #233527",
"u  c #333322",
"i  c #343F25",
"p  c #3B3631",
"a  c #4B2A0E",
"s  c #4F3116",
"d  c #47391B",
"f  c #443316",
"g  c #563110",
"h  c #5F3A14",
"j  c #533B1C",
"k  c #663C15",
"l  c #6B3D15",
"z  c #643E19",
"x  c #483626",
"c  c #413E3C",
"v  c #4B3E31",
"b  c #3B402A",
"n  c #3E4225",
"m  c #334A3A",
"M  c #355F3D",
"N  c #34553E",
"B  c #38603D",
"V  c #64411B",
"C  c #6D431C",
"Z  c #724114",
"A  c #70441C",
"S  c #7A4A1D",
"D  c #784314",
"F  c #454323",
"G  c #4A4928",
"H  c #4C4A27",
"J  c #59412A",
"K  c #5E4733",
"L  c #56473A",
"P  c #524335",
"I  c #604329",
"U  c #7F4F22",
"Y  c #7F5022",
"T  c #68513B",
"R  c #396E48",
"E  c #3C6D47",
"W  c #3E744B",
"Q  c #3D794F",
"!  c #3F7B51",
"~  c #4B5947",
"^  c #415246",
"/  c #51514F",
"(  c #555556",
")  c #406E46",
"_  c #40754C",
"`  c #41794E",
"'  c #427B52",
"]  c #52765E",
"[  c #606161",
"{  c #884C17",
"}  c #834B19",
"|  c #8B511E",
" . c #95581F",
".. c #98571D",
"X. c #AC611E",
"o. c #BD6A1F",
"O. c #814E20",
"+. c #845323",
"@. c #935924",
"#. c #9F5F26",
"$. c #A25F23",
"%. c #9F632E",
"&. c #A36124",
"*. c #AA6321",
"=. c #A86529",
"-. c #AC682B",
";. c #B56B27",
":. c #BA6A23",
">. c #B56C2A",
",. c #B36724",
"<. c #BB712F",
"1. c #A46F3F",
"2. c #B06E32",
"3. c #BD7434",
"4. c #C66E1F",
"5. c #C26D22",
"6. c #C4742B",
"7. c #C87428",
"8. c #CF792C",
"9. c #C97122",
"0. c #D07625",
"q. c #D57926",
"w. c #DB7B25",
"e. c #D07828",
"r. c #DA7C29",
"t. c #E37F27",
"y. c #9E7349",
"u. c #A07043",
"i. c #A5764A",
"p. c #B37740",
"a. c #B77843",
"s. c #BD7D42",
"d. c #438456",
"f. c #458658",
"g. c #458A5B",
"h. c #488E5D",
"j. c #4D9663",
"k. c #4F9965",
"l. c #509B66",
"z. c #CB813D",
"x. c #93887F",
"c. c #C9874C",
"v. c #C58449",
"b. c #91908E",
"n. c #8E9391",
"m. c #A1958B",
"M. c #A5AE8E",
"N. c #A5A6A3",
"B. c #A9A5A1",
"V. c #B7B8BA",
"C. c #BBBCBC",
"Z. c #C2AC98",
"A. c #C1B0A2",
"S. c #CAC0B8",
"D. c #E3CCB9",
"F. c #C6C4C2",
"G. c #D3C9C0",
"H. c #CFCFD0",
"J. c #FDF1E7",
"K. c white",
/* pixels */
"l.l.l.l.l.l.l.l.l.l.l.l.l.l.l.l.l.l.l.l.l.l.l.l.l.l.l.l.l.l.l.l.l.l.l.l.l.l.l.l.l.l.l.l.l.l.l.l.l.l.",
"l.l.l.l.l.l.l.l.l.l.l.l.l.l.l.l.l.l.l.l.l.l.l.l.l.l.l.l.l.l.l.l.l.l.l.l.l.l.l.l.l.l.l.l.l.l.l.l.l.l.",
"l.l.l.l.l.l.l.l.l.l.l.l.l.l.l.l.l.l.l.l.l.l.k.l.l.l.l.l.l.l.l.l.l.l.l.l.l.l.l.l.l.l.l.l.l.l.l.l.l.l.",
"l.l.l.l.l.l.l.l.l.l.l.l.l.l.l.l.l.l.l.l.l.l.l.l.l.l.l.l.l.l.l.l.l.l.l.l.l.l.l.l.l.l.l.l.l.l.l.l.l.l.",
"l.l.l.l.l.l.l.l.l.l.l.l.l.l.l.l.l.l.l.l.l.l.l.l.l.l.l.l.l.l.l.l.l.l.l.l.l.l.l.l.l.l.l.l.l.l.l.l.l.l.",
"l.l.l.l.l.l.l.l.l.l.l.l.l.l.l.l.l.l.l.l.l.l.l.l.l.l.l.l.l.l.l.l.l.l.l.l.l.l.l.l.l.l.l.l.l.l.l.l.l.l.",
"l.l.l.l.l.l.l.l.l.l.l.l.l.l.l.l.l.l.l.l.l.l.l.l.l.l.l.l.l.l.l.l.l.l.l.l.l.l.l.l.l.l.l.l.l.l.l.l.l.l.",
"l.l.l.l.l.l.l.l.l.l.l.l.l.l.l.l.l.l.l.l.l.l.l.l.l.l.l.l.l.l.l.l.l.l.l.l.l.l.l.l.l.l.l.l.l.l.l.l.l.l.",
"l.l.l.l.l.l.l.l.l.l.l.l.l.l.l.l.l.l.l.l.l.l.l.l.l.l.l.l.l.l.l.l.l.l.l.l.l.l.l.l.l.l.l.l.l.l.l.l.l.l.",
"l.l.l.l.l.l.l.l.k.l.l.l.l.l.l.l.l.l.l.l.l.l.l.l.l.l.l.l.l.l.l.l.l.l.l.l.l.l.l.l.l.l.l.l.l.l.l.l.l.l.",
"l.l.l.l.l.l.l.l.l.l.l.l.l.l.l.l.l.l.l.l.l.l.l.l.l.l.l.l.l.l.l.l.l.l.l.l.l.l.l.l.l.l.l.l.l.l.l.l.l.l.",
"l.l.l.l.l.l.l.l.l.l.l.l.l.l.l.l.l.l.l.l.l.l.l.l.l.l.l.l.l.l.l.l.l.l.l.l.l.l.l.l.l.l.l.l.l.l.l.l.l.l.",
"l.l.l.l.l.l.l.l.l.l.l.l.l.l.l.l.l.l.l.l.l.l.l.l.l.l.l.l.l.l.l.l.l.l.l.l.l.l.l.l.l.l.l.l.l.l.l.l.l.l.",
"l.l.l.l.l.l.l.l.l.l.l.l.l.l.l.l.l.l.l.l.l.l.l.l.k.f.j.k.l.l.l.l.l.l.l.l.l.l.l.l.l.l.l.l.l.l.l.l.l.l.",
"l.l.l.l.l.l.l.l.l.l.l.l.l.l.l.l.l.l.l.l.l.l.k.j.' r ` j.l.l.l.l.l.l.l.l.l.l.l.l.l.l.l.l.l.l.l.l.l.l.",
"l.l.l.l.l.l.l.l.l.l.l.l.l.l.l.l.l.l.l.l.l.l.l.d.8 { F ` k.l.l.l.l.l.l.l.l.l.l.l.l.l.l.l.l.l.l.l.l.l.",
"l.l.l.l.l.l.l.l.l.l.l.l.l.l.l.l.l.l.l.l.l.l.j.R 3 l +.G _ j.k.k.l.l.l.l.l.l.l.l.l.l.l.l.l.l.l.l.l.l.",
"l.l.l.l.l.l.l.l.l.l.l.l.l.l.l.l.l.l.l.l.l.j._ n k S -.+.b g.l.k.l.l.l.l.l.l.l.l.l.l.l.l.l.l.l.l.l.l.",
"l.l.l.l.l.l.l.l.l.l.l.l.l.l.l.l.l.l.l.l.j.Q H @.5.;.<.&.d W k.l.l.l.l.l.l.l.l.l.l.l.l.l.l.l.l.l.l.l.",
"l.l.l.l.l.l.l.l.l.l.l.l.l.l.l.l.l.l.l.k.! F X.w.t.0.>.7.*.0 ! k.l.l.l.l.l.l.l.l.l.l.l.l.l.l.l.l.l.l.",
"l.l.l.l.l.l.l.l.l.l.l.l.l.l.l.l.l.l.k.Q 9 @.:.9.q.;.z @.>.Y b d.l.l.l.l.l.l.l.l.l.l.l.l.l.l.l.l.l.l.",
"l.l.l.l.l.l.l.l.l.l.l.l.l.l.l.l.l.j.' ~ y.%.g J <.7.S z @.j M j.l.l.l.l.l.l.l.l.l.l.l.l.l.l.l.l.l.l.",
"l.l.l.l.l.l.l.l.l.l.l.l.l.l.l.l.l.d.m b.D.y.v m.v.>.V S =.} < d.l.l.l.l.l.l.l.l.l.l.l.l.l.l.l.l.l.l.",
"l.l.l.l.l.l.l.l.l.l.l.l.l.l.l.k.l.' , ( G.i.T Z.c.>.S l #.V < d.l.l.l.l.l.l.l.l.l.l.l.l.l.l.l.l.l.l.",
"l.l.l.l.l.l.l.l.l.l.l.l.l.l.l.l.l.' t [ b.p.2.s.3.,.l { k 5 ` j.h.l.l.l.l.l.l.l.l.l.l.l.l.l.l.l.l.l.",
"l.l.l.l.l.l.l.l.l.l.l.l.l.l.l.l.l.j.' y 9 &.6.6.>. .X.D 1 Q j.Q N ' l.l.l.l.l.l.l.l.l.l.l.l.l.l.l.l.",
"l.l.l.l.l.l.l.l.l.l.l.l.l.l.l.l.l.l.j.d.M z :.r.q.0.w.X.d E Q ] b.^ g.l.l.l.l.l.l.l.l.l.l.l.l.l.l.l.",
"l.l.l.l.l.l.l.l.l.l.l.l.l.l.l.l.l.l.k.h.8  .7.e.4.w.q.:.+.3 y M.A.c ' l.l.l.l.l.l.l.l.l.l.l.l.l.l.l.",
"l.l.l.l.l.l.l.l.l.l.l.l.l.l.l.l.l.l.l.f.3 &.8.*.g 9.o.k A * = a.1.i f.l.l.l.l.l.l.l.l.l.l.l.l.l.l.l.",
"l.l.l.l.l.k.l.l.l.l.l.l.l.l.l.l.l.l.l.f.3 #.6.&.x z.3.6 2 } * } d _ l.l.l.l.l.l.l.l.l.l.l.l.l.l.l.l.",
"l.l.l.l.l.l.l.l.l.l.l.l.l.l.l.l.l.l.l.g.8 &.#.K F.J.S.P | *.a C i d.l.l.l.l.l.l.l.l.l.l.l.l.l.l.l.l.",
"l.l.l.l.l.l.l.l.l.l.l.l.l.l.l.l.l.l.k.j.M f Z x V.K.H.L Z a Z F _ j.l.l.l.l.l.l.l.l.l.l.l.l.l.l.l.l.",
"l.l.l.l.l.l.l.l.l.l.l.l.l.l.l.l.l.l.j.Q : X @ # c C.N.e O . 1 ) j.l.l.l.l.l.l.l.l.l.l.l.l.l.l.l.l.l.",
"l.l.l.l.l.l.l.l.l.l.l.l.l.l.l.l.l.l.f.,     . 1 u / p o     + ' l.l.l.l.l.l.l.l.l.l.l.l.l.l.l.l.l.l.",
"l.l.l.l.l.l.l.l.l.l.l.l.l.l.l.l.l.l.d.;       w N.B.K - .   : g.l.l.l.l.l.l.l.l.l.l.l.l.l.l.l.l.l.l.",
"l.l.l.l.l.l.l.l.l.l.l.l.l.l.l.l.l.l.j.' : +   . % % o . + ; ! k.l.l.l.l.l.l.l.l.l.l.l.l.l.l.l.l.l.l.",
"l.l.l.l.l.l.l.l.l.l.l.l.l.l.l.l.l.l.l.j.d.R q & $ $ $ q R f.k.k.l.l.l.l.l.l.l.l.l.l.l.l.l.l.l.l.l.l.",
"l.l.l.l.l.l.l.l.l.l.l.l.l.l.l.l.l.l.l.l.l.j.d.' ! ! ' f.k.k.l.l.l.l.l.l.l.l.l.l.l.l.l.l.l.l.l.l.l.l.",
"l.l.l.l.l.l.l.l.l.l.l.l.l.l.l.l.l.l.l.l.l.l.l.l.l.l.l.l.k.l.l.l.l.l.l.l.l.l.l.l.l.l.l.l.l.l.l.l.l.l.",
"l.l.l.l.l.l.l.l.l.l.l.l.l.l.l.l.l.l.l.l.l.l.l.l.l.l.l.l.k.l.l.l.l.l.l.l.l.l.l.l.l.l.l.l.l.l.l.l.l.l.",
"l.l.l.l.l.l.l.l.l.l.l.l.l.l.l.l.l.l.l.l.l.l.l.l.l.l.l.l.l.l.l.l.l.l.l.l.l.l.l.l.l.l.l.l.l.l.l.l.l.l.",
"l.l.l.l.l.l.l.l.l.l.l.l.l.k.l.l.l.l.l.l.l.l.l.l.l.l.l.l.l.l.l.l.l.l.l.l.l.l.l.l.l.l.l.l.l.l.l.l.l.l.",
"l.l.l.l.l.l.l.l.l.l.l.l.l.l.l.l.l.l.l.l.l.l.l.l.l.l.l.l.l.l.l.l.l.l.l.l.l.l.l.l.l.l.l.l.l.l.l.l.l.l.",
"l.l.l.l.l.l.l.l.l.l.l.l.l.l.l.l.l.l.l.l.l.l.l.l.l.l.l.l.l.l.l.l.l.l.l.l.l.l.l.l.l.l.l.l.l.l.l.l.l.l.",
"l.l.l.l.l.l.l.l.l.l.l.l.l.l.l.l.l.l.l.l.l.l.l.l.l.l.l.l.l.l.l.l.l.l.l.l.l.l.l.l.l.l.l.l.l.l.l.l.l.l.",
"l.l.l.l.l.l.l.l.l.l.l.l.l.l.l.l.l.l.l.l.l.l.l.l.l.l.l.l.l.l.l.l.l.l.l.l.l.l.l.l.l.l.l.l.l.l.l.l.l.l.",
"l.l.l.l.l.l.l.l.l.l.l.l.l.l.l.l.l.l.l.l.l.l.l.l.l.l.l.l.l.l.k.l.l.l.l.l.l.l.l.l.l.l.l.l.l.l.l.l.l.l.",
"l.l.l.l.l.l.l.l.l.l.l.l.l.l.l.l.l.l.l.l.l.l.l.l.l.l.l.l.l.l.l.l.l.l.l.l.l.l.l.l.l.l.l.l.l.l.l.l.l.l.",
"l.l.l.l.l.l.l.l.l.l.l.l.l.l.l.l.l.l.l.l.l.l.l.l.l.l.l.l.l.l.l.l.l.l.l.l.l.l.l.l.l.l.l.l.l.l.l.l.l.l.",
"l.l.l.l.l.l.l.l.l.l.l.l.l.l.l.l.l.l.l.l.l.l.l.l.l.l.l.l.l.l.l.l.l.l.l.l.l.l.l.l.l.l.l.l.l.l.l.l.l.l."
};
