/* XPM */
static char *fox_5[] = {
/* columns rows colors chars-per-pixel */
"50 50 154 2 ",
"   c #020201",
".  c #0B0501",
"X  c #0A0D07",
"o  c #130C04",
"O  c #190C02",
"+  c #0C130B",
"@  c #1C1005",
"#  c #0F1C12",
"$  c #1C1D10",
"%  c #121C14",
"&  c #23160A",
"*  c #241C0C",
"=  c #2B1A0C",
"-  c #211305",
";  c #341E0A",
":  c #291C10",
">  c #132316",
",  c #122418",
"<  c #162B1C",
"1  c #1C2E1D",
"2  c #36210E",
"3  c #3E230A",
"4  c #242312",
"5  c #262B1A",
"6  c #322615",
"7  c #2B321C",
"8  c #3A391E",
"9  c #1F3024",
"0  c #292C26",
"q  c #362E27",
"w  c #293620",
"e  c #213328",
"r  c #2A3F2F",
"t  c #333E25",
"y  c #3D3E21",
"u  c #3B332C",
"i  c #532E0D",
"p  c #4B2D12",
"a  c #412E15",
"s  c #40361A",
"d  c #46381A",
"f  c #5C3411",
"g  c #5F3915",
"h  c #523B1C",
"j  c #63370F",
"k  c #663B14",
"l  c #6A3C13",
"z  c #643D18",
"x  c #693F18",
"c  c #4E3823",
"v  c #47392B",
"b  c #483F36",
"n  c #384226",
"m  c #31492D",
"M  c #37452A",
"N  c #3C4539",
"B  c #2F5C3D",
"V  c #385C3A",
"C  c #345A3E",
"Z  c #39633F",
"A  c #6B4119",
"S  c #794616",
"D  c #75461B",
"F  c #7D4C1E",
"G  c #464323",
"H  c #484727",
"J  c #4A4825",
"K  c #5C432D",
"L  c #544232",
"P  c #7E4F22",
"I  c #604731",
"U  c #614832",
"Y  c #3F5546",
"T  c #396D47",
"R  c #366444",
"E  c #3D744C",
"W  c #3D784E",
"Q  c #3F7A51",
"!  c #464340",
"~  c #505C49",
"^  c #59595B",
"/  c #41744B",
"(  c #40784E",
")  c #417C52",
"_  c #5D7064",
"`  c #616363",
"'  c #804714",
"]  c #814815",
"[  c #814C1B",
"{  c #8A4E19",
"}  c #945319",
"|  c #9B591E",
" . c #995519",
".. c #A35C1D",
"X. c #AA5F1C",
"o. c #AA601E",
"O. c #875626",
"+. c #8E5824",
"@. c #955923",
"#. c #9C5E28",
"$. c #9A622D",
"%. c #A66022",
"&. c #AD6423",
"*. c #A76529",
"=. c #A9662A",
"-. c #B16421",
";. c #BD6B23",
":. c #B56C2B",
">. c #BB6E29",
",. c #BA712F",
"<. c #B06D31",
"1. c #BC7535",
"2. c #C46D1F",
"3. c #C16E23",
"4. c #CC7425",
"5. c #C3732C",
"6. c #C97428",
"7. c #CE7829",
"8. c #C27836",
"9. c #D77A27",
"0. c #E17E27",
"q. c #9D6F45",
"w. c #9F7146",
"e. c #A47040",
"r. c #A6784E",
"t. c #B47741",
"y. c #B37843",
"u. c #BF7F46",
"i. c #438356",
"p. c #448658",
"a. c #468A5A",
"s. c #4A905F",
"d. c #4D9663",
"f. c #4F9965",
"g. c #509B66",
"h. c #CE823E",
"j. c #938578",
"k. c #C28248",
"l. c #C9874C",
"z. c #8D9290",
"x. c #939391",
"c. c #ABA39B",
"v. c #B5A496",
"b. c #BFAFA1",
"n. c #BABABB",
"m. c #A6A7A7",
"M. c #CFBBA9",
"N. c #CABDB0",
"B. c #DCC4AF",
"V. c #CAC0B8",
"C. c #C5C3C1",
"Z. c #CFD0D1",
"A. c #FCF1E7",
"S. c white",
/* pixels */
"g.g.g.g.g.g.g.g.g.g.g.g.g.g.g.g.g.g.g.g.g.g.g.g.g.g.g.g.g.g.g.g.g.g.g.g.g.g.g.g.g.g.g.g.g.g.g.g.g.g.",
"g.g.g.g.g.g.g.g.g.g.g.g.g.g.g.g.g.g.g.g.g.f.g.g.g.g.g.g.g.g.g.g.g.g.g.g.g.g.g.g.g.g.g.g.g.g.g.g.g.g.",
"g.g.g.g.g.g.g.g.g.g.g.g.g.g.g.g.g.g.g.g.g.g.g.g.g.g.g.g.g.g.g.g.g.g.g.g.g.g.g.g.g.g.g.g.g.g.g.g.g.g.",
"g.g.g.g.g.g.g.g.g.g.g.g.g.g.g.g.g.g.g.g.g.g.g.g.g.g.g.g.g.g.g.g.g.g.g.g.g.g.g.g.g.g.g.g.g.g.g.g.g.g.",
"g.g.g.g.g.g.g.g.g.g.g.g.g.g.g.g.g.g.g.g.g.g.g.g.g.g.g.g.g.g.g.g.g.g.g.g.g.g.g.g.g.g.g.g.g.g.g.g.g.g.",
"g.g.g.g.g.g.g.g.g.g.g.g.g.g.g.g.g.g.g.g.g.g.g.g.g.g.g.g.g.g.g.g.g.g.g.g.g.g.g.f.g.g.g.g.g.g.g.g.g.g.",
"g.g.g.g.g.g.g.g.g.g.g.g.g.g.g.g.g.g.g.g.g.g.g.g.g.g.g.g.g.g.g.g.g.g.g.g.g.g.g.g.g.g.g.g.g.g.g.g.g.g.",
"g.g.g.g.g.g.g.g.g.g.g.g.g.g.g.g.g.g.g.g.g.g.g.g.g.g.g.g.g.g.g.g.g.g.g.g.g.g.g.g.g.g.g.g.g.g.g.g.g.g.",
"g.g.g.g.g.g.g.g.g.g.g.g.g.g.g.g.g.g.g.g.g.g.g.g.g.g.g.g.g.g.g.g.g.g.g.g.g.g.g.g.g.g.g.g.g.g.g.g.g.g.",
"g.g.g.g.g.g.g.g.f.g.g.g.g.g.g.g.g.g.g.g.g.g.g.g.g.g.g.g.g.g.g.g.g.g.g.g.g.g.g.g.g.g.g.g.g.g.g.g.g.g.",
"g.g.g.g.g.g.g.g.g.g.g.g.g.g.g.g.g.g.g.g.g.g.g.g.g.g.g.g.g.g.g.g.g.g.g.g.g.g.g.g.g.g.g.g.g.g.g.g.g.g.",
"g.g.g.g.g.g.g.g.g.g.g.g.g.g.g.g.g.g.g.g.g.g.g.g.g.g.g.g.g.g.g.g.g.g.g.g.g.g.g.g.g.g.g.g.g.g.g.g.g.g.",
"g.g.g.g.g.g.g.g.g.g.g.g.g.g.g.g.g.g.g.g.g.g.g.g.g.g.g.g.g.g.g.g.g.g.g.g.g.g.g.g.g.g.g.g.g.g.g.g.g.g.",
"g.g.g.g.g.g.g.g.g.g.g.g.g.g.g.g.g.g.g.g.g.g.g.g.g.d.a.d.g.g.g.g.g.g.g.g.g.g.g.g.g.g.g.g.g.g.g.g.g.g.",
"g.g.g.g.g.g.g.g.g.g.g.g.g.g.g.g.g.g.g.g.g.g.g.g.f.) m / f.g.g.g.g.g.g.g.g.g.g.g.g.g.g.g.g.g.g.g.g.g.",
"g.g.g.g.g.g.g.g.g.g.g.g.g.g.g.g.g.g.g.g.g.g.g.g.a.7 S G W f.g.g.g.g.g.g.g.g.g.g.g.g.g.g.g.g.g.g.g.g.",
"g.g.g.g.g.g.g.g.g.g.g.g.g.g.g.g.g.g.g.g.g.g.g.d.E * l [ H Q f.g.g.g.g.g.g.g.g.g.g.g.g.g.g.g.g.g.g.g.",
"g.g.g.g.g.g.g.g.g.g.g.g.g.g.g.g.g.g.g.g.g.g.d./ y g F =.O.w a.g.g.g.g.g.g.g.g.g.g.g.g.g.g.g.g.g.g.g.",
"g.g.g.g.g.g.g.g.g.g.g.g.g.g.g.g.g.g.g.g.g.d./ J @.>.>.,.*.a W d.g.g.g.g.g.g.g.g.g.g.g.g.g.g.g.g.g.g.",
"g.g.g.g.g.g.g.g.g.g.g.g.g.g.g.g.g.g.g.g.f.Q G X.0.0.7.:.4.&.8 ( d.g.g.g.g.g.g.g.g.g.g.g.g.g.g.g.g.g.",
"g.g.f.g.g.g.g.g.g.g.g.g.g.g.g.g.g.g.g.f.Q y O.>.3.9.&.z @.,.P M i.g.g.g.g.g.g.g.g.g.g.g.g.g.g.g.g.g.",
"g.g.g.g.g.g.g.g.g.g.g.g.g.g.g.g.g.g.d.) ~ q.#.p K ,.>.P z #.h R d.g.g.g.g.g.g.g.g.g.g.g.g.g.g.g.g.g.",
"g.g.g.g.g.g.g.g.g.g.g.g.g.g.g.g.g.g.p.m x.B.w.v c.k.*.x D :.F t i.g.g.g.g.g.g.g.g.g.g.g.g.g.g.g.g.g.",
"g.g.g.g.g.g.g.g.g.g.g.g.g.g.g.g.g.g.) % ^ N.r.U M.l.:.P k ..k w i.g.g.g.g.g.g.g.g.g.g.g.g.g.g.g.g.g.",
"g.g.g.g.g.g.g.g.g.g.g.g.g.g.g.g.g.g.i.9 ` j.y.<.u.8.&.l { l 5 T i.d.g.g.g.g.g.g.g.g.g.g.g.g.g.g.g.g.",
"g.g.g.g.g.g.g.g.g.g.g.g.g.g.g.g.g.f.f.) e 6 | :.5.,.| | l $ W E C E d.g.g.g.g.g.g.g.g.g.g.g.g.g.g.g.",
"g.g.g.g.g.g.g.g.g.g.g.g.g.g.g.g.g.g.g.f.Z 6 i { 4.-.o.%.p + R _ z.Y p.g.g.g.g.g.g.g.g.g.g.g.g.g.g.g.",
"g.g.g.g.g.g.g.g.g.g.g.g.g.g.g.g.g.g.f.a.7 F %.;.X.j l | F o 0 v.M.N i.g.g.g.g.g.g.g.g.g.g.g.g.g.g.g.",
"g.g.g.g.g.g.g.g.g.g.g.g.g.g.g.g.g.g.g.a.$ S 4.3.f X. .f D ; @ y.e.M a.g.g.g.g.g.g.g.g.g.g.g.g.g.g.g.",
"g.g.g.g.g.g.g.g.g.g.g.g.g.g.g.g.g.g.f.p.4 | 6.%.c 8.1.6 3 { 2 [ d T f.g.g.g.g.g.g.g.g.g.g.g.g.g.g.g.",
"g.g.g.g.g.g.g.g.g.g.g.g.g.g.g.g.g.g.f.a.5 A } I C.A.N.L ' l = A t i.g.g.g.g.g.g.g.g.g.g.g.g.g.g.g.g.",
"g.g.g.g.g.g.g.g.g.g.g.g.g.g.g.g.g.g.f.d.C 4 ; q n.S.Z.v a & s n / d.g.g.g.g.g.g.g.g.g.g.g.g.g.g.g.g.",
"g.g.g.g.g.g.g.g.g.g.g.g.g.g.g.g.g.g.d.E > . o * ! n.m.0 . X V ) d.g.g.g.g.g.g.g.g.g.g.g.g.g.g.g.g.g.",
"g.g.g.g.g.g.g.g.g.g.g.g.g.g.g.g.g.g.p.<     @ f & u v :     < p.g.g.g.g.g.g.g.g.g.g.g.g.g.g.g.g.g.g.",
"g.g.g.g.g.g.g.g.g.g.g.g.g.g.g.g.g.g.i.,       - ; i  .] @   > i.g.g.g.g.g.g.g.g.g.g.g.g.g.g.g.g.g.g.",
"g.g.g.g.g.g.g.g.g.g.g.g.g.g.g.g.g.g.f.Q , +     . o O @ + , W d.g.g.g.g.g.g.g.g.g.g.g.g.g.g.g.g.g.g.",
"g.g.g.g.g.g.g.g.g.g.g.g.g.g.g.g.g.g.f.f.i.T 1 # % % # 1 T p.f.g.g.g.g.g.g.g.g.g.g.g.g.g.g.g.g.g.g.g.",
"g.g.g.g.g.g.g.g.g.g.g.g.g.g.g.g.g.g.g.g.f.f.i.) ) ) ) p.d.g.g.g.g.g.g.g.g.g.g.g.g.g.g.g.g.g.g.g.g.g.",
"g.g.g.g.g.g.g.g.g.g.g.g.g.g.g.g.g.g.g.g.f.g.g.g.g.g.g.g.g.g.g.g.g.g.g.g.g.g.g.g.g.g.g.g.g.g.g.g.g.g.",
"g.g.g.g.g.g.g.g.g.g.g.g.g.g.f.g.g.g.g.g.g.g.g.g.g.g.g.g.g.g.g.g.g.g.g.g.g.g.g.g.g.g.g.g.g.g.g.g.g.g.",
"g.g.g.g.g.g.g.g.g.g.g.g.g.g.g.g.g.g.g.g.g.g.g.g.g.g.g.g.g.g.g.g.g.g.g.g.g.g.g.g.g.g.g.g.g.g.g.g.g.g.",
"g.g.g.g.g.g.g.g.g.g.g.g.g.g.g.g.g.g.g.g.g.g.g.g.g.g.g.g.g.g.g.g.g.g.g.g.g.g.g.g.g.g.g.g.g.g.g.g.g.g.",
"g.g.g.g.g.g.g.g.g.g.g.g.g.g.g.g.g.g.g.g.g.g.g.g.g.g.g.g.g.g.g.g.g.g.g.g.g.g.g.g.g.g.g.g.g.g.g.g.g.g.",
"g.g.g.g.g.g.g.g.g.g.g.g.g.g.g.g.g.g.g.g.g.g.g.g.g.g.g.g.g.g.g.g.g.g.g.g.g.g.g.g.g.g.g.g.g.g.g.g.g.g.",
"g.g.g.g.g.g.g.g.g.g.g.g.g.g.g.g.g.g.g.g.g.g.g.g.g.g.g.g.g.g.g.g.g.g.g.g.g.g.g.g.g.g.g.g.g.g.g.g.g.g.",
"g.g.g.g.g.g.g.g.g.g.g.g.g.g.g.g.g.g.g.g.g.g.g.g.g.g.g.g.g.g.g.g.g.g.g.g.g.g.g.g.g.g.g.g.g.g.g.g.g.g.",
"g.g.g.g.g.g.g.g.g.g.g.g.g.g.g.g.g.g.g.g.g.g.g.g.g.g.g.g.g.g.g.g.g.g.g.g.g.g.g.g.g.g.g.g.g.g.g.g.g.g.",
"g.g.g.g.g.g.g.g.g.g.g.g.g.g.g.g.g.g.g.g.g.g.g.g.g.g.g.g.g.g.g.g.g.g.g.g.g.g.g.g.g.g.g.g.g.g.g.g.g.g.",
"g.g.g.g.g.g.g.g.g.g.g.g.g.g.g.g.g.g.g.g.g.g.g.g.g.g.g.g.g.g.g.g.g.g.g.g.g.g.g.g.g.g.g.g.g.g.g.g.g.g.",
"g.g.g.g.g.g.g.g.g.g.g.g.g.g.g.g.g.f.g.g.g.g.g.g.g.g.g.g.g.g.g.g.g.g.g.g.g.g.g.g.g.g.g.g.g.g.g.g.g.g."
};
