/* XPM */
static char *fox_2[] = {
/* columns rows colors chars-per-pixel */
"50 50 160 2 ",
"   c #010201",
".  c #0C0702",
"X  c #0C0804",
"o  c #150B03",
"O  c #0A130C",
"+  c #14100C",
"@  c #1C1208",
"#  c #0F1C12",
"$  c #1E1E1E",
"%  c #2C1C0C",
"&  c #20150B",
"*  c #311E0C",
"=  c #201E1D",
"-  c #122317",
";  c #14271A",
":  c #1C2F1D",
">  c #19271C",
",  c #19311F",
"<  c #2A220F",
"1  c #38210B",
"2  c #232212",
"3  c #2A2814",
"4  c #28201A",
"5  c #262C19",
"6  c #3D2A19",
"7  c #3B2D15",
"8  c #25321E",
"9  c #2A321C",
"0  c #3A381D",
"q  c #1C2A20",
"w  c #2C2824",
"e  c #322E2A",
"r  c #2D3F26",
"t  c #2B3029",
"y  c #283C2E",
"u  c #363F25",
"i  c #383533",
"p  c #4B2B0E",
"a  c #47391B",
"s  c #48391B",
"d  c #493217",
"f  c #573110",
"g  c #5F3914",
"h  c #543B1C",
"j  c #653C15",
"k  c #6C3E15",
"l  c #683F1A",
"z  c #633C19",
"x  c #713F13",
"c  c #433E21",
"v  c #483626",
"b  c #403F3E",
"n  c #4B3F32",
"m  c #334026",
"M  c #3B4228",
"N  c #384839",
"B  c #34593E",
"V  c #37603E",
"C  c #6D441C",
"Z  c #734114",
"A  c #70431B",
"S  c #7A491D",
"D  c #784314",
"F  c #454222",
"G  c #484828",
"H  c #4D4925",
"J  c #57402A",
"K  c #5F442B",
"L  c #5F4834",
"P  c #564739",
"I  c #524233",
"U  c #7B4D22",
"Y  c #7F5122",
"T  c #6B5037",
"R  c #3C6D47",
"E  c #396E48",
"W  c #3D744C",
"Q  c #3D784E",
"!  c #3F7B51",
"~  c #405747",
"^  c #4C5947",
"/  c #535354",
"(  c #406B4C",
")  c #40754C",
"_  c #41784E",
"`  c #417B52",
"'  c #427551",
"]  c #52755E",
"[  c #616262",
"{  c #864B17",
"}  c #884D17",
"|  c #804B1B",
" . c #8B511D",
".. c #97571D",
"X. c #AA611F",
"o. c #BD6A1F",
"O. c #814F20",
"+. c #835323",
"@. c #935720",
"#. c #935A25",
"$. c #9C5C20",
"%. c #A25E22",
"&. c #9F6027",
"*. c #9D632F",
"=. c #A56124",
"-. c #AD6422",
";. c #A86629",
":. c #AC692C",
">. c #BB6B24",
",. c #B56D2B",
"<. c #B16723",
"1. c #BC722F",
"2. c #A26E3F",
"3. c #B16E31",
"4. c #B4763F",
"5. c #B97233",
"6. c #C56E1F",
"7. c #C06C21",
"8. c #C3742C",
"9. c #C87428",
"0. c #CA7222",
"q. c #D07625",
"w. c #DC7C26",
"e. c #D27A2A",
"r. c #DA7C28",
"t. c #C07735",
"y. c #E27F27",
"u. c #9E7148",
"i. c #A06F43",
"p. c #B57742",
"a. c #BD7D42",
"s. c #A77447",
"d. c #438356",
"f. c #448758",
"g. c #45895A",
"h. c #488E5C",
"j. c #4D9662",
"k. c #4E9964",
"l. c #509B66",
"z. c #CC813E",
"x. c #93887F",
"c. c #C9874C",
"v. c #C38449",
"b. c #92918F",
"n. c #8E9391",
"m. c #A1958B",
"M. c #A6AE8E",
"N. c #A5A5A5",
"B. c #A8A5A1",
"V. c #B7B9BA",
"C. c #BCBCBC",
"Z. c #C2AC97",
"A. c #C0AFA2",
"S. c #CAC0B7",
"D. c #E3CDB9",
"F. c #C7C5C3",
"G. c #D3C9C0",
"H. c #CECFD0",
"J. c #FDF1E7",
"K. c white",
/* pixels */
"l.l.l.l.l.l.l.l.l.l.l.l.l.l.l.l.l.l.l.l.l.l.l.l.l.l.l.k.l.l.l.l.l.l.l.l.l.l.l.l.l.l.l.l.l.l.l.l.l.l.",
"l.l.l.l.l.l.l.l.l.l.l.l.l.l.l.l.l.l.l.l.l.l.l.l.l.l.l.l.l.l.l.l.l.l.l.l.l.l.l.l.l.l.l.l.l.l.l.l.l.l.",
"l.l.l.l.l.l.l.l.l.l.l.l.l.l.l.l.l.l.l.l.l.l.l.l.l.l.l.l.l.l.l.l.l.l.l.l.l.l.l.l.l.l.l.l.l.l.l.l.l.l.",
"l.l.l.l.l.l.l.l.l.l.l.l.l.l.l.l.l.l.l.l.l.l.l.l.l.l.l.l.l.l.l.l.l.l.l.l.l.l.l.l.l.l.l.l.l.l.l.l.l.l.",
"l.l.l.l.l.l.l.l.l.l.l.l.l.l.l.l.l.l.l.l.l.l.l.l.l.l.l.l.l.l.l.l.l.l.l.l.l.l.l.l.l.l.l.l.l.l.l.l.k.l.",
"l.l.l.l.l.l.l.l.l.l.l.l.l.l.l.l.l.l.l.l.l.l.l.l.l.l.l.l.l.l.l.l.l.l.l.l.l.l.l.l.l.l.l.l.l.l.l.l.l.l.",
"l.l.l.l.l.l.l.l.l.l.l.l.l.l.l.l.l.l.l.l.l.l.l.l.l.l.l.l.l.l.l.l.l.l.l.l.l.l.l.l.l.l.l.l.l.l.l.l.l.l.",
"l.l.l.l.l.l.l.l.l.l.l.l.l.l.l.l.l.l.l.l.l.l.l.l.l.l.l.l.l.l.l.l.l.l.l.l.l.l.k.l.l.l.l.l.l.l.l.l.l.l.",
"l.l.l.l.l.l.l.l.l.l.l.l.l.l.l.l.l.l.l.l.l.l.l.l.l.l.l.l.l.l.l.l.l.l.l.l.l.l.l.l.l.l.l.l.l.l.l.l.l.l.",
"l.l.l.l.l.l.l.l.k.l.l.l.l.l.l.l.l.l.l.l.l.l.l.l.l.l.l.l.l.l.l.l.l.l.l.l.l.l.l.l.l.l.l.l.l.l.l.l.l.l.",
"l.l.l.l.l.l.l.l.l.l.l.l.l.l.l.l.l.l.l.l.l.l.l.l.l.l.l.l.l.l.l.l.l.l.l.l.l.l.l.l.l.l.l.l.l.l.l.l.l.l.",
"l.l.l.l.l.l.l.l.l.l.l.l.l.l.l.l.l.l.l.l.l.l.l.l.l.l.l.l.l.l.l.l.l.l.l.l.l.l.l.l.l.l.l.l.l.l.l.l.l.l.",
"l.l.l.l.l.l.l.l.l.l.l.l.l.l.l.l.l.l.l.l.l.l.l.l.l.l.l.l.l.l.l.l.l.l.l.l.l.l.l.l.l.l.l.l.l.l.l.l.l.l.",
"l.l.l.l.l.l.l.l.l.l.l.l.l.l.l.l.l.l.l.l.l.l.l.j.g.j.l.l.l.l.l.l.l.l.l.l.l.l.l.l.l.l.l.l.l.l.l.l.l.l.",
"l.l.l.l.l.l.l.l.l.l.l.l.l.l.l.l.l.l.l.l.l.l.k._ u Q j.l.l.l.l.l.l.l.l.l.l.l.l.l.l.l.l.l.l.l.l.l.l.l.",
"l.l.l.l.l.l.l.l.l.l.l.l.l.l.l.l.l.l.l.l.l.k.Q c { 9 f.l.l.l.l.l.l.l.l.l.l.l.l.l.l.l.l.l.l.l.l.l.l.l.",
"l.l.l.l.l.l.l.l.l.l.l.l.l.l.l.l.l.l.l.l.k._ G Y k 2 R k.l.l.l.l.l.l.l.l.l.l.l.l.l.l.l.l.l.l.l.l.l.l.",
"l.l.l.l.l.l.l.l.l.l.l.l.l.l.l.l.l.l.l.l.g.m +.:.S g u Q k.l.l.l.l.l.l.l.l.l.l.l.l.l.l.l.l.l.l.l.l.k.",
"l.l.l.l.l.l.l.l.l.l.l.l.l.l.l.l.l.l.l.l.W s =.1.,.7...H ) k.l.l.l.l.l.l.l.l.l.l.l.l.l.l.l.l.l.l.l.l.",
"l.l.l.l.l.l.l.l.l.l.l.l.l.l.l.l.l.l.j.` 0 X.9.,.q.y.w.X.F _ l.l.l.l.l.l.l.l.l.l.l.l.l.l.l.l.l.l.l.l.",
"l.l.l.l.l.l.l.l.l.l.l.l.l.l.l.l.l.l.g.m Y ,.@.z ,.r.7.>.#.0 Q j.l.l.l.l.l.l.l.l.l.l.l.l.l.l.l.l.l.l.",
"l.l.l.l.l.l.l.l.l.l.l.l.l.l.l.l.l.l.j.B h #.C S 9.1.K d *.u.^ ` k.l.l.l.l.l.l.l.l.l.l.l.l.l.l.l.l.l.",
"l.l.l.l.l.l.l.l.l.l.l.l.l.l.l.l.l.l.f.8 U ;.S j <.v.m.I i.D.b.N d.l.l.l.l.l.l.l.l.l.l.l.l.l.l.l.l.l.",
"l.l.l.l.l.l.l.l.l.l.l.l.l.l.l.l.l.l.d.: z ..C S ,.c.Z.T s.G./ q ! l.l.l.l.l.l.l.l.l.l.l.l.l.l.l.l.l.",
"l.l.l.l.l.l.l.l.l.l.l.l.l.l.l.l.k.h.j.` 5 j } j <.5.a.3.p.x.[ y ` l.l.l.l.l.l.l.l.l.l.l.l.l.l.l.l.l.",
"l.l.l.l.l.l.l.l.l.l.l.l.l.l.l.k.' B _ l.Q 3 D X...1.8.8.=.6 > Q k.l.l.l.l.l.l.l.l.l.l.l.l.l.l.l.l.l.",
"l.l.l.l.k.l.l.l.l.l.l.l.l.l.l.f.~ b.] _ ( s -.r.q.w.r.>.k z 8 d.l.l.l.l.l.l.l.l.l.l.l.l.l.l.l.l.l.l.",
"l.l.l.l.l.l.l.l.l.l.l.l.l.l.l.d.N A.M.e = +.>.r.w.>.q.9.$.7 W j.l.l.l.l.l.l.l.l.l.l.l.l.l.l.l.l.l.l.",
"l.l.l.l.l.l.l.l.l.l.l.l.l.l.l.f.M i.p.& % A j o.0.f <.e.%.4 f.k.l.l.l.l.l.l.l.l.l.l.l.l.l.l.l.l.l.l.",
"l.l.l.l.l.l.l.l.l.l.l.l.l.l.l.k.) a | * O.1 * 1.t.v %.8.%.2 f.l.l.l.l.l.l.l.l.l.l.l.l.l.l.l.l.l.l.l.",
"l.l.l.l.l.l.l.l.l.l.l.l.l.l.l.l.d.u C p -. .I S.J.F.L %.&.9 g.l.l.l.l.l.l.l.l.l.l.l.l.l.l.l.l.l.l.l.",
"l.l.l.l.l.l.l.l.l.l.l.l.l.l.l.l.j._ F Z p Z P H.K.C.u Z d B j.l.l.l.l.l.l.l.l.l.l.l.l.l.l.l.l.l.l.l.",
"l.l.l.l.l.l.l.l.l.l.l.l.l.l.l.l.l.j.R < X @ e N.C.~ @ o X ; W k.l.l.l.l.l.l.l.l.l.l.l.l.l.l.l.l.l.l.",
"l.l.l.l.l.l.l.l.l.l.l.l.l.l.l.l.l.l.` O     + i / e * .     ; f.l.l.l.l.l.l.l.l.l.l.l.l.l.l.l.l.l.l.",
"l.l.l.l.l.l.l.l.l.l.l.l.l.l.l.l.l.l.f.-   . * h B.N.w       # d.l.l.l.l.l.l.l.l.l.l.l.l.l.l.l.l.l.l.",
"l.l.l.l.l.l.l.l.l.l.l.l.l.l.l.l.l.l.k.! - O . o = $ X   O - ! k.l.l.l.l.l.l.l.l.l.l.l.l.l.l.l.l.l.l.",
"l.l.l.l.l.l.l.l.l.l.l.l.l.l.l.l.l.l.k.k.d.E : # # # # , E f.j.l.l.l.l.l.l.l.l.l.l.l.l.l.l.l.l.l.l.l.",
"l.l.l.l.l.l.l.l.l.l.l.l.l.l.l.l.l.l.l.l.k.k.d.` ` ` ` f.k.l.l.l.l.l.l.l.l.l.l.l.l.l.l.l.l.l.l.l.l.l.",
"l.l.l.l.l.l.l.l.l.l.l.l.l.l.l.l.l.l.l.l.l.l.l.l.l.l.l.l.l.l.l.l.l.l.l.l.l.l.l.l.l.l.l.l.l.l.l.l.l.l.",
"l.l.l.l.l.l.l.l.l.l.l.l.l.l.l.l.l.l.l.l.l.l.l.l.l.l.l.l.l.l.l.l.l.l.l.l.l.l.l.l.l.l.l.l.l.l.l.l.l.l.",
"l.l.l.l.l.l.l.l.l.l.l.l.l.l.l.l.l.l.l.l.l.l.l.l.l.l.l.l.l.l.l.l.l.l.l.l.l.l.l.l.l.l.l.l.l.l.l.l.l.l.",
"l.l.l.l.l.l.l.l.l.l.l.l.l.l.l.l.l.l.l.l.l.l.l.l.l.l.l.l.l.l.l.l.l.l.l.l.l.l.l.l.l.l.l.l.l.l.l.l.l.l.",
"l.l.l.l.l.l.l.l.l.l.l.l.l.l.l.l.l.l.l.l.l.l.l.l.l.l.l.l.l.l.l.l.l.l.l.l.l.l.l.l.l.l.l.l.l.l.l.l.l.l.",
"l.l.l.l.l.l.l.l.l.l.l.l.l.l.l.l.l.l.l.l.l.l.l.l.l.l.l.l.l.l.l.l.l.l.l.l.l.l.l.l.l.l.l.l.l.l.l.l.l.l.",
"l.l.l.l.l.l.l.l.l.l.l.l.l.l.l.l.l.l.l.l.l.l.l.l.l.l.l.l.l.l.l.l.l.l.l.l.l.l.l.l.k.l.l.l.l.l.l.l.l.l.",
"l.l.l.l.l.l.l.l.l.l.l.l.l.l.l.l.l.l.l.l.l.l.l.l.l.l.l.l.l.l.l.l.l.l.l.l.l.l.l.l.l.l.l.l.l.l.l.l.l.l.",
"l.l.l.l.l.l.l.l.l.l.l.l.l.l.l.l.l.l.l.l.l.l.l.l.k.l.l.l.l.l.l.l.l.l.l.l.l.l.l.l.l.l.l.l.l.l.l.l.l.l.",
"l.l.l.l.l.l.l.l.l.l.l.k.l.l.l.l.l.l.l.l.l.l.l.l.l.l.l.l.l.l.l.l.l.l.l.l.l.l.l.l.l.l.l.l.l.l.l.l.l.l.",
"l.l.l.l.l.l.l.l.l.l.l.l.l.l.l.l.l.l.l.l.l.l.l.l.l.l.l.l.l.l.l.l.l.l.l.l.l.l.l.l.l.l.l.l.l.l.l.l.l.l.",
"l.l.l.l.l.l.l.l.l.l.l.l.l.l.l.l.l.l.l.l.l.l.l.l.l.l.l.l.l.l.l.l.l.l.l.l.l.l.l.l.l.l.l.l.l.l.l.l.l.l."
};
