/* XPM */
static char *fox_15[] = {
/* columns rows colors chars-per-pixel */
"50 50 131 2 ",
"   c #020202",
".  c #0E0A05",
"X  c #160D04",
"o  c #1B0E04",
"O  c #06100A",
"+  c #0A130D",
"@  c #1E1105",
"#  c #1F1308",
"$  c #161A0E",
"%  c #0E1C12",
"&  c #151D11",
"*  c #251506",
"=  c #291708",
"-  c #351E0A",
";  c #162317",
":  c #14271A",
">  c #182319",
",  c #16281A",
"<  c #19301F",
"1  c #3B210A",
"2  c #252414",
"3  c #282716",
"4  c #272817",
"5  c #2E2D15",
"6  c #2E2E18",
"7  c #312913",
"8  c #3E2916",
"9  c #31361D",
"0  c #183020",
"q  c #332A22",
"w  c #392C20",
"e  c #2D3A23",
"r  c #313720",
"t  c #353B21",
"y  c #3F3F22",
"u  c #402107",
"i  c #46280D",
"p  c #4E2C0E",
"a  c #5B330F",
"s  c #422E1D",
"d  c #413419",
"f  c #493019",
"g  c #5E3415",
"h  c #6B3A0F",
"j  c #643811",
"k  c #6A3D15",
"l  c #713E14",
"z  c #4F3520",
"x  c #413E22",
"c  c #503521",
"v  c #423B35",
"b  c #3C4125",
"n  c #35492D",
"m  c #314436",
"M  c #344B3B",
"N  c #384C3E",
"B  c #714015",
"V  c #7C4615",
"C  c #75451A",
"Z  c #79471B",
"A  c #7A491D",
"S  c #4C4723",
"D  c #6D4827",
"F  c #694728",
"G  c #3F4041",
"H  c #376E47",
"J  c #396F49",
"K  c #3D744C",
"L  c #3E794F",
"P  c #3E7D53",
"I  c #40764E",
"U  c #41794F",
"Y  c #427F54",
"T  c #716E6C",
"R  c #7C7B79",
"E  c #834C1A",
"W  c #8A4E1A",
"Q  c #8A511E",
"!  c #9D5417",
"~  c #92541C",
"^  c #9B571B",
"/  c #9F591B",
"(  c #A45A17",
")  c #A45B1B",
"_  c #A95F1C",
"`  c #AE611E",
"'  c #B5651F",
"]  c #BA671F",
"[  c #BA681F",
"{  c #875220",
"}  c #885221",
"|  c #955720",
" . c #925825",
".. c #9C5D26",
"X. c #9F622A",
"o. c #A46024",
"O. c #AD6321",
"+. c #A6652A",
"@. c #AB6729",
"#. c #AC682A",
"$. c #B26622",
"%. c #BC6B22",
"&. c #B56D2C",
"*. c #A56A35",
"=. c #A56F3E",
"-. c #C26D21",
";. c #C8762C",
":. c #CB782E",
">. c #DA7B27",
",. c #D37A2A",
"<. c #D97C29",
"1. c #E37F26",
"2. c #A7784F",
"3. c #B67942",
"4. c #418255",
"5. c #448658",
"6. c #45895B",
"7. c #4D9763",
"8. c #4F9965",
"9. c #509B66",
"0. c #529E68",
"q. c #53A069",
"w. c #E48027",
"e. c #E98227",
"r. c #E68229",
"t. c #C58247",
"y. c #AD9F92",
"u. c #CCB39C",
"i. c #CABFB4",
"p. c #D7CEC6",
"a. c #CFD0D1",
/* pixels */
"9.9.9.9.9.9.9.9.9.9.9.9.9.9.9.9.9.9.9.9.9.9.9.9.9.9.9.9.9.9.9.9.9.9.9.9.9.9.9.9.9.9.9.9.9.9.9.9.9.9.",
"9.9.9.9.9.9.9.9.9.9.9.9.9.9.9.9.9.9.9.9.9.9.9.9.9.9.9.9.9.9.9.9.9.9.9.9.9.9.9.9.9.9.9.9.9.9.9.9.9.9.",
"9.9.9.9.9.9.9.9.9.9.9.9.9.9.9.9.9.9.9.9.9.9.9.9.9.9.9.9.9.9.9.9.9.9.9.9.9.9.9.9.9.9.9.9.9.9.9.9.9.9.",
"9.9.9.9.9.9.9.9.9.9.9.9.9.9.9.9.9.9.9.9.9.9.9.9.9.9.9.8.9.9.9.9.9.9.9.9.9.9.9.9.9.9.9.9.9.9.9.9.9.9.",
"9.9.9.9.9.9.9.9.9.9.9.9.9.9.9.9.9.9.9.9.9.9.9.9.9.9.9.9.9.9.9.9.9.9.9.9.9.9.9.9.9.9.9.9.9.9.9.9.9.9.",
"9.9.9.9.9.9.9.9.9.9.9.9.9.9.9.9.9.9.9.9.9.9.9.9.9.9.9.9.9.9.9.9.9.9.9.9.9.9.9.9.9.9.9.9.9.9.9.9.9.9.",
"9.9.9.9.9.9.9.9.9.9.9.9.9.9.9.9.9.9.9.9.9.9.9.9.9.9.9.9.9.9.9.9.9.9.9.9.9.9.9.9.9.9.9.9.9.9.9.9.9.9.",
"9.9.9.9.9.9.9.9.9.9.9.9.9.9.9.9.9.9.9.9.9.9.9.9.9.9.9.9.9.9.9.9.9.9.9.9.9.9.9.9.9.9.9.9.9.9.9.9.9.9.",
"9.9.9.9.9.9.9.9.9.9.9.9.9.9.9.9.9.9.9.9.9.9.9.9.9.9.9.9.9.9.9.9.9.9.9.9.9.9.9.9.9.9.9.9.9.9.9.9.9.9.",
"9.9.9.9.9.9.9.9.8.9.9.9.9.9.9.9.9.9.9.9.9.9.9.9.9.9.9.9.9.9.9.9.9.9.9.9.8.9.9.9.9.9.9.9.9.9.9.9.9.9.",
"9.9.9.9.9.9.9.9.9.9.9.9.9.9.9.9.9.9.9.9.9.9.9.9.9.9.9.9.9.9.9.9.9.9.9.9.9.9.9.9.9.9.9.9.9.9.9.9.9.9.",
"9.9.9.9.9.9.9.9.9.9.9.9.9.9.9.9.9.9.9.9.9.9.9.9.9.9.9.9.9.9.9.9.9.9.9.9.9.9.9.9.9.9.9.9.9.9.9.9.9.9.",
"9.9.9.9.9.9.9.9.9.9.9.9.9.9.9.9.9.9.9.9.9.9.9.9.9.9.9.9.9.9.9.9.9.9.9.9.9.9.9.9.9.9.9.9.9.9.9.9.9.9.",
"9.9.9.9.9.9.9.9.9.9.9.9.9.9.9.9.9.9.9.9.9.9.9.9.9.9.9.9.9.9.9.9.9.9.9.9.9.9.9.9.9.9.9.9.9.9.9.9.9.9.",
"9.9.9.9.9.9.9.9.9.9.9.9.9.9.9.9.9.9.9.9.8.9.9.9.9.9.9.9.9.9.9.9.9.9.9.9.9.9.9.9.9.9.9.9.9.9.9.9.9.9.",
"9.9.9.9.9.9.9.9.9.9.9.9.9.9.9.9.9.9.0.8.5.5.8.9.9.9.9.8.5.5.8.9.9.9.9.9.9.9.9.9.9.9.9.9.9.9.9.9.9.9.",
"9.9.9.9.9.9.9.9.9.9.9.9.9.8.8.8.9.9.8.U 9 t I 9.q.q.9.K t r Y 7.8.8.9.9.9.9.9.9.9.9.9.9.9.9.9.9.9.9.",
"9.9.9.9.9.9.9.9.9.9.9.9.9.8.0.8.8.0.5.e } ~ S J 4.P J S ~ } e 5.q.9.9.9.9.9.9.9.9.9.9.9.9.9.9.9.9.9.",
"9.9.9.9.9.9.9.9.9.9.9.9.9.9.8.0.8.0.4.3 ..~ W d 6 5 d E ~ ..3 Y q.8.9.9.9.9.9.9.9.9.9.9.9.9.9.9.9.9.",
"9.9.9.9.9.9.9.9.9.9.9.9.9.9.8.0.9.0.4.3 } C E o.%.] o.E C  .3 4.q.9.9.9.9.9.9.9.9.9.9.9.9.9.9.9.9.9.",
"9.9.9.9.9.9.9.9.9.9.9.9.9.9.8.8.0.8.K d ..{ #.<.w.1.<.@.{ ..8 L 8.9.9.9.9.9.9.9.9.9.9.9.9.9.9.9.9.9.",
"9.9.9.9.9.8.9.9.9.9.9.9.9.9.0.8.8.K x W &.+.&.<.1.1.<.&.+.&.E S K 8.9.9.9.9.9.9.9.9.9.9.9.9.9.9.9.9.",
"9.9.9.9.9.9.9.9.9.9.9.9.9.9.9.9.6.n g k +.A k ..,.,...k V %.k g n 6.q.9.9.9.9.9.9.9.9.9.9.9.9.9.9.9.",
"9.9.9.9.9.9.9.9.9.8.q.8.9.9.9.0.8.K x W $.C w 8 @.@.8 w A ] W x K 8.9.9.8.9.9.9.9.9.9.9.9.9.9.9.9.9.",
"9.9.9.9.9.9.9.9.9.9.9.9.9.9.9.8.9.9.I 7 h t.y.v *.=.v y.t.h 7 I 8.q.8.9.9.9.9.9.9.9.9.9.9.9.9.9.9.9.",
"9.9.9.9.9.9.9.9.8.9.9.9.9.9.9.9.9.9.I 2 u 3.u.T p.p.T u.3.u 2 J 8.8.9.9.9.9.9.9.9.9.9.9.9.9.9.9.9.9.",
"9.9.9.9.9.9.9.9.9.9.9.9.9.9.9.9.8.I x A ) l 2.i.a.a.i.2.l ) A x K 8.9.9.9.9.9.9.9.9.9.9.9.9.9.9.9.9.",
"9.9.9.9.9.9.9.9.9.9.9.9.9.9.9.0.5.y Q l ` ( D T N G T F ( $.l W b 5.0.9.9.9.9.9.9.9.9.9.9.9.9.9.9.9.",
"9.9.9.9.9.9.9.9.9.9.9.9.9.9.9.0.P 6 ^ ) g -.` f # # s ..%.j ) ( 7 P 0.8.9.9.9.9.9.9.9.9.9.9.9.9.9.9.",
"9.9.9.9.9.9.9.9.9.9.9.9.9.9.9.0.P > c | - %.1.-.+.X.#.<.%.- | z > Y q.8.9.9.9.9.9.9.9.9.9.9.9.9.9.9.",
"9.9.9.9.9.9.9.9.9.9.9.9.9.9.9.0.P G R q * ' -.%.;.:.<.1.%.* q R N 4.9.9.9.9.9.9.9.9.9.9.9.9.9.9.9.9.",
"9.9.9.9.9.9.9.9.9.9.9.9.9.9.9.9.7.Y M . * O.j i -.<.:.1.-.# O e Y 7.9.9.9.9.9.9.9.9.9.9.9.9.9.9.9.9.",
"9.9.9.9.9.9.9.9.9.9.9.9.9.9.9.9.q.8.H O o ^ V 1 -.e.>.-.^ = + H 9.9.9.9.9.9.9.9.9.9.9.9.9.9.9.9.9.9.",
"9.9.9.9.9.9.9.9.9.9.9.9.8.9.9.9.9.q.5.+   * * * / -._ p - - & 5.9.9.9.9.9.9.9.9.9.9.9.9.9.9.9.9.9.9.",
"9.9.9.9.9.9.9.9.9.9.9.9.9.9.9.9.9.9.6.,         o * * 1 1 X , 5.0.9.9.9.9.9.9.9.9.9.9.9.9.9.9.9.9.9.",
"9.9.9.9.9.9.9.9.9.9.9.9.9.9.9.9.9.9.7.L : +           . $ , L 9.9.9.9.9.9.9.9.9.9.9.9.9.9.9.9.9.9.9.",
"9.9.9.9.9.9.9.9.9.9.9.9.9.9.9.9.9.9.9.8.6.K < % % % % < J 6.8.9.9.9.9.9.9.9.9.9.9.9.9.9.9.9.9.9.9.9.",
"9.9.9.9.9.9.9.9.9.9.9.9.9.9.9.9.9.9.9.9.9.7.5.4.P Y Y 5.9.9.9.9.9.9.9.9.9.9.9.9.9.9.9.9.9.9.9.9.9.9.",
"9.9.9.9.9.9.9.9.9.9.9.9.9.9.9.9.9.9.9.9.9.9.9.q.0.0.q.0.9.9.9.9.9.9.9.9.9.9.9.9.9.9.9.9.9.9.9.9.9.9.",
"9.9.9.9.9.9.9.9.9.9.9.9.9.9.9.9.9.9.9.9.9.9.9.9.9.9.8.9.9.9.9.9.9.9.9.9.9.9.9.9.9.9.9.9.9.9.9.9.9.9.",
"9.9.9.9.9.9.9.9.9.9.9.9.9.9.9.9.9.9.9.9.9.9.9.9.9.9.9.9.9.9.9.9.9.9.9.9.9.9.9.9.9.9.9.9.9.9.9.9.9.9.",
"9.9.9.9.9.9.9.9.9.9.9.9.9.9.9.9.9.9.9.9.9.9.9.9.9.9.9.9.9.9.9.9.9.9.9.9.9.9.9.9.9.9.9.9.9.9.9.9.9.9.",
"9.9.9.9.9.9.9.9.9.9.9.9.9.9.9.9.9.9.9.9.9.9.9.9.9.9.9.9.9.9.9.9.9.9.9.9.9.9.9.9.9.9.9.9.9.9.9.9.9.9.",
"9.9.9.9.9.9.9.9.9.9.9.9.9.9.9.9.9.9.9.9.9.9.9.9.9.9.9.9.9.9.9.9.9.9.9.9.9.9.9.9.9.9.9.9.9.9.9.9.9.9.",
"9.9.9.9.9.9.9.9.9.9.9.9.9.9.9.9.9.9.9.9.9.9.9.9.9.9.9.9.9.9.9.9.9.9.9.9.9.9.9.9.9.9.9.9.9.9.9.9.9.9.",
"9.9.9.9.9.9.9.9.9.9.9.9.9.9.9.9.9.9.9.9.9.9.9.9.9.9.9.9.9.9.9.9.9.9.9.9.9.9.9.9.9.9.9.9.9.9.9.9.9.9.",
"9.9.9.9.9.9.9.9.9.9.9.9.9.9.9.9.9.9.9.9.9.9.9.9.9.9.9.9.9.9.9.9.9.9.9.9.9.9.9.9.9.9.9.9.9.9.9.9.9.9.",
"9.9.9.9.9.9.9.9.9.9.9.9.9.9.9.9.9.9.9.9.9.9.9.9.9.9.9.9.9.9.9.9.9.9.9.9.9.9.9.9.9.9.9.9.9.9.9.9.9.9.",
"9.9.9.9.9.9.9.9.9.9.9.9.9.9.9.9.9.9.9.9.9.9.9.9.9.9.9.9.9.9.9.9.9.9.9.9.9.9.9.9.9.9.9.9.9.9.9.9.9.9.",
"9.9.9.9.9.9.9.9.9.9.9.9.9.9.9.9.9.9.9.9.8.9.9.9.9.9.9.9.9.9.9.9.9.9.9.9.9.9.9.9.9.9.9.9.9.9.9.9.9.9."
};
