/* XPM */
static char *good_work[] = {
/* columns rows colors chars-per-pixel */
"50 50 154 2 ",
"   c #000000",
".  c #0B0104",
"X  c #0F0409",
"o  c #130104",
"O  c #1A0105",
"+  c #150209",
"@  c #1B020B",
"#  c #1D0711",
"$  c #1B0811",
"%  c #250103",
"&  c #2C0103",
"*  c #23020D",
"=  c #2A010B",
"-  c #340104",
";  c #3A0104",
":  c #360109",
">  c #3C020C",
",  c #250612",
"<  c #2D0313",
"1  c #220915",
"2  c #2D0917",
"3  c #2D0E1D",
"4  c #350317",
"5  c #3A0215",
"6  c #360419",
"7  c #3C0419",
"8  c #320B1A",
"9  c #3B091D",
"0  c #3F0520",
"q  c #320F20",
"w  c #3D0C21",
"e  c #3C1124",
"r  c #430105",
"t  c #4A0105",
"y  c #43010A",
"u  c #4B010B",
"i  c #560105",
"p  c #5E0104",
"a  c #54010B",
"s  c #430215",
"d  c #4C0213",
"f  c #43031D",
"g  c #4B031F",
"h  c #44081F",
"j  c #540214",
"k  c #5A0113",
"l  c #55011B",
"z  c #5B011F",
"x  c #650104",
"c  c #6D0105",
"v  c #720104",
"b  c #7A0106",
"n  c #7E020D",
"m  c #680214",
"M  c #750216",
"N  c #740219",
"B  c #7A0219",
"V  c #460421",
"C  c #4A0322",
"Z  c #440C23",
"A  c #490A25",
"S  c #4F0F2B",
"D  c #540322",
"F  c #5A0223",
"G  c #530A25",
"H  c #5E0228",
"J  c #510B2B",
"K  c #431229",
"L  c #4B142D",
"P  c #53142E",
"I  c #5C0F31",
"U  c #4E1631",
"Y  c #541530",
"T  c #561A37",
"R  c #62062E",
"E  c #6A032A",
"W  c #610B2C",
"Q  c #68092E",
"!  c #7C022F",
"~  c #700330",
"^  c #7C0435",
"/  c #780B36",
"(  c #740538",
")  c #7D0F3A",
"_  c #661435",
"`  c #6E1339",
"'  c #61193A",
"]  c #7C0B40",
"[  c #6C1D42",
"{  c #78224A",
"}  c #8C0206",
"|  c #84010C",
" . c #940105",
".. c #9C0206",
"X. c #93010C",
"o. c #9C010B",
"O. c #820211",
"+. c #890115",
"@. c #85021D",
"#. c #89021D",
"$. c #920214",
"%. c #990213",
"&. c #93021C",
"*. c #9B021C",
"=. c #A4020E",
"-. c #AB0214",
";. c #A6021A",
":. c #BD0216",
">. c #9C0221",
",. c #830234",
"<. c #8F023E",
"1. c #96033F",
"2. c #9F023E",
"3. c #A50222",
"4. c #AB0223",
"5. c #C10225",
"6. c #8B0D46",
"7. c #960442",
"8. c #9D0240",
"9. c #940F44",
"0. c #9C074C",
"q. c #9D084F",
"w. c #8B1744",
"e. c #8B1945",
"r. c #8B154C",
"t. c #821E48",
"y. c #981849",
"u. c #9B1150",
"i. c #A60244",
"p. c #AA0246",
"a. c #A2054F",
"s. c #AF044E",
"d. c #A60751",
"f. c #AF0451",
"g. c #B20655",
"h. c #BA0351",
"j. c #AE195A",
"k. c #B3165F",
"l. c #862653",
"z. c #8A2656",
"x. c #952A5E",
"c. c #A4265E",
"v. c #AF1C60",
"b. c #B71E64",
"n. c #AA2664",
"m. c #AB2C66",
"M. c #B32D67",
"N. c #B32B6B",
"B. c #CC035D",
"V. c #C90F63",
"C. c #C31265",
"Z. c #CC136A",
"A. c #D62277",
"S. c #DD2278",
/* pixels */
"                                                                                                    ",
"                                                                                                    ",
"                                                                                                    ",
"                                                                                                    ",
"                                                                                                    ",
"                                                                                                    ",
"                                                                                                    ",
"                                                                                                    ",
"                                                                                                    ",
"                                                                                                    ",
"                                                                                                    ",
"                                                                                                    ",
"                              . O     X - - & o O o % o % - & o O .                                 ",
"                              & p o   & .. .c r b r v t }  .v ; x %                                 ",
"                              - b O   - o.; O ; ..t  .i ..t O & b -                                 ",
"                              - b O   : =.;   - %.t X.a X.t   % | &                                 ",
"                              ; n O   : :.n o - %.u $.a -.$.O & | =                                 ",
"                              : | o   : ;.;   & %.M $.a *.r   % +.:                                 ",
"                              : &.u = > 4.d = o N 5.m : 3.k = : &.k = .                             ",
"                              & &.3.N > 4.4.B @ = &.* = >.4.#.> #.>.B O                             ",
"                              . O @ O   O * O     O     o O O . o % O                               ",
"                                                                                                    ",
"                                                                                                    ",
"                                                                                                    ",
"                    . .     .       + + +     .   . + + .   + + o . . +                             ",
"                  . s l = = z .   4 8.i.^ + 7 ,., * 7.p.F , 1.p.,.5 ! ! =   . 7 O                   ",
"                  * l d f f ! +   C s.H 6 + ^ V.H 6 f.7.7.C h.~ 7 4 2.,.D . . l *                   ",
"                  < l O O s ! o   C d.4   4 d.q.q.A d.( 0.D g.V   * 1.D E , . z *                   ",
"                  < l .   7 ^ +   C V.6.. 0 C.C.C.J Z.Z.] 6 Z.u., @ 7.f E < . D *                   ",
"                  = D . . 6 / +   A j.A   w v.r.v.J A.S.Z 1 b.I X @ 9.Z Q , . D *                   ",
"                  2 G 7 7 h ) , + S c.Z + K n.' n.Y N.N.[ q N.L + 1 y.` W + . * .                   ",
"                  + G W 6 8 w.w._ P M.m.{ U l.T x.U x.[ l.e m.m.t.9 e.w.6   . 9 @                   ",
"                    @ , . + 8 w 8 # e L e # 3 $ q $ 3 $ 3 $ e U K @ 2 2 X     * X                   ",
"                                                                                                    ",
"                                                                                                    ",
"                                                                                                    ",
"                                                                                                    ",
"                                                                                                    ",
"                                                                                                    ",
"                                                                                                    ",
"                                                                                                    ",
"                                                                                                    ",
"                                                                                                    ",
"                                                                                                    ",
"                                                                                                    ",
"                                                                                                    ",
"                                                                                                    ",
"                                                                                                    ",
"                                                                                                    ",
"                                                                                                    "
};
