/* XPM */
static char *item[] = {
/* columns rows colors chars-per-pixel */
"50 50 223 2 ",
"   c #330E28",
".  c #28182D",
"X  c #28383B",
"o  c #3D3138",
"O  c #3C3338",
"+  c #3D3439",
"@  c #39333C",
"#  c #3F3C38",
"$  c #4E0D28",
"%  c #442133",
"&  c #442432",
"*  c #572431",
"=  c #562D36",
"-  c #5B2B31",
";  c #512138",
":  c #46323A",
">  c #413439",
",  c #45363B",
"<  c #49373A",
"1  c #443A3C",
"2  c #5C3031",
"3  c #5D3338",
"4  c #5F393A",
"5  c #612731",
"6  c #64253C",
"7  c #673638",
"8  c #733E37",
"9  c #595038",
"0  c #3A3940",
"q  c #5D2C47",
"w  c #523A45",
"e  c #51364A",
"r  c #5C3149",
"t  c #2F4541",
"y  c #314B43",
"u  c #365D4B",
"i  c #514749",
"p  c #674756",
"a  c #684456",
"s  c #437154",
"d  c #457254",
"f  c #457354",
"g  c #407455",
"h  c #437757",
"j  c #447756",
"k  c #477756",
"l  c #437A57",
"z  c #447857",
"x  c #477A58",
"c  c #467B5A",
"v  c #417F5A",
"b  c #477D58",
"n  c #5E7957",
"m  c #B71636",
"M  c #BB1A33",
"N  c #A02930",
"B  c #B82331",
"V  c #BD2431",
"C  c #BB2E32",
"Z  c #B92E36",
"A  c #BF3233",
"S  c #BE3A34",
"D  c #EB173A",
"F  c #F31E34",
"G  c #F11F3B",
"H  c #C32E31",
"J  c #DC2733",
"K  c #DD3132",
"L  c #D83435",
"P  c #ED273A",
"I  c #F72735",
"U  c #F42935",
"Y  c #F52A35",
"T  c #F72F34",
"R  c #E23035",
"E  c #E23234",
"W  c #F63734",
"Q  c #F73830",
"!  c #FC3D34",
"~  c #FD3F36",
"^  c #F13B3F",
"/  c #C14333",
"(  c #C34831",
")  c #C54138",
"_  c #DC4034",
"`  c #DC4E37",
"'  c #D14A3D",
"]  c #F64835",
"[  c #FB4834",
"{  c #F84937",
"}  c #FA4936",
"|  c #F84A36",
" . c #FE4937",
".. c #FE4E36",
"X. c #FA4A38",
"o. c #E35134",
"O. c #E25F31",
"+. c #FE5236",
"@. c #FF5436",
"#. c #FD5737",
"$. c #FF5736",
"%. c #FD5836",
"&. c #FE5936",
"*. c #FE5837",
"=. c #FF5937",
"-. c #FD5C37",
";. c #FD5F37",
":. c #F65C3B",
">. c #F7593C",
",. c #C27A2F",
"<. c #D76233",
"1. c #F7722F",
"2. c #FE6734",
"3. c #FC6437",
"4. c #FE6932",
"5. c #FE6D32",
"6. c #FF6B35",
"7. c #FE673B",
"8. c #F97530",
"9. c #FF7E37",
"0. c #A73149",
"q. c #DC2449",
"w. c #D9294B",
"e. c #CE3841",
"r. c #D83450",
"t. c #D73857",
"y. c #DA3854",
"u. c #D53959",
"i. c #E32342",
"p. c #E02F48",
"a. c #E73C44",
"s. c #9E405C",
"d. c #BE4662",
"f. c #D5405D",
"g. c #EC4B44",
"h. c #F64142",
"j. c #F75042",
"k. c #FE6541",
"l. c #42805A",
"z. c #46815B",
"x. c #44835C",
"c. c #44835D",
"v. c #47825C",
"b. c #45855C",
"n. c #45865E",
"m. c #49835D",
"M. c #47885F",
"N. c #48885E",
"B. c #49895E",
"V. c #508B5F",
"C. c #478C60",
"Z. c #488D60",
"A. c #488D61",
"S. c #5A8469",
"D. c #5B876A",
"F. c #4E9563",
"G. c #4D9764",
"H. c #4E9664",
"J. c #4E9764",
"K. c #4F9765",
"L. c #4B9864",
"P. c #4B9865",
"I. c #4D9864",
"U. c #4E9865",
"Y. c #4F9865",
"T. c #4E9965",
"R. c #4F9965",
"E. c #4D9A64",
"W. c #4E9A64",
"Q. c #4E9A65",
"!. c #4E9B65",
"~. c #4F9B65",
"^. c #4F9866",
"/. c #4F9B66",
"(. c #4F9A67",
"). c #519967",
"_. c #509A66",
"`. c #509B66",
"'. c #519B66",
"]. c #509C66",
"[. c #509C67",
"{. c #519C67",
"}. c #509D67",
"|. c #519D67",
" X c #519C68",
".X c #529D68",
"XX c #529C69",
"oX c #539D69",
"OX c #519E68",
"+X c #529E68",
"@X c #529F68",
"#X c #549E6A",
"$X c #5DA171",
"%X c #5DA271",
"&X c #68A47A",
"*X c #68A77A",
"=X c #68A77B",
"-X c #68A97B",
";X c #6AA97C",
":X c #FF892E",
">X c #F78533",
",X c #E59434",
"<X c #FF9238",
"1X c #FFA93D",
"2X c #C29240",
"3X c #DD9452",
"4X c #ED8449",
"5X c #FFA044",
"6X c #FFAF4D",
"7X c #FFBB57",
"8X c #F9CB58",
"9X c #FFD35A",
"0X c #7D8181",
"qX c #71A581",
"wX c #70AA80",
"eX c #818184",
"rX c #929E9C",
"tX c #929F9C",
"yX c #93A89E",
"uX c #92AC9E",
"iX c #96A3A0",
"pX c #98A6A1",
"aX c #A0BEA9",
/* pixels */
"`.`.`.`.`.`.`.`.`.`.`.`.`.`.`.`.`.`.`.`.`.`.`.`.`.`.`.`.`.`.`.`.`.`.`.`.`.`.`.`.`.`.`.`.`.`.`.`.`.`.",
"`.`.`.`.`.`.`.`.`.`.`.`.`.~.`.`.`.`.`.`.`.`.`.`.`.`.`.`.`.`.`.`.`.`.`.`.`.`.`.`.`.`.`.`.`.`.`.`.`.`.",
"`.`.`.`.`.`.`.`.`.`.`.`.`.`.`.`.`.`.`.`.`.`.`.`.`.`.`.`.`.`.`.`.`.`.`.`.`.`.`.`.`.`.`.`.`.`.`.`.`.`.",
"`.`.`.`.`.`.`.`.`.`.`.`.`.`.`.`.`.`.`.`.`.`.`.`.`.`.`.`.`.`.`.`.`.`.`.`.`.`.`.`.`.`.`.`.`.`.`.`.`.`.",
"`.`.`.`.`.`.`.`.`.`.`.`.`.`.`.`.`.`.`.`.`.`.`.`.`.`.`.`.`.`.`.`.`.`.`.`.`.`.`.`.`.`.`.`.`.`.`.`.`.`.",
"`.`.`.`.`.`.`.`.`.`.`.`.`.`.`.`.`.`.`.`.`.`.`.`.`.`.`.`.`.`.`.`.`.`.`.`.`.`.`.`.`.`.`.`.`.`.`.`.`.`.",
"`.`.`.`.`.`.`.`.`.`.`.`.`.`.`.`.`.`.`.`.`.`.`.`.`.`.`.`.`.`.`.`.`.`.`.`.`.`.`.`.`.`.`.`.`.`.`.`.`.`.",
"`.`.`.`.`.`.`.`.`.`.`.`.`.`.`.`.`.`.`.`.`.`.`.`.`.`.`.`.`.`.`.`.`.`.`.`.`.`.`.`.`.`.`.`.`.`.`.`.`.`.",
"`.`.`.`.`.`.`.`.`.`.`.`.`.`.`.`.`.`.`.`.`.`.`.`.`.`.`.`.`.`.`.`.`.`.`.`.`.`.`.`.`.`.`.`.`.`.`.`.`.~.",
"`.`.`.`.`.`.`.`.`.`.`.`.`.`.`.`.`.`.`.`.`.`.`.`.`.`.`.`.`.`.`.`.`.`.`.`.`.`.`.`.`.`.`.`.`.`.`.`.`.`.",
"`.`.`.`.`.`.`.`.`.`.`.`.`.`.`.`.`.`.`.`.`.`.`.`.`.`.`.`.`.`.`.`.`.`.`.`.`.`.`.`.`.`.`.`.`.`.`.`.`.`.",
"`.`.`.`.`.`.`.`.`.`.`.`.`.`.`.`.`.`.`.`.`.`.`.`.`.`.`.`.`.`.`.`.`.`.`.`.`.`.`.`.`.`.`.`.`.`.`.`.`.`.",
"`.`.`.`.`.`.`.`.`.`.`.`.`.`.`.`.`.`.`.`.`.`.`.`.`.`.`.`.`.`.`.`.`.`.`.`.`.`.`.`.`.`.`.`.`.`.`.`.`.`.",
"`.`.`.`.`.`.`.`.`.`.`.`.`.`.`.`.`.`.`.`.`.`.`.`.`.`.`.`.`.`.`.`.`.`.`.`.`.`.`.`.`.`.`.`.`.`.`.`.`.`.",
"`.`.`.`.`.`.`.`.`.`.`.`.`.`.`.`.`.`.`.`.`.`.`.`.`.`.`.`.`.`.~.`.`.`.`.`.`.`.`.`.`.`.`.`.`.`.`.`.`.`.",
"`.`.`.`.`.`.`.`.`.`.`.`.`.`.`.`.`.`.`.`.`.{.{.{.{.`.`.`.`.`.{.`.`.`.`.`.`.`.`.`.`.`.`.`.`.`.`.`.`.`.",
"`.`.`.`.`.`.`.`.`.`.`.`.`.`.`.`.`.`.`.`.{.F.z.m.`.{.~.~.{.~.~.~.`.`.`.`.`.`.`.`.`.`.`.`.`.`.`.`.`.`.",
"`.`.`.`.`.`.`.`.`.`.`.`.`.`.`.`.`.`.`.`.{.B.y t z I.@X~.{.{.~.{.`.`.`.`.`.`.`.`.`.`.`.`.`.`.`.`.`.`.",
"`.`.`.`.`.`.`.`.`.`.`.`.`.`.`.`.`.`.`.`.{.I.z.u X f M.F.{.{.{.`.`.`.`.`.`.`.`.`.`.`.`.`.`.`.`.`.`.`.",
"`.`.`.`.`.`.`.`.`.`.`.`.`.`.`.`.`.`.~.{.~.B.z 1   . O j B.~.`.`.`.`.`.`.`.`.`.`.`.`.`.`.`.`.`.`.`.`.",
"`.`.`.`.`.`.`.`.`.`.`.`.`.`.`.`.~.~.}.}.h @ 5 ( B $ N 5 + l ~.{.{.~.{.`.`.`.`.`.`.`.`.`.`.`.`.`.`.`.",
"`.`.`.`.`.`.`.`.`.`.`.`.`.`.`.`.{.~.}.b w 0.` 1.' 8 <.o.A 3 f ~.~.~.~.`.`.`.`.`.`.`.`.`.`.`.`.`.`.`.",
"`.`.`.`.`.`.`.`.`.`.`.`.`.`.`.~.{.{.M.@ s.r.a.:.4X3X>X6.{ H 4 B.{.{.`.`.`.`.`.`.`.`.`.`.`.`.`.`.`.`.",
"`.`.`.`.`.`.`.`.`.`.`.`.`.`.`.`.{.L.f ; d.f.y.p.a.h.{ @. . .) n L.`.`.`.`.`.`.`.`.`.`.`.`.`.`.`.`.`.",
"`.`.`.`.`.`.`.`.`.`.`.`.`.`.`.`.{.b.: m w.u.t.q.D F I ! %.%._ < b.{.{.`.`.`.`.`.`.`.`.`.`.`.`.`.`.`.",
"`.`.`.`.`.`.`.`.`.`.`.`.`.`.`.`.@Xl.% J G i.P U Y T ! ..%.@.K % l.@X`.`.`.`.`.`.`.`.`.`.`.`.`.`.`.`.",
"`.`.`.`.`.`.`.`.`.`.`.`.`.`.`.`.@Xn.1 S W Q X.k.7.5.6.%.;.{ C , z.{.`.`.`.`.`.`.`.`.`.`.`.`.`.`.`.`.",
"`.`.`.`.`.`.`.`.`.`.`.`.`.`.`.`.`.~.d - O.<X6X7X5X:X4.@.%.E * d J.`.`.`.`.`.`.`.`.`.`.`.`.`.`.`.`.`.",
"`.`.`.`.`.`.`.`.`.`.`.`.`.`.`.`.`.{.B.# ,.8X9X1X9.3.>.;.] V o B.+X`.`.`.`.`.`.`.`.`.`.`.`.`.`.`.`.`.",
"`.`.`.`.`.`.`.`.`.`.`.`.`.`.`.`.`.`.~.b 9 2X,X8.%.j.g.R M = z `.{.`.`.`.`.`.`.`.`.`.`.`.`.`.`.`.`.`.",
"`.`.`.`.`.`.`.`.`.`.`.`.`.`.`.`.`.`.~.XXS.i 7 / L e.Z 6 e S.{.{.`.`.`.`.`.`.`.`.`.`.`.`.`.`.`.`.`.`.",
"`.`.`.`.`.`.`.`.`.`.`.`.`.`.`.`.`.`.K.%XaXyX0Xa q r a eXpXaX%X`.`.`.`.`.`.`.`.`.`.`.`.`.`.`.`.`.`.`.",
"`.`.`.`.`.`.`.`.`.`.`.`.`.`.`.`.`.`.`.XX=X=XwXuXtXtXyXqX;X&X{.`.`.`.`.`.`.`.`.`.`.`.`.`.`.`.`.`.`.`.",
"`.`.`.`.`.`.`.`.`.`.`.`.`.`.`.`.`.`.`.`.~.I.oX*X;X;X;XoXI.I.`.`.`.`.`.`.`.`.`.`.`.`.`.`.`.`.`.`.`.`.",
"`.`.`.`.`.`.`.`.`.`.`.`.`.`.`.`.`.`.`.`.`.`.`.~.I.I.I.{.`.`.`.`.`.`.`.`.`.`.`.`.`.`.`.`.`.`.`.`.`.`.",
"`.`.`.`.`.`.`.`.`.`.`.`.`.`.`.`.`.`.`.`.~.`.`.`.{.{.~.{.`.`.`.`.`.`.`.`.`.`.`.`.`.`.`.`.`.`.`.`.`.`.",
"`.`.`.`.`.`.`.`.`.`.`.`.`.`.`.`.`.`.`.`.`.`.`.`.~.{._.`.`.`.`.`.`.`.`.`.`.`.`.`.`.`.`.`.`.`.`.`.`.`.",
"`.`.`.`.`.`.`.~.`.`.`.`.`.`.`.`.`.`.`.`.`.`.`.`.{.I.I.`.`.`.`.`.`.`.`.`.`.`.`.`.`.`.`.`.`.`.`.`.`.`.",
"`.`.`.`.`.`.`.`.`.`.`.`.`.`.`.`.`.`.`.`.`.`.`.`.{.{.`.`.`.`.`.`.`.`.`.`.`.`.`.`.`.`.`.`.`.`.`.`.`.`.",
"`.`.`.`.`.`.`.`.`.`.`.`.`.`.`.`.`.`.`.`.`.`.`.`.{.!.`.`.`.`.`.`.`.`.`.`.`.`.`.`.`.`.`.`.`.`.`.`.`.`.",
"`.`.`.`.`.`.`.`.`.`.`.`.`.`.`.`.`.`.`.`.`.`.`.`.`.`.`.`.`.`.`.`.`.`.`.`.`.`.`.`.`.`.`.`.`.`.`.`.`.`.",
"`.`.`.`.`.`.`.`.`.`.`.`.`.`.`.`.`.`.`.`.`.`.`.`.`.`.`.`.`.`.`.`.`.`.`.`.`.`.`.`.`.`.`.`.`.`.`.`.`.`.",
"`.`.`.`.`.`.`.`.`.`.`.`.`.`.`.`.`.`.`.`.`.`.`.`.`.`.`.`.`.`.`.`.`.`.`.`.`.`.`.`.`.`.`.`.`.`.`.`.`.`.",
"`.`.`.`.`.`.`.`.`.`.`.`.`.`.`.`.`.`.`.`.`.`.`.`.`.`.`.`.`.`.`.`.`.`.`.`.`.`.`.`.`.`.`.`.`.`.`.`.`.`.",
"`.`.`.`.`.`.`.`.`.`.`.`.`.`.`.`.`.`.`.`.`.`.`.`.`.`.`.`.`.`.`.`.`.`.`.`.`.`.`.`.`.`.`.`.`.`.`.`.`.`.",
"`.`.`.`.`.`.`.`.`.`.`.`.`.`.`.`.`.`.`.`.`.`.`.`.`.`.`.`.`.`.`.`.`.`.`.`.`.`.`.`.`.`.`.`.`.`.`.`.`.`.",
"`.`.`.`.`.`.`.`.`.`.`.`.`.`.`.`.`.`.`.`.`.`.`.`.`.`.`.`.`.`.`.`.`.`.`.`.`.`.`.`.`.`.`.`.`.`.`.`.`.`.",
"`.`.`.`.`.`.`.`.`.`.`.`.`.`.`.`.`.`.`.`.`.`.`.`.`.`.`.`.`.`.K.`.`.`.`.`.`.`.`.`.`.`.`.`.`.`.`.`.`.`.",
"`.`.`.`.`.`.`.`.`.`.`.`.`.`.`.`.`.`.`.`.`.`.`.`.`.`.`.`.`.`.`.`.`.`.`.`.`.`.`.`.`.`.`.`.`.`.`.`.`.`.",
"`.`.`.`.`.`.`.`.`.`.`.`.`.`.`.`.`.`.`.`.`.`.`.`.`.`.`.`.`.`.`.`.`.`.`.`.`.`.`.`.`.`.`.`.`.`.`.`.`.`."
};
