/* XPM */
static char * wall_xpm[] = {
"50 50 124 2",
"  	c #509B66",
". 	c #1B201A",
"+ 	c #0D1B12",
"@ 	c #1B3323",
"# 	c #2A7B45",
"$ 	c #12321C",
"% 	c #287448",
"& 	c #1D733C",
"* 	c #2B7442",
"= 	c #2A6D3E",
"- 	c #1E6C3A",
"; 	c #0C4C23",
"> 	c #1B5A2E",
", 	c #1C7237",
"' 	c #1E4C32",
") 	c #15532B",
"! 	c #194C25",
"~ 	c #134B25",
"{ 	c #0E5124",
"] 	c #145325",
"^ 	c #1B3C2A",
"/ 	c #132C1B",
"( 	c #1A532D",
"_ 	c #1C5C32",
": 	c #1C6334",
"< 	c #285B35",
"[ 	c #1A341E",
"} 	c #0B190E",
"| 	c #0B150D",
"1 	c #1E6438",
"2 	c #236C3B",
"3 	c #227A3E",
"4 	c #225B34",
"5 	c #226235",
"6 	c #155A2E",
"7 	c #2F6744",
"8 	c #132419",
"9 	c #1D5631",
"0 	c #1B4325",
"a 	c #164C29",
"b 	c #10431E",
"c 	c #121B15",
"d 	c #1C442A",
"e 	c #0E481F",
"f 	c #155826",
"g 	c #22592C",
"h 	c #1B4B2A",
"i 	c #1B3C23",
"j 	c #23733D",
"k 	c #1E7A3D",
"l 	c #1C6A35",
"m 	c #277E48",
"n 	c #285938",
"o 	c #2D7C4A",
"p 	c #258143",
"q 	c #17612E",
"r 	c #288042",
"s 	c #224D31",
"t 	c #144628",
"u 	c #134424",
"v 	c #235433",
"w 	c #267642",
"x 	c #247B42",
"y 	c #306943",
"z 	c #0E4422",
"A 	c #24643A",
"B 	c #1C2B21",
"C 	c #2B633D",
"D 	c #0C441C",
"E 	c #0D2815",
"F 	c #0D3C1B",
"G 	c #223726",
"H 	c #132215",
"I 	c #317A4A",
"J 	c #156231",
"K 	c #161E1A",
"L 	c #236D40",
"M 	c #2C6F43",
"N 	c #214B2D",
"O 	c #123C1E",
"P 	c #143C23",
"Q 	c #212E27",
"R 	c #121312",
"S 	c #0E1411",
"T 	c #2A4529",
"U 	c #304E3D",
"V 	c #172C20",
"W 	c #223429",
"X 	c #2A8249",
"Y 	c #181A19",
"Z 	c #265C39",
"` 	c #26432F",
" .	c #1A2C1D",
"..	c #0E572D",
"+.	c #285234",
"@.	c #0D2313",
"#.	c #0D3319",
"$.	c #274531",
"%.	c #253E25",
"&.	c #0B3216",
"*.	c #0E3917",
"=.	c #2E492C",
"-.	c #153421",
";.	c #133B28",
">.	c #021305",
",.	c #23321F",
"'.	c #33492F",
").	c #061409",
"!.	c #2A2D1F",
"~.	c #3D4630",
"{.	c #0F2318",
"].	c #392820",
"^.	c #544B3A",
"/.	c #5C4539",
"(.	c #2D3625",
"_.	c #3B261D",
":.	c #624439",
"<.	c #43342B",
"[.	c #221614",
"}.	c #6A4737",
"|.	c #4E3226",
"1.	c #241812",
"2.	c #5E4237",
"3.	c #473127",
"                                                                                                    ",
"                                                                                                    ",
"                                                                                                    ",
"                                                . +                                                 ",
"                                              @ # # $                                               ",
"                                            $ % & * * $                                             ",
"                                          $ = - ; > , = @                                           ",
"                                          ' ) ; ! ~ { ] ^                                           ",
"                                          / ( ( _ : < [ }                                           ",
"                                        | 1 # 2 ) 2 3 = $                                           ",
"                                        4 * 5 6 ; ( 5 - 7 8                                         ",
"                                      } 9 ~ 0 a ; b ! ; ( 8                                         ",
"                                      c d e f 4 > g > h d c                                         ",
"                                      } i j k 2 l 3 m 1 [                                           ",
"                                    } n o p 3 , q 3 r r * s c                                       ",
"                                  } t 2 p 3 l ( ] 5 j 3 m 2 u }                                     ",
"                                  v w x k - ) ~ ! ; 1 j 3 3 w h                                     ",
"                                @ y l l _ 6 z ~ ~ t ! 6 6 _ l A B                                   ",
"                                $ C ] a a z D > u ! D ] ~ ) 6 v .                                   ",
"                                E t F z u D ( > ( _ D > 2 f ! $                                     ",
"                                8 d t _ A ; : > ) 5 D * p 3 j h c                                   ",
"                              | @ h v o # 6 - ) ] 1 f w p p x ( G H                                 ",
"                              c 9 I # x x j _ a ~ > > 2 k x p # 2 i }                               ",
"                            E < # x k & l _ ! t t ) ~ 1 l j & , # * h }                             ",
"                          | d * 2 j 2 - f ( t z z ! ~ ( 6 J j j l l C @                             ",
"                          K 0 C A ( ( ( t z z 9 ~ ~ ! ~ t 9 ) L A M h +                             ",
"                          K N n O h O h t P a _ h h h b N 0 ! h O t d Q R                           ",
"                      R   S $ s d 0 O d P ! h _ u v N d ( : 5 A ! ! ^ +                             ",
"                      R S 8 @ T d u h 4 u N v 4 t 4 g O C l # * * v U V                             ",
"                        R W @ d b g 5 I u ( C 9 P ( 4 a A l j X # ( O / @ Y                         ",
"                        | / 9 = o # # w 2 9 Z ( ! h Z ] 1 w 3 # X j I Z ` .                         ",
"                        [ s j x # k x & L 6 9 u ! ! v ] 2 - j x 3 3 x o Z P |                       ",
"                    |  .4 m p 3 3 , 3 J 1 ; a D ; ! ! ; 5 ..- j & j , k # w @ K                     ",
"                    | v = j : j = q 2 a 9 z t F ! z D t ) ] _ 6 2 2 j 1 4 w +.W                     ",
"                    W u 5 2 2 ! : ] 6 ~ a u P 0 D a i t z ; a _ a 1 O 7 - _ 0 @.K                   ",
"                      N A 5 ~ > ! ; ~ D D O [ +.~ a #.i t z a a a a ! F _ C $.+                     ",
"                  R B [ 9 z a u t t z b u $ %.T t u i E P P d &.d i t t / 0 + Y Y                   ",
"                    H $ z a #.O P t O *.P @.[ =.) *.-.+ ;.-.@ >.>./ E d t #.c                       ",
"                    8 ;.^ S E P / / / #.$ @.,.'.t  .| E P &.|           @ @ V                       ",
"                  R   +     / -.).S   F i ).!.~.a  .  ).-.-.              H                         ",
"                          c 8 |       -.{.S ].^.d B   | . /                                         ",
"                                        c   ]./.(..     c                                           ",
"                                            _.:.<.[.                                                ",
"                                            _.}.|.1.                                                ",
"                                            _.}.|.1.                                                ",
"                                            _.}.|.1.                                                ",
"                                            _.}.|.1.                                                ",
"                                            _.2.3.[.                                                ",
"                                                                                                    ",
"                                                                                                    "};
